<svg xmlns="http://www.w3.org/2000/svg" width="136.464" height="120.604" viewBox="0 0 136.464 120.604">
  <g id="_12" data-name="12" transform="translate(-13.39 -10.93)">
    <g id="Capa_1" transform="translate(13.39 10.93)">
      <g id="Group_369" data-name="Group 369" transform="translate(64.796 76.552)">
        <path id="Path_369" data-name="Path 369" d="M294.46,272.266c0,.886,7.117,1.605,15.9,1.605s15.9-.719,15.9-1.605-7.117-1.605-15.9-1.605S294.46,271.379,294.46,272.266Z" transform="translate(-263.448 -236.606)" fill="#c4dae7"/>
        <path id="Path_370" data-name="Path 370" d="M203.48,273.685c0,.886,7.117,1.606,15.9,1.606s15.9-.719,15.9-1.606-7.117-1.605-15.9-1.605S203.48,272.8,203.48,273.685Z" transform="translate(-203.48 -237.542)" fill="#c4dae7"/>
        <path id="Path_371" data-name="Path 371" d="M272.61,282.263c0,.569,3.388,1.033,7.567,1.033s7.567-.46,7.567-1.033-3.388-1.033-7.567-1.033S272.61,281.69,272.61,282.263Z" transform="translate(-249.046 -243.573)" fill="#c4dae7"/>
        <g id="Group_365" data-name="Group 365" transform="translate(26.151)">
          <path id="Path_372" data-name="Path 372" d="M281.681,182.049c-.951-3.613,5.737-3.054,5.737-3.054a2.178,2.178,0,0,1-.337-1.65c.372-2.325,5.205-.552,5.975-2.284.385-.862-.075-3.6-1.145-4.063,1.513-.689,7.7-.157,8.045,5.226.668.041,1.231-.048,1.762.494.416.423.907,1.456.535,2.062,2.222-.191,2.066,2.488,2.12,4.442l-22.7-1.176Z" transform="translate(-281.115 -170.758)" fill="#ede7ca"/>
          <path id="Path_373" data-name="Path 373" d="M318.42,176.225c.668.041,1.231-.048,1.762.494.416.423.9,1.456.535,2.062,2.178-.187,2.069,2.379,2.117,4.319l2.338.119c-.055-1.95.1-4.632-2.12-4.442.368-.607-.119-1.636-.535-2.062-.532-.542-1.094-.457-1.762-.494-.314-4.97-5.614-5.805-7.615-5.362,2.291.372,5.055,1.813,5.28,5.362Z" transform="translate(-301.912 -170.756)" fill="#d0cbb2"/>
          <path id="Path_374" data-name="Path 374" d="M306.472,260.723c0,1.173-1.04,1.9-2.332,1.9H289.7c-1.473,0-2.332-.648-2.332-1.9V259.67a3.7,3.7,0,0,1,3.777-3.6H302.7a3.7,3.7,0,0,1,3.777,3.6Z" transform="translate(-284.926 -226.989)" fill="#c3305e"/>
          <path id="Path_375" data-name="Path 375" d="M281.8,206.8v18.69a2.966,2.966,0,0,0,2.822,3.075h17.262a2.966,2.966,0,0,0,2.822-3.075V206.8Z" transform="translate(-281.255 -194.514)" fill="#ea547a"/>
          <rect id="Rectangle_17" data-name="Rectangle 17" width="20.193" height="13.959" transform="translate(2.441 14.328)" fill="#e6e6d5"/>
          <rect id="Rectangle_18" data-name="Rectangle 18" width="2.41" height="20.047" transform="translate(19.133 12.876)" fill="#fff"/>
          <rect id="Rectangle_19" data-name="Rectangle 19" width="1.207" height="20.047" transform="translate(16.788 12.876)" fill="#fff"/>
          <path id="Path_376" data-name="Path 376" d="M287.193,223.509V212.151a7.552,7.552,0,0,1,1.963-5.341H281.8V225.5a2.966,2.966,0,0,0,2.822,3.075h17.262a2.847,2.847,0,0,0,2.635-1.987h-14.5a2.966,2.966,0,0,1-2.822-3.075Z" transform="translate(-281.255 -194.52)" fill="#e6d5de"/>
          <path id="Path_377" data-name="Path 377" d="M284.507,225.49V206.8H281.8v18.69a2.966,2.966,0,0,0,2.822,3.075h2.706A2.964,2.964,0,0,1,284.507,225.49Z" transform="translate(-281.255 -194.514)" fill="#e6d5de"/>
          <path id="Path_378" data-name="Path 378" d="M304.272,203.927a.7.7,0,0,1-.6.777H280.8a.7.7,0,0,1-.6-.777h0a.7.7,0,0,1,.6-.777h22.879a.7.7,0,0,1,.6.777Z" transform="translate(-280.2 -192.108)" fill="#ea547a"/>
          <path id="Path_379" data-name="Path 379" d="M280.27,206.02a.65.65,0,0,0,.573.579h22.879a.647.647,0,0,0,.573-.579H280.27Z" transform="translate(-280.246 -194)" fill="#e6d5de"/>
          <path id="Path_380" data-name="Path 380" d="M314.018,203.669a.254.254,0,0,1-.239.269H297.459a.254.254,0,0,1-.239-.269h0a.254.254,0,0,1,.239-.269h16.321a.256.256,0,0,1,.239.269Z" transform="translate(-291.418 -192.273)" fill="#fff"/>
          <g id="Group_364" data-name="Group 364" transform="translate(16.676 9.579)">
            <path id="Path_381" data-name="Path 381" d="M351.254,207.019c4.05,9.231-1.35,14.487-4.1,15.7-.569.249-1.878.825-2.945,1.292-4.905,2.151-10.792-1.49-13.614-7.925s-1.513-13.233,3.392-15.383c.856-.375,2.359-1.026,3.191-1.391s9.572-2.584,14.085,7.71Z" transform="translate(-329.123 -198.858)" fill="#b32c56"/>
            <path id="Path_382" data-name="Path 382" d="M356.2,207.521c2.754,6.279,1.009,13.113-3.9,15.268s-11.116-1.193-13.87-7.472-1.009-13.113,3.9-15.268S353.447,201.242,356.2,207.521Z" transform="translate(-334.4 -199.213)" fill="#ea547a"/>
            <path id="Path_383" data-name="Path 383" d="M358.764,212.5c2.209,5.038.726,10.56-3.317,12.333s-9.108-.876-11.317-5.914-.726-10.56,3.317-12.333S356.555,207.461,358.764,212.5Z" transform="translate(-338.34 -203.588)" fill="none" stroke="#fff" stroke-miterlimit="10" stroke-width="1"/>
            <path id="Path_384" data-name="Path 384" d="M353.81,224.636c-4.905,2.151-11.116-1.193-13.87-7.472a15.109,15.109,0,0,1-1.3-6.054c-1.865,3.136-2.072,7.659-.2,11.924,2.754,6.279,8.965,9.626,13.87,7.472,3.33-1.459,5.2-5.076,5.2-9.214a8.06,8.06,0,0,1-3.7,3.34Z" transform="translate(-334.402 -206.934)" fill="#e6d5de"/>
          </g>
          <path id="Path_385" data-name="Path 385" d="M315.75,174.492a.448.448,0,0,0-.774.45c.232.487.382.992.59,1.483.266.627-.13,1.108-.259,1.667a.206.206,0,0,0,.2.259c.678-.072.8-.978.828-1.527a3.764,3.764,0,0,0-.583-2.335Z" transform="translate(-303.087 -173.083)" fill="#eceae2"/>
          <path id="Path_386" data-name="Path 386" d="M302.694,187.555a3.1,3.1,0,0,0-1.135.014,2.72,2.72,0,0,0-1.081.32,1.2,1.2,0,0,0-.112,1.9.319.319,0,0,0,.539-.225c-.007-.252-.228-.617-.02-.822.167-.167.552-.16.767-.17a5.368,5.368,0,0,0,1.125-.068c.556-.153.375-.811-.082-.941Z" transform="translate(-293.221 -181.796)" fill="#eceae2"/>
          <path id="Path_387" data-name="Path 387" d="M289.994,195.885c-1.316-.487-5.072-.576-4.987,1.568a.128.128,0,0,0,.235.065c1.084-1.534,3.061-1.04,4.653-.91C290.335,196.646,290.355,196.022,289.994,195.885Z" transform="translate(-283.368 -187.131)" fill="#eceae2"/>
          <path id="Path_388" data-name="Path 388" d="M317.233,190.823a2.489,2.489,0,0,0-2.093-.344,1.278,1.278,0,0,0-.743.522,3.886,3.886,0,0,0-2.038-.133c-.876.17-1.888,1.22-1.19,2.1a.262.262,0,0,0,.412-.055c.123-.242.13-.559.3-.77a1.259,1.259,0,0,1,.862-.358,3.449,3.449,0,0,1,1.817.508c.406.174.948-.211.661-.661a1.234,1.234,0,0,0-.123-.143.745.745,0,0,1,.416-.157,2.442,2.442,0,0,1,1.268.266C317.216,191.777,317.571,191.116,317.233,190.823Z" transform="translate(-300.459 -183.701)" fill="#eceae2"/>
        </g>
        <g id="Group_367" data-name="Group 367" transform="translate(2.257 7.916)">
          <path id="Path_389" data-name="Path 389" d="M236.362,262.213c0,1.173-1.043,1.9-2.332,1.9H219.592c-1.469,0-2.332-.648-2.332-1.9V261.16a3.7,3.7,0,0,1,3.777-3.6h11.549a3.7,3.7,0,0,1,3.777,3.6Z" transform="translate(-214.819 -235.888)" fill="#d8511f"/>
          <g id="Group_366" data-name="Group 366" transform="translate(0.658)">
            <path id="Path_390" data-name="Path 390" d="M234.861,197.614c-.02-.235-.034-.477-.034-.726V195.51c0-1.152-.222-1.53-.821-1.53H213.274c-.828,0-1.22.3-1.22,1.53v1.377c0,.249-.01.491-.024.726Z" transform="translate(-212.03 -193.98)" fill="#b7b6b6"/>
            <path id="Path_391" data-name="Path 391" d="M214.469,200.079v-1.96c0-.222-.13-.4-.29-.4s-.29.177-.29.4v1.96h.583Z" transform="translate(-213.256 -196.445)" fill="#dedede"/>
            <path id="Path_392" data-name="Path 392" d="M218.649,200.079v-1.96c0-.222-.13-.4-.29-.4s-.29.177-.29.4v1.96Z" transform="translate(-216.011 -196.445)" fill="#dedede"/>
            <path id="Path_393" data-name="Path 393" d="M222.829,200.079v-1.96c0-.222-.13-.4-.29-.4s-.29.177-.29.4v1.96h.583Z" transform="translate(-218.766 -196.445)" fill="#dedede"/>
            <path id="Path_394" data-name="Path 394" d="M227,200.079v-1.96c0-.222-.13-.4-.29-.4s-.29.177-.29.4v1.96H227Z" transform="translate(-221.515 -196.445)" fill="#dedede"/>
            <path id="Path_395" data-name="Path 395" d="M231.219,200.079v-1.96c0-.222-.13-.4-.29-.4s-.29.177-.29.4v1.96h.583Z" transform="translate(-224.296 -196.445)" fill="#dedede"/>
            <path id="Path_396" data-name="Path 396" d="M235.029,200.079v-1.96c0-.222-.13-.4-.29-.4s-.29.177-.29.4v1.96h.583Z" transform="translate(-226.808 -196.445)" fill="#dedede"/>
            <path id="Path_397" data-name="Path 397" d="M239.209,200.079v-1.96c0-.222-.13-.4-.29-.4s-.29.177-.29.4v1.96h.583Z" transform="translate(-229.563 -196.445)" fill="#dedede"/>
            <path id="Path_398" data-name="Path 398" d="M243.379,200.079v-1.96c0-.222-.13-.4-.29-.4s-.29.177-.29.4v1.96h.583Z" transform="translate(-232.311 -196.445)" fill="#dedede"/>
            <path id="Path_399" data-name="Path 399" d="M247.559,200.079v-1.96c0-.222-.13-.4-.29-.4s-.29.177-.29.4v1.96h.583Z" transform="translate(-235.067 -196.445)" fill="#dedede"/>
            <path id="Path_400" data-name="Path 400" d="M251.779,200.079v-1.96c0-.222-.13-.4-.29-.4s-.29.177-.29.4v1.96h.583Z" transform="translate(-237.848 -196.445)" fill="#dedede"/>
            <path id="Path_401" data-name="Path 401" d="M255.589,200.079v-1.96c0-.222-.13-.4-.29-.4s-.29.177-.29.4v1.96Z" transform="translate(-240.359 -196.445)" fill="#dedede"/>
            <path id="Path_402" data-name="Path 402" d="M259.759,200.079v-1.96c0-.222-.13-.4-.29-.4s-.29.177-.29.4v1.96h.583Z" transform="translate(-243.108 -196.445)" fill="#dedede"/>
            <path id="Path_403" data-name="Path 403" d="M263.933,200.079v-1.96c0-.222-.13-.4-.293-.4s-.29.177-.29.4v1.96Z" transform="translate(-245.857 -196.445)" fill="#dedede"/>
            <path id="Path_404" data-name="Path 404" d="M268.119,200.079v-1.96c0-.222-.13-.4-.29-.4s-.29.177-.29.4v1.96Z" transform="translate(-248.618 -196.445)" fill="#dedede"/>
            <path id="Path_405" data-name="Path 405" d="M272.339,200.079v-1.96c0-.222-.13-.4-.29-.4s-.29.177-.29.4v1.96h.583Z" transform="translate(-251.4 -196.445)" fill="#dedede"/>
            <path id="Path_406" data-name="Path 406" d="M276.149,200.079v-1.96c0-.222-.13-.4-.29-.4s-.29.177-.29.4v1.96h.583Z" transform="translate(-253.911 -196.445)" fill="#dedede"/>
          </g>
          <path id="Path_407" data-name="Path 407" d="M211.69,208.3v18.69a2.966,2.966,0,0,0,2.822,3.075h17.262a2.964,2.964,0,0,0,2.822-3.075V208.3Z" transform="translate(-211.148 -203.419)" fill="#f59b21"/>
          <rect id="Rectangle_20" data-name="Rectangle 20" width="20.193" height="13.959" transform="translate(2.441 6.92)" fill="#e6e6d5"/>
          <rect id="Rectangle_21" data-name="Rectangle 21" width="2.41" height="20.047" transform="translate(19.133 5.468)" fill="#fff"/>
          <rect id="Rectangle_22" data-name="Rectangle 22" width="1.207" height="20.047" transform="translate(16.788 5.468)" fill="#fff"/>
          <path id="Path_408" data-name="Path 408" d="M217.093,225V213.641a7.552,7.552,0,0,1,1.963-5.341H211.7v18.69a2.966,2.966,0,0,0,2.822,3.075h17.262a2.855,2.855,0,0,0,2.638-1.987h-14.5A2.964,2.964,0,0,1,217.1,225Z" transform="translate(-211.155 -203.419)" fill="#e6d5ce"/>
          <path id="Path_409" data-name="Path 409" d="M214.4,226.99V208.3H211.69v18.69a2.966,2.966,0,0,0,2.822,3.075h2.707A2.966,2.966,0,0,1,214.4,226.99Z" transform="translate(-211.148 -203.419)" fill="#e6d5ce"/>
          <path id="Path_410" data-name="Path 410" d="M234.172,205.427a.7.7,0,0,1-.6.777H210.7a.7.7,0,0,1-.6-.777h0a.7.7,0,0,1,.6-.777h22.879a.707.707,0,0,1,.6.777Z" transform="translate(-210.1 -201.013)" fill="#f59b21"/>
          <path id="Path_411" data-name="Path 411" d="M210.163,207.51a.65.65,0,0,0,.573.579h22.879a.647.647,0,0,0,.573-.579H210.16Z" transform="translate(-210.14 -202.898)" fill="#e6d5ce"/>
          <path id="Path_412" data-name="Path 412" d="M243.918,205.159a.256.256,0,0,1-.239.269H227.359a.254.254,0,0,1-.239-.269h0a.254.254,0,0,1,.239-.269h16.321a.256.256,0,0,1,.239.269Z" transform="translate(-221.318 -201.171)" fill="#fff"/>
        </g>
        <g id="Group_368" data-name="Group 368" transform="translate(24.498 4.49)">
          <path id="Path_413" data-name="Path 413" d="M290.253,186.3c0-3.1-3.473-3.32-3.473.29v5.536h3.473Z" transform="translate(-282.884 -183.929)" fill="#ccc"/>
          <path id="Path_414" data-name="Path 414" d="M287.514,208.171c0-.989-.419-1.091-1.214-1.091H280.69c-.9,0-1.326.256-1.326,1.309v1.179c0,1.667-.6,3.03.672,3.03h7.087c1.275,0,.392-1.363.392-3.03Z" transform="translate(-277.902 -199.188)" fill="#dadada"/>
          <path id="Path_415" data-name="Path 415" d="M287.307,276.6c0,.617-.542,1-1.217,1h-7.533c-.767,0-1.217-.341-1.217-1v-.556a1.938,1.938,0,0,1,1.97-1.892h6.023a1.938,1.938,0,0,1,1.97,1.892v.556Z" transform="translate(-276.662 -243.396)" fill="#8a8989"/>
          <path id="Path_416" data-name="Path 416" d="M282.053,212.758c0,.187-.1.341-.222.341h0c-.123,0-.222-.153-.222-.341v-2.147c0-.187.1-.341.222-.341h0c.123,0,.222.153.222.341Z" transform="translate(-279.476 -201.291)" fill="#bdbcbc"/>
          <path id="Path_417" data-name="Path 417" d="M285.257,212.758c0,.187-.1.341-.222.341h0c-.123,0-.225-.153-.225-.341v-2.147c0-.187.1-.341.225-.341h0c.123,0,.222.153.222.341Z" transform="translate(-281.585 -201.291)" fill="#bdbcbc"/>
          <path id="Path_418" data-name="Path 418" d="M288.457,212.758c0,.187-.1.341-.222.341h0c-.123,0-.225-.153-.225-.341v-2.147c0-.187.1-.341.225-.341h0c.123,0,.222.153.222.341Z" transform="translate(-283.695 -201.291)" fill="#bdbcbc"/>
          <path id="Path_419" data-name="Path 419" d="M291.673,212.758c0,.187-.1.341-.222.341h0c-.123,0-.222-.153-.222-.341v-2.147c0-.187.1-.341.222-.341h0c.123,0,.222.153.222.341Z" transform="translate(-285.817 -201.291)" fill="#bdbcbc"/>
          <path id="Path_420" data-name="Path 420" d="M294.913,212.758c0,.187-.1.341-.222.341h0c-.123,0-.222-.153-.222-.341v-2.147c0-.187.1-.341.222-.341h0c.123,0,.222.153.222.341Z" transform="translate(-287.953 -201.291)" fill="#bdbcbc"/>
          <path id="Path_421" data-name="Path 421" d="M298.047,212.758c0,.187-.1.341-.222.341h0c-.123,0-.225-.153-.225-.341v-2.147c0-.187.1-.341.225-.341h0c.123,0,.222.153.222.341Z" transform="translate(-290.016 -201.291)" fill="#bdbcbc"/>
          <path id="Path_422" data-name="Path 422" d="M301.287,212.758c0,.187-.1.341-.225.341h0c-.123,0-.222-.153-.222-.341v-2.147c0-.187.1-.341.222-.341h0c.123,0,.225.153.225.341Z" transform="translate(-292.151 -201.291)" fill="#bdbcbc"/>
          <path id="Path_423" data-name="Path 423" d="M286.677,237.8a1.521,1.521,0,0,1-1.4,1.616h-8.532a1.524,1.524,0,0,1-1.4-1.616V219.1a1.521,1.521,0,0,1,1.4-1.616h8.532a1.524,1.524,0,0,1,1.4,1.616Z" transform="translate(-275.35 -206.043)" fill="#7d4e24"/>
          <path id="Path_424" data-name="Path 424" d="M279.413,238.375a1.521,1.521,0,0,1-1.394-1.616V222c0-4.349,4.827-4.513,4.827-4.513h-6.1a1.524,1.524,0,0,0-1.4,1.616v18.7a1.521,1.521,0,0,0,1.4,1.616h8.532a1.424,1.424,0,0,0,1.306-1.046Z" transform="translate(-275.35 -206.05)" fill="#e0d3d2"/>
          <path id="Path_425" data-name="Path 425" d="M276.7,237.8V219.1a1.521,1.521,0,0,1,1.4-1.616h-1.336a1.524,1.524,0,0,0-1.4,1.616v18.7a1.521,1.521,0,0,0,1.4,1.616h1.336A1.524,1.524,0,0,1,276.7,237.8Z" transform="translate(-275.357 -206.043)" fill="#e0d3d2"/>
          <rect id="Rectangle_23" data-name="Rectangle 23" width="1.193" height="19.668" transform="translate(9.193 13.107)" fill="#fff"/>
          <rect id="Rectangle_24" data-name="Rectangle 24" width="0.597" height="19.668" transform="translate(8.031 13.107)" fill="#fff"/>
          <path id="Path_426" data-name="Path 426" d="M291.533,237.159c0,3.794-1.715,6.869-3.831,6.869s-3.831-3.075-3.831-6.869,1.715-6.869,3.831-6.869S291.533,233.365,291.533,237.159Z" transform="translate(-280.966 -214.487)" fill="#ede7ca"/>
        </g>
      </g>
      <path id="Path_427" data-name="Path 427" d="M75.291,279c0,.746-6.592,1.353-14.726,1.353S45.84,279.75,45.84,279s6.592-1.353,14.726-1.353S75.291,278.257,75.291,279Z" transform="translate(-34.779 -164.661)" fill="#c4dae7"/>
      <path id="Path_428" data-name="Path 428" d="M111.712,284.53c-8.038,0-14.552.607-14.552,1.353,0,.157.286.3.8.443-1.974-.133-4.322-.211-6.841-.211-6.085,0-11.167.453-12.418,1.064-4.816.194-8.246.689-8.246,1.268,0,.746,5.693,1.353,12.714,1.353,6.085,0,11.167-.457,12.418-1.064,4.816-.191,8.246-.689,8.246-1.268,0-.181-.331-.351-.924-.508,2.444.174,5.491.276,8.8.276,8.038,0,14.552-.607,14.552-1.353s-6.517-1.353-14.552-1.353Z" transform="translate(-51.007 -169.196)" fill="#c4dae7"/>
      <g id="Group_378" data-name="Group 378" transform="translate(11.405 51.002)">
        <g id="Group_370" data-name="Group 370" transform="translate(36.371)">
          <path id="Path_429" data-name="Path 429" d="M176,266.958c0,1.159-1.019,1.875-2.284,1.875H159.574c-1.442,0-2.284-.641-2.284-1.875v-1.043a3.644,3.644,0,0,1,3.7-3.555h11.313a3.639,3.639,0,0,1,3.7,3.555v1.043Z" transform="translate(-156.015 -205.585)" fill="#5d4579"/>
          <path id="Path_430" data-name="Path 430" d="M174.82,170.223a2.861,2.861,0,0,1-2.621,3.037H156.171a2.861,2.861,0,0,1-2.621-3.037V130.709c0-5.311,4.009-5.9,4.009-8.859s13.308-2.706,13.308,0,3.954,3.548,3.954,8.859Z" transform="translate(-153.55 -111.569)" fill="#7c5da4"/>
          <rect id="Rectangle_25" data-name="Rectangle 25" width="13.672" height="20.82" transform="translate(7.407 27.774)" fill="#ede7ca"/>
          <path id="Path_431" data-name="Path 431" d="M158.557,170.224V130.71c0-5.311,4.009-5.9,4.009-8.859,0-1.07,1.742-1.718,3.961-1.984-3.883-.447-8.968.153-8.968,1.984,0,2.959-4.009,3.548-4.009,8.859v39.514a2.861,2.861,0,0,0,2.621,3.037h5.007A2.861,2.861,0,0,1,158.557,170.224Z" transform="translate(-153.55 -111.57)" fill="#c9cad0"/>
          <path id="Path_432" data-name="Path 432" d="M156,170.23V130.717c0-5.311,4.009-5.9,4.009-8.859,0-1.261,2.417-1.936,5.191-2.09-3.623-.191-7.646.464-7.646,2.09,0,2.959-4.009,3.548-4.009,8.859V170.23a2.861,2.861,0,0,0,2.621,3.037h2.454A2.861,2.861,0,0,1,156,170.23Z" transform="translate(-153.55 -111.577)" fill="#c9cad0"/>
          <path id="Path_433" data-name="Path 433" d="M176.908,97.511c0-1.548-.787-1.711-2.277-1.711H164.1c-1.694,0-2.5.4-2.5,2.055v5.26c0,2.976,1.265,3.047,1.265,3.047h13.308s.736,0,.736-3.047v-5.6Z" transform="translate(-158.856 -95.8)" fill="#dadada"/>
          <path id="Path_434" data-name="Path 434" d="M166.119,106.427a.487.487,0,0,1-.419.535h0a.487.487,0,0,1-.419-.535v-5.072a.487.487,0,0,1,.419-.535h0a.487.487,0,0,1,.419.535Z" transform="translate(-161.282 -99.109)" fill="#bdbcbc"/>
          <path id="Path_435" data-name="Path 435" d="M172.139,106.427a.487.487,0,0,1-.419.535h0a.487.487,0,0,1-.419-.535v-5.072a.487.487,0,0,1,.419-.535h0a.487.487,0,0,1,.419.535Z" transform="translate(-165.25 -99.109)" fill="#bdbcbc"/>
          <path id="Path_436" data-name="Path 436" d="M178.169,106.427a.487.487,0,0,1-.419.535h0a.487.487,0,0,1-.419-.535v-5.072a.487.487,0,0,1,.419-.535h0a.49.49,0,0,1,.419.535Z" transform="translate(-169.224 -99.109)" fill="#bdbcbc"/>
          <path id="Path_437" data-name="Path 437" d="M184.189,106.427a.487.487,0,0,1-.419.535h0a.487.487,0,0,1-.419-.535v-5.072a.487.487,0,0,1,.419-.535h0a.487.487,0,0,1,.419.535Z" transform="translate(-173.192 -99.109)" fill="#bdbcbc"/>
          <path id="Path_438" data-name="Path 438" d="M190.279,106.427a.487.487,0,0,1-.419.535h0a.487.487,0,0,1-.419-.535v-5.072a.487.487,0,0,1,.419-.535h0a.487.487,0,0,1,.419.535Z" transform="translate(-177.206 -99.109)" fill="#bdbcbc"/>
          <path id="Path_439" data-name="Path 439" d="M196.169,106.427a.487.487,0,0,1-.419.535h0a.487.487,0,0,1-.419-.535v-5.072a.487.487,0,0,1,.419-.535h0a.487.487,0,0,1,.419.535Z" transform="translate(-181.089 -99.109)" fill="#bdbcbc"/>
          <path id="Path_440" data-name="Path 440" d="M202.259,106.427a.487.487,0,0,1-.419.535h0a.487.487,0,0,1-.419-.535v-5.072a.487.487,0,0,1,.419-.535h0a.487.487,0,0,1,.419.535Z" transform="translate(-185.103 -99.109)" fill="#bdbcbc"/>
          <rect id="Rectangle_26" data-name="Rectangle 26" width="2.236" height="44.777" transform="translate(17.265 15.792)" fill="#fff"/>
          <rect id="Rectangle_27" data-name="Rectangle 27" width="1.118" height="44.777" transform="translate(15.083 15.792)" fill="#fff"/>
        </g>
        <g id="Group_371" data-name="Group 371" transform="translate(0 0.017)">
          <path id="Path_441" data-name="Path 441" d="M74.2,95.85h-9.78c-2.287,0-3.9,3.235.7,3.235v6.494h6.347V99.085h5.205C78.711,99.085,78.244,95.85,74.2,95.85Z" transform="translate(-56.956 -95.85)" fill="#545c7b"/>
          <path id="Path_442" data-name="Path 442" d="M72.5,120.789c0-1.367-.583-2.219-1.68-2.219H64.3c-1.251,0-3.092.354-3.092,1.817v1.633c0,2.311-.835,4.2.931,4.2h9.817c1.769,0,.542-1.892.542-4.2v-1.231Z" transform="translate(-56.184 -110.825)" fill="#dadada"/>
          <path id="Path_443" data-name="Path 443" d="M70.261,266.982a1.966,1.966,0,0,1-2.212,1.817h-13.7c-1.394,0-2.212-.617-2.212-1.817v-1.009a3.526,3.526,0,0,1,3.583-3.443H66.675a3.524,3.524,0,0,1,3.583,3.443v1.009Z" transform="translate(-50.337 -205.714)" fill="#8a8989"/>
          <path id="Path_444" data-name="Path 444" d="M65.186,126.45a.458.458,0,0,1-.443.474h0a.461.461,0,0,1-.443-.474v-2.976a.458.458,0,0,1,.443-.474h0a.458.458,0,0,1,.443.474Z" transform="translate(-58.352 -113.745)" fill="#bdbcbc"/>
          <path id="Path_445" data-name="Path 445" d="M71.546,126.45a.458.458,0,0,1-.443.474h0a.458.458,0,0,1-.443-.474v-2.976A.458.458,0,0,1,71.1,123h0a.458.458,0,0,1,.443.474Z" transform="translate(-62.544 -113.745)" fill="#bdbcbc"/>
          <path id="Path_446" data-name="Path 446" d="M77.9,126.45a.458.458,0,0,1-.443.474h0a.458.458,0,0,1-.443-.474v-2.976a.458.458,0,0,1,.443-.474h0a.458.458,0,0,1,.443.474Z" transform="translate(-66.729 -113.745)" fill="#bdbcbc"/>
          <path id="Path_447" data-name="Path 447" d="M84.256,126.45a.458.458,0,0,1-.443.474h0a.458.458,0,0,1-.443-.474v-2.976a.458.458,0,0,1,.443-.474h0a.461.461,0,0,1,.443.474Z" transform="translate(-70.921 -113.745)" fill="#bdbcbc"/>
          <path id="Path_448" data-name="Path 448" d="M90.683,126.45a.458.458,0,0,1-.44.474h0a.458.458,0,0,1-.443-.474v-2.976a.458.458,0,0,1,.443-.474h0a.456.456,0,0,1,.44.474Z" transform="translate(-75.16 -113.745)" fill="#bdbcbc"/>
          <path id="Path_449" data-name="Path 449" d="M68.58,177.309a2.827,2.827,0,0,1-2.679,2.938H49.529a2.827,2.827,0,0,1-2.679-2.938v-43.89a2.827,2.827,0,0,1,2.679-2.938H65.9a2.827,2.827,0,0,1,2.679,2.938Z" transform="translate(-46.85 -118.676)" fill="#d4d4d4"/>
          <path id="Path_450" data-name="Path 450" d="M54.656,178.355a2.827,2.827,0,0,1-2.679-2.938V138.7c0-7.9,9.261-8.208,9.261-8.208h-11.7a2.827,2.827,0,0,0-2.679,2.938v43.89a2.827,2.827,0,0,0,2.679,2.938H65.911a2.711,2.711,0,0,0,2.5-1.9H54.656Z" transform="translate(-46.857 -118.682)" fill="#d2d2d2"/>
          <path id="Path_451" data-name="Path 451" d="M49.427,177.309v-43.89a2.827,2.827,0,0,1,2.679-2.938H49.539a2.827,2.827,0,0,0-2.679,2.938v43.89a2.827,2.827,0,0,0,2.679,2.938h2.567A2.827,2.827,0,0,1,49.427,177.309Z" transform="translate(-46.857 -118.676)" fill="#d2d2d2"/>
          <rect id="Rectangle_28" data-name="Rectangle 28" width="13.154" height="24.788" transform="translate(7.802 26.114)" fill="#aa7cb5"/>
          <rect id="Rectangle_29" data-name="Rectangle 29" width="13.154" height="1.275" transform="translate(7.802 29.795)" fill="#d995c1"/>
          <rect id="Rectangle_30" data-name="Rectangle 30" width="13.154" height="1.275" transform="translate(7.802 27.529)" fill="#d995c1"/>
          <rect id="Rectangle_31" data-name="Rectangle 31" width="13.154" height="1.275" transform="translate(7.802 47.93)" fill="#d995c1"/>
          <rect id="Rectangle_32" data-name="Rectangle 32" width="2.287" height="45.653" transform="translate(17.637 14.841)" fill="#fff"/>
          <rect id="Rectangle_33" data-name="Rectangle 33" width="1.142" height="45.653" transform="translate(15.411 14.841)" fill="#fff"/>
          <rect id="Rectangle_34" data-name="Rectangle 34" width="6.347" height="1.203" transform="translate(8.174 3.095)" fill="#474e67"/>
        </g>
        <g id="Group_377" data-name="Group 377" transform="translate(10.87 13.819)">
          <g id="Group_373" data-name="Group 373" transform="translate(17.964 30.259)">
            <path id="Path_452" data-name="Path 452" d="M167.957,251.31a4,4,0,0,0-3.865-4.97,3.889,3.889,0,0,0-1.4.242,1.313,1.313,0,0,0-1.237-1.149,2.822,2.822,0,0,0-5.566-.6,7.026,7.026,0,0,0-12.489-1.578,1.632,1.632,0,0,0-2.325.522A6.953,6.953,0,1,0,142.76,255.6a3.209,3.209,0,0,0,5.222-1.033,1.8,1.8,0,0,0,2.546.368,2.159,2.159,0,0,0,2.24,1.517c1.156.01,1.619-1.377,2.7-.314-.249,1.3,2.5,1.875,2.85.436,1.016-2.2,2.758-.46,3.889-2.645a4.028,4.028,0,0,0,1.817.457,3.969,3.969,0,0,0,2.178-.624,1.643,1.643,0,1,0,1.762-2.447Z" transform="translate(-131.439 -235.003)" fill="#fff"/>
            <g id="Group_372" data-name="Group 372" transform="translate(0.003 8.034)">
              <path id="Path_453" data-name="Path 453" d="M206.919,248.68c-.041.024-.078.055-.119.078.014.044.034.085.051.13.017-.072.048-.14.068-.208Z" transform="translate(-181.115 -248.68)" fill="#c4e7fb"/>
              <path id="Path_454" data-name="Path 454" d="M223.012,276.264a1.633,1.633,0,0,1-1.394-.8,4,4,0,0,1-3.992.167c-1.132,2.188-2.874.45-3.889,2.649a3.335,3.335,0,0,0-.167.447c.92-.351,1.991,0,2.768-1.5a4.028,4.028,0,0,0,1.817.457,3.969,3.969,0,0,0,2.178-.624,1.642,1.642,0,0,0,3.054-.828h0a1.675,1.675,0,0,1-.372.037Z" transform="translate(-185.578 -266.332)" fill="#c4e7fb"/>
              <path id="Path_455" data-name="Path 455" d="M154.063,264.45s-1.83-.491-2.243-1.517a1.8,1.8,0,0,1-2.546-.368,3.206,3.206,0,0,1-5.219,1.033A6.946,6.946,0,0,1,133.7,254.67a6.947,6.947,0,0,0,9.071,10.516,3.209,3.209,0,0,0,5.222-1.033,1.8,1.8,0,0,0,2.546.368,2.159,2.159,0,0,0,2.24,1.517c1.156.01,1.619-1.377,2.7-.314.232-1.565-1.408-1.278-1.408-1.278Z" transform="translate(-131.449 -252.628)" fill="#c4e7fb"/>
            </g>
            <path id="Path_456" data-name="Path 456" d="M214.574,236.322a1,1,0,1,1-.988-1A1,1,0,0,1,214.574,236.322Z" transform="translate(-184.922 -231.84)" fill="#bfe5fb"/>
            <path id="Path_457" data-name="Path 457" d="M195.984,235.925A1,1,0,1,1,195,234.92,1,1,0,0,1,195.984,235.925Z" transform="translate(-172.668 -231.576)" fill="#bfe5fb"/>
            <path id="Path_458" data-name="Path 458" d="M226.268,245.084a1.994,1.994,0,1,1-1.977-2.015,1.992,1.992,0,0,1,1.977,2.015Z" transform="translate(-191.315 -236.948)" fill="#bfe5fb"/>
            <path id="Path_459" data-name="Path 459" d="M182,261.6a2.75,2.75,0,0,0-5.253-1.169,1.987,1.987,0,0,0-3.5,1.278" transform="translate(-158.998 -247.329)" fill="#fff"/>
            <path id="Path_460" data-name="Path 460" d="M175.251,260.589a1.988,1.988,0,0,1,1.486.7,2.751,2.751,0,0,1,5.127.314H182a2.751,2.751,0,0,0-5.253-1.173,1.987,1.987,0,0,0-3.5,1.278h.2a1.983,1.983,0,0,1,1.8-1.118Z" transform="translate(-158.998 -247.329)" fill="#c4e7fb"/>
            <path id="Path_461" data-name="Path 461" d="M159.71,249.426c1.138.443,2.662,2.294,2.6,3.45l.13.048a3.674,3.674,0,0,0-1.786-4.234,2.335,2.335,0,0,0-.941.733Z" transform="translate(-150.073 -240.652)" fill="#c4e7fb"/>
            <path id="Path_462" data-name="Path 462" d="M227.26,234a.61.61,0,1,1-.6-.62.609.609,0,0,1,.6.62Z" transform="translate(-193.793 -230.561)" fill="#bfe5fb"/>
            <path id="Path_463" data-name="Path 463" d="M197.675,225.611a.5.5,0,1,1-.494-.5A.5.5,0,0,1,197.675,225.611Z" transform="translate(-174.441 -225.11)" fill="#bfe5fb"/>
            <path id="Path_464" data-name="Path 464" d="M186.836,232.437a1.048,1.048,0,1,1-1.04-1.057,1.045,1.045,0,0,1,1.04,1.057Z" transform="translate(-166.571 -229.243)" fill="#bfe5fb"/>
            <path id="Path_465" data-name="Path 465" d="M202.936,228.988a.525.525,0,0,1,.556.491.523.523,0,1,1-.556-.487Z" transform="translate(-178.243 -227.666)" fill="#bfe5fb"/>
            <path id="Path_466" data-name="Path 466" d="M202.372,240.788a.748.748,0,1,1-.7.8.75.75,0,0,1,.7-.8Z" transform="translate(-177.734 -235.443)" fill="#bfe5fb"/>
            <path id="Path_467" data-name="Path 467" d="M183.51,263.54a2.739,2.739,0,0,1,.487,1.142" transform="translate(-165.761 -250.44)" fill="none"/>
            <path id="Path_468" data-name="Path 468" d="M159.71,250.85a4.446,4.446,0,0,1,2.458,3.17" transform="translate(-150.073 -242.076)" fill="none"/>
            <line id="Line_3" data-name="Line 3" x1="0.055" y2="0.716" transform="translate(29.963 10.431)" fill="none"/>
            <path id="Path_469" data-name="Path 469" d="M235.67,272.9a2.03,2.03,0,0,0-1.5.344" transform="translate(-199.152 -256.589)" fill="none"/>
            <path id="Path_470" data-name="Path 470" d="M227.859,245.986a1.324,1.324,0,1,1-1.316-1.336,1.325,1.325,0,0,1,1.316,1.336Z" transform="translate(-193.246 -237.989)" fill="#fff"/>
            <path id="Path_471" data-name="Path 471" d="M215.244,237.031a.622.622,0,1,1-1.244-.014.628.628,0,0,1,.627-.617.621.621,0,0,1,.617.627Z" transform="translate(-185.857 -232.552)" fill="#fff"/>
            <path id="Path_472" data-name="Path 472" d="M227.873,234.77a.3.3,0,1,1-.3-.3.295.295,0,0,1,.3.3Z" transform="translate(-194.611 -231.279)" fill="#fff"/>
            <path id="Path_473" data-name="Path 473" d="M187.906,233.026a.588.588,0,1,1-.583-.6.585.585,0,0,1,.583.6Z" transform="translate(-167.883 -229.935)" fill="#fff"/>
            <path id="Path_474" data-name="Path 474" d="M196.943,236.65a.591.591,0,1,1-.586-.6A.594.594,0,0,1,196.943,236.65Z" transform="translate(-173.835 -232.321)" fill="#fff"/>
            <path id="Path_475" data-name="Path 475" d="M203.19,241.533a.432.432,0,1,1-.4.457.429.429,0,0,1,.4-.457Z" transform="translate(-178.467 -235.933)" fill="#fff"/>
            <path id="Path_476" data-name="Path 476" d="M203.626,229.789a.171.171,0,0,1,.181.157.168.168,0,0,1-.157.177.171.171,0,0,1-.181-.157A.166.166,0,0,1,203.626,229.789Z" transform="translate(-178.916 -228.194)" fill="#fff"/>
            <path id="Path_477" data-name="Path 477" d="M198,226.193a.281.281,0,1,1-.28-.283A.279.279,0,0,1,198,226.193Z" transform="translate(-174.942 -225.637)" fill="#fff"/>
          </g>
          <g id="Group_374" data-name="Group 374" transform="translate(9.436)">
            <path id="Path_478" data-name="Path 478" d="M133.444,136.34h-9.272c-1.046,0-1.9.545-1.9,1.6v6.02h9.619V139.5h1.554Z" transform="translate(-116.867 -136.34)" fill="#545c7b"/>
            <path id="Path_479" data-name="Path 479" d="M125.263,142.073c-1.7-.112-1.7-1.554-1.35-3.18.2-.968,1.81-1.766,2.338-2.553h-2.09c-1.046,0-1.9.545-1.9,1.6v6.02h9.619v-.034c-1.411-.055-5.031-1.749-6.616-1.851Z" transform="translate(-116.861 -136.34)" fill="#d2d2d2"/>
            <path id="Path_480" data-name="Path 480" d="M130.438,157.178a1.588,1.588,0,0,0-1.554-1.738h-9.619c-.982,0-1.554.593-1.554,1.738v.965c0,1.81,1.132,3.293,2.516,3.293h7.693c1.384,0,2.516-1.483,2.516-3.293v-.965Z" transform="translate(-113.862 -148.929)" fill="#dadada"/>
            <path id="Path_481" data-name="Path 481" d="M128.42,280.361c0,.958-.927,1.554-2.079,1.554H113.469c-1.312,0-2.079-.528-2.079-1.554V279.5a3.191,3.191,0,0,1,3.368-2.948h10.294a3.189,3.189,0,0,1,3.368,2.948Z" transform="translate(-109.696 -228.757)" fill="#8a8989"/>
            <path id="Path_482" data-name="Path 482" d="M120.785,160.3a.359.359,0,0,1-.348.372h0a.361.361,0,0,1-.348-.372v-2.332a.361.361,0,0,1,.348-.372h0a.361.361,0,0,1,.348.372Z" transform="translate(-115.43 -150.353)" fill="#bdbcbc"/>
            <path id="Path_483" data-name="Path 483" d="M125.765,160.3a.361.361,0,0,1-.348.372h0a.361.361,0,0,1-.348-.372v-2.332a.361.361,0,0,1,.348-.372h0a.361.361,0,0,1,.348.372Z" transform="translate(-118.713 -150.353)" fill="#bdbcbc"/>
            <path id="Path_484" data-name="Path 484" d="M130.745,160.3a.361.361,0,0,1-.348.372h0a.361.361,0,0,1-.348-.372v-2.332a.361.361,0,0,1,.348-.372h0a.361.361,0,0,1,.348.372Z" transform="translate(-121.995 -150.353)" fill="#bdbcbc"/>
            <path id="Path_485" data-name="Path 485" d="M135.725,160.3a.361.361,0,0,1-.348.372h0a.361.361,0,0,1-.348-.372v-2.332a.361.361,0,0,1,.348-.372h0a.361.361,0,0,1,.348.372Z" transform="translate(-125.278 -150.353)" fill="#bdbcbc"/>
            <path id="Path_486" data-name="Path 486" d="M140.705,160.3a.361.361,0,0,1-.348.372h0a.361.361,0,0,1-.348-.372v-2.332a.361.361,0,0,1,.348-.372h0a.361.361,0,0,1,.348.372Z" transform="translate(-128.56 -150.353)" fill="#bdbcbc"/>
            <path id="Path_487" data-name="Path 487" d="M145.735,160.3a.361.361,0,0,1-.348.372h0a.361.361,0,0,1-.348-.372v-2.332a.359.359,0,0,1,.348-.372h0a.361.361,0,0,1,.348.372Z" transform="translate(-131.876 -150.353)" fill="#bdbcbc"/>
            <path id="Path_488" data-name="Path 488" d="M150.715,160.3a.361.361,0,0,1-.348.372h0a.361.361,0,0,1-.348-.372v-2.332a.361.361,0,0,1,.348-.372h0a.361.361,0,0,1,.348.372Z" transform="translate(-135.158 -150.353)" fill="#bdbcbc"/>
            <path id="Path_489" data-name="Path 489" d="M108.946,163.47h15.387a2.518,2.518,0,0,1,2.516,2.516V203.57a2.518,2.518,0,0,1-2.516,2.516H108.946a2.518,2.518,0,0,1-2.516-2.516V165.986A2.516,2.516,0,0,1,108.946,163.47Z" transform="translate(-106.427 -154.222)" fill="#d4d4d4"/>
            <path id="Path_490" data-name="Path 490" d="M113.755,204.46a2.523,2.523,0,0,1-2.516-2.516V170.5c0-6.77,8.7-7.029,8.7-7.029h-11a2.523,2.523,0,0,0-2.516,2.516V203.57a2.523,2.523,0,0,0,2.516,2.516h15.387a2.527,2.527,0,0,0,2.352-1.629H113.755Z" transform="translate(-106.427 -154.222)" fill="#d2d2d2"/>
            <path id="Path_491" data-name="Path 491" d="M108.833,203.58V166a2.523,2.523,0,0,1,2.516-2.516h-2.413A2.523,2.523,0,0,0,106.42,166V203.58a2.523,2.523,0,0,0,2.516,2.516h2.413A2.523,2.523,0,0,1,108.833,203.58Z" transform="translate(-106.42 -154.229)" fill="#d2d2d2"/>
            <rect id="Rectangle_35" data-name="Rectangle 35" width="12.363" height="21.976" transform="translate(7.332 19.569)" fill="#72bcc6"/>
            <rect id="Rectangle_36" data-name="Rectangle 36" width="12.363" height="0.999" transform="translate(7.332 21.233)" fill="#a4dbf8"/>
            <rect id="Rectangle_37" data-name="Rectangle 37" width="12.363" height="0.999" transform="translate(7.332 23.343)" fill="#a4dbf8"/>
            <rect id="Rectangle_38" data-name="Rectangle 38" width="12.363" height="0.999" transform="translate(7.332 37.55)" fill="#a4dbf8"/>
            <rect id="Rectangle_39" data-name="Rectangle 39" width="2.147" height="39.094" transform="translate(16.576 11.845)" fill="#fff"/>
            <rect id="Rectangle_40" data-name="Rectangle 40" width="1.074" height="39.094" transform="translate(14.484 11.845)" fill="#fff"/>
          </g>
          <g id="Group_376" data-name="Group 376" transform="translate(0 41.596)">
            <path id="Path_492" data-name="Path 492" d="M99.918,273.577a2.272,2.272,0,0,0,.068-.532,2.331,2.331,0,0,0-2.308-2.355,2.306,2.306,0,0,0-.811.14.762.762,0,0,0-.716-.668,1.637,1.637,0,0,0-3.228-.351,4.073,4.073,0,0,0-7.24-.924.945.945,0,0,0-1.35.3,4.032,4.032,0,1,0,.968,6.855,1.86,1.86,0,0,0,3.03-.593,1.05,1.05,0,0,0,.835.426,1.07,1.07,0,0,0,.641-.211,1.253,1.253,0,0,0,1.3.883c.672.007.941-.8,1.565-.177-.147.757,1.452,1.087,1.653.256.59-1.275,1.6-.266,2.257-1.53A2.322,2.322,0,0,0,98.9,275a.953.953,0,1,0,1.026-1.418Z" transform="translate(-78.739 -264.104)" fill="#fff"/>
            <g id="Group_375" data-name="Group 375" transform="translate(0 4.663)">
              <path id="Path_493" data-name="Path 493" d="M122.528,272.05a.483.483,0,0,0-.068.048.493.493,0,0,0,.031.075,1.227,1.227,0,0,1,.041-.119Z" transform="translate(-107.557 -272.05)" fill="#c4e7fb"/>
              <path id="Path_494" data-name="Path 494" d="M131.831,288.087a.947.947,0,0,1-.808-.467,2.309,2.309,0,0,1-1.261.358,2.235,2.235,0,0,1-1.053-.266c-.658,1.268-1.667.259-2.26,1.531a2.139,2.139,0,0,0-.1.259c.535-.2,1.156,0,1.609-.869a2.322,2.322,0,0,0,2.318-.092.953.953,0,0,0,1.773-.477h0a1.151,1.151,0,0,1-.215.024Z" transform="translate(-110.121 -282.313)" fill="#c4e7fb"/>
              <path id="Path_495" data-name="Path 495" d="M91.849,281.159s-1.06-.286-1.3-.883a1.048,1.048,0,0,1-.641.211,1.06,1.06,0,0,1-.835-.426A1.868,1.868,0,0,1,87.34,281.2a1.83,1.83,0,0,1-1.292-.545,4.028,4.028,0,0,1-6-5.185,4.03,4.03,0,0,0,5.253,6.108,1.86,1.86,0,0,0,3.03-.593,1.05,1.05,0,0,0,.835.426,1.07,1.07,0,0,0,.641-.211,1.254,1.254,0,0,0,1.3.883c.672.007.941-.8,1.565-.177.136-.907-.815-.743-.815-.743Z" transform="translate(-78.739 -274.304)" fill="#c4e7fb"/>
            </g>
            <path id="Path_496" data-name="Path 496" d="M126.976,264.893a.578.578,0,1,1-.573-.583A.576.576,0,0,1,126.976,264.893Z" transform="translate(-109.772 -262.285)" fill="#bfe5fb"/>
            <path id="Path_497" data-name="Path 497" d="M116.2,264.653a.578.578,0,1,1-.573-.583A.576.576,0,0,1,116.2,264.653Z" transform="translate(-102.666 -262.127)" fill="#bfe5fb"/>
            <path id="Path_498" data-name="Path 498" d="M133.744,269.989a1.157,1.157,0,1,1-1.145-1.169A1.157,1.157,0,0,1,133.744,269.989Z" transform="translate(-113.469 -265.258)" fill="#bfe5fb"/>
            <path id="Path_499" data-name="Path 499" d="M108.049,279.542A1.6,1.6,0,0,0,105,278.86a1.153,1.153,0,0,0-2.032.74" transform="translate(-94.71 -271.262)" fill="#fff"/>
            <path id="Path_500" data-name="Path 500" d="M104.142,278.942a1.151,1.151,0,0,1,.862.406,1.6,1.6,0,0,1,2.972.188h.082a1.6,1.6,0,0,0-3.047-.685,1.153,1.153,0,0,0-2.032.74h.119A1.156,1.156,0,0,1,104.142,278.942Z" transform="translate(-94.717 -271.256)" fill="#c4e7fb"/>
            <path id="Path_501" data-name="Path 501" d="M95.14,272.446a2.736,2.736,0,0,1,1.5,2l.075.027a2.135,2.135,0,0,0-1.033-2.458,1.354,1.354,0,0,0-.545.426Z" transform="translate(-89.55 -267.367)" fill="#c4e7fb"/>
            <path id="Path_502" data-name="Path 502" d="M134.339,263.558a.355.355,0,1,1-.351-.358A.356.356,0,0,1,134.339,263.558Z" transform="translate(-114.919 -261.554)" fill="#bfe5fb"/>
            <path id="Path_503" data-name="Path 503" d="M117.179,258.663a.29.29,0,1,1-.286-.293A.29.29,0,0,1,117.179,258.663Z" transform="translate(-103.694 -258.37)" fill="#bfe5fb"/>
            <path id="Path_504" data-name="Path 504" d="M110.887,262.613a.6.6,0,0,1-.614.6.607.607,0,1,1,.01-1.213.606.606,0,0,1,.6.614Z" transform="translate(-99.127 -260.763)" fill="#bfe5fb"/>
            <path id="Path_505" data-name="Path 505" d="M120.225,260.623a.3.3,0,1,1,.037.6.3.3,0,1,1-.041-.607Z" transform="translate(-105.895 -259.853)" fill="#bfe5fb"/>
            <path id="Path_506" data-name="Path 506" d="M119.894,267.469a.434.434,0,1,1,.055.866.43.43,0,0,1-.46-.406A.434.434,0,0,1,119.894,267.469Z" transform="translate(-105.598 -264.367)" fill="#bfe5fb"/>
            <path id="Path_507" data-name="Path 507" d="M108.94,280.65a1.569,1.569,0,0,1,.283.661" transform="translate(-98.646 -273.055)" fill="none"/>
            <path id="Path_508" data-name="Path 508" d="M95.14,273.27a2.568,2.568,0,0,1,1.421,1.841" transform="translate(-89.55 -268.191)" fill="none"/>
            <line id="Line_4" data-name="Line 4" x1="0.031" y2="0.416" transform="translate(17.381 6.057)" fill="none"/>
            <path id="Path_509" data-name="Path 509" d="M139.183,286.128a1.182,1.182,0,0,0-.873.2" transform="translate(-118.004 -276.655)" fill="none"/>
            <path id="Path_510" data-name="Path 510" d="M134.677,270.507a.769.769,0,1,1-.76-.777.771.771,0,0,1,.76.777Z" transform="translate(-114.596 -265.858)" fill="#fff"/>
            <path id="Path_511" data-name="Path 511" d="M127.363,265.315a.361.361,0,1,1-.358-.365A.364.364,0,0,1,127.363,265.315Z" transform="translate(-110.312 -262.707)" fill="#fff"/>
            <path id="Path_512" data-name="Path 512" d="M134.694,264a.172.172,0,1,1-.17-.174A.172.172,0,0,1,134.694,264Z" transform="translate(-115.394 -261.969)" fill="#fff"/>
            <path id="Path_513" data-name="Path 513" d="M111.512,262.958a.341.341,0,1,1-.337-.348.34.34,0,0,1,.337.348Z" transform="translate(-99.891 -261.165)" fill="#fff"/>
            <path id="Path_514" data-name="Path 514" d="M116.749,265.068a.344.344,0,1,1-.341-.348A.343.343,0,0,1,116.749,265.068Z" transform="translate(-103.339 -262.555)" fill="#fff"/>
            <path id="Path_515" data-name="Path 515" d="M120.375,267.909a.251.251,0,1,1-.235.266A.247.247,0,0,1,120.375,267.909Z" transform="translate(-106.027 -264.657)" fill="#fff"/>
            <path id="Path_516" data-name="Path 516" d="M120.638,261.09a.1.1,0,0,1,.106.092.1.1,0,0,1-.194.01A.1.1,0,0,1,120.638,261.09Z" transform="translate(-106.298 -260.162)" fill="#fff"/>
            <path id="Path_517" data-name="Path 517" d="M117.384,259a.159.159,0,0,1-.164.16.162.162,0,1,1,0-.324A.161.161,0,0,1,117.384,259Z" transform="translate(-103.998 -258.68)" fill="#fff"/>
          </g>
        </g>
      </g>
      <g id="Group_384" data-name="Group 384">
        <g id="Group_379" data-name="Group 379" transform="translate(113.353 62.407)">
          <path id="Path_518" data-name="Path 518" d="M375.4,169.411s2.338-.106,2.945-.75a11.046,11.046,0,0,0,1.316-2.741s-.078,2.069.75,2.945a6.715,6.715,0,0,0,2.741,1.316s-2.226-.177-2.945.75a11.524,11.524,0,0,0-1.316,2.741s.007-2.2-.75-2.945A8.518,8.518,0,0,0,375.4,169.411Z" transform="translate(-365.355 -153.424)" fill="#fff"/>
          <path id="Path_519" data-name="Path 519" d="M345.93,192.125s1.012.474,1.415.337a5.347,5.347,0,0,0,1.166-.873,2.384,2.384,0,0,0-.334,1.415,3.229,3.229,0,0,0,.869,1.166s-.9-.569-1.415-.334a5.438,5.438,0,0,0-1.166.869s.491-.931.334-1.415a4.077,4.077,0,0,0-.869-1.166Z" transform="translate(-345.93 -170.344)" fill="#fff"/>
          <path id="Path_520" data-name="Path 520" d="M388.53,201.235s1.016.474,1.418.337a5.347,5.347,0,0,0,1.166-.873,2.4,2.4,0,0,0-.337,1.415,3.229,3.229,0,0,0,.869,1.166s-.9-.569-1.415-.334a5.438,5.438,0,0,0-1.166.869s.494-.931.334-1.415a4.077,4.077,0,0,0-.869-1.166Z" transform="translate(-374.009 -176.348)" fill="#fff"/>
          <path id="Path_521" data-name="Path 521" d="M391.16,130.569s.44-.365.464-.579a2.7,2.7,0,0,0-.147-.729s.29.416.58.464a1.648,1.648,0,0,0,.729-.15s-.46.293-.464.583a2.855,2.855,0,0,0,.147.729s-.324-.433-.579-.464A2.067,2.067,0,0,0,391.16,130.569Z" transform="translate(-375.742 -129.26)" fill="#fff"/>
          <path id="Path_522" data-name="Path 522" d="M384.02,149.207s.327-.014.412-.106a1.7,1.7,0,0,0,.184-.382.681.681,0,0,0,.1.409.93.93,0,0,0,.382.184s-.31-.024-.412.106a1.619,1.619,0,0,0-.181.382s0-.307-.106-.412a1.226,1.226,0,0,0-.382-.184Z" transform="translate(-371.036 -142.087)" fill="#fff"/>
          <path id="Path_523" data-name="Path 523" d="M367.48,212.212s.44-.365.464-.583a2.7,2.7,0,0,0-.147-.729s.29.416.583.464a1.629,1.629,0,0,0,.726-.15s-.46.293-.464.579a3.021,3.021,0,0,0,.147.729s-.324-.43-.579-.464a2.065,2.065,0,0,0-.729.15Z" transform="translate(-360.134 -183.071)" fill="#fff"/>
          <path id="Path_524" data-name="Path 524" d="M378.9,235.177s.327-.014.412-.106a1.506,1.506,0,0,0,.184-.382.7.7,0,0,0,.106.409.93.93,0,0,0,.382.184s-.31-.024-.412.106a1.69,1.69,0,0,0-.184.382s0-.307-.106-.409A1.15,1.15,0,0,0,378.9,235.177Z" transform="translate(-367.662 -198.752)" fill="#fff"/>
          <path id="Path_525" data-name="Path 525" d="M411.282,167.08s.228.232.351.235a1.643,1.643,0,0,0,.409-.119s-.222.184-.235.355a.914.914,0,0,0,.123.406s-.191-.249-.355-.235a1.612,1.612,0,0,0-.406.123s.228-.208.235-.355A1.186,1.186,0,0,0,411.282,167.08Z" transform="translate(-388.932 -154.188)" fill="#fff"/>
        </g>
        <g id="Group_380" data-name="Group 380" transform="translate(50.52)">
          <path id="Path_526" data-name="Path 526" d="M235.271,54.052s.685-2.24.28-3.027a11.058,11.058,0,0,0-2.141-2.154s1.926.767,3.024.28a6.713,6.713,0,0,0,2.158-2.141s-.91,2.038-.279,3.027a11.593,11.593,0,0,0,2.144,2.154s-2.072-.743-3.027-.28a8.577,8.577,0,0,0-2.154,2.144Z" transform="translate(-208.932 -34.711)" fill="#fff"/>
          <path id="Path_527" data-name="Path 527" d="M195.5,83.514s.787-.8.787-1.224a5.307,5.307,0,0,0-.429-1.391s.648.753,1.22.791a3.211,3.211,0,0,0,1.391-.43s-.839.661-.791,1.22a5.572,5.572,0,0,0,.433,1.391s-.716-.774-1.224-.791a4.076,4.076,0,0,0-1.387.43Z" transform="translate(-183.945 -57.049)" fill="#fff"/>
          <path id="Path_528" data-name="Path 528" d="M178.678,12.791s-.2-.539-.392-.631a2.627,2.627,0,0,0-.736-.1s.487-.136.631-.392a1.644,1.644,0,0,0,.106-.736s.123.532.392.631a2.86,2.86,0,0,0,.736.106s-.515.16-.631.392a2.133,2.133,0,0,0-.106.736Z" transform="translate(-172.113 -10.93)" fill="#fff"/>
          <path id="Path_529" data-name="Path 529" d="M161.862,44.735s.1-.314.037-.423a1.5,1.5,0,0,0-.3-.3.7.7,0,0,0,.423.037.932.932,0,0,0,.3-.3s-.13.283-.037.423a1.644,1.644,0,0,0,.3.3.788.788,0,0,0-.423-.041,1.179,1.179,0,0,0-.3.3Z" transform="translate(-161.6 -32.563)" fill="#fff"/>
          <path id="Path_530" data-name="Path 530" d="M254.13,105.871s.787-.8.791-1.22a5.263,5.263,0,0,0-.43-1.391s.648.753,1.22.791a3.211,3.211,0,0,0,1.391-.429s-.839.665-.791,1.22a5.471,5.471,0,0,0,.43,1.391s-.716-.777-1.22-.791A4.1,4.1,0,0,0,254.13,105.871Z" transform="translate(-222.589 -71.788)" fill="#fff"/>
          <path id="Path_531" data-name="Path 531" d="M268.728,49.865s-.2-.539-.392-.631a2.653,2.653,0,0,0-.736-.106s.491-.136.631-.392a1.693,1.693,0,0,0,.106-.736s.123.532.392.631a2.9,2.9,0,0,0,.74.106s-.515.16-.631.392a2.1,2.1,0,0,0-.1.736Z" transform="translate(-231.468 -35.364)" fill="#fff"/>
          <path id="Path_532" data-name="Path 532" d="M224.858,74.735s-.2-.539-.392-.631A2.668,2.668,0,0,0,223.73,74s.491-.136.631-.392a1.644,1.644,0,0,0,.106-.736s.123.532.392.631a2.86,2.86,0,0,0,.736.106s-.515.16-.634.392A2.1,2.1,0,0,0,224.858,74.735Z" transform="translate(-202.552 -51.757)" fill="#fff"/>
          <path id="Path_533" data-name="Path 533" d="M267.739,79.705s.1-.314.041-.423a1.593,1.593,0,0,0-.3-.3.7.7,0,0,0,.423.037.932.932,0,0,0,.3-.3s-.13.283-.041.423a1.532,1.532,0,0,0,.3.3.758.758,0,0,0-.423-.037A1.179,1.179,0,0,0,267.739,79.705Z" transform="translate(-231.389 -55.612)" fill="#fff"/>
          <path id="Path_534" data-name="Path 534" d="M214.34,13.108s.3-.14.341-.256a1.627,1.627,0,0,0,.02-.423s.1.269.256.337a.92.92,0,0,0,.423.02s-.3.1-.337.256a1.561,1.561,0,0,0-.024.423s-.116-.286-.252-.341a1.211,1.211,0,0,0-.423-.024Z" transform="translate(-196.363 -11.919)" fill="#fff"/>
          <path id="Path_535" data-name="Path 535" d="M261.93,19.3s.293-.14.337-.256a1.523,1.523,0,0,0,.024-.423s.1.269.256.337a.936.936,0,0,0,.426.02s-.3.1-.341.256a1.659,1.659,0,0,0-.02.423s-.116-.283-.256-.337a1.21,1.21,0,0,0-.423-.024Z" transform="translate(-227.731 -15.999)" fill="#fff"/>
        </g>
        <g id="Group_381" data-name="Group 381" transform="translate(76.863 35.912)">
          <path id="Path_536" data-name="Path 536" d="M323.735,122.4s.682-2.24.276-3.027a11.057,11.057,0,0,0-2.141-2.154s1.922.767,3.023.28a6.674,6.674,0,0,0,2.158-2.141s-.91,2.038-.28,3.027a11.617,11.617,0,0,0,2.141,2.154s-2.072-.743-3.027-.28a8.514,8.514,0,0,0-2.154,2.144Z" transform="translate(-293.581 -103.573)" fill="#fff"/>
          <path id="Path_537" data-name="Path 537" d="M283.98,151.871s.787-.8.787-1.22a5.306,5.306,0,0,0-.43-1.391s.648.753,1.22.791a3.211,3.211,0,0,0,1.391-.429s-.839.661-.791,1.22a5.573,5.573,0,0,0,.433,1.391s-.716-.774-1.224-.791a4.076,4.076,0,0,0-1.387.43Z" transform="translate(-268.607 -125.917)" fill="#fff"/>
          <path id="Path_538" data-name="Path 538" d="M292.848,109.261s-.2-.539-.392-.631a2.627,2.627,0,0,0-.736-.1s.487-.136.631-.392a1.644,1.644,0,0,0,.106-.736s.123.532.392.631a2.861,2.861,0,0,0,.736.106s-.515.16-.631.392a2.05,2.05,0,0,0-.106.736Z" transform="translate(-273.708 -98.326)" fill="#fff"/>
          <path id="Path_539" data-name="Path 539" d="M239.142,157.145s.1-.314.038-.423a1.5,1.5,0,0,0-.3-.3.7.7,0,0,0,.423.037.932.932,0,0,0,.3-.3s-.13.283-.038.423a1.645,1.645,0,0,0,.3.3s-.29-.1-.423-.038A1.179,1.179,0,0,0,239.142,157.145Z" transform="translate(-238.88 -130.465)" fill="#fff"/>
          <path id="Path_540" data-name="Path 540" d="M342.6,174.211s.787-.8.791-1.22a5.4,5.4,0,0,0-.429-1.391s.648.753,1.224.791a3.23,3.23,0,0,0,1.391-.43s-.839.661-.791,1.22a5.471,5.471,0,0,0,.43,1.391s-.716-.777-1.22-.791a4.1,4.1,0,0,0-1.391.43Z" transform="translate(-307.245 -140.642)" fill="#fff"/>
          <path id="Path_541" data-name="Path 541" d="M357.2,118.215s-.2-.539-.4-.631a2.653,2.653,0,0,0-.736-.106s.491-.133.631-.392a1.644,1.644,0,0,0,.106-.736s.123.532.392.631a2.9,2.9,0,0,0,.74.106s-.515.16-.631.392A2.133,2.133,0,0,0,357.2,118.215Z" transform="translate(-316.124 -104.225)" fill="#fff"/>
          <path id="Path_542" data-name="Path 542" d="M313.338,143.081s-.2-.539-.392-.631a2.627,2.627,0,0,0-.736-.1s.491-.136.631-.392a1.644,1.644,0,0,0,.106-.736s.123.532.4.631a2.843,2.843,0,0,0,.736.106s-.515.16-.634.392a2.1,2.1,0,0,0-.1.736Z" transform="translate(-287.214 -120.618)" fill="#fff"/>
          <path id="Path_543" data-name="Path 543" d="M356.219,148.045s.1-.314.041-.423a1.6,1.6,0,0,0-.3-.3.7.7,0,0,0,.423.037.932.932,0,0,0,.3-.3s-.13.286-.041.423a1.533,1.533,0,0,0,.3.3.758.758,0,0,0-.423-.037A1.178,1.178,0,0,0,356.219,148.045Z" transform="translate(-316.051 -124.467)" fill="#fff"/>
          <path id="Path_544" data-name="Path 544" d="M302.82,81.458s.3-.14.341-.256a1.484,1.484,0,0,0,.02-.423s.1.269.256.337a.921.921,0,0,0,.423.02s-.3.1-.337.256a1.561,1.561,0,0,0-.024.423s-.116-.286-.252-.341a1.21,1.21,0,0,0-.423-.024Z" transform="translate(-281.025 -80.78)" fill="#fff"/>
          <path id="Path_545" data-name="Path 545" d="M350.4,87.648s.3-.14.337-.256a1.484,1.484,0,0,0,.02-.423s.1.269.256.337a.956.956,0,0,0,.426.024s-.3.1-.341.256a1.659,1.659,0,0,0-.02.423s-.119-.283-.256-.337A1.21,1.21,0,0,0,350.4,87.648Z" transform="translate(-312.386 -84.86)" fill="#fff"/>
        </g>
        <g id="Group_382" data-name="Group 382" transform="translate(8.269 0.055)">
          <path id="Path_546" data-name="Path 546" d="M96.9,43.346s-1.759-1.544-1.827-2.427a10.961,10.961,0,0,1,.689-2.959s-1.234,1.663-2.427,1.827A6.7,6.7,0,0,1,90.38,39.1s1.848,1.254,1.827,2.427a11.512,11.512,0,0,1-.692,2.959s1.374-1.721,2.43-1.827A8.525,8.525,0,0,1,96.9,43.346Z" transform="translate(-72.406 -28.801)" fill="#fff"/>
          <path id="Path_547" data-name="Path 547" d="M126.772,58.372s-1.091-.266-1.316-.624a5.327,5.327,0,0,1-.365-1.408,2.408,2.408,0,0,1-.624,1.316,3.2,3.2,0,0,1-1.408.365s1.064.123,1.316.624a5.656,5.656,0,0,1,.365,1.408s.2-1.036.624-1.312a4.057,4.057,0,0,1,1.408-.365Z" transform="translate(-93.946 -40.916)" fill="#fff"/>
          <path id="Path_548" data-name="Path 548" d="M110.317,12.883s-.116-.559,0-.743a2.764,2.764,0,0,1,.569-.477,1.228,1.228,0,0,1-.743,0,1.633,1.633,0,0,1-.474-.573s.174.518,0,.743a2.9,2.9,0,0,1-.569.477,1.343,1.343,0,0,1,.743,0A2.08,2.08,0,0,1,110.317,12.883Z" transform="translate(-84.745 -11.09)" fill="#fff"/>
          <path id="Path_549" data-name="Path 549" d="M131.164,30.18s-.245-.215-.256-.337a1.527,1.527,0,0,1,.1-.412s-.17.232-.341.256a.918.918,0,0,1-.412-.1s.259.177.256.341a1.592,1.592,0,0,1-.1.412s.191-.242.341-.256a1.22,1.22,0,0,1,.412.1Z" transform="translate(-98.686 -23.178)" fill="#fff"/>
          <path id="Path_550" data-name="Path 550" d="M64.769,95.732s-1.087-.262-1.312-.624a5.327,5.327,0,0,1-.365-1.408,2.408,2.408,0,0,1-.624,1.316,3.212,3.212,0,0,1-1.408.365s1.064.123,1.312.624a5.5,5.5,0,0,1,.365,1.408s.2-1.036.624-1.316A4.057,4.057,0,0,1,64.769,95.732Z" transform="translate(-53.08 -65.541)" fill="#fff"/>
          <path id="Path_551" data-name="Path 551" d="M47.6,86.743s-.116-.562,0-.743a2.735,2.735,0,0,1,.573-.477,1.231,1.231,0,0,1-.743,0,1.633,1.633,0,0,1-.474-.573s.174.518,0,.743a2.886,2.886,0,0,1-.573.477,1.343,1.343,0,0,1,.743,0,2.065,2.065,0,0,1,.477.569Z" transform="translate(-43.404 -59.773)" fill="#fff"/>
          <path id="Path_552" data-name="Path 552" d="M88.047,81.2s-.116-.562,0-.743a2.65,2.65,0,0,1,.573-.477,1.231,1.231,0,0,1-.743,0,1.633,1.633,0,0,1-.474-.573s.174.518,0,.743a2.886,2.886,0,0,1-.573.477s.525-.133.743,0A2.08,2.08,0,0,1,88.047,81.2Z" transform="translate(-70.066 -56.122)" fill="#fff"/>
          <path id="Path_553" data-name="Path 553" d="M67.024,60.63s-.245-.215-.256-.337a1.527,1.527,0,0,1,.1-.412s-.17.232-.337.256a.938.938,0,0,1-.416-.1s.259.174.256.337a1.5,1.5,0,0,1-.1.412s.191-.239.341-.256A1.22,1.22,0,0,1,67.024,60.63Z" transform="translate(-56.409 -43.249)" fill="#fff"/>
          <path id="Path_554" data-name="Path 554" d="M56.613,29.569s-.324.037-.423-.041a1.621,1.621,0,0,1-.242-.348.694.694,0,0,1-.037.423.932.932,0,0,1-.351.242s.3-.072.423.037a1.641,1.641,0,0,1,.242.348s-.048-.3.041-.423a1.2,1.2,0,0,1,.348-.242Z" transform="translate(-49.455 -23.014)" fill="#fff"/>
          <path id="Path_555" data-name="Path 555" d="M38.7,60.175s-.324.037-.423-.037a1.578,1.578,0,0,1-.242-.348.694.694,0,0,1-.037.423.932.932,0,0,1-.351.242s.3-.075.423.037a1.641,1.641,0,0,1,.242.348.783.783,0,0,1,.037-.423,1.2,1.2,0,0,1,.348-.242Z" transform="translate(-37.65 -43.19)" fill="#fff"/>
        </g>
        <g id="Group_383" data-name="Group 383" transform="translate(0 59.21)">
          <path id="Path_556" data-name="Path 556" d="M55.349,221.5s-.971-2.13-.668-2.966a11,11,0,0,1,1.844-2.413s-1.81,1.009-2.966.668a6.706,6.706,0,0,1-2.417-1.844s1.169,1.905.672,2.962a11.634,11.634,0,0,1-1.844,2.417s1.957-1.006,2.966-.668a8.534,8.534,0,0,1,2.417,1.844Z" transform="translate(-37.501 -182.544)" fill="#fff"/>
          <path id="Path_557" data-name="Path 557" d="M62.118,181.623s-.883-.689-.941-1.108a5.316,5.316,0,0,1,.245-1.435s-.542.828-1.108.941a3.207,3.207,0,0,1-1.435-.245s.92.549.944,1.108a5.549,5.549,0,0,1-.245,1.435s.607-.862,1.108-.941a4.053,4.053,0,0,1,1.435.245Z" transform="translate(-43.374 -158.901)" fill="#fff"/>
          <path id="Path_558" data-name="Path 558" d="M59.436,121.775s.126-.559.307-.675a2.643,2.643,0,0,1,.716-.2,1.25,1.25,0,0,1-.678-.307,1.652,1.652,0,0,1-.2-.716s-.051.545-.307.678a2.825,2.825,0,0,1-.716.2s.532.092.675.307a2.068,2.068,0,0,1,.2.716Z" transform="translate(-43.163 -119.88)" fill="#fff"/>
          <path id="Path_559" data-name="Path 559" d="M81.937,151.26s-.136-.3-.1-.416a1.522,1.522,0,0,1,.259-.337.7.7,0,0,1-.416.092.947.947,0,0,1-.337-.259s.164.266.092.412a1.717,1.717,0,0,1-.259.337s.273-.14.416-.092a1.209,1.209,0,0,1,.337.259Z" transform="translate(-58.072 -139.957)" fill="#fff"/>
          <path id="Path_560" data-name="Path 560" d="M38.348,202.953s-.886-.689-.941-1.108a5.316,5.316,0,0,1,.245-1.435s-.542.832-1.108.944a3.207,3.207,0,0,1-1.435-.245s.92.549.944,1.108a5.512,5.512,0,0,1-.245,1.432s.607-.862,1.108-.941a4.135,4.135,0,0,1,1.435.245Z" transform="translate(-27.706 -172.96)" fill="#fff"/>
          <path id="Path_561" data-name="Path 561" d="M70.276,201.475s.126-.559.307-.675a2.674,2.674,0,0,1,.716-.2,1.233,1.233,0,0,1-.675-.307,1.624,1.624,0,0,1-.2-.716s-.051.542-.307.678a2.79,2.79,0,0,1-.716.2s.532.092.678.307a2.069,2.069,0,0,1,.2.716Z" transform="translate(-50.308 -172.413)" fill="#fff"/>
          <path id="Path_562" data-name="Path 562" d="M25.823,160.809s.126-.559.307-.678a2.657,2.657,0,0,1,.719-.2,1.24,1.24,0,0,1-.678-.307,1.641,1.641,0,0,1-.2-.716s-.051.542-.307.678a2.825,2.825,0,0,1-.716.2s.532.092.678.307a2.068,2.068,0,0,1,.2.716Z" transform="translate(-21.01 -145.606)" fill="#fff"/>
          <path id="Path_563" data-name="Path 563" d="M29.44,224.927s-.136-.3-.1-.416a1.523,1.523,0,0,1,.259-.337.7.7,0,0,1-.412.092.918.918,0,0,1-.337-.256s.164.266.092.412a1.523,1.523,0,0,1-.256.337s.273-.14.412-.092A1.156,1.156,0,0,1,29.44,224.927Z" transform="translate(-23.475 -188.515)" fill="#fff"/>
          <path id="Path_564" data-name="Path 564" d="M14.464,139.244s-.31-.1-.372-.208a1.562,1.562,0,0,1-.078-.416s-.065.283-.208.368a.922.922,0,0,1-.416.078s.307.058.372.208a1.631,1.631,0,0,1,.075.416s.082-.3.208-.368A1.233,1.233,0,0,1,14.464,139.244Z" transform="translate(-13.39 -132.232)" fill="#fff"/>
          <path id="Path_565" data-name="Path 565" d="M55.144,150.944s-.31-.1-.368-.208a1.561,1.561,0,0,1-.078-.416s-.065.283-.208.368a.935.935,0,0,1-.419.078s.307.058.368.208a1.672,1.672,0,0,1,.075.419s.082-.3.208-.368a1.151,1.151,0,0,1,.419-.078Z" transform="translate(-40.203 -139.944)" fill="#fff"/>
        </g>
      </g>
    </g>
  </g>
</svg>
