<svg xmlns="http://www.w3.org/2000/svg" width="146.963" height="110.223" viewBox="0 0 146.963 110.223">
  <g id="_13" data-name="13" transform="translate(-25.1 -31.37)">
    <g id="Capa_1" transform="translate(25.1 31.37)">
      <g id="Group_399" data-name="Group 399" transform="translate(5.41 30.75)">
        <g id="Group_385" data-name="Group 385" transform="translate(49.797 2.29)">
          <path id="Path_566" data-name="Path 566" d="M203.113,122.073a.808.808,0,0,1-.618.951l-6.126,1.013a.8.8,0,0,1-.892-.7l-.246-1.5a.8.8,0,0,1,.618-.951l6.126-1.013a.8.8,0,0,1,.892.7l.246,1.5Z" transform="translate(-183.879 -118.288)" fill="#706f6f" stroke="#4c1905" stroke-miterlimit="10" stroke-width="1.6"/>
          <path id="Path_567" data-name="Path 567" d="M176.941,127.837c.09.552,0,1.025-.2,1.06l-2.989.5c-.2.035-.442-.387-.532-.939l-.3-1.815c-.09-.552,0-1.025.2-1.06l2.989-.493c.2-.035.442.387.532.939l.3,1.815Z" transform="translate(-170.279 -121.466)" fill="#706f6f" stroke="#4c1905" stroke-miterlimit="10" stroke-width="1.6"/>
          <path id="Path_568" data-name="Path 568" d="M232.691,118.595c.09.552,0,1.025-.2,1.06l-2.989.493c-.2.035-.442-.387-.532-.939l-.3-1.815c-.09-.552,0-1.025.2-1.06l2.989-.5c.2-.035.442.387.532.939l.3,1.815Z" transform="translate(-204.221 -115.835)" fill="#706f6f" stroke="#4c1905" stroke-miterlimit="10" stroke-width="1.6"/>
          <path id="Path_569" data-name="Path 569" d="M198.572,126.783a3.141,3.141,0,0,1-2.586,3.614l-25.164,4.17a3.141,3.141,0,0,1-3.614-2.59l-.935-5.641a3.141,3.141,0,0,1,2.59-3.614l25.168-4.17a3.141,3.141,0,0,1,3.614,2.59l.935,5.641Z" transform="translate(-166.23 -117.463)" fill="#706f6f" stroke="#4c1905" stroke-miterlimit="10" stroke-width="1.6"/>
          <path id="Path_570" data-name="Path 570" d="M199.175,128.4a2.762,2.762,0,0,1-2.5,2.969l-23.619,3.912a2.765,2.765,0,0,1-3.325-2l-.747-4.522a2.762,2.762,0,0,1,2.5-2.969l23.619-3.912a2.758,2.758,0,0,1,3.321,2l.747,4.522Z" transform="translate(-167.889 -119.485)" fill="#9d9d9c" stroke="#4c1905" stroke-miterlimit="10" stroke-width="1.6"/>
          <path id="Path_571" data-name="Path 571" d="M200.458,130.83c.156.939-.829,1.882-2.2,2.108L178.1,136.275c-1.373.227-2.609-.348-2.766-1.287l-.512-3.09c-.156-.939.829-1.882,2.2-2.108l20.153-3.337c1.373-.227,2.609.348,2.766,1.287Z" transform="translate(-171.453 -122.269)" fill="#706f6f" stroke="#4c1905" stroke-miterlimit="10" stroke-width="1.6"/>
          <path id="Path_572" data-name="Path 572" d="M200.456,130.192l-22.516,3.732,1.17-1.115,19.973-3.309Z" transform="translate(-173.359 -124.155)" fill="#121717"/>
          <path id="Path_573" data-name="Path 573" d="M201.176,134.512l-22.516,3.732,1.166-1.115L199.8,133.82Z" transform="translate(-173.798 -126.785)" fill="#121717"/>
          <path id="Path_574" data-name="Path 574" d="M201.886,138.832l-22.516,3.732,1.17-1.115,19.973-3.309Z" transform="translate(-174.23 -129.415)" fill="#121717"/>
          <path id="Path_575" data-name="Path 575" d="M212.24,175.406c-1.541-9.306-4.851-9.337-4.264-22.806l-3.853.638-3.853.638c5.12,13.55,1.78,13.66,3.321,22.962s4.119,11.8,4.616,14.8-1.76,5.5-.258,8.582c2.1,4.3,7.1,3.47,7.7-1.275.426-3.4-2.609-4.933-3.11-7.941s1.236-6.3-.309-15.6Z" transform="translate(-186.954 -138.218)" fill="#9d9d9c" stroke="#4c1905" stroke-miterlimit="10" stroke-width="1.6"/>
          <path id="Path_576" data-name="Path 576" d="M218.1,200.916c.657,3.97.223,7.35-.97,7.55s-2.7-2.86-3.352-6.834-.223-7.35.97-7.546,2.7,2.859,3.352,6.83Z" transform="translate(-194.989 -163.47)" fill="#706f6f" stroke="#4c1905" stroke-miterlimit="10" stroke-width="1.6"/>
          <path id="Path_577" data-name="Path 577" d="M209.958,154.1l1.072,8.395-1.69-8.293Z" transform="translate(-192.476 -139.132)" fill="#4c1905"/>
        </g>
        <g id="Group_388" data-name="Group 388">
          <path id="Path_578" data-name="Path 578" d="M65.2,171.015H44.287L41.78,119.72h26.2Z" transform="translate(-40.665 -115.91)" fill="#e77763" stroke="#4c1905" stroke-miterlimit="10" stroke-width="1.6"/>
          <path id="Path_579" data-name="Path 579" d="M67.646,109.98H38.93l1.115,3.81h26.2Z" transform="translate(-38.93 -109.98)" fill="#e77763" stroke="#4c1905" stroke-miterlimit="10" stroke-width="1.6"/>
          <path id="Path_580" data-name="Path 580" d="M48.19,262c0,2.046,20.908,2.136,20.908,0V250.85H48.19Z" transform="translate(-44.568 -195.745)" fill="#cacaca" stroke="#4c1905" stroke-miterlimit="10" stroke-width="1.6"/>
          <path id="Path_581" data-name="Path 581" d="M48.19,272.95v2.507c0,2.046,20.908,2.136,20.908,0V272.95Z" transform="translate(-44.568 -209.2)" fill="#ccc"/>
          <path id="Path_582" data-name="Path 582" d="M73.484,269.946c0,1.565-1.725,2.836-3.857,2.836s-3.857-1.267-3.857-2.836,1.725-2.836,3.857-2.836S73.484,268.381,73.484,269.946Z" transform="translate(-55.271 -205.645)" fill="#ccc"/>
          <path id="Path_583" data-name="Path 583" d="M71.811,168.241a7.075,7.075,0,0,1-7.3,6.83h0a7.075,7.075,0,0,1-7.3-6.83V148.17a7.075,7.075,0,0,1,7.3-6.83h0a7.075,7.075,0,0,1,7.3,6.83Z" transform="translate(-50.065 -129.073)" fill="#fff" stroke="#4c1905" stroke-miterlimit="10" stroke-width="1.6"/>
          <path id="Path_584" data-name="Path 584" d="M83.467,143.907a7.447,7.447,0,0,0-4.217-2.277v33.5a7.377,7.377,0,0,0,4.217-2.277V143.907Z" transform="translate(-63.478 -129.249)" fill="#ac463a"/>
          <g id="Group_386" data-name="Group 386" transform="translate(9.032 15.827)">
            <path id="Path_585" data-name="Path 585" d="M67.684,211.592H62.02v-1.553a1.55,1.55,0,0,1,.274-.9.954.954,0,0,1,.845-.4h3.431a1,1,0,0,1,.825.372,1.437,1.437,0,0,1,.293.919v1.561Zm-1.025-1.6H63.045c-.2,0-.3.117-.3.356h4.213c0-.239-.1-.356-.3-.356Z" transform="translate(-62.02 -185.934)" fill="#d06037"/>
            <path id="Path_586" data-name="Path 586" d="M67.382,201.38v1.51h1.072c.156,0,.235-.063.235-.2s-.078-.188-.235-.188H67.53V201.38h.931c.618,0,.927.442.927,1.322s-.321,1.31-.966,1.31H65.676c-.645,0-.966-.438-.966-1.31s.309-1.322.927-1.322Zm-.688,1.123H65.641c-.149,0-.227.063-.227.188s.074.2.227.2h1.052Z" transform="translate(-63.658 -181.454)" fill="#d06037"/>
            <path id="Path_587" data-name="Path 587" d="M69.21,195.514h1.08v1.127H64.731v-.853l.188-.094a1.032,1.032,0,0,1-.219-.657,1.379,1.379,0,0,1,.192-.712.606.606,0,0,1,.555-.325h3.294a.538.538,0,0,1,.462.239.949.949,0,0,1,.172.579,1.207,1.207,0,0,1-.168.7Zm-.751-.391h-2.84c-.141,0-.211.066-.211.2s.07.2.211.2h2.848a.178.178,0,0,0,.2-.2C68.67,195.189,68.6,195.123,68.459,195.123Z" transform="translate(-63.652 -176.96)" fill="#d06037"/>
            <path id="Path_588" data-name="Path 588" d="M62.845,190.54v1.127H62.02V190.54Zm4.839,0v1.127H63.1V190.54Z" transform="translate(-62.02 -174.854)" fill="#d06037"/>
            <path id="Path_589" data-name="Path 589" d="M67.684,187.04v1.127H62.02V187.04Z" transform="translate(-62.02 -172.723)" fill="#d06037"/>
            <path id="Path_590" data-name="Path 590" d="M69.322,179.59v.994h-.176c.16.086.243.325.243.724,0,.614-.239.919-.72.919h-.919a.745.745,0,0,1-.536-.223,3.691,3.691,0,0,1-.571-.9c-.133-.262-.239-.391-.317-.391h-.681c-.149,0-.227.066-.227.2,0,.149.184.223.548.223.067,0,.164,0,.293-.012s.227-.016.293-.016v1.087h-.915c-.618,0-.927-.446-.927-1.342,0-.837.321-1.256.966-1.256h3.65Zm-.857,1.127H67.284c.063.258.18.387.348.387h.833c.141,0,.211-.066.211-.2S68.606,180.717,68.465,180.717Z" transform="translate(-63.658 -168.187)" fill="#d06037"/>
            <path id="Path_591" data-name="Path 591" d="M67.922,173.214v.712c0,.509-.078.814-.231.911a1.748,1.748,0,0,1-.88.149h-2.8v.5h-.681v-.5H62.41v-1.127h.923v-.61h.681v.61H66.8a.283.283,0,0,0,.27-.121,1.244,1.244,0,0,0,.07-.528h.778Z" transform="translate(-62.257 -164.303)" fill="#d06037"/>
            <path id="Path_592" data-name="Path 592" d="M68.412,168.63H65.666c-.645,0-.966-.446-.966-1.338a1.781,1.781,0,0,1,.227-.911.75.75,0,0,1,.7-.391h2.824q.927,0,.927,1.3c0,.868-.321,1.338-.966,1.338Zm.031-1.518H65.635c-.149,0-.227.066-.227.2s.074.2.227.2h2.809c.156,0,.235-.066.235-.2S68.6,167.113,68.444,167.113Z" transform="translate(-63.652 -159.907)" fill="#d06037"/>
            <path id="Path_593" data-name="Path 593" d="M66.638,158.58v1.127h-.994c-.141,0-.211.063-.211.2s.066.192.2.192h3.689v1.127H64.741v-1.127h.153a1.074,1.074,0,0,1-.184-.7.925.925,0,0,1,.18-.575.567.567,0,0,1,.473-.243h1.279Z" transform="translate(-63.658 -155.396)" fill="#d06037"/>
            <path id="Path_594" data-name="Path 594" d="M64.774,150.444l4.561.872a1.394,1.394,0,0,1,.849.36,1.153,1.153,0,0,1,.149.63v.786h-.618a2.055,2.055,0,0,0-.043-.548q-.041-.106-.258-.106c-.145,0-.884.16-2.226.485l-2.417.583V152.38l2.421-.469-2.421-.372v-1.1Z" transform="translate(-63.694 -150.44)" fill="#d06037"/>
          </g>
          <g id="Group_387" data-name="Group 387" transform="translate(15.952 23.169)">
            <path id="Path_595" data-name="Path 595" d="M79.71,195.5a1.805,1.805,0,0,1,.035-.368,1.41,1.41,0,0,1,.09-.289.774.774,0,0,1,.113-.192.162.162,0,0,1,.11-.07c.07,0,.16,0,.27.008s.246.012.4.02v.133h-.082a.82.82,0,0,0-.2.023.613.613,0,0,0-.18.078.67.67,0,0,0-.153.145.952.952,0,0,0-.184.4,1.127,1.127,0,0,0-.023.231.99.99,0,0,0,.235.661,1.129,1.129,0,0,0,.262.227,1.826,1.826,0,0,0,.329.16,1.887,1.887,0,0,0,.376.094,2.7,2.7,0,0,0,.4.031,2.306,2.306,0,0,0,.446-.039,1.868,1.868,0,0,0,.387-.113,1.377,1.377,0,0,0,.317-.176,1.116,1.116,0,0,0,.239-.231.953.953,0,0,0,.149-.278.922.922,0,0,0,.051-.313,1.192,1.192,0,0,0-.1-.481,1.811,1.811,0,0,0-.137-.254,2.214,2.214,0,0,0-.2-.254.222.222,0,0,1,.016-.027l.02-.031.023-.023a.042.042,0,0,1,.027-.012.033.033,0,0,1,.027.012,2.1,2.1,0,0,1,.274.3,1.777,1.777,0,0,1,.18.305,1.288,1.288,0,0,1,.1.309,1.656,1.656,0,0,1,.031.309,1.432,1.432,0,0,1-.055.391,1.329,1.329,0,0,1-.164.344,1.366,1.366,0,0,1-.258.286,1.51,1.51,0,0,1-.336.219,2.164,2.164,0,0,1-.407.141,1.978,1.978,0,0,1-.465.047,2.4,2.4,0,0,1-.931-.188,1.85,1.85,0,0,1-.407-.239,1.655,1.655,0,0,1-.329-.333,1.441,1.441,0,0,1-.219-.43,1.618,1.618,0,0,1-.078-.524Z" transform="translate(-79.71 -184.638)" fill="#fff"/>
            <path id="Path_596" data-name="Path 596" d="M85.411,190.772v.023l-.313-.023c-.113-.008-.227-.012-.344-.02s-.231-.012-.348-.016l-.321-.012c-.1,0-.188-.008-.266-.008h-.188a.726.726,0,0,0-.1,0,.149.149,0,0,0-.066.02.092.092,0,0,0-.039.047.229.229,0,0,0-.012.082v.051a.391.391,0,0,0,.008.063.635.635,0,0,0,.016.074c.008.027.016.059.023.1l-.11.023c-.059-.168-.1-.3-.129-.407a1.238,1.238,0,0,1-.035-.211.173.173,0,0,1,.059-.145.3.3,0,0,1,.172-.043h.063c.035,0,.078,0,.133.008s.117.008.192.012.149.012.235.016l.262.023c.09.008.18.016.27.027v-.016a5.087,5.087,0,0,1-.552-.164,2.373,2.373,0,0,1-.446-.207,1.141,1.141,0,0,1-.3-.25.483.483,0,0,1-.11-.3.3.3,0,0,1,.02-.106.239.239,0,0,1,.051-.086.293.293,0,0,1,.078-.059.209.209,0,0,1,.1-.02.286.286,0,0,1,.129.031.277.277,0,0,1,.11.094v.012a.486.486,0,0,0-.078.121.319.319,0,0,0-.023.121.312.312,0,0,0,.027.133.373.373,0,0,0,.074.117.828.828,0,0,0,.207.16,2.161,2.161,0,0,0,.286.137,2.948,2.948,0,0,0,.329.11c.117.031.227.063.336.086s.211.043.309.059.176.023.243.031l.039.317Z" transform="translate(-81.817 -181.411)" fill="#fff"/>
            <path id="Path_597" data-name="Path 597" d="M84.909,185.144l.012-.023a.12.12,0,0,1,.02-.027c.008-.008.012-.016.02-.02a.056.056,0,0,1,.023-.008.014.014,0,0,1,.012,0,1.028,1.028,0,0,1,.2.184,1.144,1.144,0,0,1,.145.2.916.916,0,0,1,.086.215.832.832,0,0,1,.027.215.728.728,0,0,1-.074.332.83.83,0,0,1-.2.262.908.908,0,0,1-.3.168,1.139,1.139,0,0,1-.372.063,1.527,1.527,0,0,1-.325-.035,1.59,1.59,0,0,1-.309-.1,1.3,1.3,0,0,1-.274-.164,1.163,1.163,0,0,1-.219-.219,1,1,0,0,1-.145-.27.929.929,0,0,1-.055-.317.745.745,0,0,1,.031-.211.615.615,0,0,1,.086-.176.465.465,0,0,1,.141-.121.372.372,0,0,1,.188-.047.407.407,0,0,1,.27.1.8.8,0,0,1,.2.278,1.849,1.849,0,0,1,.129.415,4.815,4.815,0,0,1,.074.516h.027a1.237,1.237,0,0,0,.352-.047.818.818,0,0,0,.274-.137.619.619,0,0,0,.176-.2.506.506,0,0,0,.063-.25.671.671,0,0,0-.067-.278.991.991,0,0,0-.219-.29Zm-1.213.282a.344.344,0,0,0-.129.023.37.37,0,0,0-.106.066.284.284,0,0,0-.07.1.326.326,0,0,0-.027.125.448.448,0,0,0,.035.18.513.513,0,0,0,.094.145.687.687,0,0,0,.141.113,1.334,1.334,0,0,0,.168.082,1.427,1.427,0,0,0,.184.055,1.654,1.654,0,0,0,.184.031,3.161,3.161,0,0,0-.051-.383,1.11,1.11,0,0,0-.094-.286.516.516,0,0,0-.141-.18.291.291,0,0,0-.184-.063Z" transform="translate(-81.823 -178.854)" fill="#fff"/>
            <path id="Path_598" data-name="Path 598" d="M83.832,179.736a.49.49,0,0,0-.207.039.438.438,0,0,0-.145.1.357.357,0,0,0-.082.145.461.461,0,0,0-.027.16.59.59,0,0,0,.023.18.322.322,0,0,0,.063.121.219.219,0,0,0,.094.066.368.368,0,0,0,.117.02.379.379,0,0,0,.145-.027.657.657,0,0,0,.145-.078l.016.008a.4.4,0,0,1,.043.172.27.27,0,0,1-.016.1.26.26,0,0,1-.047.078.168.168,0,0,1-.074.051.256.256,0,0,1-.1.02.37.37,0,0,1-.168-.043.561.561,0,0,1-.145-.113.879.879,0,0,1-.117-.164,1.1,1.1,0,0,1-.086-.2,1.262,1.262,0,0,1-.055-.2,1.093,1.093,0,0,1-.02-.188.781.781,0,0,1,.043-.27.472.472,0,0,1,.121-.184.467.467,0,0,1,.2-.1,1.062,1.062,0,0,1,.258-.031,2.157,2.157,0,0,1,.219.008c.078,0,.164.012.25.02s.176.012.27.02.184.008.278.008a.55.55,0,0,0,.329-.082.25.25,0,0,0,.11-.211.492.492,0,0,0-.086-.258l.067-.043a.739.739,0,0,1,.153.219.614.614,0,0,1,.055.25.526.526,0,0,1-.031.18.45.45,0,0,1-.1.145.476.476,0,0,1-.164.094.7.7,0,0,1-.231.031h-.078a.3.3,0,0,1-.082-.012v.008a2.387,2.387,0,0,1,.254.149,1.348,1.348,0,0,1,.227.188.852.852,0,0,1,.16.219.533.533,0,0,1,.063.243.507.507,0,0,1-.035.192.438.438,0,0,1-.1.149.457.457,0,0,1-.149.094.507.507,0,0,1-.192.035.55.55,0,0,1-.243-.051.611.611,0,0,1-.2-.137.9.9,0,0,1-.149-.207,1.412,1.412,0,0,1-.106-.262,2.275,2.275,0,0,1-.063-.3,2.226,2.226,0,0,1-.02-.325c-.063-.008-.125-.012-.184-.016s-.125-.008-.2-.008Zm1.037.927a.532.532,0,0,0,.113-.012.339.339,0,0,0,.094-.039.214.214,0,0,0,.063-.07.206.206,0,0,0,.023-.1.367.367,0,0,0-.031-.141.705.705,0,0,0-.086-.145.855.855,0,0,0-.133-.133,1.823,1.823,0,0,0-.168-.117,1.1,1.1,0,0,0-.2-.086.75.75,0,0,0-.211-.043,2.134,2.134,0,0,0,.016.223,1.7,1.7,0,0,0,.035.211,1.123,1.123,0,0,0,.063.184.552.552,0,0,0,.1.145.487.487,0,0,0,.137.1.454.454,0,0,0,.184.035Z" transform="translate(-81.829 -175.085)" fill="#fff"/>
            <path id="Path_599" data-name="Path 599" d="M83.356,173.1c-.023-.07-.047-.141-.07-.207s-.039-.125-.055-.184-.027-.106-.035-.149a.581.581,0,0,1-.012-.1.174.174,0,0,1,.051-.137.267.267,0,0,1,.18-.051,1.038,1.038,0,0,1,.129.008c.066,0,.149.008.25.016s.215.016.34.027.266.023.407.039v-.008a4,4,0,0,1-.642-.227,2.281,2.281,0,0,1-.422-.243.847.847,0,0,1-.231-.25.5.5,0,0,1-.07-.243.284.284,0,0,1,.051-.176.43.43,0,0,1,.133-.117.665.665,0,0,1,.188-.066.979.979,0,0,1,.215-.02,1.875,1.875,0,0,1,.2.008c.07,0,.141.008.211.016s.133.012.2.02.117.012.164.016v-.008a4.17,4.17,0,0,1-.653-.227,1.881,1.881,0,0,1-.422-.246.9.9,0,0,1-.231-.25.49.49,0,0,1-.07-.243.405.405,0,0,1,.031-.149.307.307,0,0,1,.1-.125.594.594,0,0,1,.18-.09.894.894,0,0,1,.266-.035c.027,0,.07,0,.121,0s.106.008.168.012.129.012.2.016.141.012.207.016l.192.012c.063,0,.113,0,.156,0a1.361,1.361,0,0,0,.192-.008.358.358,0,0,0,.117-.031.141.141,0,0,0,.059-.059.214.214,0,0,0,.016-.094.639.639,0,0,0-.023-.164,1.154,1.154,0,0,0-.063-.172l.078-.027a1.192,1.192,0,0,1,.09.137,1.213,1.213,0,0,1,.082.176,1.7,1.7,0,0,1,.063.184.636.636,0,0,1,.023.16.19.19,0,0,1-.043.129.262.262,0,0,1-.121.07.744.744,0,0,1-.176.031c-.066,0-.141.008-.219.008a2.522,2.522,0,0,1-.293-.012l-.293-.023-.25-.023c-.074-.008-.133-.012-.168-.012a.424.424,0,0,0-.246.059.181.181,0,0,0-.082.156.256.256,0,0,0,.074.164.837.837,0,0,0,.2.172,2.367,2.367,0,0,0,.3.168,3.066,3.066,0,0,0,.379.145c.137.043.278.078.426.11a2.9,2.9,0,0,0,.446.059l.039.317v.023c-.211-.012-.4-.02-.563-.031s-.305-.02-.426-.027-.227-.012-.309-.02-.156-.008-.211-.008a.444.444,0,0,0-.254.059.173.173,0,0,0-.086.149.271.271,0,0,0,.07.168.912.912,0,0,0,.2.176,1.794,1.794,0,0,0,.3.164,3,3,0,0,0,.376.145,3.332,3.332,0,0,0,.422.106,3.477,3.477,0,0,0,.446.055l.039.317v.023l-.313-.023c-.113-.008-.227-.012-.344-.02s-.231-.012-.348-.016l-.321-.012c-.1,0-.188-.008-.266-.008h-.188a.429.429,0,0,0-.106.008.213.213,0,0,0-.066.027.107.107,0,0,0-.035.047.182.182,0,0,0-.012.066.573.573,0,0,0,.016.129c.012.051.023.11.039.172l-.11.023Z" transform="translate(-81.81 -169.21)" fill="#fff"/>
          </g>
        </g>
        <g id="Group_389" data-name="Group 389" transform="translate(41.589 16.764)">
          <path id="Path_600" data-name="Path 600" d="M187.472,190.448c1.51,1.5,1.052,4.823-.446,6.329l-.555.559a3.853,3.853,0,0,1-5.445.016l-34.377-34.173c-1.51-1.5-1.987-4.4-.489-5.907l1.029-.1a3.853,3.853,0,0,1,5.445-.016l34.838,33.289Z" transform="translate(-145.248 -154.787)" fill="#b57d3f" stroke="#4c1905" stroke-miterlimit="10" stroke-width="1.6"/>
          <path id="Path_601" data-name="Path 601" d="M187.776,188.13a3.853,3.853,0,0,1,.016,5.445l-.555.559a3.85,3.85,0,0,1-5.445.016l-34.377-34.173a3.853,3.853,0,0,1-.016-5.445l.555-.559a3.85,3.85,0,0,1,5.445-.016l34.377,34.173Z" transform="translate(-145.876 -152.836)" fill="#f6a654" stroke="#4c1905" stroke-miterlimit="10" stroke-width="1.6"/>
          <path id="Path_602" data-name="Path 602" d="M193.479,191.6a1.281,1.281,0,0,1,0,1.815h0a1.281,1.281,0,0,1-1.815,0l-30.246-30.066a1.284,1.284,0,0,1,0-1.815h0a1.281,1.281,0,0,1,1.815,0Z" transform="translate(-154.866 -157.905)" fill="#f9b256"/>
        </g>
        <g id="Group_394" data-name="Group 394" transform="translate(17.881 30.032)">
          <g id="Group_390" data-name="Group 390">
            <rect id="Rectangle_42" data-name="Rectangle 42" width="36.133" height="3.356" transform="translate(3.458 37.696)" fill="#cacaca" stroke="#4c1905" stroke-miterlimit="10" stroke-width="1.6"/>
            <rect id="Rectangle_43" data-name="Rectangle 43" width="36.133" height="3.356" transform="translate(3.458 9.163)" fill="#cacaca" stroke="#4c1905" stroke-miterlimit="10" stroke-width="1.6"/>
            <path id="Path_603" data-name="Path 603" d="M128.569,195.918H88.72V189.5c0-4.049,39.849-3.258,39.849,0Z" transform="translate(-87.124 -186.755)" fill="#e77763" stroke="#4c1905" stroke-miterlimit="10" stroke-width="1.6"/>
            <path id="Path_604" data-name="Path 604" d="M88.72,194.29v6.22h39.849v-6.22H88.72Z" transform="translate(-87.124 -191.342)" fill="#cdc2c8"/>
            <rect id="Rectangle_44" data-name="Rectangle 44" width="42.646" height="28.431" rx="9.84" transform="translate(0 10.842)" fill="#e7e7e7" stroke="#4c1905" stroke-miterlimit="10" stroke-width="1.6"/>
            <path id="Path_605" data-name="Path 605" d="M95.212,236.485a3.849,3.849,0,0,1-3.849-3.849V214.47H88.5a3.849,3.849,0,0,0-3.849,3.849v20.732A3.851,3.851,0,0,0,88.5,242.9h34.948a3.849,3.849,0,0,0,3.849-3.849v-2.566H95.212Z" transform="translate(-84.646 -203.628)" fill="#e3e3e3"/>
            <path id="Path_606" data-name="Path 606" d="M93.031,240.041a3.849,3.849,0,0,1-3.849-3.849V215.46a3.753,3.753,0,0,1,.133-.99h-.825a3.849,3.849,0,0,0-3.849,3.849v20.732a3.851,3.851,0,0,0,3.849,3.849h34.948a3.846,3.846,0,0,0,3.716-2.863H93.031Z" transform="translate(-84.64 -203.628)" fill="#e3e3e3"/>
            <path id="Path_607" data-name="Path 607" d="M93.187,200.253c0,.192-.207.344-.462.344h0c-.254,0-.465-.156-.465-.344V196.4c0-.192.207-.344.465-.344h0c.254,0,.462.156.462.344Z" transform="translate(-89.279 -192.42)" fill="#4c1905"/>
            <path id="Path_608" data-name="Path 608" d="M99.877,200.253c0,.192-.207.344-.465.344h0c-.254,0-.462-.156-.462-.344V196.4c0-.192.207-.344.462-.344h0c.258,0,.465.156.465.344Z" transform="translate(-93.352 -192.42)" fill="#4c1905"/>
            <path id="Path_609" data-name="Path 609" d="M106.567,200.253c0,.192-.207.344-.466.344h0c-.254,0-.462-.156-.462-.344V196.4c0-.192.207-.344.462-.344h0c.254,0,.466.156.466.344Z" transform="translate(-97.425 -192.42)" fill="#4c1905"/>
            <path id="Path_610" data-name="Path 610" d="M113.273,200.253c0,.192-.207.344-.462.344h0c-.254,0-.462-.156-.462-.344V196.4c0-.192.207-.344.462-.344h0c.254,0,.462.156.462.344Z" transform="translate(-101.511 -192.42)" fill="#4c1905"/>
            <path id="Path_611" data-name="Path 611" d="M119.963,200.253c0,.192-.207.344-.462.344h0c-.254,0-.462-.156-.462-.344V196.4c0-.192.207-.344.462-.344h0c.254,0,.462.156.462.344Z" transform="translate(-105.584 -192.42)" fill="#4c1905"/>
            <path id="Path_612" data-name="Path 612" d="M126.647,200.253c0,.192-.207.344-.465.344h0c-.254,0-.462-.156-.462-.344V196.4c0-.192.207-.344.462-.344h0c.254,0,.465.156.465.344Z" transform="translate(-109.651 -192.42)" fill="#4c1905"/>
            <path id="Path_613" data-name="Path 613" d="M133.343,200.253c0,.192-.207.344-.462.344h0c-.254,0-.462-.156-.462-.344V196.4c0-.192.207-.344.462-.344h0c.254,0,.462.156.462.344Z" transform="translate(-113.73 -192.42)" fill="#4c1905"/>
            <path id="Path_614" data-name="Path 614" d="M140.027,200.253c0,.192-.207.344-.462.344h0c-.258,0-.466-.156-.466-.344V196.4c0-.192.207-.344.466-.344h0c.254,0,.462.156.462.344Z" transform="translate(-117.797 -192.42)" fill="#4c1905"/>
            <path id="Path_615" data-name="Path 615" d="M146.727,200.253c0,.192-.207.344-.462.344h0c-.254,0-.465-.156-.465-.344V196.4c0-.192.207-.344.465-.344h0c.254,0,.462.156.462.344Z" transform="translate(-121.876 -192.42)" fill="#4c1905"/>
            <path id="Path_616" data-name="Path 616" d="M153.423,200.253c0,.192-.207.344-.462.344h0c-.254,0-.462-.156-.462-.344V196.4c0-.192.207-.344.462-.344h0c.254,0,.462.156.462.344Z" transform="translate(-125.955 -192.42)" fill="#4c1905"/>
            <path id="Path_617" data-name="Path 617" d="M160.113,200.253c0,.192-.207.344-.462.344h0c-.254,0-.462-.156-.462-.344V196.4c0-.192.207-.344.462-.344h0c.254,0,.462.156.462.344Z" transform="translate(-130.028 -192.42)" fill="#4c1905"/>
            <path id="Path_618" data-name="Path 618" d="M166.8,200.253c0,.192-.207.344-.462.344h0c-.254,0-.462-.156-.462-.344V196.4c0-.192.207-.344.462-.344h0c.254,0,.462.156.462.344Z" transform="translate(-134.101 -192.42)" fill="#4c1905"/>
            <path id="Path_619" data-name="Path 619" d="M173.487,200.253c0,.192-.207.344-.466.344h0c-.254,0-.462-.156-.462-.344V196.4c0-.192.207-.344.462-.344h0c.254,0,.466.156.466.344Z" transform="translate(-138.168 -192.42)" fill="#4c1905"/>
            <path id="Path_620" data-name="Path 620" d="M180.177,200.253c0,.192-.207.344-.462.344h0c-.254,0-.465-.156-.465-.344V196.4c0-.192.207-.344.465-.344h0c.254,0,.462.156.462.344Z" transform="translate(-142.241 -192.42)" fill="#4c1905"/>
            <path id="Path_621" data-name="Path 621" d="M186.877,200.253c0,.192-.207.344-.462.344h0c-.254,0-.465-.156-.465-.344V196.4c0-.192.207-.344.465-.344h0c.254,0,.462.156.462.344Z" transform="translate(-146.32 -192.42)" fill="#4c1905"/>
          </g>
          <path id="Path_622" data-name="Path 622" d="M98.95,234c0,5.062,7.241,9.165,16.171,9.165s16.167-4.1,16.167-9.165-7.241-9.165-16.167-9.165S98.95,228.933,98.95,234Z" transform="translate(-93.352 -209.936)" fill="#de6050"/>
          <g id="Group_393" data-name="Group 393" transform="translate(13.37 17.48)">
            <g id="Group_391" data-name="Group 391" transform="translate(1.177 6.008)">
              <path id="Path_623" data-name="Path 623" d="M128.241,246.8l-.923,7.2h-1.874l-.567-3.974L124.341,254h-1.616l-.9-7.2h1.424l.4,3.325.548-3.325h1.784l.43,3.325.532-3.325Z" transform="translate(-121.83 -246.8)" fill="#fff"/>
              <path id="Path_624" data-name="Path 624" d="M142.086,256.059h-1.267v-.227c-.106.2-.415.305-.919.305-.778,0-1.17-.305-1.17-.915v-1.17a.943.943,0,0,1,.286-.685,4.642,4.642,0,0,1,1.142-.728c.332-.168.5-.3.5-.4v-.865c0-.192-.082-.286-.246-.286-.188,0-.282.231-.282.7,0,.082,0,.207.016.372s.02.289.02.372h-1.381v-1.166q0-1.179,1.709-1.181,1.6,0,1.6,1.232v4.639Zm-1.432-1.087v-1.5c-.329.082-.493.227-.493.442v1.06c0,.176.086.266.254.266s.235-.09.235-.266Z" transform="translate(-132.119 -248.858)" fill="#fff"/>
              <path id="Path_625" data-name="Path 625" d="M151.793,256.138h-1.576l-.493-1.58-.462,1.58H147.83l1.119-3.082-1.091-2.746h1.51l.489,1.514.387-1.514H151.6l-.958,2.816,1.146,3.012Z" transform="translate(-137.659 -248.937)" fill="#fff"/>
            </g>
            <g id="Group_392" data-name="Group 392">
              <path id="Path_626" data-name="Path 626" d="M120.107,233.752q.088.158.2.352c.074.129.156.266.239.407s.172.289.266.442.184.305.278.458.188.305.282.454.18.293.27.43.168.266.246.387.149.227.211.325v-.939c0-.282,0-.536.008-.763s.008-.43.012-.606.012-.332.02-.462.02-.246.027-.34a1.99,1.99,0,0,1,.039-.231.387.387,0,0,1,.051-.129.253.253,0,0,1,.074-.082.273.273,0,0,1,.09-.043.427.427,0,0,1,.1-.012.736.736,0,0,1,.266.055v.02a1.344,1.344,0,0,0-.164.344,3.493,3.493,0,0,0-.117.473c-.031.172-.059.356-.078.548s-.035.383-.047.571-.02.372-.027.544-.012.329-.016.465c0,.121,0,.239-.008.352s0,.231-.008.344,0,.231,0,.348,0,.239,0,.364l-.235.031h-.035c-.039-.059-.086-.129-.149-.219s-.125-.2-.2-.309-.156-.243-.243-.383-.176-.282-.27-.434-.188-.305-.286-.458-.192-.313-.286-.466-.188-.305-.274-.45-.172-.282-.25-.411-.149-.246-.215-.352-.117-.2-.164-.27c0,.282-.008.559-.012.829s-.012.528-.023.775-.02.481-.031.7-.023.43-.035.618c-.008.133-.02.25-.027.344a1.562,1.562,0,0,1-.035.239.578.578,0,0,1-.051.153.191.191,0,0,1-.074.082.242.242,0,0,1-.106.035c-.039,0-.09.008-.145.008h-.149l-.027-.02a3.052,3.052,0,0,0,.149-.419c.043-.153.082-.317.113-.489s.059-.352.082-.536.043-.368.059-.552.027-.368.039-.544.016-.348.023-.509.008-.313.008-.45v-.36a.727.727,0,0,0-.012-.141.208.208,0,0,0-.047-.1.232.232,0,0,0-.09-.055.54.54,0,0,0-.149-.016,1.022,1.022,0,0,0-.149.008,1.816,1.816,0,0,0-.184.023l-.02-.168c.11-.023.2-.047.293-.067s.164-.035.235-.047.133-.023.192-.031a1.184,1.184,0,0,1,.156-.012.405.405,0,0,1,.125.016.347.347,0,0,1,.1.055.591.591,0,0,1,.09.1c.027.043.059.1.094.16Z" transform="translate(-118.82 -232.633)" fill="#fff"/>
              <path id="Path_627" data-name="Path 627" d="M131.294,238.432a.6.6,0,0,0-.051-.262.593.593,0,0,0-.129-.184.5.5,0,0,0-.184-.106.619.619,0,0,0-.2-.035.794.794,0,0,0-.231.027.465.465,0,0,0-.153.078.316.316,0,0,0-.086.117.457.457,0,0,0-.027.149.5.5,0,0,0,.035.184.737.737,0,0,0,.1.18l-.008.02a.52.52,0,0,1-.223.055.393.393,0,0,1-.121-.02.227.227,0,0,1-.1-.059.314.314,0,0,1-.066-.094.311.311,0,0,1-.023-.125.435.435,0,0,1,.055-.211.714.714,0,0,1,.145-.184.966.966,0,0,1,.211-.149,1.391,1.391,0,0,1,.246-.11,1.537,1.537,0,0,1,.254-.07,1.328,1.328,0,0,1,.239-.023.992.992,0,0,1,.344.055.576.576,0,0,1,.231.156.663.663,0,0,1,.129.25,1.224,1.224,0,0,1,.043.332,2.326,2.326,0,0,1-.012.278q-.012.153-.023.317c-.008.11-.016.227-.023.344s-.012.235-.012.352a.7.7,0,0,0,.1.415.324.324,0,0,0,.27.141.663.663,0,0,0,.333-.11l.055.082a.893.893,0,0,1-.282.2.749.749,0,0,1-.321.066.637.637,0,0,1-.231-.043.5.5,0,0,1-.184-.125.55.55,0,0,1-.117-.211.965.965,0,0,1-.043-.293v-.1c0-.031.008-.066.012-.106h-.012a2.52,2.52,0,0,1-.192.325,1.926,1.926,0,0,1-.239.286,1.232,1.232,0,0,1-.278.2.659.659,0,0,1-.309.078.61.61,0,0,1-.243-.047.585.585,0,0,1-.188-.125.571.571,0,0,1-.121-.192.686.686,0,0,1-.043-.242.728.728,0,0,1,.063-.309.777.777,0,0,1,.172-.246.955.955,0,0,1,.266-.188,1.722,1.722,0,0,1,.336-.133,2.3,2.3,0,0,1,.383-.078,2.822,2.822,0,0,1,.411-.027q.012-.123.023-.235c0-.074.008-.16.008-.25Zm-1.181,1.318a.587.587,0,0,0,.016.145.379.379,0,0,0,.051.121.258.258,0,0,0,.09.082.278.278,0,0,0,.133.031.44.44,0,0,0,.18-.039.69.69,0,0,0,.18-.113,1.192,1.192,0,0,0,.172-.172,1.428,1.428,0,0,0,.258-.462,1.539,1.539,0,0,0,.059-.266,2.275,2.275,0,0,0-.282.02,1.4,1.4,0,0,0-.266.047,1.192,1.192,0,0,0-.235.082.612.612,0,0,0-.184.125.545.545,0,0,0-.121.176.612.612,0,0,0-.043.235Z" transform="translate(-125.395 -235.196)" fill="#fff"/>
              <path id="Path_628" data-name="Path 628" d="M137.667,234.039c-.055.243-.1.5-.137.755s-.066.516-.094.767c.059,0,.117,0,.176,0h.4a1.842,1.842,0,0,0,.286-.02c.008.023.012.043.016.059s0,.035,0,.051a.1.1,0,0,1-.07.11.671.671,0,0,1-.2.023,2.511,2.511,0,0,1-.286-.016c-.106-.012-.219-.02-.344-.027-.016.137-.027.27-.035.4s-.016.254-.023.368-.012.223-.012.321v.258a3.423,3.423,0,0,0,.02.368.991.991,0,0,0,.074.274.4.4,0,0,0,.149.172.44.44,0,0,0,.239.059.871.871,0,0,0,.231-.035,1.5,1.5,0,0,0,.289-.117.2.2,0,0,1,.059.125c-.078.051-.16.1-.239.145a2.549,2.549,0,0,1-.239.11,1.366,1.366,0,0,1-.227.07.99.99,0,0,1-.207.023.571.571,0,0,1-.235-.047.416.416,0,0,1-.184-.168.939.939,0,0,1-.121-.325,2.679,2.679,0,0,1-.043-.516c0-.117,0-.239,0-.36s.008-.25.016-.376.016-.254.023-.379l.035-.376q-.153,0-.282.012a1.5,1.5,0,0,0-.223.035c0-.008-.008-.016-.008-.027a.1.1,0,0,1,.039-.074.4.4,0,0,1,.11-.067.794.794,0,0,1,.168-.047,1.7,1.7,0,0,1,.215-.027c.031-.266.063-.52.094-.759s.066-.45.1-.638a.226.226,0,0,1,.035-.082.177.177,0,0,1,.059-.051.241.241,0,0,1,.074-.027.589.589,0,0,1,.078-.008.332.332,0,0,1,.113.016.338.338,0,0,1,.094.039Z" transform="translate(-129.566 -232.986)" fill="#fff"/>
              <path id="Path_629" data-name="Path 629" d="M144.5,237.671c-.012.121-.023.25-.031.387s-.02.274-.027.411-.012.27-.016.4,0,.25,0,.36a3.056,3.056,0,0,0,.035.512,1.106,1.106,0,0,0,.094.313.34.34,0,0,0,.133.156.308.308,0,0,0,.149.043.209.209,0,0,0,.086-.012.681.681,0,0,0,.082-.027c.027-.012.047-.023.07-.035s.039-.023.055-.035l.063.09a1.139,1.139,0,0,1-.125.109,1.152,1.152,0,0,1-.149.09,1.176,1.176,0,0,1-.164.059.675.675,0,0,1-.176.02.586.586,0,0,1-.215-.043.48.48,0,0,1-.188-.149.874.874,0,0,1-.133-.278,1.509,1.509,0,0,1-.051-.43v-.164c0-.055.008-.113.012-.18s.012-.129.023-.2.02-.153.031-.239h-.02a4.751,4.751,0,0,1-.286.806,2.645,2.645,0,0,1-.313.528,1.11,1.11,0,0,1-.321.286.639.639,0,0,1-.309.086.426.426,0,0,1-.286-.094.7.7,0,0,1-.184-.254,1.39,1.39,0,0,1-.1-.372,3.308,3.308,0,0,1-.027-.45c0-.133,0-.274.012-.415s.02-.282.031-.419.027-.266.047-.391.035-.235.055-.332a.221.221,0,0,1,.031-.086.157.157,0,0,1,.051-.051.173.173,0,0,1,.063-.023c.023,0,.047,0,.07,0a.4.4,0,0,1,.121.016.67.67,0,0,1,.113.043c-.023.145-.043.289-.063.434s-.039.282-.051.419-.027.266-.035.391-.012.243-.012.352a2.612,2.612,0,0,0,.02.321,1.025,1.025,0,0,0,.059.25.377.377,0,0,0,.11.16.229.229,0,0,0,.16.055.491.491,0,0,0,.336-.176,1.9,1.9,0,0,0,.329-.516,4.526,4.526,0,0,0,.266-.759,4.679,4.679,0,0,0,.141-.911l.407-.051h.031Z" transform="translate(-133.06 -235.215)" fill="#fff"/>
              <path id="Path_630" data-name="Path 630" d="M149.97,240.464h-.031c.012-.125.02-.258.027-.4s.016-.289.023-.438.016-.293.02-.438.012-.282.016-.407.008-.239.008-.34v-.235a1.1,1.1,0,0,0,0-.121A.15.15,0,0,0,150,238a.109.109,0,0,0-.059-.051.261.261,0,0,0-.106-.016h-.066a.768.768,0,0,0-.078.012c-.027,0-.059.012-.094.02s-.074.02-.121.031l-.027-.137c.211-.078.383-.129.516-.164a1.194,1.194,0,0,1,.266-.047.2.2,0,0,1,.18.074.377.377,0,0,1,.055.219v.078c0,.043-.008.1-.012.172s-.012.153-.016.243-.016.192-.023.3-.016.215-.027.329-.02.231-.031.344h.02a7.125,7.125,0,0,1,.207-.7,3.192,3.192,0,0,1,.262-.567,1.428,1.428,0,0,1,.321-.379.614.614,0,0,1,.383-.137.4.4,0,0,1,.137.023.334.334,0,0,1,.11.063.309.309,0,0,1,.074.1.267.267,0,0,1,.027.125.339.339,0,0,1-.039.164.335.335,0,0,1-.117.141h-.016a.58.58,0,0,0-.153-.1.393.393,0,0,0-.153-.031.492.492,0,0,0-.168.031.6.6,0,0,0-.149.094,1.058,1.058,0,0,0-.2.266,2.616,2.616,0,0,0-.172.364c-.051.133-.1.274-.141.419s-.078.289-.11.43-.055.27-.074.391-.031.227-.039.309l-.4.051Z" transform="translate(-137.468 -235.203)" fill="#fff"/>
              <path id="Path_631" data-name="Path 631" d="M157.234,238.432a.6.6,0,0,0-.051-.262.535.535,0,0,0-.129-.184.5.5,0,0,0-.184-.106.619.619,0,0,0-.2-.035.794.794,0,0,0-.231.027.466.466,0,0,0-.153.078.315.315,0,0,0-.086.117.455.455,0,0,0-.027.149.5.5,0,0,0,.035.184.736.736,0,0,0,.1.18l-.008.02a.52.52,0,0,1-.223.055.394.394,0,0,1-.121-.02.227.227,0,0,1-.1-.059.316.316,0,0,1-.066-.094.311.311,0,0,1-.023-.125.436.436,0,0,1,.055-.211.715.715,0,0,1,.145-.184.967.967,0,0,1,.211-.149,1.389,1.389,0,0,1,.246-.11,1.537,1.537,0,0,1,.254-.07,1.328,1.328,0,0,1,.239-.023.991.991,0,0,1,.344.055.576.576,0,0,1,.231.156.662.662,0,0,1,.129.25,1.224,1.224,0,0,1,.043.332,2.329,2.329,0,0,1-.012.278q-.012.153-.023.317c-.008.11-.016.227-.023.344s-.012.235-.012.352a.7.7,0,0,0,.1.415.324.324,0,0,0,.27.141.664.664,0,0,0,.333-.11l.055.082a.893.893,0,0,1-.282.2.748.748,0,0,1-.321.066.637.637,0,0,1-.231-.043.5.5,0,0,1-.184-.125.55.55,0,0,1-.117-.211.963.963,0,0,1-.043-.293v-.1c0-.035.008-.066.012-.106h-.012a2.518,2.518,0,0,1-.192.325,1.925,1.925,0,0,1-.239.286,1.234,1.234,0,0,1-.278.2.659.659,0,0,1-.309.078.61.61,0,0,1-.243-.047.585.585,0,0,1-.188-.125.571.571,0,0,1-.121-.192.686.686,0,0,1-.043-.242.728.728,0,0,1,.063-.309.778.778,0,0,1,.172-.246,1.044,1.044,0,0,1,.266-.188,1.722,1.722,0,0,1,.336-.133,2.3,2.3,0,0,1,.383-.078,2.822,2.822,0,0,1,.411-.027q.012-.123.023-.235c0-.074.008-.16.008-.25Zm-1.181,1.318a.586.586,0,0,0,.016.145.378.378,0,0,0,.051.121.258.258,0,0,0,.09.082.278.278,0,0,0,.133.031.44.44,0,0,0,.18-.039.691.691,0,0,0,.18-.113,1.19,1.19,0,0,0,.172-.172,1.427,1.427,0,0,0,.258-.462,1.238,1.238,0,0,0,.055-.266,2.275,2.275,0,0,0-.282.02,1.4,1.4,0,0,0-.266.047,1.192,1.192,0,0,0-.235.082.611.611,0,0,0-.184.125.544.544,0,0,0-.121.176.612.612,0,0,0-.043.235Z" transform="translate(-141.188 -235.196)" fill="#fff"/>
              <path id="Path_632" data-name="Path 632" d="M164.214,231.491c-.027.219-.051.442-.074.669s-.047.462-.07.692-.043.469-.063.7-.035.469-.051.7-.023.454-.031.673-.012.43-.012.634c0,.129,0,.235,0,.329a1.837,1.837,0,0,0,.016.231.985.985,0,0,0,.027.153.243.243,0,0,0,.047.09.164.164,0,0,0,.063.043.285.285,0,0,0,.086.012.741.741,0,0,0,.2-.027,1.19,1.19,0,0,0,.215-.078l.035.1a1.883,1.883,0,0,1-.172.113,2.25,2.25,0,0,1-.219.106,1.954,1.954,0,0,1-.227.078.777.777,0,0,1-.192.031.237.237,0,0,1-.164-.051.375.375,0,0,1-.094-.172,1.5,1.5,0,0,1-.039-.309c-.008-.129-.008-.282-.008-.465,0-.066,0-.16.008-.286s.008-.266.016-.43.016-.344.023-.54.02-.4.027-.606.02-.419.031-.63.023-.419.035-.614.023-.383.031-.559.02-.332.027-.465a.126.126,0,0,1,.027-.078.285.285,0,0,1,.063-.055.483.483,0,0,1,.09-.031.413.413,0,0,1,.1-.008.532.532,0,0,1,.243.063Z" transform="translate(-146.016 -231.44)" fill="#fff"/>
            </g>
          </g>
        </g>
        <g id="Group_395" data-name="Group 395" transform="translate(85.018 3.708)">
          <path id="Path_633" data-name="Path 633" d="M327.126,275.142a10.453,10.453,0,0,0,3.481,1.24,6.022,6.022,0,0,0,5.973-2.238l-2.069-1.576a3.442,3.442,0,0,1-3.513,1.24c-2.484-.379-5.32-2.523-6.071-4.589-.97-2.676-.047-5.2,1.756-8.414l-2.269-1.275c-1.7,3.02-3.384,6.58-1.932,10.577a10.268,10.268,0,0,0,4.639,5.034Z" transform="translate(-296.246 -204.738)" fill="#6b6b6a" stroke="#4c1905" stroke-miterlimit="10" stroke-width="1.6"/>
          <path id="Path_634" data-name="Path 634" d="M273.063,129.474a1.356,1.356,0,0,1-1.842.52l-14.258-8a1.356,1.356,0,0,1-.52-1.842h0a1.356,1.356,0,0,1,1.842-.52l14.258,8a1.356,1.356,0,0,1,.52,1.842h0Z" transform="translate(-256.27 -119.46)" fill="#e77763" stroke="#4c1905" stroke-miterlimit="10" stroke-width="1.6"/>
          <path id="Path_635" data-name="Path 635" d="M293.363,134.1l2.594,1.455-3.814,6.8-3.02-1.694C287.652,139.842,290.95,132.75,293.363,134.1Z" transform="translate(-276.05 -128.271)" fill="#6b6b6a" stroke="#4c1905" stroke-miterlimit="10" stroke-width="1.6"/>
          <path id="Path_636" data-name="Path 636" d="M323.034,250.013l1.455-2.593,6.8,3.814L329.6,254.25c-.825,1.471-7.917-1.827-6.564-4.24Z" transform="translate(-296.813 -197.365)" fill="#6b6b6a" stroke="#4c1905" stroke-miterlimit="10" stroke-width="1.6"/>
          <path id="Path_637" data-name="Path 637" d="M300.186,130.83l5.187,2.91-7.366,13.128c-.035-.027-6.036-3.388-6.036-3.388C289.03,141.829,295.355,128.119,300.186,130.83Z" transform="translate(-277.549 -126.167)" fill="#a4a3a3" stroke="#4c1905" stroke-miterlimit="10" stroke-width="1.6"/>
          <path id="Path_638" data-name="Path 638" d="M320.059,182.952l7.593-1.432,2.789,14.794c-.055.008-8.833,1.666-8.833,1.666-4.307.814-8.618-13.7-1.545-15.025Z" transform="translate(-292.822 -157.244)" fill="#cacaca" stroke="#4c1905" stroke-miterlimit="10" stroke-width="1.6"/>
          <path id="Path_639" data-name="Path 639" d="M326.049,186.584l6.012-1.134,2.21,11.716c-.043,0-7,1.318-7,1.318-3.411.642-6.826-10.847-1.224-11.9Z" transform="translate(-296.942 -159.636)" fill="#949494" stroke="#4c1905" stroke-miterlimit="10" stroke-width="1.6"/>
          <path id="Path_640" data-name="Path 640" d="M311.249,176.155c-.286.54-1.037,2.981.876,4.053s8.2,4.6,10.225,5.739a3.358,3.358,0,0,0,4.362-.559c1.737-2.523,12.666-19.046,14.681-22.637s.391-13.323-3.673-15.6-12.807-7.186-17.955-10.073c-9.732-5.461-18.268,11.743-10.984,16.7l5.136,3.247c2.75,1.737,3.783,6.576,2.472,9.216S312.407,173.961,311.249,176.155Z" transform="translate(-286.577 -129.539)" fill="#cacaca" stroke="#4c1905" stroke-miterlimit="10" stroke-width="1.6"/>
          <path id="Path_641" data-name="Path 641" d="M329.81,185.959c-.164.313-.6,1.721.5,2.339s4.721,2.648,5.891,3.305a1.932,1.932,0,0,0,2.511-.325c1-1.455,7.311-11,8.473-13.073s.235-7.691-2.1-9-7.378-4.139-10.343-5.8c-5.606-3.145-10.534,6.791-6.341,9.642l2.957,1.874a4.662,4.662,0,0,1,1.42,5.316c-.759,1.526-2.3,4.459-2.969,5.727Z" transform="translate(-299.227 -145.843)" fill="#e77763" stroke="#4c1905" stroke-miterlimit="10" stroke-width="1.6"/>
          <path id="Path_642" data-name="Path 642" d="M338.661,176.815a2.151,2.151,0,0,0,.825,2.93l10.374,5.821a2.151,2.151,0,0,0,2.93-.825h0a2.152,2.152,0,0,0-.825-2.93l-10.374-5.821a2.147,2.147,0,0,0-2.93.825Z" transform="translate(-306.263 -153.708)" fill="#fff"/>
          <path id="Path_643" data-name="Path 643" d="M355.333,186.526c-.391.7-.313,1.479.176,1.753l4.866,2.73c.485.274,1.2-.07,1.588-.763h0c.391-.7.313-1.479-.176-1.753l-4.866-2.73c-.485-.274-1.2.07-1.588.763Z" transform="translate(-316.43 -159.77)" fill="#e77763" stroke="#4c1905" stroke-miterlimit="10" stroke-width="1.6"/>
          <path id="Path_644" data-name="Path 644" d="M351.78,199.984a.5.5,0,0,0,.231.653l4.788,2.687a.5.5,0,0,0,.681-.141h0a.491.491,0,0,0-.231-.653l-4.788-2.687a.5.5,0,0,0-.681.141Z" transform="translate(-314.388 -168.353)" fill="#8f4424"/>
          <path id="Path_645" data-name="Path 645" d="M349.16,204.654a.5.5,0,0,0,.231.653l4.788,2.687a.5.5,0,0,0,.681-.141h0a.491.491,0,0,0-.231-.653l-4.788-2.687a.5.5,0,0,0-.681.141Z" transform="translate(-312.793 -171.196)" fill="#8f4424"/>
          <path id="Path_646" data-name="Path 646" d="M346.538,209.324a.491.491,0,0,0,.231.653l4.788,2.687a.5.5,0,0,0,.681-.141h0a.493.493,0,0,0-.235-.653l-4.788-2.687a.5.5,0,0,0-.681.141h0Z" transform="translate(-311.195 -174.04)" fill="#8f4424"/>
          <path id="Path_647" data-name="Path 647" d="M350.029,221.848a1.563,1.563,0,1,0,2.128-.6A1.565,1.565,0,0,0,350.029,221.848Z" transform="translate(-313.231 -181.31)" fill="#e4b58b" stroke="#4c1905" stroke-miterlimit="10" stroke-width="1.6"/>
          <path id="Path_648" data-name="Path 648" d="M340.518,216.516a1.563,1.563,0,1,0,2.128-.6A1.562,1.562,0,0,0,340.518,216.516Z" transform="translate(-307.44 -178.064)" fill="#e4b58b" stroke="#4c1905" stroke-miterlimit="10" stroke-width="1.6"/>
        </g>
        <g id="Group_396" data-name="Group 396" transform="translate(85.135 9.47)">
          <path id="Path_649" data-name="Path 649" d="M279.51,137.583c0-1.416,4.143-1.49,4.143,0v5.954H279.51Z" transform="translate(-270.536 -135.592)" fill="#cacaca" stroke="#4c1905" stroke-miterlimit="10" stroke-width="1.6"/>
          <path id="Path_650" data-name="Path 650" d="M285.92,136.54v7.026h1.635v-5.954C287.555,136.974,286.792,136.622,285.92,136.54Z" transform="translate(-274.439 -135.621)" fill="#cacaca"/>
          <path id="Path_651" data-name="Path 651" d="M256.57,135.446a1.257,1.257,0,0,0,1.256,1.256h14.235a1.257,1.257,0,0,0,1.256-1.256h0a1.257,1.257,0,0,0-1.256-1.256H257.826a1.257,1.257,0,0,0-1.256,1.256Z" transform="translate(-256.57 -134.19)" fill="#cacaca" stroke="#4c1905" stroke-miterlimit="10" stroke-width="1.6"/>
          <path id="Path_652" data-name="Path 652" d="M256.86,138.73a1.25,1.25,0,0,0,1.138.735h14.235a1.255,1.255,0,0,0,1.142-.735Z" transform="translate(-256.747 -136.954)" fill="#cacaca"/>
          <path id="Path_653" data-name="Path 653" d="M275.3,152.016c0-1.416,7.436-1.486,7.436,0v5.954H275.3Z" transform="translate(-267.973 -144.38)" fill="#cacaca" stroke="#4c1905" stroke-miterlimit="10" stroke-width="1.6"/>
          <path id="Path_654" data-name="Path 654" d="M286.83,150.97a7.8,7.8,0,0,1,1.514,3.536,16.108,16.108,0,0,1,.27,3.489h1.138v-5.954c0-.638-1.365-.99-2.922-1.072Z" transform="translate(-274.993 -144.406)" fill="#cacaca"/>
          <path id="Path_655" data-name="Path 655" d="M270.08,164.926c0-1.858,11.52-1.952,11.52,0v4.182H270.08Z" transform="translate(-264.795 -152.033)" fill="#b2b2b2" stroke="#4c1905" stroke-miterlimit="10" stroke-width="1.6"/>
          <path id="Path_656" data-name="Path 656" d="M283.81,163.5c.043.039.082.082.121.125a7.1,7.1,0,0,1,2.68,2.406,9.7,9.7,0,0,1,1.115,2.691l.164.129a.629.629,0,0,1,.2.254h1.874v-4.182C289.959,163.905,286.814,163.444,283.81,163.5Z" transform="translate(-273.154 -152.033)" fill="#cacaca"/>
          <path id="Path_657" data-name="Path 657" d="M276.12,152.642a4.96,4.96,0,0,1,1.67-.595c.708-.043,1.487-.211,1.721,0a34.927,34.927,0,0,1,1.353,3.7s-1.326-.043-2.374,0-2.371.211-2.371.211v-3.317Z" transform="translate(-268.473 -144.999)" fill="#fff"/>
          <path id="Path_658" data-name="Path 658" d="M271.445,166.108c-.137-.829,4.53-1.193,4.835-1.107,2.175.634,3.075,4.42,3.075,4.42h-7.91a25.878,25.878,0,0,0,0-3.317Z" transform="translate(-265.625 -152.941)" fill="#fff"/>
          <path id="Path_659" data-name="Path 659" d="M282.448,142.262l-1.678-.082v2.91a15.348,15.348,0,0,0,1.678.188v-3.012Z" transform="translate(-271.304 -139.055)" fill="#fff"/>
          <path id="Path_660" data-name="Path 660" d="M273.65,135.526a.245.245,0,0,1-.246.246H259.986a.245.245,0,0,1-.246-.246h0a.245.245,0,0,1,.246-.246H273.4a.245.245,0,0,1,.246.246Z" transform="translate(-258.5 -134.854)" fill="#fff"/>
          <line id="Line_5" data-name="Line 5" y1="3.255" transform="translate(7.436 13.82)" fill="none" stroke="#4c1905" stroke-linecap="round" stroke-miterlimit="10" stroke-width="1.6"/>
          <line id="Line_6" data-name="Line 6" y1="3.255" transform="translate(9.791 13.82)" fill="none" stroke="#4c1905" stroke-linecap="round" stroke-miterlimit="10" stroke-width="1.6"/>
          <line id="Line_7" data-name="Line 7" y1="3.255" transform="translate(12.146 13.82)" fill="none" stroke="#4c1905" stroke-linecap="round" stroke-miterlimit="10" stroke-width="1.6"/>
          <line id="Line_8" data-name="Line 8" y1="3.255" transform="translate(14.501 13.82)" fill="none" stroke="#4c1905" stroke-linecap="round" stroke-miterlimit="10" stroke-width="1.6"/>
          <path id="Path_661" data-name="Path 661" d="M280.631,219.653c0,1.674-1.115,3.345-2.789,3.345H265.668c-1.58,0-3.438-.649-3.438-3.345v-38.84a3.5,3.5,0,0,1,3.345-2.973h11.242c2.046,0,3.81.931,3.81,2.973v38.84Z" transform="translate(-260.016 -160.765)" fill="#a1d2d9" stroke="#4c1905" stroke-miterlimit="10" stroke-width="1.6"/>
          <path id="Path_662" data-name="Path 662" d="M271.988,220.862c1.58,0,3.438-.649,3.438-3.345v-38.84a2.182,2.182,0,0,0-.2-.837H277.1a3.5,3.5,0,0,1,3.345,2.973v38.84c0,2.7-1.858,3.345-3.438,3.345H264.833a2.835,2.835,0,0,1-2.594-2.136Z" transform="translate(-260.022 -160.765)" fill="#d1e1eb"/>
          <path id="Path_663" data-name="Path 663" d="M269.125,218.763c0,1.283-.771,2.324-1.717,2.324h0c-.951,0-1.717-1.041-1.717-2.324v-31.22c0-1.283.771-2.324,1.717-2.324h0c.951,0,1.717,1.04,1.717,2.324Z" transform="translate(-262.122 -165.258)" fill="#fff"/>
        </g>
        <g id="Group_397" data-name="Group 397" transform="translate(43.715 43.282)">
          <path id="Path_664" data-name="Path 664" d="M184.3,244.7c-2.629,2.3-21.382,18.671-31.337,7.272-8.551-9.791,9.639-26.807,12.271-29.1,1.979-1.729,5.085-3.861,10.362-.372a30.278,30.278,0,0,1,5.9,5.418,28.583,28.583,0,0,1,4.667,6.861c2.417,5.406.074,8.238-1.858,9.928Z" transform="translate(-150.687 -220.627)" fill="#cacaca" stroke="#4c1905" stroke-miterlimit="10" stroke-width="1.6"/>
          <path id="Path_665" data-name="Path 665" d="M157.648,251.672c-8.551-9.791,9.639-26.807,12.271-29.1a10.218,10.218,0,0,1,2.4-1.643c-3.36-.966-5.566.61-7.1,1.948-2.629,2.3-20.822,19.312-12.271,29.1,3.4,3.888,7.816,4.545,12.267,3.63a11.165,11.165,0,0,1-7.573-3.935Z" transform="translate(-150.682 -220.627)" fill="#dadada"/>
          <path id="Path_666" data-name="Path 666" d="M183.1,265.243c-1.076.939-8.727,7.62-14.724.755-5.152-5.9,2.167-12.971,3.243-13.906.81-.7,2.132-1.514,5.066.8a26.639,26.639,0,0,1,3.423,3.376,24.8,24.8,0,0,1,2.957,4.006c1.709,3.036.829,4.279.039,4.968Z" transform="translate(-160.349 -239.338)" fill="#e77763" stroke="#4c1905" stroke-miterlimit="10" stroke-width="1.6"/>
          <path id="Path_667" data-name="Path 667" d="M206.926,246.74c-13.4-7.018-19.066-21.832-19.066-21.832a13.186,13.186,0,0,1,1.185-.939C190.164,227.643,197.44,239.508,206.926,246.74Z" transform="translate(-173.317 -222.662)" fill="#c4c4c4"/>
          <path id="Path_668" data-name="Path 668" d="M222.69,269.81c.387.4.778.782,1.177,1.166" transform="translate(-194.522 -250.571)" fill="none" stroke="#4c1905" stroke-linecap="round" stroke-linejoin="round" stroke-width="1.6"/>
          <path id="Path_669" data-name="Path 669" d="M217.83,264.64c.254.286.512.567.778.849" transform="translate(-191.563 -247.423)" fill="none" stroke="#4c1905" stroke-linecap="round" stroke-linejoin="round" stroke-width="1.6"/>
          <path id="Path_670" data-name="Path 670" d="M213.36,259.47q.452.546.927,1.091" transform="translate(-188.842 -244.276)" fill="none" stroke="#4c1905" stroke-linecap="round" stroke-linejoin="round" stroke-width="1.6"/>
          <path id="Path_671" data-name="Path 671" d="M190.89,223.97c.649,2.124,3.352,6.982,7.35,12.1" transform="translate(-175.161 -222.662)" fill="none" stroke="#4c1905" stroke-linecap="round" stroke-linejoin="round" stroke-width="1.6"/>
          <path id="Path_672" data-name="Path 672" d="M220.974,237.292l-1.635,1.428a2.49,2.49,0,0,1-3.481.137l-7.777-8.907a2.491,2.491,0,0,1,.606-3.431l1.749-1.529c.125.07.25.149.379.227a25.6,25.6,0,0,1,5.68,5.054,24.053,24.053,0,0,1,4.358,6.685c.043.11.086.223.125.333Z" transform="translate(-185.35 -223.283)" fill="#ccc"/>
          <path id="Path_673" data-name="Path 673" d="M222.62,237.117l-1.2,1.052a2.252,2.252,0,0,1-3.169,0l-7.417-8.492a2.254,2.254,0,0,1,.426-3.141l1.314-1.146a28.759,28.759,0,0,1,5.59,5.128A27.032,27.032,0,0,1,222.62,237.117Z" transform="translate(-187.02 -223.527)" fill="#4d5961" stroke="#4c1905" stroke-miterlimit="10" stroke-width="1.6"/>
          <path id="Path_674" data-name="Path 674" d="M217.559,227.272a.291.291,0,0,1-.411-.027h0a.286.286,0,0,1,.027-.407l1.236-1.08a.291.291,0,0,1,.411.027h0a.291.291,0,0,1-.027.411l-1.24,1.08Z" transform="translate(-191.104 -223.707)" fill="#4c1905"/>
          <path id="Path_675" data-name="Path 675" d="M215.825,233.156a.286.286,0,0,1-.407-.027h0a.291.291,0,0,1,.027-.411l1.236-1.08a.291.291,0,0,1,.411.027h0a.291.291,0,0,1-.027.411l-1.24,1.08Z" transform="translate(-190.051 -227.287)" fill="#4c1905"/>
          <path id="Path_676" data-name="Path 676" d="M219.119,238.7a.291.291,0,0,1-.411-.027h0a.291.291,0,0,1,.027-.411l1.236-1.08a.286.286,0,0,1,.407.027h0a.286.286,0,0,1-.027.407l-1.236,1.08Z" transform="translate(-192.054 -230.66)" fill="#4c1905"/>
          <path id="Path_677" data-name="Path 677" d="M223.269,244.082a.291.291,0,0,1-.411-.027h0a.286.286,0,0,1,.027-.407l1.24-1.08a.291.291,0,0,1,.411.027h0a.291.291,0,0,1-.027.411l-1.236,1.08Z" transform="translate(-194.58 -233.941)" fill="#4c1905"/>
          <path id="Path_678" data-name="Path 678" d="M228.8,248.836a.291.291,0,0,1-.411-.027h0a.291.291,0,0,1,.027-.411l1.236-1.08a.291.291,0,0,1,.411.027h0a.291.291,0,0,1-.027.411Z" transform="translate(-197.947 -236.833)" fill="#4c1905"/>
          <path id="Path_679" data-name="Path 679" d="M232.639,253.236a.291.291,0,0,1-.411-.027h0a.291.291,0,0,1,.027-.411l1.236-1.08a.291.291,0,0,1,.411.027h0a.291.291,0,0,1-.027.411Z" transform="translate(-200.285 -239.512)" fill="#4c1905"/>
          <path id="Path_680" data-name="Path 680" d="M222.389,231.026a.291.291,0,0,1-.411-.027h0a.291.291,0,0,1,.027-.411l1.236-1.08a.291.291,0,0,1,.411.027h0a.291.291,0,0,1-.027.411Z" transform="translate(-194.045 -225.99)" fill="#4c1905"/>
          <path id="Path_681" data-name="Path 681" d="M227.189,235.6a.291.291,0,0,1-.411-.027h0a.291.291,0,0,1,.027-.411l1.236-1.08a.291.291,0,0,1,.411.027h0a.291.291,0,0,1-.027.411Z" transform="translate(-196.967 -228.772)" fill="#4c1905"/>
          <path id="Path_682" data-name="Path 682" d="M231.849,240.926a.291.291,0,0,1-.411-.027h0a.291.291,0,0,1,.027-.411l1.236-1.08a.291.291,0,0,1,.411.027h0a.291.291,0,0,1-.027.411Z" transform="translate(-199.804 -232.017)" fill="#4c1905"/>
          <path id="Path_683" data-name="Path 683" d="M235.879,246.476a.291.291,0,0,1-.411-.027h0a.291.291,0,0,1,.027-.411l1.236-1.08a.291.291,0,0,1,.411.027h0a.291.291,0,0,1-.027.411Z" transform="translate(-202.258 -235.396)" fill="#4c1905"/>
          <path id="Path_684" data-name="Path 684" d="M238.749,251.526a.291.291,0,0,1-.411-.027h0a.291.291,0,0,1,.027-.411l1.236-1.08a.291.291,0,0,1,.411.027h0a.291.291,0,0,1-.027.411l-1.24,1.08Z" transform="translate(-204.005 -238.471)" fill="#4c1905"/>
          <path id="Path_685" data-name="Path 685" d="M217.518,253.589c-.735.645-4.1-2-7.514-5.911s-5.582-7.6-4.847-8.242,3.079,3.525,6.49,7.432S218.254,252.948,217.518,253.589Z" transform="translate(-183.76 -232.038)" fill="#fff"/>
          <path id="Path_686" data-name="Path 686" d="M189.94,267.561a1.649,1.649,0,0,1-2.32-.156l-5.973-6.838a1.642,1.642,0,0,1,.156-2.32h0a1.642,1.642,0,0,1,2.32.156l5.973,6.838a1.642,1.642,0,0,1-.156,2.32Z" transform="translate(-169.287 -243.283)" fill="#fff"/>
          <path id="Path_687" data-name="Path 687" d="M187.235,264.378a.984.984,0,0,1-1.338.145l-2.8-3.208c-.282-.321-.137-.9.321-1.307h0a.984.984,0,0,1,1.338-.145l2.8,3.208c.282.321.137.9-.321,1.307h0Z" transform="translate(-170.329 -244.391)" fill="#e77763" stroke="#4c1905" stroke-miterlimit="10" stroke-width="1.6"/>
          <path id="Path_688" data-name="Path 688" d="M179.923,270.59a.378.378,0,0,1-.524-.07l-2.758-3.157a.379.379,0,0,1,0-.532h0a.378.378,0,0,1,.524.07l2.758,3.157a.375.375,0,0,1,0,.528h0Z" transform="translate(-166.42 -248.71)" fill="#8f4424"/>
          <path id="Path_689" data-name="Path 689" d="M176.843,273.286a.378.378,0,0,1-.524-.07l-2.758-3.157a.375.375,0,0,1,0-.528h0a.378.378,0,0,1,.524.07l2.758,3.157a.375.375,0,0,1,0,.528Z" transform="translate(-164.545 -250.354)" fill="#8f4424"/>
          <path id="Path_690" data-name="Path 690" d="M173.773,275.976a.374.374,0,0,1-.524-.07l-2.758-3.157a.375.375,0,0,1,0-.528h0a.378.378,0,0,1,.524.07l2.758,3.157a.375.375,0,0,1,0,.528Z" transform="translate(-162.676 -251.992)" fill="#8f4424"/>
          <path id="Path_691" data-name="Path 691" d="M185.173,281.656a1.192,1.192,0,1,1,.113-1.682A1.19,1.19,0,0,1,185.173,281.656Z" transform="translate(-170.477 -256.51)" fill="#e4b58b" stroke="#4c1905" stroke-miterlimit="10" stroke-width="1.6"/>
          <path id="Path_692" data-name="Path 692" d="M190.643,287.926a1.192,1.192,0,1,1,.113-1.682A1.19,1.19,0,0,1,190.643,287.926Z" transform="translate(-173.807 -260.327)" fill="#e4b58b" stroke="#4c1905" stroke-miterlimit="10" stroke-width="1.6"/>
        </g>
        <g id="Group_398" data-name="Group 398" transform="translate(77.171 41.397)">
          <path id="Path_693" data-name="Path 693" d="M244.06,217.236c0-1.858,11.52-1.952,11.52,0v4.182H244.06Z" transform="translate(-240.989 -215.807)" fill="#ac4f82" stroke="#4c1905" stroke-miterlimit="10" stroke-width="1.6"/>
          <line id="Line_9" data-name="Line 9" y1="3.255" transform="translate(5.218 2.356)" fill="none" stroke="#843c63" stroke-linecap="round" stroke-miterlimit="10" stroke-width="1.6"/>
          <line id="Line_10" data-name="Line 10" y1="3.255" transform="translate(7.577 2.356)" fill="none" stroke="#843c63" stroke-linecap="round" stroke-miterlimit="10" stroke-width="1.6"/>
          <line id="Line_11" data-name="Line 11" y1="3.255" transform="translate(9.932 2.356)" fill="none" stroke="#843c63" stroke-linecap="round" stroke-miterlimit="10" stroke-width="1.6"/>
          <line id="Line_12" data-name="Line 12" y1="3.255" transform="translate(12.287 2.356)" fill="none" stroke="#843c63" stroke-linecap="round" stroke-miterlimit="10" stroke-width="1.6"/>
          <path id="Path_694" data-name="Path 694" d="M254.611,256.363c0,1.674-1.115,3.345-2.789,3.345H239.648c-1.58,0-3.438-.649-3.438-3.345v-23.24a3.5,3.5,0,0,1,3.345-2.973H250.8c2.046,0,3.81.931,3.81,2.973v23.24Z" transform="translate(-236.21 -224.539)" fill="#d995c1" stroke="#4c1905" stroke-miterlimit="10" stroke-width="1.6"/>
          <path id="Path_695" data-name="Path 695" d="M244.667,257.571c-1.58,0-3.438-.649-3.438-3.345v-23.24a2.183,2.183,0,0,1,.2-.837h-1.874a3.5,3.5,0,0,0-3.345,2.973v23.24c0,2.7,1.858,3.345,3.438,3.345h12.173a2.844,2.844,0,0,0,2.594-2.136Z" transform="translate(-236.21 -224.539)" fill="#d9c0c8"/>
          <path id="Path_696" data-name="Path 696" d="M273.148,259.263c0,1.283-.771,2.324-1.717,2.324h0c-.951,0-1.721-1.04-1.721-2.324v-15.62c0-1.283.771-2.324,1.721-2.324h0c.951,0,1.717,1.041,1.717,2.324Z" transform="translate(-256.606 -231.34)" fill="#fff"/>
        </g>
      </g>
      <g id="Group_404" data-name="Group 404">
        <g id="Group_400" data-name="Group 400" transform="translate(121.613 42.752)">
          <path id="Path_697" data-name="Path 697" d="M361.9,177.053s2.668-.387,3.29-1.193a12.712,12.712,0,0,0,1.193-3.29s.149,2.382,1.193,3.29a7.708,7.708,0,0,0,3.29,1.193s-2.574.051-3.29,1.193a13.312,13.312,0,0,0-1.193,3.29s-.243-2.523-1.193-3.29A9.771,9.771,0,0,0,361.9,177.053Z" transform="translate(-351.765 -160.088)" fill="#fff"/>
          <path id="Path_698" data-name="Path 698" d="M335.99,180.078s1.217.43,1.663.223a6.069,6.069,0,0,0,1.236-1.131,2.75,2.75,0,0,0-.223,1.662,3.677,3.677,0,0,0,1.131,1.236s-1.1-.548-1.659-.223a6.271,6.271,0,0,0-1.236,1.131s.458-1.123.223-1.659a4.631,4.631,0,0,0-1.131-1.236Z" transform="translate(-335.99 -164.106)" fill="#fff"/>
          <path id="Path_699" data-name="Path 699" d="M385.81,142.2s.465-.469.465-.72a3.193,3.193,0,0,0-.25-.818s.379.442.716.465a1.852,1.852,0,0,0,.818-.254s-.493.391-.465.72a3.164,3.164,0,0,0,.254.818s-.423-.458-.72-.466a2.384,2.384,0,0,0-.818.254Z" transform="translate(-366.322 -140.66)" fill="#fff"/>
          <path id="Path_700" data-name="Path 700" d="M347.61,156.386s.372-.055.462-.168a1.829,1.829,0,0,0,.168-.458.8.8,0,0,0,.164.458,1.059,1.059,0,0,0,.458.168s-.36.008-.458.164a1.931,1.931,0,0,0-.164.462s-.035-.352-.168-.462A1.381,1.381,0,0,0,347.61,156.386Z" transform="translate(-343.065 -149.853)" fill="#fff"/>
          <path id="Path_701" data-name="Path 701" d="M362.49,248.568s1.217.43,1.662.223a6.07,6.07,0,0,0,1.236-1.13,2.781,2.781,0,0,0-.223,1.662,3.677,3.677,0,0,0,1.131,1.236s-1.1-.548-1.659-.223a6.394,6.394,0,0,0-1.236,1.13s.458-1.123.223-1.659a4.7,4.7,0,0,0-1.131-1.236Z" transform="translate(-352.124 -205.804)" fill="#fff"/>
          <path id="Path_702" data-name="Path 702" d="M394.21,239.547s.462-.469.465-.72a3.193,3.193,0,0,0-.25-.818s.379.442.72.466a1.852,1.852,0,0,0,.818-.254s-.493.391-.465.72a3.164,3.164,0,0,0,.254.818s-.422-.458-.72-.465a2.44,2.44,0,0,0-.818.25Z" transform="translate(-371.436 -199.929)" fill="#fff"/>
          <path id="Path_703" data-name="Path 703" d="M346.974,205.307s.462-.469.466-.72a3.157,3.157,0,0,0-.254-.818s.379.442.72.465a1.873,1.873,0,0,0,.818-.254s-.493.391-.466.72a3.217,3.217,0,0,0,.25.818s-.419-.458-.72-.465a2.416,2.416,0,0,0-.817.254Z" transform="translate(-342.675 -179.083)" fill="#fff"/>
          <path id="Path_704" data-name="Path 704" d="M358.75,223.916s.372-.055.458-.168a1.828,1.828,0,0,0,.168-.458.8.8,0,0,0,.164.458,1.068,1.068,0,0,0,.462.168s-.36.008-.462.168a1.924,1.924,0,0,0-.164.458s-.035-.352-.168-.458A1.409,1.409,0,0,0,358.75,223.916Z" transform="translate(-349.847 -190.967)" fill="#fff"/>
          <path id="Path_705" data-name="Path 705" d="M395.3,174.2s.289.239.43.231a1.765,1.765,0,0,0,.454-.184s-.235.239-.231.43a1.071,1.071,0,0,0,.184.454s-.246-.262-.43-.227a1.849,1.849,0,0,0-.454.184s.239-.262.227-.43a1.4,1.4,0,0,0-.184-.454Z" transform="translate(-372.069 -161.08)" fill="#fff"/>
          <path id="Path_706" data-name="Path 706" d="M384.657,217.09s.289.239.434.227a1.784,1.784,0,0,0,.45-.184.837.837,0,0,0-.231.43,1.045,1.045,0,0,0,.184.45s-.243-.262-.43-.227a1.779,1.779,0,0,0-.454.184s.239-.262.231-.43a1.324,1.324,0,0,0-.184-.45Z" transform="translate(-365.591 -187.192)" fill="#fff"/>
        </g>
        <g id="Group_401" data-name="Group 401" transform="translate(78.067 2.543)">
          <path id="Path_707" data-name="Path 707" d="M329.353,59.707s-2.461-.618-3.5.023a9.786,9.786,0,0,0-2.226,2.7s.528-2.644-.027-3.5a12.75,12.75,0,0,0-2.7-2.226s2.292.657,3.5-.023a7.711,7.711,0,0,0,2.23-2.7" transform="translate(-283.257 -47.678)" fill="#fff"/>
          <path id="Path_708" data-name="Path 708" d="M262.89,109.706s.81-1.005.767-1.49a6.073,6.073,0,0,0-.649-1.545,2.783,2.783,0,0,0,1.49.767,3.712,3.712,0,0,0,1.545-.649s-.888.853-.767,1.49a6.422,6.422,0,0,0,.653,1.545s-.908-.806-1.49-.767a4.707,4.707,0,0,0-1.541.653Z" transform="translate(-247.939 -79.757)" fill="#fff"/>
          <path id="Path_709" data-name="Path 709" d="M238.967,40.533s-.286-.595-.52-.681a3.086,3.086,0,0,0-.857-.035s.544-.211.677-.52a1.91,1.91,0,0,0,.035-.857s.2.595.52.677a3.286,3.286,0,0,0,.857.035s-.571.243-.681.52a2.368,2.368,0,0,0-.035.857Z" transform="translate(-232.536 -38.217)" fill="#fff"/>
          <path id="Path_710" data-name="Path 710" d="M225.049,74.007s.074-.368,0-.489a1.775,1.775,0,0,0-.376-.313.813.813,0,0,0,.489,0,1.087,1.087,0,0,0,.309-.376s-.113.34,0,.489a1.81,1.81,0,0,0,.376.309.9.9,0,0,0-.489,0,1.365,1.365,0,0,0-.309.379Z" transform="translate(-224.67 -59.154)" fill="#fff"/>
          <path id="Path_711" data-name="Path 711" d="M323.66,126.206s.81-1,.767-1.49a5.983,5.983,0,0,0-.653-1.545,2.772,2.772,0,0,0,1.49.767,3.7,3.7,0,0,0,1.545-.653s-.888.857-.767,1.49a6.26,6.26,0,0,0,.653,1.545s-.907-.806-1.49-.767A4.74,4.74,0,0,0,323.66,126.206Z" transform="translate(-284.938 -89.803)" fill="#fff"/>
          <path id="Path_712" data-name="Path 712" d="M365.237,74.133s-.286-.595-.52-.681a3.086,3.086,0,0,0-.857-.035s.544-.211.677-.52a1.909,1.909,0,0,0,.035-.857s.2.595.52.677a3.286,3.286,0,0,0,.857.035s-.571.243-.681.52a2.368,2.368,0,0,0-.035.857Z" transform="translate(-309.412 -58.674)" fill="#fff"/>
          <path id="Path_713" data-name="Path 713" d="M291.237,97.823s-.286-.595-.52-.681a3.086,3.086,0,0,0-.857-.035s.548-.211.681-.52a1.91,1.91,0,0,0,.035-.857s.2.595.524.681a3.285,3.285,0,0,0,.857.035s-.571.243-.681.52a2.368,2.368,0,0,0-.035.857Z" transform="translate(-264.359 -73.097)" fill="#fff"/>
          <path id="Path_714" data-name="Path 714" d="M340.785,87.814s.074-.368,0-.489a1.852,1.852,0,0,0-.375-.309.846.846,0,0,0,.489,0,1.052,1.052,0,0,0,.309-.376s-.113.34,0,.489a1.883,1.883,0,0,0,.376.313.9.9,0,0,0-.489,0,1.367,1.367,0,0,0-.309.376Z" transform="translate(-295.135 -67.562)" fill="#fff"/>
          <path id="Path_715" data-name="Path 715" d="M288.12,47.018s.321-.192.36-.329a1.84,1.84,0,0,0-.023-.489s.149.3.332.36a1.05,1.05,0,0,0,.489-.023s-.329.145-.36.329a1.9,1.9,0,0,0,.02.489s-.168-.313-.329-.36A1.381,1.381,0,0,0,288.12,47.018Z" transform="translate(-263.3 -42.942)" fill="#fff"/>
          <path id="Path_716" data-name="Path 716" d="M322.5,38.688s.321-.192.36-.329a1.841,1.841,0,0,0-.023-.489s.149.3.333.36a1.108,1.108,0,0,0,.489-.023s-.329.145-.36.329a1.832,1.832,0,0,0,.023.489s-.164-.313-.332-.36a1.356,1.356,0,0,0-.485.023Z" transform="translate(-284.231 -37.87)" fill="#fff"/>
        </g>
        <g id="Group_402" data-name="Group 402" transform="translate(22.978)">
          <path id="Path_717" data-name="Path 717" d="M141.845,70.422s-1.467-2.261-1.267-3.262a12.732,12.732,0,0,1,1.69-3.067s-1.889,1.459-3.262,1.267a7.707,7.707,0,0,1-3.063-1.69s1.655,1.972,1.267,3.262A13.223,13.223,0,0,1,135.52,70s2.062-1.479,3.266-1.267a9.856,9.856,0,0,1,3.063,1.69Z" transform="translate(-115.304 -51.035)" fill="#fff"/>
          <path id="Path_718" data-name="Path 718" d="M197.406,92.4s-1.127-.634-1.264-1.1a6.123,6.123,0,0,1,.035-1.674s-.477,1.037-1.1,1.26a3.7,3.7,0,0,1-1.674-.035s1.142.469,1.264,1.1a6.422,6.422,0,0,1-.035,1.674s.544-1.084,1.1-1.26a4.741,4.741,0,0,1,1.678.035Z" transform="translate(-150.543 -66.834)" fill="#fff"/>
          <path id="Path_719" data-name="Path 719" d="M163.82,33.561s.047-.657.235-.825a3.184,3.184,0,0,1,.782-.348,1.389,1.389,0,0,1-.821-.235,1.893,1.893,0,0,1-.348-.782s.031.63-.235.825a3.2,3.2,0,0,1-.782.348s.618.016.825.235a2.391,2.391,0,0,1,.348.782Z" transform="translate(-131.821 -31.37)" fill="#fff"/>
          <path id="Path_720" data-name="Path 720" d="M179.792,72.669s-.207-.313-.18-.454a1.706,1.706,0,0,1,.239-.426.8.8,0,0,1-.458.176,1.106,1.106,0,0,1-.43-.235s.231.278.176.458a1.835,1.835,0,0,1-.239.426s.289-.207.458-.176a1.343,1.343,0,0,1,.43.235Z" transform="translate(-141.715 -55.942)" fill="#fff"/>
          <path id="Path_721" data-name="Path 721" d="M95.432,119.581s-1.127-.634-1.26-1.1a6.153,6.153,0,0,1,.035-1.678s-.477,1.041-1.1,1.263a3.7,3.7,0,0,1-1.674-.035s1.138.469,1.26,1.1a6.242,6.242,0,0,1-.035,1.674s.548-1.084,1.1-1.264a4.71,4.71,0,0,1,1.674.035Z" transform="translate(-88.461 -83.382)" fill="#fff"/>
          <path id="Path_722" data-name="Path 722" d="M85.01,91.337s.047-.657.235-.821a3.184,3.184,0,0,1,.782-.348,1.42,1.42,0,0,1-.821-.235,1.893,1.893,0,0,1-.348-.782s.031.63-.235.821a3.2,3.2,0,0,1-.782.348s.622.016.821.235A2.391,2.391,0,0,1,85.01,91.337Z" transform="translate(-83.84 -66.548)" fill="#fff"/>
          <path id="Path_723" data-name="Path 723" d="M141.884,104.337s.047-.657.235-.821a3.036,3.036,0,0,1,.782-.348,1.405,1.405,0,0,1-.825-.235,1.892,1.892,0,0,1-.348-.782s.031.626-.235.821a3.2,3.2,0,0,1-.782.348s.622.016.825.235A2.391,2.391,0,0,1,141.884,104.337Z" transform="translate(-118.464 -74.463)" fill="#fff"/>
          <path id="Path_724" data-name="Path 724" d="M121.644,108.737s-.2-.317-.176-.458a1.728,1.728,0,0,1,.235-.426.8.8,0,0,1-.454.176,1.1,1.1,0,0,1-.43-.239s.231.274.176.454a1.88,1.88,0,0,1-.235.426s.289-.207.458-.176a1.373,1.373,0,0,1,.426.239Z" transform="translate(-106.318 -77.896)" fill="#fff"/>
          <path id="Path_725" data-name="Path 725" d="M135.112,48.278s-.372-.059-.458-.176a1.9,1.9,0,0,1-.16-.462.834.834,0,0,1-.172.458,1.1,1.1,0,0,1-.462.156s.36.012.458.176a1.781,1.781,0,0,1,.156.462s.039-.352.176-.458a1.344,1.344,0,0,1,.462-.16Z" transform="translate(-114.293 -41.276)" fill="#fff"/>
          <path id="Path_726" data-name="Path 726" d="M109.832,84.524s-.372-.059-.454-.172a1.738,1.738,0,0,1-.16-.462.817.817,0,0,1-.176.458,1.072,1.072,0,0,1-.462.16s.36.016.458.176a1.83,1.83,0,0,1,.156.462s.043-.352.176-.454a1.372,1.372,0,0,1,.462-.16Z" transform="translate(-98.902 -63.345)" fill="#fff"/>
        </g>
        <g id="Group_403" data-name="Group 403" transform="translate(0 26.968)">
          <path id="Path_727" data-name="Path 727" d="M47.942,146.193s-1.353-2.331-1.1-3.321a12.774,12.774,0,0,1,1.839-2.977s-1.96,1.361-3.321,1.1a7.735,7.735,0,0,1-2.981-1.839s1.553,2.05,1.1,3.321a13.286,13.286,0,0,1-1.839,2.981s2.128-1.377,3.321-1.1a9.8,9.8,0,0,1,2.977,1.839Z" transform="translate(-35.17 -123.963)" fill="#fff"/>
          <path id="Path_728" data-name="Path 728" d="M103.534,175.392s-1.091-.689-1.2-1.162a6.14,6.14,0,0,1,.117-1.67s-.528,1.013-1.162,1.2a3.734,3.734,0,0,1-1.674-.117s1.115.524,1.2,1.162a6.408,6.408,0,0,1-.117,1.67s.6-1.056,1.162-1.2a4.714,4.714,0,0,1,1.67.117Z" transform="translate(-70.464 -144.298)" fill="#fff"/>
          <path id="Path_729" data-name="Path 729" d="M105.749,102.5s.082-.653.274-.81a3.116,3.116,0,0,1,.8-.309,1.417,1.417,0,0,1-.81-.274,1.887,1.887,0,0,1-.309-.8s0,.63-.274.81a3.112,3.112,0,0,1-.8.309s.618.047.81.274A2.42,2.42,0,0,1,105.749,102.5Z" transform="translate(-73.52 -100.31)" fill="#fff"/>
          <path id="Path_730" data-name="Path 730" d="M131.094,129.736s-.188-.325-.156-.465a1.8,1.8,0,0,1,.258-.415.79.79,0,0,1-.465.153,1.076,1.076,0,0,1-.415-.258s.215.286.153.465a1.749,1.749,0,0,1-.258.415s.3-.192.465-.153a1.4,1.4,0,0,1,.415.258Z" transform="translate(-89.094 -117.625)" fill="#fff"/>
          <path id="Path_731" data-name="Path 731" d="M51.33,210.6s-1.091-.688-1.2-1.166a6.082,6.082,0,0,1,.121-1.67s-.528,1.013-1.166,1.2a3.713,3.713,0,0,1-1.67-.117s1.115.524,1.209,1.162a6.428,6.428,0,0,1-.117,1.67s.595-1.056,1.162-1.2a4.684,4.684,0,0,1,1.67.121Z" transform="translate(-38.683 -165.728)" fill="#fff"/>
          <path id="Path_732" data-name="Path 732" d="M44.113,268.251s.082-.653.274-.81a3.115,3.115,0,0,1,.8-.309,1.416,1.416,0,0,1-.81-.274,1.905,1.905,0,0,1-.309-.8s0,.63-.278.81a3.279,3.279,0,0,1-.8.309s.618.047.81.278a2.389,2.389,0,0,1,.309.8Z" transform="translate(-35.992 -201.223)" fill="#fff"/>
          <path id="Path_733" data-name="Path 733" d="M74.739,173.581s.082-.653.274-.81a3.128,3.128,0,0,1,.8-.309,1.434,1.434,0,0,1-.814-.274,1.887,1.887,0,0,1-.309-.8s0,.63-.274.81a3.168,3.168,0,0,1-.8.309s.618.047.81.274A2.42,2.42,0,0,1,74.739,173.581Z" transform="translate(-54.64 -143.585)" fill="#fff"/>
          <path id="Path_734" data-name="Path 734" d="M25.984,180.1s-.188-.325-.156-.465a1.8,1.8,0,0,1,.258-.415.82.82,0,0,1-.465.153,1.077,1.077,0,0,1-.419-.254s.219.286.156.462A1.75,1.75,0,0,1,25.1,180s.3-.192.462-.153a1.386,1.386,0,0,1,.419.258Z" transform="translate(-25.1 -148.291)" fill="#fff"/>
          <path id="Path_735" data-name="Path 735" d="M62.492,124.3s-.368-.078-.45-.2a1.815,1.815,0,0,1-.137-.469.816.816,0,0,1-.2.446,1.069,1.069,0,0,1-.469.137s.36.031.446.2a1.933,1.933,0,0,1,.133.469s.059-.348.2-.446a1.384,1.384,0,0,1,.469-.137Z" transform="translate(-47.103 -114.508)" fill="#fff"/>
          <path id="Path_736" data-name="Path 736" d="M27.278,127.485s-.368-.078-.446-.2a1.815,1.815,0,0,1-.137-.469.816.816,0,0,1-.2.446,1.082,1.082,0,0,1-.469.137s.36.031.45.2a1.8,1.8,0,0,1,.133.469s.059-.348.2-.446a1.384,1.384,0,0,1,.469-.137Z" transform="translate(-25.666 -116.45)" fill="#fff"/>
        </g>
      </g>
    </g>
  </g>
</svg>
