<?xml version="1.0" encoding="UTF-8"?>
<svg xmlns="http://www.w3.org/2000/svg" version="1.1" viewBox="0 0 425.2 325.56">
  <!-- Generator: Adobe Illustrator 29.8.2, SVG Export Plug-In . SVG Version: 2.1.1 Build 3)  -->
  <defs>
    <style>
      .st0 {
        fill: #aa7cb5;
      }

      .st1 {
        fill: #d8511f;
      }

      .st2 {
        fill: #b32c56;
      }

      .st3 {
        fill: #dadada;
      }

      .st4 {
        fill: #5d4579;
      }

      .st5 {
        fill: #ea547a;
      }

      .st6 {
        fill: #dedede;
      }

      .st6, .st7, .st8, .st9, .st10, .st11, .st12, .st13, .st14 {
        mix-blend-mode: multiply;
      }

      .st15 {
        fill: #545c7b;
      }

      .st16, .st17 {
        fill: #fff;
      }

      .st18 {
        fill: #474e67;
      }

      .st19 {
        fill: #b7b6b6;
      }

      .st20 {
        stroke: #fff;
        stroke-miterlimit: 10;
      }

      .st20, .st21 {
        fill: none;
      }

      .st22 {
        fill: #ccc;
      }

      .st23 {
        fill: #72bcc6;
      }

      .st7 {
        fill: #e6d5de;
      }

      .st24 {
        fill: #c3305e;
      }

      .st8 {
        fill: #c9cad0;
      }

      .st25 {
        isolation: isolate;
      }

      .st26 {
        fill: #7c5da4;
      }

      .st27 {
        fill: #bfe5fb;
      }

      .st9 {
        fill: #e6d5ce;
      }

      .st28, .st14 {
        fill: #c4e7fb;
      }

      .st29 {
        fill: #7d4e24;
      }

      .st30 {
        fill: #e6e6d5;
      }

      .st31 {
        fill: #a4dbf8;
      }

      .st11 {
        fill: #c4dae7;
      }

      .st12 {
        fill: #e0d3d2;
      }

      .st13 {
        fill: #d2d2d2;
      }

      .st32 {
        fill: #d995c1;
      }

      .st33 {
        fill: #8a8989;
      }

      .st34 {
        fill: #ede7ca;
      }

      .st17 {
        mix-blend-mode: soft-light;
      }

      .st35 {
        fill: #bdbcbc;
      }

      .st36 {
        fill: #eceae2;
      }

      .st37 {
        fill: #d0cbb2;
      }

      .st38 {
        fill: #f59b21;
      }

      .st39 {
        fill: #d4d4d4;
      }
    </style>
  </defs>
  <g class="st25">
    <g id="Capa_1">
      <g>
        <path class="st11" d="M294.46,275.37c0,2.6,20.88,4.71,46.64,4.71s46.64-2.11,46.64-4.71-20.88-4.71-46.64-4.71-46.64,2.11-46.64,4.71Z"/>
        <path class="st11" d="M203.48,276.79c0,2.6,20.88,4.71,46.64,4.71s46.64-2.11,46.64-4.71-20.88-4.71-46.64-4.71-46.64,2.11-46.64,4.71Z"/>
        <path class="st11" d="M272.61,284.26c0,1.67,9.94,3.03,22.2,3.03s22.2-1.35,22.2-3.03-9.94-3.03-22.2-3.03-22.2,1.35-22.2,3.03Z"/>
        <g>
          <path class="st34" d="M281.86,203.88c-2.79-10.6,16.83-8.96,16.83-8.96,0,0-1.47-1.8-.99-4.84,1.09-6.82,15.27-1.62,17.53-6.7,1.13-2.53-.22-10.55-3.36-11.92,4.44-2.02,22.6-.46,23.6,15.33,1.96.12,3.61-.14,5.17,1.45,1.22,1.24,2.66,4.27,1.57,6.05,6.52-.56,6.06,7.3,6.22,13.03l-66.59-3.45Z"/>
          <path class="st37" d="M328.63,186.8c1.96.12,3.61-.14,5.17,1.45,1.22,1.24,2.65,4.27,1.57,6.05,6.39-.55,6.07,6.98,6.21,12.67l6.86.35c-.16-5.72.3-13.59-6.22-13.03,1.08-1.78-.35-4.8-1.57-6.05-1.56-1.59-3.21-1.34-5.17-1.45-.92-14.58-16.47-17.03-22.34-15.73,6.72,1.09,14.83,5.32,15.49,15.73Z"/>
          <path class="st24" d="M343.41,269.72c0,3.44-3.05,5.57-6.84,5.57h-42.36c-4.32,0-6.84-1.9-6.84-5.57v-3.09c0-5.81,4.99-10.56,11.08-10.56h33.88c6.1,0,11.08,4.75,11.08,10.56v3.09Z"/>
          <path class="st5" d="M281.8,206.8v54.83c0,4.96,3.73,9.02,8.28,9.02h50.64c4.55,0,8.28-4.06,8.28-9.02v-54.83h-67.2Z"/>
          <rect class="st30" x="287.36" y="212.79" width="59.24" height="40.95"/>
          <rect class="st17" x="336.33" y="208.53" width="7.07" height="58.81"/>
          <rect class="st17" x="329.45" y="208.53" width="3.54" height="58.81"/>
          <path class="st7" d="M297.62,255.8v-33.32c0-6.98,2.38-12.02,5.76-15.67h-21.58v54.83c0,4.96,3.73,9.02,8.28,9.02h50.64c3.53,0,6.55-2.44,7.73-5.83h-42.55c-4.55,0-8.28-4.06-8.28-9.02Z"/>
          <path class="st7" d="M289.74,261.63v-54.83h-7.94v54.83c0,4.96,3.73,9.02,8.28,9.02h7.94c-4.56,0-8.28-4.06-8.28-9.02Z"/>
          <path class="st5" d="M350.82,205.43c0,1.26-.78,2.28-1.75,2.28h-67.12c-.97,0-1.75-1.02-1.75-2.28h0c0-1.26.78-2.28,1.75-2.28h67.12c.97,0,1.75,1.02,1.75,2.28h0Z"/>
          <path class="st7" d="M280.27,206.02c.2.97.87,1.7,1.68,1.7h67.12c.81,0,1.48-.72,1.68-1.7h-70.48Z"/>
          <path class="st17" d="M346.5,204.19c0,.44-.31.79-.7.79h-47.88c-.39,0-.7-.35-.7-.79h0c0-.44.31-.79.7-.79h47.88c.39,0,.7.36.7.79h0Z"/>
          <g>
            <path class="st2" d="M394.05,222.8c11.88,27.08-3.96,42.5-12.04,46.05-1.67.73-5.51,2.42-8.64,3.79-14.39,6.31-31.66-4.37-39.94-23.25-8.28-18.88-4.44-38.82,9.95-45.13,2.51-1.1,6.92-3.01,9.36-4.08,2.43-1.07,28.08-7.58,41.32,22.62Z"/>
            <path class="st5" d="M393.08,223.23c8.08,18.42,2.96,38.47-11.43,44.79-14.39,6.31-32.61-3.5-40.69-21.92-8.08-18.42-2.96-38.47,11.43-44.79,14.39-6.31,32.61,3.5,40.69,21.92Z"/>
            <path class="st20" d="M389.04,225c6.48,14.78,2.13,30.98-9.73,36.18-11.86,5.2-26.72-2.57-33.2-17.35-6.48-14.78-2.13-30.98,9.73-36.18,11.85-5.2,26.72,2.57,33.2,17.35Z"/>
            <path class="st7" d="M386.06,250.79c-14.39,6.31-32.61-3.5-40.69-21.92-2.6-5.92-3.82-12.01-3.82-17.76-5.47,9.2-6.08,22.47-.59,34.98,8.08,18.42,26.3,28.24,40.69,21.92,9.77-4.28,15.26-14.89,15.26-27.03-2.58,4.34-6.23,7.78-10.85,9.8Z"/>
          </g>
          <path class="st36" d="M317.35,174.89c-1-1.35-3-.23-2.27,1.32.68,1.43,1.12,2.91,1.73,4.35.78,1.84-.38,3.25-.76,4.89-.08.35.17.8.58.76,1.99-.21,2.36-2.87,2.43-4.48.1-2.28-.32-4.98-1.71-6.85Z"/>
          <path class="st36" d="M307.99,187.65c-.98-.28-2.33-.09-3.33.04-1.11.14-2.2.36-3.17.94-1.92,1.14-2.05,4.15-.33,5.56.58.48,1.61.22,1.58-.66-.02-.74-.67-1.81-.06-2.41.49-.49,1.62-.47,2.25-.5,1.07-.05,2.27.08,3.3-.2,1.63-.45,1.1-2.38-.24-2.76Z"/>
          <path class="st36" d="M299.64,196.44c-3.86-1.43-14.88-1.69-14.63,4.6.02.39.48.48.69.19,3.18-4.5,8.98-3.05,13.65-2.67,1.29.11,1.35-1.72.29-2.12Z"/>
          <path class="st36" d="M329.41,191.65c-1.56-1.36-4.21-1.47-6.14-1.01-.87.21-1.69.79-2.18,1.53-1.88-.74-4.25-.73-5.98-.39-2.57.5-5.54,3.58-3.49,6.16.3.38,1,.26,1.21-.16.36-.71.38-1.64.88-2.26.58-.72,1.66-.97,2.53-1.05,2.09-.2,3.52.7,5.33,1.49,1.19.51,2.78-.62,1.94-1.94-.1-.16-.24-.28-.36-.42.28-.24.65-.39,1.22-.46,1.37-.16,2.49.27,3.72.78,1.27.53,2.31-1.41,1.32-2.27Z"/>
        </g>
        <g>
          <path class="st1" d="M273.3,271.21c0,3.44-3.06,5.58-6.84,5.58h-42.36c-4.31,0-6.84-1.9-6.84-5.58v-3.09c0-5.81,4.99-10.56,11.08-10.56h33.88c6.1,0,11.08,4.75,11.08,10.56v3.09Z"/>
          <g>
            <path class="st19" d="M279.01,204.64c-.06-.69-.1-1.4-.1-2.13v-4.04c0-3.38-.65-4.49-2.41-4.49h-60.82c-2.43,0-3.58.88-3.58,4.49v4.04c0,.73-.03,1.44-.07,2.13h66.98Z"/>
            <path class="st6" d="M215.59,204.64v-5.75c0-.65-.38-1.17-.85-1.17s-.85.52-.85,1.17v5.75h1.71Z"/>
            <path class="st6" d="M219.77,204.64v-5.75c0-.65-.38-1.17-.85-1.17s-.85.52-.85,1.17v5.75h1.7Z"/>
            <path class="st6" d="M223.95,204.64v-5.75c0-.65-.38-1.17-.85-1.17s-.85.52-.85,1.17v5.75h1.71Z"/>
            <path class="st6" d="M228.12,204.64v-5.75c0-.65-.38-1.17-.85-1.17s-.85.52-.85,1.17v5.75h1.71Z"/>
            <path class="st6" d="M232.34,204.64v-5.75c0-.65-.38-1.17-.85-1.17s-.85.52-.85,1.17v5.75h1.71Z"/>
            <path class="st6" d="M236.15,204.64v-5.75c0-.65-.38-1.17-.85-1.17s-.85.52-.85,1.17v5.75h1.71Z"/>
            <path class="st6" d="M240.33,204.64v-5.75c0-.65-.38-1.17-.85-1.17s-.85.52-.85,1.17v5.75h1.71Z"/>
            <path class="st6" d="M244.5,204.64v-5.75c0-.65-.38-1.17-.85-1.17s-.85.52-.85,1.17v5.75h1.71Z"/>
            <path class="st6" d="M248.68,204.64v-5.75c0-.65-.38-1.17-.85-1.17s-.85.52-.85,1.17v5.75h1.71Z"/>
            <path class="st6" d="M252.9,204.64v-5.75c0-.65-.38-1.17-.85-1.17s-.85.52-.85,1.17v5.75h1.71Z"/>
            <path class="st6" d="M256.71,204.64v-5.75c0-.65-.38-1.17-.85-1.17s-.85.52-.85,1.17v5.75h1.7Z"/>
            <path class="st6" d="M260.88,204.64v-5.75c0-.65-.38-1.17-.85-1.17s-.85.52-.85,1.17v5.75h1.71Z"/>
            <path class="st6" d="M265.06,204.64v-5.75c0-.65-.38-1.17-.86-1.17s-.85.52-.85,1.17v5.75h1.71Z"/>
            <path class="st6" d="M269.24,204.64v-5.75c0-.65-.38-1.17-.85-1.17s-.85.52-.85,1.17v5.75h1.7Z"/>
            <path class="st6" d="M273.46,204.64v-5.75c0-.65-.38-1.17-.85-1.17s-.85.52-.85,1.17v5.75h1.71Z"/>
            <path class="st6" d="M277.27,204.64v-5.75c0-.65-.38-1.17-.85-1.17s-.85.52-.85,1.17v5.75h1.71Z"/>
          </g>
          <path class="st38" d="M211.69,208.3v54.83c0,4.96,3.73,9.02,8.28,9.02h50.64c4.56,0,8.28-4.06,8.28-9.02v-54.83h-67.2Z"/>
          <rect class="st30" x="217.26" y="214.28" width="59.24" height="40.95"/>
          <rect class="st17" x="266.23" y="210.02" width="7.07" height="58.81"/>
          <rect class="st17" x="259.35" y="210.02" width="3.54" height="58.81"/>
          <path class="st9" d="M227.52,257.29v-33.32c0-6.98,2.38-12.02,5.76-15.67h-21.58v54.83c0,4.96,3.73,9.02,8.28,9.02h50.64c3.53,0,6.55-2.44,7.74-5.83h-42.54c-4.56,0-8.28-4.06-8.28-9.02Z"/>
          <path class="st9" d="M219.63,263.13v-54.83h-7.94v54.83c0,4.96,3.73,9.02,8.28,9.02h7.94c-4.55,0-8.28-4.06-8.28-9.02Z"/>
          <path class="st38" d="M280.72,206.93c0,1.26-.78,2.28-1.75,2.28h-67.12c-.97,0-1.75-1.02-1.75-2.28h0c0-1.26.78-2.28,1.75-2.28h67.12c.96,0,1.75,1.02,1.75,2.28h0Z"/>
          <path class="st9" d="M210.17,207.51c.2.97.87,1.7,1.68,1.7h67.12c.81,0,1.48-.72,1.68-1.7h-70.49Z"/>
          <path class="st17" d="M276.4,205.68c0,.44-.32.79-.7.79h-47.88c-.39,0-.7-.35-.7-.79h0c0-.44.31-.79.7-.79h47.88c.39,0,.7.36.7.79h0Z"/>
        </g>
        <g>
          <path class="st22" d="M296.97,190.88c0-9.08-10.19-9.74-10.19.85v16.24h10.19v-17.09Z"/>
          <path class="st3" d="M303.55,210.28c0-2.9-1.23-3.2-3.56-3.2h-16.46c-2.65,0-3.89.75-3.89,3.84v3.46c0,4.89-1.77,8.89,1.97,8.89h20.79c3.74,0,1.15-4,1.15-8.89v-4.1Z"/>
          <path class="st33" d="M306.58,281.33c0,1.81-1.59,2.93-3.57,2.93h-22.1c-2.25,0-3.57-1-3.57-2.93v-1.63c0-3.05,2.6-5.55,5.78-5.55h17.67c3.18,0,5.78,2.5,5.78,5.55v1.63Z"/>
          <path class="st35" d="M282.91,217.57c0,.55-.29,1-.65,1h0c-.36,0-.65-.45-.65-1v-6.3c0-.55.29-1,.65-1h0c.36,0,.65.45.65,1v6.3Z"/>
          <path class="st35" d="M286.12,217.57c0,.55-.29,1-.65,1h0c-.36,0-.66-.45-.66-1v-6.3c0-.55.29-1,.66-1h0c.36,0,.65.45.65,1v6.3Z"/>
          <path class="st35" d="M289.32,217.57c0,.55-.29,1-.65,1h0c-.36,0-.66-.45-.66-1v-6.3c0-.55.29-1,.66-1h0c.36,0,.65.45.65,1v6.3Z"/>
          <path class="st35" d="M292.53,217.57c0,.55-.29,1-.65,1h0c-.36,0-.65-.45-.65-1v-6.3c0-.55.29-1,.65-1h0c.36,0,.65.45.65,1v6.3Z"/>
          <path class="st35" d="M295.77,217.57c0,.55-.29,1-.65,1h0c-.36,0-.65-.45-.65-1v-6.3c0-.55.29-1,.65-1h0c.36,0,.65.45.65,1v6.3Z"/>
          <path class="st35" d="M298.91,217.57c0,.55-.29,1-.65,1h0c-.36,0-.66-.45-.66-1v-6.3c0-.55.29-1,.66-1h0c.36,0,.65.45.65,1v6.3Z"/>
          <path class="st35" d="M302.15,217.57c0,.55-.29,1-.66,1h0c-.36,0-.65-.45-.65-1v-6.3c0-.55.29-1,.65-1h0c.36,0,.66.45.66,1v6.3Z"/>
          <path class="st29" d="M308.58,277.08c0,2.61-1.84,4.74-4.1,4.74h-25.03c-2.25,0-4.1-2.13-4.1-4.74v-54.86c0-2.61,1.84-4.74,4.1-4.74h25.03c2.25,0,4.1,2.13,4.1,4.74v54.86Z"/>
          <path class="st12" d="M287.27,278.76c-2.25,0-4.09-2.13-4.09-4.74v-43.29c0-12.76,14.16-13.24,14.16-13.24h-17.89c-2.25,0-4.1,2.13-4.1,4.74v54.86c0,2.61,1.84,4.74,4.1,4.74h25.03c1.75,0,3.24-1.28,3.83-3.07h-21.04Z"/>
          <path class="st12" d="M279.28,277.08v-54.86c0-2.61,1.84-4.74,4.1-4.74h-3.92c-2.25,0-4.1,2.13-4.1,4.74v54.86c0,2.61,1.84,4.74,4.1,4.74h3.92c-2.25,0-4.1-2.13-4.1-4.74Z"/>
          <rect class="st17" x="302.32" y="222.38" width="3.5" height="57.7"/>
          <rect class="st17" x="298.91" y="222.38" width="1.75" height="57.7"/>
          <path class="st34" d="M306.35,250.44c0,11.13-5.03,20.15-11.24,20.15s-11.24-9.02-11.24-20.15,5.03-20.15,11.24-20.15,11.24,9.02,11.24,20.15Z"/>
        </g>
      </g>
      <path class="st11" d="M132.24,281.62c0,2.19-19.34,3.97-43.2,3.97s-43.2-1.78-43.2-3.97,19.34-3.97,43.2-3.97,43.2,1.78,43.2,3.97Z"/>
      <path class="st11" d="M191.48,284.53c-23.58,0-42.69,1.78-42.69,3.97,0,.46.84.89,2.36,1.3-5.79-.39-12.68-.62-20.07-.62-17.85,0-32.76,1.33-36.43,3.12-14.13.57-24.19,2.02-24.19,3.72,0,2.19,16.7,3.97,37.3,3.97,17.85,0,32.76-1.34,36.43-3.12,14.13-.56,24.19-2.02,24.19-3.72,0-.53-.97-1.03-2.71-1.49,7.17.51,16.11.81,25.81.81,23.58,0,42.69-1.78,42.69-3.97s-19.12-3.97-42.69-3.97Z"/>
      <g>
        <g>
          <path class="st4" d="M212.19,275.85c0,3.4-2.99,5.5-6.7,5.5h-41.5c-4.23,0-6.7-1.88-6.7-5.5v-3.06c0-5.73,4.89-10.43,10.86-10.43h33.19c5.98,0,10.86,4.69,10.86,10.43v3.06Z"/>
          <path class="st26" d="M215.95,267.87c0,4.9-3.46,8.91-7.69,8.91h-47.02c-4.23,0-7.69-4.01-7.69-8.91v-115.92c0-15.58,11.76-17.31,11.76-25.99s39.04-7.94,39.04,0,11.6,10.41,11.6,25.99v115.92Z"/>
          <rect class="st34" x="175.28" y="177.28" width="40.11" height="61.08"/>
          <path class="st8" d="M168.24,267.87v-115.92c0-15.58,11.76-17.31,11.76-25.99,0-3.14,5.11-5.04,11.62-5.82-11.39-1.31-26.31.45-26.31,5.82,0,8.68-11.76,10.41-11.76,25.99v115.92c0,4.9,3.46,8.91,7.69,8.91h14.69c-4.23,0-7.69-4.01-7.69-8.91Z"/>
          <path class="st8" d="M160.75,267.87v-115.92c0-15.58,11.76-17.31,11.76-25.99,0-3.7,7.09-5.68,15.23-6.13-10.63-.56-22.43,1.36-22.43,6.13,0,8.68-11.76,10.41-11.76,25.99v115.92c0,4.9,3.46,8.91,7.69,8.91h7.2c-4.23,0-7.69-4.01-7.69-8.91Z"/>
          <path class="st3" d="M206.51,100.82c0-4.54-2.31-5.02-6.68-5.02h-30.91c-4.97,0-7.32,1.18-7.32,6.03v15.43c0,8.73,3.71,8.94,3.71,8.94h39.04s2.16,0,2.16-8.94v-16.44Z"/>
          <path class="st35" d="M167.74,117.27c0,.87-.55,1.57-1.23,1.57h0c-.68,0-1.23-.7-1.23-1.57v-14.88c0-.87.55-1.57,1.23-1.57h0c.68,0,1.23.7,1.23,1.57v14.88Z"/>
          <path class="st35" d="M173.76,117.27c0,.87-.55,1.57-1.23,1.57h0c-.68,0-1.23-.7-1.23-1.57v-14.88c0-.87.55-1.57,1.23-1.57h0c.68,0,1.23.7,1.23,1.57v14.88Z"/>
          <path class="st35" d="M179.79,117.27c0,.87-.55,1.57-1.23,1.57h0c-.68,0-1.23-.7-1.23-1.57v-14.88c0-.87.55-1.57,1.23-1.57h0c.67,0,1.23.7,1.23,1.57v14.88Z"/>
          <path class="st35" d="M185.81,117.27c0,.87-.55,1.57-1.23,1.57h0c-.68,0-1.23-.7-1.23-1.57v-14.88c0-.87.55-1.57,1.23-1.57h0c.68,0,1.23.7,1.23,1.57v14.88Z"/>
          <path class="st35" d="M191.9,117.27c0,.87-.55,1.57-1.23,1.57h0c-.68,0-1.23-.7-1.23-1.57v-14.88c0-.87.55-1.57,1.23-1.57h0c.68,0,1.23.7,1.23,1.57v14.88Z"/>
          <path class="st35" d="M197.79,117.27c0,.87-.55,1.57-1.23,1.57h0c-.68,0-1.23-.7-1.23-1.57v-14.88c0-.87.55-1.57,1.23-1.57h0c.68,0,1.23.7,1.23,1.57v14.88Z"/>
          <path class="st35" d="M203.88,117.27c0,.87-.55,1.57-1.23,1.57h0c-.68,0-1.23-.7-1.23-1.57v-14.88c0-.87.55-1.57,1.23-1.57h0c.68,0,1.23.7,1.23,1.57v14.88Z"/>
          <rect class="st17" x="204.2" y="142.13" width="6.56" height="131.36"/>
          <rect class="st17" x="197.8" y="142.13" width="3.28" height="131.36"/>
        </g>
        <g>
          <path class="st15" d="M97.45,95.85h-28.69c-6.71,0-11.43,9.49,2.06,9.49v19.05h18.62v-19.05h15.27c5.96,0,4.59-9.49-7.26-9.49Z"/>
          <path class="st3" d="M94.72,125.08c0-4.01-1.71-6.51-4.93-6.51h-19.13c-3.67,0-9.07,1.04-9.07,5.33v4.79c0,6.78-2.45,12.32,2.73,12.32h28.8c5.19,0,1.59-5.55,1.59-12.32v-3.61Z"/>
          <path class="st33" d="M105.3,275.59c0,3.29-2.9,5.33-6.49,5.33h-40.18c-4.09,0-6.49-1.81-6.49-5.33v-2.96c0-5.55,4.73-10.1,10.51-10.1h32.13c5.78,0,10.51,4.54,10.51,10.1v2.96Z"/>
          <path class="st35" d="M66.9,133.12c0,.77-.58,1.39-1.3,1.39h0c-.71,0-1.3-.62-1.3-1.39v-8.73c0-.77.58-1.39,1.3-1.39h0c.72,0,1.3.62,1.3,1.39v8.73Z"/>
          <path class="st35" d="M73.26,133.12c0,.77-.58,1.39-1.3,1.39h0c-.72,0-1.3-.62-1.3-1.39v-8.73c0-.77.58-1.39,1.3-1.39h0c.72,0,1.3.62,1.3,1.39v8.73Z"/>
          <path class="st35" d="M79.61,133.12c0,.77-.58,1.39-1.3,1.39h0c-.72,0-1.3-.62-1.3-1.39v-8.73c0-.77.58-1.39,1.3-1.39h0c.72,0,1.3.62,1.3,1.39v8.73Z"/>
          <path class="st35" d="M85.97,133.12c0,.77-.58,1.39-1.3,1.39h0c-.72,0-1.3-.62-1.3-1.39v-8.73c0-.77.58-1.39,1.3-1.39h0c.71,0,1.3.62,1.3,1.39v8.73Z"/>
          <path class="st35" d="M92.39,133.12c0,.77-.58,1.39-1.29,1.39h0c-.72,0-1.3-.62-1.3-1.39v-8.73c0-.77.58-1.39,1.3-1.39h0c.72,0,1.29.62,1.29,1.39v8.73Z"/>
          <path class="st39" d="M110.6,267.86c0,4.74-3.54,8.62-7.86,8.62h-48.03c-4.32,0-7.86-3.88-7.86-8.62v-128.76c0-4.74,3.54-8.62,7.86-8.62h48.03c4.32,0,7.86,3.88,7.86,8.62v128.76Z"/>
          <path class="st13" d="M69.73,270.91c-4.32,0-7.86-3.88-7.86-8.62v-107.72c0-23.19,27.17-24.08,27.17-24.08h-34.32c-4.32,0-7.86,3.88-7.86,8.62v128.76c0,4.74,3.54,8.62,7.86,8.62h48.03c3.34,0,6.21-2.33,7.34-5.58h-40.36Z"/>
          <path class="st13" d="M54.39,267.86v-128.76c0-4.74,3.54-8.62,7.86-8.62h-7.53c-4.32,0-7.86,3.88-7.86,8.62v128.76c0,4.74,3.54,8.62,7.86,8.62h7.53c-4.32,0-7.86-3.88-7.86-8.62Z"/>
          <rect class="st0" x="69.74" y="172.46" width="38.59" height="72.72"/>
          <rect class="st32" x="69.74" y="183.26" width="38.59" height="3.74"/>
          <rect class="st32" x="69.74" y="176.61" width="38.59" height="3.74"/>
          <rect class="st32" x="69.74" y="236.46" width="38.59" height="3.74"/>
          <rect class="st17" x="98.59" y="139.39" width="6.71" height="133.93"/>
          <rect class="st17" x="92.06" y="139.39" width="3.35" height="133.93"/>
          <rect class="st18" x="70.83" y="104.93" width="18.62" height="3.53"/>
        </g>
        <g>
          <g>
            <path class="st16" d="M238.57,272.95c.21-.86.34-1.76.35-2.69.06-6.51-5.18-11.84-11.69-11.89-1.44-.02-2.82.24-4.1.71-.23-1.84-1.75-3.28-3.63-3.37-.1-4.46-3.71-8.07-8.2-8.11-3.94-.03-7.24,2.69-8.13,6.36-2.79-7.99-10.33-13.76-19.28-13.84-7.24-.06-13.63,3.62-17.36,9.21-.76-.52-1.68-.82-2.66-.83-1.77-.01-3.31.94-4.16,2.36-2.37-.99-4.96-1.56-7.69-1.59-11.26-.1-20.48,8.95-20.58,20.22-.1,11.26,8.96,20.48,20.22,20.58,4.93.04,9.45-1.67,12.99-4.54,1.69,1.67,3.99,2.72,6.55,2.74,3.94.03,7.33-2.35,8.77-5.77.97,1.29,2.49,2.14,4.23,2.16,1.22,0,2.33-.4,3.24-1.08,1.21,3.01,3.12,4.42,6.57,4.45,3.39.03,4.75-4.04,7.91-.92-.73,3.82,7.34,5.5,8.36,1.28,2.98-6.44,8.09-1.35,11.41-7.76,1.6.83,3.41,1.32,5.33,1.34,2.35.02,4.54-.65,6.39-1.83.84,1.4,2.34,2.34,4.09,2.36,2.67.02,4.85-2.12,4.87-4.79.02-2.32-1.6-4.28-3.79-4.75Z"/>
            <g class="st10">
              <path class="st28" d="M207.15,248.68c-.12.07-.23.16-.35.23.04.13.1.25.15.38.05-.21.14-.41.2-.61Z"/>
              <path class="st28" d="M241.27,277.82c-1.75-.01-3.25-.96-4.09-2.36-1.84,1.17-4.03,1.84-6.38,1.82-1.92-.01-3.73-.5-5.33-1.33-3.32,6.42-8.43,1.32-11.41,7.77-.19.42-.36.86-.49,1.31,2.7-1.03,5.84,0,8.12-4.41,1.6.83,3.41,1.32,5.33,1.34,2.35.02,4.54-.65,6.39-1.83.84,1.4,2.34,2.34,4.09,2.36,2.67.02,4.85-2.12,4.87-4.79h0c-.35.07-.72.12-1.09.11Z"/>
              <path class="st28" d="M197.79,283.36s-5.37-1.44-6.58-4.45c-.91.68-2.02,1.09-3.24,1.08-1.74-.02-3.26-.87-4.23-2.16-1.44,3.42-4.83,5.8-8.77,5.77-2.55-.02-4.86-1.07-6.54-2.74-3.54,2.87-8.07,4.58-12.99,4.54-11.27-.1-20.32-9.31-20.22-20.58.03-3.71,1.07-7.17,2.83-10.15-4.01,3.68-6.55,8.94-6.6,14.81-.1,11.26,8.96,20.48,20.22,20.58,4.93.04,9.45-1.67,12.99-4.54,1.69,1.67,3.99,2.72,6.55,2.74,3.94.03,7.33-2.35,8.77-5.77.97,1.29,2.49,2.14,4.23,2.16,1.22,0,2.33-.4,3.24-1.08,1.21,3.01,3.12,4.42,6.57,4.45,3.39.03,4.75-4.04,7.91-.92.68-4.59-4.13-3.75-4.13-3.75Z"/>
            </g>
            <path class="st27" d="M218.43,238.26c-.02,1.62-1.33,2.91-2.95,2.9s-2.91-1.33-2.9-2.95c.01-1.61,1.33-2.91,2.95-2.89,1.62.01,2.91,1.33,2.9,2.94Z"/>
            <path class="st27" d="M199.84,237.87c-.02,1.61-1.33,2.91-2.95,2.9-1.62-.02-2.91-1.34-2.9-2.95.01-1.62,1.34-2.92,2.95-2.9,1.62.02,2.91,1.34,2.9,2.95Z"/>
            <path class="st27" d="M233.98,248.98c-.03,3.23-2.67,5.82-5.9,5.79-3.23-.03-5.83-2.67-5.8-5.9.03-3.23,2.67-5.83,5.9-5.8,3.23.03,5.83,2.67,5.8,5.9Z"/>
            <path class="st16" d="M198.92,266.97c.04-4.46-3.55-8.11-8.01-8.15-3.28-.03-6.12,1.92-7.4,4.72-1.07-1.23-2.61-2.03-4.36-2.04-3.23-.03-5.87,2.57-5.9,5.79"/>
            <path class="st14" d="M179.12,264.01c1.75.02,3.3.82,4.36,2.05,1.29-2.8,4.12-4.74,7.41-4.72,3.59.04,6.6,2.4,7.63,5.64h.4c.04-4.47-3.55-8.12-8.01-8.16-3.28-.03-6.12,1.92-7.4,4.72-1.07-1.23-2.61-2.03-4.36-2.04-3.23-.03-5.87,2.57-5.9,5.79h.6c.96-1.96,2.96-3.3,5.28-3.28Z"/>
            <path class="st14" d="M159.71,250.85c3.34,1.3,7.81,6.73,7.62,10.12l.38.14c1.62-4.16-1.08-10.8-5.24-12.42-1.46.44-2.76,2.15-2.76,2.15Z"/>
            <path class="st27" d="M229.62,235.2c-.01.99-.82,1.78-1.8,1.77-1,0-1.79-.82-1.78-1.81,0-.99.82-1.78,1.81-1.78.99.01,1.78.82,1.78,1.81Z"/>
            <path class="st27" d="M199.6,226.58c0,.81-.67,1.45-1.47,1.45-.81,0-1.46-.66-1.45-1.47,0-.81.67-1.46,1.47-1.45.81,0,1.46.66,1.45,1.47Z"/>
            <path class="st27" d="M190.89,234.48c-.01,1.69-1.4,3.06-3.1,3.04-1.7-.02-3.06-1.4-3.05-3.1.02-1.7,1.41-3.06,3.1-3.04,1.7.01,3.06,1.4,3.04,3.1Z"/>
            <path class="st27" d="M203.88,228.99c.84-.05,1.58.59,1.63,1.44.06.85-.58,1.58-1.43,1.63-.85.06-1.58-.58-1.63-1.43-.05-.85.59-1.58,1.43-1.63Z"/>
            <path class="st27" d="M203.72,240.79c1.21-.07,2.25.84,2.33,2.05.08,1.21-.84,2.25-2.04,2.33-1.21.08-2.25-.84-2.33-2.04-.08-1.21.84-2.25,2.04-2.33Z"/>
            <path class="st21" d="M183.51,263.54c1.06,1.2,1.43,3.35,1.43,3.35"/>
            <path class="st21" d="M159.71,250.85c6.6,3.51,7.21,9.3,7.21,9.3"/>
            <line class="st21" x1="219.5" y1="255.71" x2="219.34" y2="257.81"/>
            <path class="st21" d="M238.57,272.95s-2.2-.51-4.4,1.01"/>
            <path class="st16" d="M232.98,248.57c-.02,2.15-1.78,3.87-3.92,3.85-2.15-.02-3.86-1.78-3.85-3.92.02-2.14,1.77-3.87,3.91-3.85,2.15.01,3.87,1.77,3.85,3.91Z"/>
            <path class="st16" d="M217.65,238.25c0,1.01-.84,1.82-1.84,1.81-1.01,0-1.82-.84-1.81-1.85.01-1,.84-1.81,1.84-1.81,1.01,0,1.82.84,1.81,1.84Z"/>
            <path class="st16" d="M229.02,235.35c0,.48-.4.87-.88.86-.48,0-.87-.4-.86-.88,0-.48.39-.86.87-.86.48,0,.86.39.86.88Z"/>
            <path class="st16" d="M190.18,234.18c0,.95-.79,1.73-1.74,1.71-.96-.01-1.72-.79-1.71-1.75,0-.95.79-1.72,1.74-1.71.96,0,1.72.79,1.71,1.74Z"/>
            <path class="st16" d="M199.23,237.81c0,.96-.79,1.73-1.75,1.73-.96,0-1.73-.79-1.72-1.76,0-.96.79-1.74,1.75-1.73.96.01,1.73.8,1.72,1.76Z"/>
            <path class="st16" d="M203.97,241.54c.7-.05,1.31.48,1.35,1.18.05.7-.48,1.31-1.18,1.35-.7.05-1.31-.49-1.35-1.19-.05-.7.48-1.31,1.18-1.35Z"/>
            <path class="st16" d="M203.93,229.79c.27-.02.51.19.53.46.01.27-.19.51-.46.52-.27.02-.51-.19-.53-.46-.02-.27.19-.51.46-.52Z"/>
            <path class="st16" d="M199.09,226.74c0,.46-.37.82-.83.82-.46,0-.82-.38-.82-.83,0-.45.37-.82.83-.82.46,0,.82.38.82.83Z"/>
          </g>
          <g>
            <path class="st15" d="M155.05,136.34h-27.2c-3.07,0-5.58,1.6-5.58,4.7v17.66h28.22v-13.08h4.56v-9.28Z"/>
            <path class="st13" d="M131.07,153.16c-4.98-.33-4.98-4.56-3.96-9.33.6-2.84,5.31-5.18,6.86-7.49h-6.13c-3.07,0-5.58,1.6-5.58,4.7v17.66h28.22v-.1c-4.14-.16-14.76-5.13-19.41-5.43Z"/>
            <path class="st3" d="M155.05,160.54c0-3.14-2.04-5.1-4.56-5.1h-28.22c-2.88,0-4.56,1.74-4.56,5.1v2.83c0,5.31,3.32,9.66,7.38,9.66h22.57c4.06,0,7.38-4.35,7.38-9.66v-2.83Z"/>
            <path class="st33" d="M161.35,287.73c0,2.81-2.72,4.56-6.1,4.56h-37.76c-3.85,0-6.1-1.55-6.1-4.56v-2.53c0-4.75,4.45-8.65,9.88-8.65h30.2c5.43,0,9.88,3.89,9.88,8.65v2.53Z"/>
            <path class="st35" d="M122.13,165.53c0,.6-.45,1.09-1.02,1.09h0c-.56,0-1.02-.49-1.02-1.09v-6.84c0-.6.46-1.09,1.02-1.09h0c.56,0,1.02.49,1.02,1.09v6.84Z"/>
            <path class="st35" d="M127.11,165.53c0,.6-.46,1.09-1.02,1.09h0c-.56,0-1.02-.49-1.02-1.09v-6.84c0-.6.46-1.09,1.02-1.09h0c.56,0,1.02.49,1.02,1.09v6.84Z"/>
            <path class="st35" d="M132.09,165.53c0,.6-.46,1.09-1.02,1.09h0c-.56,0-1.02-.49-1.02-1.09v-6.84c0-.6.46-1.09,1.02-1.09h0c.56,0,1.02.49,1.02,1.09v6.84Z"/>
            <path class="st35" d="M137.07,165.53c0,.6-.46,1.09-1.02,1.09h0c-.56,0-1.02-.49-1.02-1.09v-6.84c0-.6.46-1.09,1.02-1.09h0c.56,0,1.02.49,1.02,1.09v6.84Z"/>
            <path class="st35" d="M142.05,165.53c0,.6-.46,1.09-1.02,1.09h0c-.56,0-1.02-.49-1.02-1.09v-6.84c0-.6.46-1.09,1.02-1.09h0c.56,0,1.02.49,1.02,1.09v6.84Z"/>
            <path class="st35" d="M147.08,165.53c0,.6-.46,1.09-1.02,1.09h0c-.56,0-1.02-.49-1.02-1.09v-6.84c0-.6.45-1.09,1.02-1.09h0c.56,0,1.02.49,1.02,1.09v6.84Z"/>
            <path class="st35" d="M152.06,165.53c0,.6-.46,1.09-1.02,1.09h0c-.56,0-1.02-.49-1.02-1.09v-6.84c0-.6.46-1.09,1.02-1.09h0c.56,0,1.02.49,1.02,1.09v6.84Z"/>
            <path class="st39" d="M113.81,163.47h45.14c4.07,0,7.38,3.31,7.38,7.38v110.26c0,4.07-3.31,7.38-7.38,7.38h-45.14c-4.07,0-7.38-3.31-7.38-7.38v-110.26c0-4.08,3.31-7.38,7.38-7.38Z"/>
            <path class="st13" d="M127.92,283.72c-4.06,0-7.38-3.32-7.38-7.38v-92.25c0-19.86,25.53-20.62,25.53-20.62h-32.26c-4.06,0-7.38,3.32-7.38,7.38v110.26c0,4.06,3.32,7.38,7.38,7.38h45.14c3.14,0,5.83-1.99,6.9-4.78h-37.93Z"/>
            <path class="st13" d="M113.5,281.12v-110.26c0-4.06,3.32-7.38,7.38-7.38h-7.08c-4.06,0-7.38,3.32-7.38,7.38v110.26c0,4.06,3.32,7.38,7.38,7.38h7.08c-4.06,0-7.38-3.32-7.38-7.38Z"/>
            <rect class="st23" x="127.93" y="193.75" width="36.27" height="64.47"/>
            <rect class="st31" x="127.93" y="198.63" width="36.27" height="2.93"/>
            <rect class="st31" x="127.93" y="204.82" width="36.27" height="2.93"/>
            <rect class="st31" x="127.93" y="246.5" width="36.27" height="2.93"/>
            <rect class="st17" x="155.05" y="171.09" width="6.3" height="114.69"/>
            <rect class="st17" x="148.91" y="171.09" width="3.15" height="114.69"/>
          </g>
          <g>
            <path class="st16" d="M140.87,286.16c.12-.5.2-1.02.2-1.56.04-3.78-2.99-6.87-6.77-6.91-.83-.01-1.63.14-2.38.41-.13-1.07-1.01-1.9-2.1-1.96-.05-2.59-2.14-4.68-4.75-4.71-2.28-.02-4.2,1.55-4.72,3.68-1.61-4.63-5.98-7.99-11.17-8.04-4.2-.04-7.91,2.08-10.07,5.33-.44-.3-.97-.48-1.54-.49-1.03,0-1.92.54-2.42,1.36-1.37-.58-2.88-.91-4.46-.93-6.53-.06-11.88,5.18-11.95,11.71-.07,6.53,5.17,11.89,11.71,11.95,2.86.03,5.48-.96,7.54-2.62.98.97,2.31,1.58,3.8,1.6,2.28.02,4.25-1.36,5.09-3.34.56.75,1.44,1.24,2.45,1.25.71,0,1.35-.23,1.88-.62.7,1.75,1.81,2.57,3.81,2.59,1.97.02,2.76-2.34,4.59-.52-.43,2.22,4.26,3.19,4.85.75,1.73-3.74,4.7-.78,6.62-4.49.93.48,1.98.77,3.09.78,1.36.01,2.63-.38,3.71-1.05.48.81,1.36,1.36,2.37,1.37,1.54.02,2.81-1.22,2.83-2.77.01-1.35-.93-2.48-2.19-2.76Z"/>
            <g class="st10">
              <path class="st28" d="M122.66,272.05c-.07.04-.14.09-.2.14.02.08.06.15.09.22.03-.12.08-.24.12-.35Z"/>
              <path class="st28" d="M142.43,288.99c-1.01,0-1.88-.56-2.37-1.37-1.07.67-2.34,1.07-3.7,1.05-1.12,0-2.17-.29-3.09-.78-1.93,3.72-4.89.76-6.63,4.49-.11.24-.21.5-.29.76,1.57-.6,3.39,0,4.72-2.55.93.48,1.98.77,3.09.78,1.36.01,2.63-.38,3.71-1.05.48.81,1.36,1.36,2.37,1.37,1.54.02,2.81-1.22,2.83-2.77h0c-.21.04-.42.07-.63.07Z"/>
              <path class="st28" d="M117.2,292.16s-3.11-.84-3.81-2.59c-.53.39-1.17.63-1.88.62-1.01-.01-1.89-.51-2.45-1.25-.84,1.98-2.81,3.36-5.09,3.34-1.48-.01-2.82-.62-3.79-1.6-2.06,1.66-4.68,2.65-7.54,2.62-6.53-.07-11.78-5.42-11.71-11.95.03-2.15.63-4.15,1.65-5.88-2.33,2.13-3.81,5.18-3.84,8.59-.07,6.53,5.17,11.89,11.71,11.95,2.86.03,5.48-.96,7.54-2.62.98.97,2.31,1.58,3.8,1.6,2.28.02,4.25-1.36,5.09-3.34.56.75,1.44,1.24,2.45,1.25.71,0,1.35-.23,1.88-.62.7,1.75,1.81,2.57,3.81,2.59,1.97.02,2.76-2.34,4.59-.52.4-2.66-2.39-2.18-2.39-2.18Z"/>
            </g>
            <path class="st27" d="M129.21,266.02c-.01.94-.77,1.69-1.71,1.68-.94,0-1.68-.78-1.68-1.71,0-.94.78-1.69,1.71-1.68.94,0,1.69.77,1.68,1.71Z"/>
            <path class="st27" d="M118.43,265.78c0,.94-.78,1.69-1.71,1.68-.94-.01-1.69-.78-1.68-1.71,0-.94.78-1.69,1.71-1.68.94.01,1.69.78,1.68,1.71Z"/>
            <path class="st27" d="M138.22,272.25c-.02,1.87-1.55,3.38-3.43,3.36-1.87-.02-3.38-1.55-3.36-3.43.02-1.87,1.55-3.38,3.43-3.36,1.88.02,3.38,1.56,3.36,3.43Z"/>
            <path class="st16" d="M117.87,282.66c.03-2.59-2.05-4.71-4.64-4.73-1.91-.02-3.55,1.11-4.3,2.73-.62-.71-1.51-1.18-2.53-1.19-1.87-.02-3.41,1.48-3.43,3.36"/>
            <path class="st14" d="M106.39,280.92c1.02.01,1.92.48,2.53,1.19.75-1.63,2.4-2.75,4.3-2.73,2.08.02,3.83,1.39,4.42,3.28h.24c.03-2.59-2.05-4.71-4.64-4.74-1.91-.02-3.55,1.11-4.3,2.73-.62-.71-1.51-1.18-2.53-1.19-1.87-.02-3.41,1.48-3.43,3.36h.35c.56-1.13,1.72-1.91,3.06-1.9Z"/>
            <path class="st14" d="M95.14,273.27c1.94.76,4.53,3.91,4.41,5.88l.22.08c.94-2.41-.62-6.26-3.03-7.21-.84.25-1.6,1.25-1.6,1.25Z"/>
            <path class="st27" d="M135.71,264.25c0,.57-.48,1.03-1.05,1.03-.57,0-1.03-.47-1.03-1.05,0-.57.48-1.03,1.05-1.03.57,0,1.03.48,1.03,1.05Z"/>
            <path class="st27" d="M118.3,259.23c0,.47-.39.84-.86.84-.47,0-.84-.39-.84-.86,0-.47.39-.85.86-.84.47,0,.84.39.84.86Z"/>
            <path class="st27" d="M113.24,263.8c0,.98-.82,1.78-1.8,1.76-.98-.01-1.77-.82-1.77-1.8.01-.98.82-1.77,1.8-1.76.98.01,1.77.81,1.76,1.8Z"/>
            <path class="st27" d="M120.78,260.63c.49-.03.91.34.94.83.03.49-.34.91-.83.94-.49.03-.92-.34-.95-.83-.03-.49.34-.91.83-.95Z"/>
            <path class="st27" d="M120.68,267.47c.7-.04,1.31.49,1.35,1.19.05.7-.49,1.3-1.19,1.35-.7.05-1.31-.48-1.35-1.19-.04-.7.49-1.31,1.19-1.35Z"/>
            <path class="st21" d="M108.94,280.65c.62.7.83,1.94.83,1.94"/>
            <path class="st21" d="M95.14,273.27c3.83,2.04,4.17,5.4,4.17,5.4"/>
            <line class="st21" x1="129.82" y1="276.14" x2="129.73" y2="277.36"/>
            <path class="st21" d="M140.87,286.16s-1.27-.3-2.56.58"/>
            <path class="st16" d="M137.65,272.01c-.02,1.25-1.04,2.24-2.28,2.23-1.24-.01-2.24-1.03-2.23-2.28.01-1.24,1.03-2.24,2.28-2.23,1.24.01,2.24,1.03,2.23,2.27Z"/>
            <path class="st16" d="M128.76,266.02c0,.58-.49,1.05-1.07,1.05-.59,0-1.05-.49-1.05-1.07,0-.58.49-1.05,1.07-1.05.59,0,1.05.49,1.05,1.07Z"/>
            <path class="st16" d="M135.36,264.34c0,.28-.23.5-.51.5-.28,0-.5-.23-.5-.51,0-.28.23-.5.51-.5.28,0,.5.23.5.51Z"/>
            <path class="st16" d="M112.83,263.63c0,.55-.46,1-1.01.99-.56,0-1-.46-.99-1.02,0-.55.46-1,1.01-.99.55,0,1,.46.99,1.01Z"/>
            <path class="st16" d="M118.08,265.74c0,.56-.46,1-1.02,1-.55,0-1-.46-1-1.02,0-.56.46-1.01,1.02-1,.56,0,1,.46,1,1.02Z"/>
            <path class="st16" d="M120.83,267.91c.41-.03.76.28.78.69.03.4-.28.76-.69.78-.41.03-.76-.28-.78-.69-.02-.41.28-.76.69-.78Z"/>
            <path class="st16" d="M120.81,261.09c.16-.01.29.11.31.27,0,.16-.11.29-.27.3-.16,0-.29-.11-.3-.27-.01-.16.11-.29.26-.3Z"/>
            <path class="st16" d="M118.01,259.32c0,.27-.22.48-.48.47-.26,0-.47-.22-.47-.48,0-.26.22-.47.48-.47.27,0,.47.22.47.48Z"/>
          </g>
        </g>
      </g>
      <g>
        <g>
          <path class="st16" d="M375.4,176.16s6.86-.31,8.64-2.2c1.78-1.89,3.86-8.04,3.86-8.04,0,0-.23,6.07,2.2,8.64,2.42,2.56,8.04,3.86,8.04,3.86,0,0-6.53-.52-8.64,2.2-2.11,2.72-3.86,8.04-3.86,8.04,0,0,.02-6.46-2.2-8.64-2.22-2.18-8.04-3.86-8.04-3.86Z"/>
          <path class="st16" d="M345.93,193.16s2.97,1.39,4.15.99c1.17-.41,3.42-2.56,3.42-2.56,0,0-1.45,2.53-.98,4.15.46,1.62,2.55,3.42,2.55,3.42,0,0-2.65-1.67-4.15-.98-1.5.68-3.42,2.55-3.42,2.55,0,0,1.44-2.73.98-4.15-.46-1.42-2.55-3.42-2.55-3.42Z"/>
          <path class="st16" d="M388.53,202.27s2.98,1.39,4.16.99c1.17-.41,3.42-2.56,3.42-2.56,0,0-1.45,2.53-.99,4.15.46,1.62,2.55,3.42,2.55,3.42,0,0-2.65-1.67-4.15-.98-1.5.68-3.42,2.55-3.42,2.55,0,0,1.45-2.73.98-4.15-.46-1.42-2.55-3.42-2.55-3.42Z"/>
          <path class="st16" d="M391.16,133.1s1.29-1.07,1.36-1.7c.07-.63-.43-2.14-.43-2.14,0,0,.85,1.22,1.7,1.36.85.14,2.14-.44,2.14-.44,0,0-1.35.86-1.36,1.71-.01.84.43,2.14.43,2.14,0,0-.95-1.27-1.7-1.36-.76-.1-2.14.43-2.14.43Z"/>
          <path class="st16" d="M384.02,150.15s.96-.04,1.21-.31c.24-.27.54-1.12.54-1.12,0,0-.04.85.3,1.2.34.36,1.12.54,1.12.54,0,0-.91-.07-1.21.31-.29.38-.53,1.12-.53,1.12,0,0,0-.9-.31-1.21-.31-.3-1.12-.54-1.12-.54Z"/>
          <path class="st16" d="M367.48,214.75s1.29-1.07,1.36-1.71c.07-.63-.43-2.14-.43-2.14,0,0,.85,1.22,1.71,1.36.85.14,2.13-.44,2.13-.44,0,0-1.35.86-1.36,1.7,0,.84.43,2.14.43,2.14,0,0-.95-1.26-1.7-1.36-.75-.1-2.14.44-2.14.44Z"/>
          <path class="st16" d="M378.9,236.12s.96-.04,1.21-.31c.25-.26.54-1.12.54-1.12,0,0-.03.84.31,1.2.34.36,1.12.54,1.12.54,0,0-.91-.07-1.21.31-.29.38-.54,1.12-.54,1.12,0,0,0-.9-.31-1.2-.31-.31-1.12-.54-1.12-.54Z"/>
          <path class="st16" d="M411.5,167.08s.67.68,1.03.69c.37,0,1.2-.35,1.2-.35,0,0-.65.54-.69,1.04-.04.49.36,1.19.36,1.19,0,0-.56-.73-1.04-.69-.48.04-1.19.36-1.19.36,0,0,.67-.61.69-1.04.02-.43-.36-1.2-.36-1.2Z"/>
        </g>
        <g>
          <path class="st16" d="M238.87,67.67s2.01-6.57.82-8.88c-1.19-2.31-6.28-6.32-6.28-6.32,0,0,5.65,2.25,8.87.82,3.23-1.43,6.33-6.28,6.33-6.28,0,0-2.67,5.98-.82,8.88,1.86,2.89,6.29,6.32,6.29,6.32,0,0-6.08-2.18-8.88-.82-2.79,1.37-6.32,6.29-6.32,6.29Z"/>
          <path class="st16" d="M195.5,88.57s2.31-2.34,2.31-3.59c.01-1.24-1.26-4.08-1.26-4.08,0,0,1.9,2.21,3.58,2.32,1.69.11,4.08-1.26,4.08-1.26,0,0-2.46,1.94-2.32,3.58.15,1.64,1.27,4.08,1.27,4.08,0,0-2.1-2.27-3.59-2.32-1.49-.04-4.07,1.26-4.07,1.26Z"/>
          <path class="st16" d="M180.86,16.39s-.58-1.58-1.15-1.85c-.58-.28-2.16-.3-2.16-.3,0,0,1.43-.4,1.85-1.15.42-.76.31-2.16.31-2.16,0,0,.36,1.56,1.15,1.85.79.29,2.16.31,2.16.31,0,0-1.51.47-1.85,1.15-.34.68-.31,2.16-.31,2.16Z"/>
          <path class="st16" d="M162.37,46.64s.28-.92.11-1.24c-.16-.32-.88-.88-.88-.88,0,0,.79.31,1.24.11.45-.2.88-.88.88-.88,0,0-.38.83-.11,1.24.26.4.88.88.88.88,0,0-.85-.3-1.24-.12-.39.19-.88.88-.88.88Z"/>
          <path class="st16" d="M254.13,110.92s2.31-2.34,2.32-3.58c.01-1.25-1.26-4.08-1.26-4.08,0,0,1.9,2.21,3.58,2.32,1.69.11,4.08-1.26,4.08-1.26,0,0-2.46,1.95-2.32,3.58.14,1.64,1.26,4.08,1.26,4.08,0,0-2.1-2.28-3.58-2.32-1.49-.04-4.08,1.26-4.08,1.26Z"/>
          <path class="st16" d="M270.91,53.47s-.58-1.58-1.15-1.85c-.57-.28-2.16-.31-2.16-.31,0,0,1.44-.4,1.85-1.15s.31-2.16.31-2.16c0,0,.36,1.56,1.15,1.85.8.29,2.17.31,2.17.31,0,0-1.51.47-1.85,1.15-.34.68-.3,2.16-.3,2.16Z"/>
          <path class="st16" d="M227.04,78.34s-.58-1.58-1.15-1.85c-.58-.28-2.16-.31-2.16-.31,0,0,1.44-.4,1.85-1.15.42-.76.31-2.16.31-2.16,0,0,.36,1.56,1.15,1.85.79.29,2.16.31,2.16.31,0,0-1.51.47-1.86,1.15-.34.68-.3,2.16-.3,2.16Z"/>
          <path class="st16" d="M268.24,81.61s.28-.92.12-1.24c-.17-.32-.88-.88-.88-.88,0,0,.79.31,1.24.11.45-.2.88-.88.88-.88,0,0-.38.83-.12,1.24.26.41.88.88.88.88,0,0-.84-.3-1.24-.11-.39.19-.88.88-.88.88Z"/>
          <path class="st16" d="M214.34,14.42s.87-.41,1-.75c.12-.34.06-1.24.06-1.24,0,0,.3.79.75.99.46.2,1.24.06,1.24.06,0,0-.87.29-.99.75-.13.46-.07,1.24-.07,1.24,0,0-.34-.84-.74-1-.41-.16-1.24-.07-1.24-.07Z"/>
          <path class="st16" d="M261.93,20.61s.86-.41.99-.75c.13-.34.07-1.24.07-1.24,0,0,.3.79.75.99.45.2,1.25.06,1.25.06,0,0-.87.28-1,.75-.12.46-.06,1.24-.06,1.24,0,0-.34-.83-.75-.99-.4-.16-1.24-.07-1.24-.07Z"/>
        </g>
        <g>
          <path class="st16" d="M327.34,136.02s2-6.57.81-8.88c-1.19-2.31-6.28-6.32-6.28-6.32,0,0,5.64,2.25,8.87.82,3.24-1.43,6.33-6.28,6.33-6.28,0,0-2.67,5.98-.82,8.88,1.86,2.89,6.28,6.32,6.28,6.32,0,0-6.08-2.18-8.88-.82-2.8,1.37-6.32,6.29-6.32,6.29Z"/>
          <path class="st16" d="M283.98,156.92s2.31-2.34,2.31-3.58c.01-1.24-1.26-4.08-1.26-4.08,0,0,1.9,2.21,3.58,2.32,1.69.11,4.08-1.26,4.08-1.26,0,0-2.46,1.94-2.32,3.58.15,1.64,1.27,4.08,1.27,4.08,0,0-2.1-2.27-3.59-2.32-1.49-.04-4.07,1.26-4.07,1.26Z"/>
          <path class="st16" d="M295.03,112.86s-.58-1.58-1.15-1.85c-.58-.28-2.16-.3-2.16-.3,0,0,1.43-.4,1.85-1.15.42-.76.31-2.16.31-2.16,0,0,.36,1.56,1.15,1.85.79.29,2.16.31,2.16.31,0,0-1.51.47-1.85,1.15-.35.68-.31,2.16-.31,2.16Z"/>
          <path class="st16" d="M239.65,159.05s.28-.92.11-1.24c-.16-.32-.88-.88-.88-.88,0,0,.79.31,1.24.11.45-.2.88-.88.88-.88,0,0-.38.83-.11,1.24.26.4.88.88.88.88,0,0-.85-.3-1.24-.11-.39.19-.88.88-.88.88Z"/>
          <path class="st16" d="M342.6,179.26s2.31-2.34,2.32-3.58c0-1.25-1.26-4.08-1.26-4.08,0,0,1.9,2.21,3.59,2.32,1.68.11,4.08-1.26,4.08-1.26,0,0-2.46,1.94-2.32,3.58.14,1.64,1.26,4.08,1.26,4.08,0,0-2.1-2.28-3.58-2.32-1.49-.04-4.08,1.26-4.08,1.26Z"/>
          <path class="st16" d="M359.39,121.82s-.58-1.58-1.16-1.85c-.57-.28-2.16-.31-2.16-.31,0,0,1.44-.39,1.85-1.15.42-.76.31-2.16.31-2.16,0,0,.36,1.56,1.15,1.85.8.29,2.17.31,2.17.31,0,0-1.51.47-1.85,1.15-.34.68-.31,2.16-.31,2.16Z"/>
          <path class="st16" d="M315.52,146.68s-.58-1.58-1.15-1.85c-.58-.28-2.16-.3-2.16-.3,0,0,1.44-.4,1.85-1.15.42-.76.31-2.16.31-2.16,0,0,.36,1.56,1.16,1.85.78.29,2.16.31,2.16.31,0,0-1.51.47-1.86,1.15-.34.68-.3,2.16-.3,2.16Z"/>
          <path class="st16" d="M356.72,149.95s.28-.92.12-1.24c-.17-.32-.88-.88-.88-.88,0,0,.79.31,1.24.11.45-.2.88-.88.88-.88,0,0-.38.84-.12,1.24.26.41.88.88.88.88,0,0-.84-.3-1.24-.11-.39.19-.88.88-.88.88Z"/>
          <path class="st16" d="M302.82,82.77s.87-.41,1-.75c.13-.34.06-1.24.06-1.24,0,0,.3.79.75.99.45.2,1.24.06,1.24.06,0,0-.87.29-.99.75-.13.46-.07,1.24-.07,1.24,0,0-.34-.84-.74-1-.41-.16-1.24-.07-1.24-.07Z"/>
          <path class="st16" d="M350.4,88.96s.87-.41.99-.75c.13-.34.06-1.24.06-1.24,0,0,.3.79.75.99.45.2,1.25.07,1.25.07,0,0-.87.28-1,.75-.12.46-.06,1.24-.06,1.24,0,0-.35-.83-.75-.99-.4-.16-1.24-.07-1.24-.07Z"/>
        </g>
        <g>
          <path class="st16" d="M109.52,53.76s-5.16-4.53-5.36-7.12c-.21-2.59,2.02-8.68,2.02-8.68,0,0-3.62,4.88-7.12,5.36-3.5.48-8.68-2.02-8.68-2.02,0,0,5.42,3.68,5.36,7.12-.06,3.44-2.03,8.68-2.03,8.68,0,0,4.03-5.05,7.13-5.36,3.09-.31,8.68,2.02,8.68,2.02Z"/>
          <path class="st16" d="M133.95,62.3s-3.2-.78-3.86-1.83c-.66-1.06-1.07-4.13-1.07-4.13,0,0-.45,2.87-1.83,3.86-1.37.98-4.13,1.07-4.13,1.07,0,0,3.12.36,3.86,1.83.73,1.47,1.07,4.13,1.07,4.13,0,0,.58-3.04,1.83-3.85,1.24-.82,4.13-1.07,4.13-1.07Z"/>
          <path class="st16" d="M112.67,16.35s-.34-1.64,0-2.18c.34-.53,1.67-1.4,1.67-1.4,0,0-1.42.42-2.18,0-.75-.42-1.39-1.68-1.39-1.68,0,0,.51,1.52,0,2.18-.52.66-1.67,1.4-1.67,1.4,0,0,1.53-.39,2.18,0,.65.4,1.39,1.68,1.39,1.68Z"/>
          <path class="st16" d="M132.93,31.63s-.72-.63-.75-.99c-.03-.36.28-1.21.28-1.21,0,0-.5.68-1,.75-.49.07-1.21-.28-1.21-.28,0,0,.76.52.75,1-.01.48-.29,1.21-.29,1.21,0,0,.56-.71,1-.75.43-.04,1.21.28,1.21.28Z"/>
          <path class="st16" d="M71.94,99.66s-3.19-.77-3.85-1.83c-.66-1.06-1.07-4.13-1.07-4.13,0,0-.45,2.87-1.83,3.86-1.38.98-4.13,1.07-4.13,1.07,0,0,3.12.36,3.85,1.83.74,1.47,1.07,4.13,1.07,4.13,0,0,.59-3.04,1.83-3.86,1.24-.82,4.13-1.07,4.13-1.07Z"/>
          <path class="st16" d="M49.95,90.21s-.34-1.65,0-2.18c.35-.54,1.68-1.4,1.68-1.4,0,0-1.43.42-2.18,0-.75-.42-1.39-1.68-1.39-1.68,0,0,.51,1.52,0,2.18-.52.66-1.68,1.4-1.68,1.4,0,0,1.53-.39,2.18,0,.65.39,1.4,1.67,1.4,1.67Z"/>
          <path class="st16" d="M90.4,84.67s-.34-1.65,0-2.18c.34-.54,1.68-1.4,1.68-1.4,0,0-1.43.42-2.18,0-.75-.42-1.39-1.68-1.39-1.68,0,0,.51,1.52,0,2.18-.52.66-1.68,1.4-1.68,1.4,0,0,1.54-.39,2.18,0,.65.4,1.39,1.68,1.39,1.68Z"/>
          <path class="st16" d="M68.79,62.08s-.72-.63-.75-.99c-.03-.36.28-1.21.28-1.21,0,0-.5.68-.99.75-.49.07-1.22-.28-1.22-.28,0,0,.76.51.75.99,0,.48-.28,1.21-.28,1.21,0,0,.56-.7,1-.75.43-.04,1.21.28,1.21.28Z"/>
          <path class="st16" d="M58.65,30.32s-.95.11-1.24-.12c-.28-.22-.71-1.02-.71-1.02,0,0,.17.83-.11,1.24-.28.41-1.03.71-1.03.71,0,0,.89-.21,1.24.11.35.33.71,1.02.71,1.02,0,0-.14-.89.12-1.24.26-.35,1.02-.71,1.02-.71Z"/>
          <path class="st16" d="M40.74,60.92s-.95.11-1.24-.11c-.29-.23-.71-1.02-.71-1.02,0,0,.17.83-.11,1.24-.28.41-1.03.71-1.03.71,0,0,.89-.22,1.24.11.35.33.71,1.02.71,1.02,0,0-.14-.89.11-1.24.26-.35,1.02-.71,1.02-.71Z"/>
        </g>
        <g>
          <path class="st16" d="M65.75,234.18s-2.85-6.25-1.96-8.7c.88-2.45,5.41-7.08,5.41-7.08,0,0-5.31,2.96-8.7,1.96-3.39-1-7.09-5.41-7.09-5.41,0,0,3.43,5.59,1.97,8.69-1.47,3.11-5.41,7.09-5.41,7.09,0,0,5.74-2.95,8.7-1.96,2.95.99,7.09,5.41,7.09,5.41Z"/>
          <path class="st16" d="M68.38,186.54s-2.59-2.02-2.76-3.25c-.17-1.23.72-4.21.72-4.21,0,0-1.59,2.43-3.25,2.76-1.66.33-4.21-.72-4.21-.72,0,0,2.7,1.61,2.77,3.25.07,1.64-.72,4.21-.72,4.21,0,0,1.78-2.53,3.25-2.76,1.47-.24,4.21.72,4.21.72Z"/>
          <path class="st16" d="M61.13,125.44s.37-1.64.9-1.98c.53-.35,2.1-.58,2.1-.58,0,0-1.47-.21-1.99-.9-.51-.7-.58-2.1-.58-2.1,0,0-.15,1.6-.9,1.99-.75.39-2.1.58-2.1.58,0,0,1.56.27,1.98.9.43.63.58,2.1.58,2.1Z"/>
          <path class="st16" d="M83.4,153.04s-.4-.88-.28-1.22c.12-.34.76-.99.76-.99,0,0-.74.41-1.22.27-.47-.14-.99-.76-.99-.76,0,0,.48.78.27,1.21-.21.43-.76.99-.76.99,0,0,.8-.41,1.22-.27.41.14.99.76.99.76Z"/>
          <path class="st16" d="M44.61,207.87s-2.6-2.02-2.76-3.25c-.17-1.23.72-4.21.72-4.21,0,0-1.59,2.44-3.25,2.77-1.66.33-4.21-.72-4.21-.72,0,0,2.7,1.61,2.77,3.25.07,1.64-.72,4.2-.72,4.2,0,0,1.78-2.53,3.25-2.76,1.47-.23,4.21.72,4.21.72Z"/>
          <path class="st16" d="M71.97,205.14s.37-1.64.9-1.98c.54-.35,2.1-.58,2.1-.58,0,0-1.47-.21-1.98-.9-.52-.7-.59-2.1-.59-2.1,0,0-.15,1.59-.9,1.99-.74.39-2.1.58-2.1.58,0,0,1.56.27,1.99.9.43.63.58,2.1.58,2.1Z"/>
          <path class="st16" d="M27.51,164.48s.37-1.64.9-1.99c.53-.35,2.11-.58,2.11-.58,0,0-1.48-.21-1.99-.9-.51-.69-.58-2.1-.58-2.1,0,0-.15,1.59-.9,1.99-.75.39-2.1.58-2.1.58,0,0,1.56.27,1.99.9.43.63.58,2.1.58,2.1Z"/>
          <path class="st16" d="M30.89,226.7s-.4-.87-.28-1.22c.12-.34.76-.99.76-.99,0,0-.74.41-1.21.27-.48-.14-.99-.75-.99-.75,0,0,.48.78.27,1.21-.2.44-.75.99-.75.99,0,0,.8-.41,1.21-.27.42.14.99.76.99.76Z"/>
          <path class="st16" d="M16.54,140.45s-.91-.29-1.09-.61c-.17-.32-.23-1.22-.23-1.22,0,0-.19.83-.61,1.08-.42.26-1.22.23-1.22.23,0,0,.9.17,1.09.61.18.44.22,1.22.22,1.22,0,0,.24-.87.61-1.08.38-.21,1.23-.23,1.23-.23Z"/>
          <path class="st16" d="M57.22,152.15s-.91-.29-1.08-.61c-.17-.32-.23-1.22-.23-1.22,0,0-.19.83-.61,1.08-.42.26-1.23.23-1.23.23,0,0,.9.17,1.08.61.18.45.22,1.23.22,1.23,0,0,.24-.87.61-1.08.38-.22,1.23-.23,1.23-.23Z"/>
        </g>
      </g>
    </g>
  </g>
</svg>