<?xml version="1.0" encoding="UTF-8"?>
<svg id="Layer_1" data-name="Layer 1" xmlns="http://www.w3.org/2000/svg" viewBox="0 0 900 600">
  <defs>
    <style>
      .cls-1 {
        fill: #fbeee5;
      }

      .cls-2 {
        fill: #fff;
        stroke: #fff;
        stroke-width: 1.25px;
      }

      .cls-2, .cls-3 {
        stroke-miterlimit: 10;
      }

      .cls-4 {
        fill: #55cece;
      }

      .cls-5 {
        fill: #ff9ebb;
      }

      .cls-6 {
        fill: #ffcfcf;
      }

      .cls-7 {
        fill: #ffc15c;
      }

      .cls-8 {
        fill: #2e0033;
      }

      .cls-9 {
        fill: #ff5e5c;
      }

      .cls-3 {
        fill: none;
        stroke: #2e0033;
        stroke-linecap: round;
        stroke-width: 2.11px;
      }

      .cls-10 {
        fill: #ffbeff;
      }

      .cls-11 {
        fill: #a27cff;
      }
    </style>
  </defs>
  <rect class="cls-6" x=".26" y=".3" width="899.55" height="599.7" rx="41.79" ry="41.79"/>
  <g>
    <path class="cls-9" d="M204.8,363.79c-11.89,8.92-20.71,21.37-27.65,34.52-8.34,15.8-14.32,33.7-11.77,51.39,2.55,17.69,15.51,34.73,33.16,37.5,19.25,3.02,39.39-10.7,57.63-3.83,6.77,2.55,12.21,7.65,18.13,11.81,14.69,10.31,33.28,15.02,51.06,12.59,17.78-2.43,34.54-12.04,45.35-26.36,10.93-14.48,15.55-33.37,13.51-51.4-2.05-18.03-10.55-35.11-22.99-48.32-11.98-12.71-27.61-21.95-44.52-26.31-20.58-5.31-41.56-1.97-62.43-4.13-17.57-1.82-35.07,1.76-49.47,12.55Z"/>
    <path class="cls-4" d="M389.09,222c-17.43-1.44-34.98,2.6-51.17,9.23-19.28,7.9-37.44,19.95-49.06,37.25-11.61,17.3-15.77,40.37-7.38,59.44,2.52,5.72,6.19,11.07,11.28,14.69,8.41,5.96,19.59,6.47,29.75,4.71,10.16-1.76,19.88-5.54,30.02-7.41,9.71-1.79,21.9-.57,26.26,8.29,3.02,6.15,.93,13.47-1.12,20.01-3.73,11.91-7.2,24.2-6.48,36.67,.72,12.46,6.35,25.3,17.12,31.61,10.71,6.27,24.36,5.01,36.04,.79,20.61-7.45,37.64-23.43,48.06-42.72,10.41-19.28,14.45-41.66,13.34-63.55-2.56-50.45-43.37-104.61-96.66-109.01Z"/>
    <g>
      <g>
        <polygon class="cls-11" points="383.95 327.84 298.54 415.64 377.75 502 475.09 417.7 383.95 327.84"/>
        <polygon class="cls-1" points="312.31 416.79 384.41 340.07 465.74 418.52 378.65 492.35 312.31 416.79"/>
        <polygon class="cls-8" points="206.45 401.16 201.2 423.11 267.05 513.77 374.41 512.82 379.18 501.37 206.45 401.16"/>
        <polygon class="cls-11" points="379.17 501.36 362.67 500.89 277.54 498.5 215.11 413 206.45 401.15 298.06 414.52 379.17 501.36"/>
        <polygon class="cls-10" points="362.67 500.89 277.54 498.5 215.11 413 290.91 424.07 362.67 500.89"/>
        <polyline class="cls-3" points="290.91 424.07 298.06 414.52 379.17 501.36"/>
      </g>
      <polygon class="cls-8" points="475.09 417.7 471.75 432.02 382.52 509.32 378.23 500.73 475.09 417.7"/>
    </g>
    <g>
      <g>
        <g>
          <path class="cls-8" d="M357.3,407.33s-.28,2.06-1.36,5.53c-.1,.29-.2,.58-.3,.9-1.89,5.7-5.86,14.68-13.94,24.67-.18,.24-.38,.47-.58,.72-4.11,4.97-9.22,10.18-15.6,15.37-.24,.19-.49,.39-.73,.58-.19,.13-.37,.28-.56,.43-5.96,4.7-12.09,8.06-18.08,10.41-.31,.13-.59,.25-.89,.34-8.68,3.29-17.04,4.53-24.16,4.78-.32,.01-.64,0-.94,.02-11.89,.26-20.1-2.18-20.1-2.18l4.75-68.28,27.85-16.06,.99-.57,7.66-4.42,55.98,27.77Z"/>
          <path class="cls-10" d="M281.11,471.05c-.32,.01-.64,0-.94,.02-4.44-23.21-7.72-46.89-9.8-70.4l.93-.1c2.09,23.55,5.39,47.22,9.81,70.47Z"/>
          <path class="cls-10" d="M306.15,465.94c-.31,.13-.59,.25-.89,.34-10.32-21.76-20.11-44.02-29.11-66.31l.87-.35c8.99,22.31,18.77,44.57,29.13,66.33Z"/>
          <path class="cls-10" d="M325.52,454.52c-.24,.19-.49,.39-.73,.58l-42.82-58.63,.75-.57,42.8,58.62Z"/>
          <path class="cls-10" d="M341.7,438.43c-.18,.24-.38,.47-.58,.72-18.57-14.95-36.92-30.44-54.75-46.2l.62-.7c17.81,15.74,36.16,31.23,54.71,46.18Z"/>
          <path class="cls-10" d="M355.94,412.86c-.1,.29-.2,.58-.3,.9-20.77-10.08-41.9-19.89-62.97-29.2l.99-.57c20.83,9.21,41.72,18.91,62.28,28.88Z"/>
        </g>
        <path class="cls-11" d="M290.01,381.36s11.81,13.48-16.05,8.7c0,0-14.83,.37-21.93-16.23-9.61-22.51-24.05-53.06-38.72-71.98,0,0,18.15-19.15,41.66-19.18,0,0,18.68,44.58,35.39,75.79,4.69,8.76-4.28,17.53-.35,22.91Z"/>
        <g>
          <path class="cls-1" d="M231.58,309.23l1.85-.36c1.89-.37,3.79,.63,4.55,2.41l12.72,29.89c.89,2.1-.1,4.52-2.22,5.38h0c-1.98,.81-4.26-.05-5.21-1.97l-14.58-29.53c-1.19-2.41,.23-5.3,2.88-5.82Z"/>
          <path class="cls-1" d="M251.29,351.85h0c1.76-.73,3.78,.13,4.45,1.91l2.99,7.86c.6,1.57-.05,3.34-1.51,4.15l-.26,.15c-1.84,1.02-4.16,.13-4.84-1.86l-2.73-8.01c-.57-1.68,.26-3.52,1.9-4.21Z"/>
        </g>
        <path class="cls-1" d="M303.49,380.29s-12.05,27.14-39.9,22.37c0,0-4.46-12.22-11.56-28.83,14.03-.46,27.88-5.99,38.33-15.38,4.69,8.76,9.21,16.46,13.13,21.84Z"/>
      </g>
      <g>
        <path class="cls-5" d="M394.49,252.8c-.02,.06-.04,.11-.07,.19-.47,1.42-1.27,2.62-2.32,3.63-.04,.04-.06,.07-.09,.09-4.82,4.54-14.84,5.2-25.51,4.19-7.72-.71-15.79-2.28-22.54-3.87-.04-.02-.09-.02-.13-.04-6.15-1.42-11.18-2.86-13.77-3.64h-.02c-1.07-.32-1.72-.52-1.87-.56l1.21,1.18,24.24,23.08,1.42,1.36,26.84,25.57c0,.11-.02,.21-.04,.32-.04,.17-.09,.34-.15,.49-.04,.02-.07,.06-.11,.07-1.79,1.29-2.77,1.1-4.78,1.79-1.18,.3-1.33,.09-1.42,.11-4.47,1.48-8.34,1.64-13.47,.78-.13,0-1.35,.09-1.5,.06-9.85-1.7-20.05-6.07-29.73-11.25-15.59-8.34-24.69-16.09-27.23-18.39-.5-.45-.75-.69-.75-.69l-.04,.39-3.76,44.98-.15,1.64v.02l-2.95,35.25-.11,1.36c-.41-.06-.8-.13-1.2-.22h-.02c-25.72-5.92-32.5-79.93-32.5-79.93-14-18.45-50.91-33.71-50.91-33.71l-.06,1.35-1.85,39.36s24.82,29.27,36.91,55.36c12.09,26.09-7.01,32.44-7.01,32.44,0,0-.17-.19-.52-.56-.36-.37-.88-.95-1.59-1.72-3.96-4.26-13.06-14.07-23.4-25.16-.41-.43-.82-.86-1.23-1.31-18.15-19.42-39.62-42.14-43.86-45.69-7.64-6.35-17.19-52.8-21.01-59.8-3.81-6.99-52.16-88.44-52.16-88.44l78.89-65.52s87.8,87.8,114.53,106.25c13.1,9.05,32,15.32,47.84,19.4h.02c.8,.21,1.61,.41,2.37,.6h.02c10.28,2.54,19.03,4.11,23.7,4.9,1.21,.19,2.15,.34,2.77,.43,.58,.09,.9,.13,.9,.13,.43,11.36-5.72,13.42-9.62,13.59-1.59,.07-2.8-.17-3.05-.21l6.13,2.26,1.44,.54,32.33,11.92,1.4,.52c.02,.21,.04,.41,.06,.62,.11,1.7-.07,3.2-.5,4.5Z"/>
        <g>
          <path class="cls-8" d="M295.68,361.8c-.05,0-.1,0-.16-.01-26.07-4.74-33.83-75.01-34.41-80.68-17.72-21.87-62.14-37.54-62.59-37.69-.46-.16-.7-.66-.54-1.12,.16-.46,.66-.7,1.12-.54,.45,.16,45.62,16.09,63.54,38.45,.11,.13,.17,.29,.19,.46,.07,.74,7.52,72.93,32.05,79.18l6.88-82.89-59.67-59.04c-.34-.34-.35-.9,0-1.24,.34-.34,.9-.34,1.24,0l59.96,59.33c.18,.18,.28,.44,.26,.7l-7,84.3c-.02,.25-.14,.47-.34,.62-.15,.12-.34,.18-.53,.18Z"/>
          <path class="cls-8" d="M381.87,303.97c0,.11-.02,.21-.04,.32-.04,.17-.09,.34-.15,.49-.28,.67-.8,1.21-1.5,1.5-2.45,.99-7.03,2.39-13.53,2.39s-15.53-1.5-26.18-6.43c-18.84-8.75-31.83-19.19-37.83-24.58-2.47-2.22-3.76-3.59-3.79-3.63-.34-.34-.32-.9,.04-1.23,.36-.32,.92-.32,1.25,.04,.13,.17,14.84,15.62,41.08,27.81,20.33,9.44,33.57,5.94,38.29,4,.32-.13,.52-.39,.6-.71,.06-.32-.04-.65-.26-.9-9.98-10.3-51.9-49.24-52.33-49.64-18.8-12.84-58.74-48.29-59.15-48.65-.36-.32-.39-.88-.07-1.23,.34-.37,.88-.41,1.23-.07,.41,.36,40.27,35.73,59.09,48.59,.06,.06,.54,.5,1.4,1.31h.02c7.48,6.95,42.11,39.21,51.06,48.48,.56,.58,.84,1.36,.77,2.15Z"/>
          <path class="cls-8" d="M378.13,262.08c-1.07,0-2.18-.06-3.33-.17-19.24-1.89-46.6-8.23-46.87-8.29-.47-.11-.76-.58-.66-1.05,.11-.47,.58-.77,1.05-.66,.27,.06,27.52,6.37,46.65,8.25,6.28,.62,11.17-.54,14.52-3.44,3.39-2.93,4.27-6.91,4.49-8.44-2.48-.86-12.54-4.41-40.72-15.05-33.45-12.62-64.49-36.15-64.8-36.39-.39-.29-.46-.84-.17-1.23,.29-.39,.84-.46,1.23-.17,.31,.23,31.15,23.61,64.35,36.14,33.29,12.56,41.25,15.23,41.32,15.26,.37,.12,.62,.48,.6,.87-.01,.25-.31,6.12-5.14,10.32-3.1,2.69-7.3,4.05-12.53,4.05Z"/>
          <path class="cls-8" d="M238.53,374.99c-.36-.37-.88-.95-1.59-1.72,.65-7.96-2.43-16.22-8.37-21.6-2.02-1.85-5.23-4.13-9.1-4.58-2.11-.24-4.2,.13-5.92,1.03-.41-.43-.82-.86-1.23-1.31,2.11-1.23,4.73-1.78,7.36-1.46,3.42,.39,6.91,2.13,10.07,5.01,6.71,6.11,10.04,15.66,8.78,24.63Z"/>
          <path class="cls-8" d="M295.73,361.73c-.25,0-.49-.1-.67-.31-8.31-9.68-9.01-24.82-1.62-35.22,1.02-1.44,2.65-3.37,5.02-3.62,.5-.06,.91,.3,.96,.78,.05,.48-.3,.91-.78,.96-1.27,.13-2.47,1.05-3.78,2.89-6.83,9.6-6.16,24.12,1.52,33.06,.32,.37,.27,.92-.09,1.24-.17,.14-.37,.21-.57,.21Z"/>
          <path class="cls-8" d="M374.64,303.78c-5.77,.31-11.66-1.77-15.86-5.79-5.31-5.08-7.63-12.99-5.92-20.13,.11-.47,.59-.75,1.06-.65,.47,.11,.76,.59,.65,1.06-1.57,6.55,.56,13.8,5.43,18.46,4.87,4.66,12.19,6.47,18.68,4.62,.46-.14,.95,.13,1.08,.6,.13,.46-.14,.95-.6,1.08-1.47,.42-2.99,.67-4.51,.75Z"/>
          <path class="cls-8" d="M381.83,252.24c-2.52,0-5.03-.4-7.42-1.21-7.05-2.39-12.77-8.3-14.93-15.43-.14-.46,.12-.95,.59-1.09,.46-.14,.95,.12,1.09,.59,1.99,6.59,7.29,12.06,13.81,14.27,6.52,2.21,14.05,1.09,19.64-2.93,.4-.28,.94-.19,1.22,.2,.28,.39,.19,.94-.2,1.22-4,2.87-8.9,4.38-13.81,4.38Z"/>
          <path class="cls-8" d="M365.41,218.92c-3.81,2.45-8.15,3.76-12.39,3.76-1.21,0-2.43-.11-3.63-.32-5.55-1.05-10.37-4.65-12.84-9.36,.8,.21,1.61,.41,2.37,.6h.02c2.37,3.55,6.3,6.2,10.76,7.03,4.26,.8,8.84,.02,12.93-2.13,1.21,.19,2.15,.34,2.77,.43Z"/>
        </g>
      </g>
    </g>
    <g>
      <path class="cls-7" d="M429.73,266.29c-2.74-6.36-4.26-12.59-4.42-19.51h0c-1.15,6.83-3.55,12.78-7.17,18.68-3.62,5.9-9.08,11.56-15.94,10.67,6.26,.98,11.34,5.11,14.61,10.53,2.79,4.63,3.22,11.06,4.32,16.39v.04s0-.01,0-.02c.01,.07,.03,.15,.04,.22l.03-.43c1.86-5.11,3.39-11.2,6.82-15.39,4.01-4.9,9.63-8.26,15.97-8.33-6.92-.1-11.51-6.48-14.25-12.84Z"/>
      <path class="cls-7" d="M389.64,449.52c-2.74-6.36-4.26-12.59-4.42-19.51h0c-1.15,6.83-3.55,12.78-7.17,18.68-3.62,5.9-9.08,11.56-15.94,10.67,6.26,.98,11.34,5.11,14.61,10.53,2.79,4.63,3.22,11.06,4.32,16.39v.04s0-.01,0-.02c.01,.07,.03,.15,.04,.22l.03-.43c1.86-5.11,3.39-11.2,6.82-15.39,4.01-4.9,9.63-8.26,15.97-8.33-6.92-.1-11.51-6.48-14.25-12.84Z"/>
      <path class="cls-7" d="M198.78,368.4c-2.74-6.36-4.26-12.59-4.42-19.51h0c-1.15,6.83-3.55,12.78-7.17,18.68-3.62,5.9-9.08,11.56-15.94,10.67,6.26,.98,11.34,5.11,14.61,10.53,2.79,4.63,3.22,11.06,4.32,16.39v.04s0-.01,0-.02c.01,.07,.03,.15,.04,.22l.03-.43c1.86-5.11,3.39-11.2,6.82-15.39,4.01-4.9,9.63-8.26,15.97-8.33-6.92-.1-11.51-6.48-14.25-12.84Z"/>
    </g>
  </g>
  <g>
    <path d="M543.14,150.32c-3.38-2.09-5.52-5.4-6.41-9.91-.9-4.51-.36-9.62,1.6-15.33l7.7,3.04c-1.28,3.65-1.82,6.69-1.6,9.12,.22,2.43,1.13,4.13,2.74,5.09,1.6,.96,3.83,1.12,6.66,.48l.81-.2c2.13-.51,3.67-.95,4.64-1.32,.96-.37,1.59-.78,1.88-1.22,.29-.44,.4-1.06,.33-1.88,0-.17-.59-.43-1.77-.79-1.18-.35-2.6-.74-4.26-1.14l2.48-8.67c1.99,1.01,3.86,2.11,5.6,3.29,1.74,1.18,3.16,2.4,4.26,3.65,1.1,1.25,1.68,2.42,1.75,3.5,.13,2.33-.19,4.34-.99,6.03-.79,1.69-2.15,3.14-4.05,4.36-1.91,1.22-4.48,2.23-7.73,3.04l-1.11,.25c-4.97,1.15-9.14,.68-12.52-1.42Zm24.93-10.62c-.71-.05-1.5-.16-2.38-.33-.61-.13-1.39-.34-2.33-.61-.95-.27-2.08-.62-3.4-1.04-1.32-.42-2.82-.9-4.51-1.44l2.48-8.67c.34,.07,.56,.14,.66,.2,4.83,1.32,7.91,2.12,9.22,2.41,1.32,.29,2.47,.43,3.45,.43l.51,4.56-.51,4.56c-1.42,0-2.48-.03-3.19-.08Z"/>
    <path d="M570.76,130.66h1.72c1.05,0,1.71-.11,2-.33,.29-.22,.43-.67,.43-1.34v-6.28h7.6v6.28c0,1.76-.44,3.47-1.32,5.14-.88,1.67-2.09,3.03-3.62,4.08-1.54,1.05-3.24,1.57-5.09,1.57h-1.72v-9.12Zm9.07,7.58c-1.45-1.03-2.58-2.37-3.4-4.03-.81-1.66-1.22-3.35-1.22-5.07l7.3-.15c.03,.58,.2,1,.51,1.27,.3,.27,.86,.41,1.67,.41,1.01,0,1.67-.11,1.98-.33,.3-.22,.46-.67,.46-1.34v-6.28h7.6v6.28c0,1.83-.4,3.57-1.19,5.22-.79,1.66-1.95,3-3.47,4.03-1.52,1.03-3.31,1.55-5.37,1.55-1.79,0-3.41-.51-4.86-1.55Zm12.47-27.59v7.45h-8.51l.05-7.45h8.46Zm.1,27.54c-1.55-1.06-2.78-2.43-3.67-4.1-.9-1.67-1.34-3.32-1.34-4.94l7.35-.15c.03,.44,.23,.8,.58,1.09,.35,.29,.9,.43,1.65,.43s1.31-.04,1.7-.13c.39-.08,.65-.21,.79-.38,.13-.17,.15-.41,.05-.71l-1.67-6.23,7.3-2.18,1.67,6.23c.61,2.23,.57,4.32-.13,6.26-.69,1.94-1.87,3.5-3.52,4.66-1.66,1.17-3.53,1.75-5.62,1.75-1.86,0-3.56-.53-5.12-1.6Zm2.13-32.41v5.98h-6.54v-5.98h6.54Zm4.05,4.87l.05,7.45h-8.56l.05-7.45h8.46Zm5.4,26.48c-1.94-1.77-3.29-4.18-4.03-7.22l6.84-2.79c.24,1.15,.75,2.03,1.55,2.64,.79,.61,1.75,.91,2.86,.91l.51,4.56-.51,4.56c-2.87,0-5.28-.89-7.22-2.66Z"/>
    <path d="M617.54,143.94v6.84h-7.86v-6.84h7.86Zm-6.84-13.28h7.96c1.12,0,1.93-.1,2.43-.3,.51-.2,.8-.54,.89-1.01,.08-.47,0-1.17-.23-2.08l-1.98-7.55,7.8-2.33,2.13,8.01c.71,2.67,.7,5.1-.03,7.3-.73,2.2-2.06,3.93-4,5.19-1.94,1.27-4.28,1.9-7.02,1.9h-7.96v-9.12Zm12.57,20.12h-7.8v-6.84h7.8v6.84Z"/>
    <path d="M636.29,104l8.11-.41,1.37,36.08-8.11,.35-1.37-36.03Z"/>
    <path d="M646.78,143.89l3.85-1.06c.2-.03,.41-.08,.61-.15,1.42-.44,2.47-.86,3.14-1.27,.68-.41,1.1-.88,1.27-1.42,.17-.54,.19-1.27,.05-2.18l-2.03-14.54,8.01-1.22,1.47,10.49,.2,1.42,.35,2.79c.37,2.64,.26,4.89-.33,6.77-.59,1.88-1.67,3.45-3.24,4.71-1.57,1.27-3.71,2.31-6.41,3.12l-.96,.3-3.85,1.06-2.13-8.82Z"/>
    <path d="M667.26,102.76c.54-.86,1.29-1.48,2.25-1.85,.96-.37,2.04-.46,3.22-.25l5.12,.96c.54,.1,.93,.08,1.17-.05,.24-.13,.35-.35,.35-.66v-.15l4.05-.3v1.37c0,1.18-.27,2.21-.81,3.07-.54,.86-1.29,1.48-2.25,1.85-.96,.37-2.04,.46-3.22,.25l-5.12-.96c-.54-.1-.93-.08-1.17,.05-.24,.13-.35,.35-.35,.66v.15l-4.05,.3v-1.37c0-1.18,.27-2.2,.81-3.07Zm3.24,6.26l8.11-.41,1.17,31.07-8.11,.35-1.17-31.01Z"/>
    <path d="M696.04,128.63l5.52-3.7,13.38,6.79c-.17,.07-.29,.13-.35,.18-.07,.05-.19,.11-.35,.18,.54-1.05,.92-1.98,1.14-2.79,.22-.81,.25-1.53,.1-2.15-.15-.62-.55-1.12-1.19-1.5-.74-.41-1.45-.41-2.13-.03-.68,.39-1.3,1.16-1.88,2.31l-2.48,4.82-6.79-4.05,3.5-6.84c.81-1.59,1.92-2.84,3.32-3.75,1.4-.91,2.92-1.4,4.56-1.47,1.64-.07,3.23,.3,4.79,1.12,1.82,.95,3.22,2.42,4.18,4.43,.96,2.01,1.38,4.23,1.27,6.67-.12,2.43-.77,4.75-1.95,6.94-1.05,1.93-2.51,3.23-4.38,3.9-1.88,.68-3.79,.52-5.75-.46l-6.39-3.24,1.01,18.7-8.11,.3-1.01-26.35Z"/>
    <path d="M721.63,143.89l3.85-1.06c.2-.03,.41-.08,.61-.15,1.42-.44,2.47-.86,3.14-1.27,.68-.41,1.1-.88,1.27-1.42,.17-.54,.19-1.27,.05-2.18l-2.03-14.54,8.01-1.22,1.47,10.49,.2,1.42,.35,2.79c.37,2.64,.26,4.89-.33,6.77-.59,1.88-1.67,3.45-3.24,4.71-1.57,1.27-3.71,2.31-6.41,3.12l-.96,.3-3.85,1.06-2.13-8.82Zm6.74-34.36h7.7v7.7h-7.7v-7.7Z"/>
    <path d="M744.85,104l8.11-.41,1.37,36.08-8.11,.35-1.37-36.03Z"/>
    <path d="M767.4,143.02c2.8-.61,4.76-1.11,5.88-1.52,1.12-.41,1.8-.86,2.05-1.37s.33-1.3,.23-2.38l-.86-8.11c-.14-1.52-.51-2.64-1.12-3.37-.61-.73-1.39-1.07-2.33-1.04-.58,0-1.07,.16-1.5,.48-.42,.32-.73,.75-.94,1.29-.2,.54-.29,1.15-.25,1.83,.07,.68,.26,1.15,.58,1.42,.32,.27,.95,.41,1.9,.41h14.75l.51,4.56-.51,4.56h-14.75c-1.99,0-3.76-.42-5.3-1.27-1.54-.84-2.76-2.04-3.67-3.57-.91-1.54-1.45-3.34-1.62-5.4-.17-2.3,.17-4.46,1.01-6.49,.84-2.03,2.09-3.67,3.75-4.92,1.65-1.25,3.53-1.93,5.62-2.03,2.09-.1,4,.38,5.73,1.44s3.12,2.57,4.21,4.51c1.08,1.94,1.76,4.15,2.03,6.61l.86,8.06c.34,3.34,0,5.98-1.01,7.91-1.01,1.93-2.81,3.47-5.37,4.64-2.57,1.17-6.33,2.27-11.3,3.32l-.66,.15-1.62-8.92,3.7-.81Z"/>
    <path d="M785.29,130.66h1.17c1.01,0,1.68-.11,2-.33,.32-.22,.46-.62,.43-1.19l-.96-25.14,8.11-.41,.96,25.14c.1,2.13-.28,4.03-1.14,5.7-.86,1.67-2.1,2.98-3.72,3.93-1.62,.95-3.51,1.42-5.68,1.42h-1.17v-9.12Z"/>
  </g>
  <g>
    <rect x="585.12" y="190.2" width="209.05" height="78.13" rx="39.07" ry="39.07"/>
    <g>
      <path class="cls-2" d="M634.39,240.19c-.88-.5-1.56-1.19-2.07-2.07-.5-.87-.75-1.81-.75-2.82,0-.93,.24-1.86,.71-2.8s1.14-1.82,1.99-2.65l2.82-2.7,.62,.73-2.74,2.66c-.8,.77-1.4,1.56-1.81,2.35-.41,.8-.62,1.6-.62,2.39s.21,1.59,.64,2.3,.99,1.27,1.7,1.7c.71,.42,1.5,.64,2.37,.64,1.29,0,2.38-.46,3.28-1.37s1.35-2,1.35-3.26c0-.9-.19-1.75-.58-2.55-.39-.8-1.14-1.79-2.28-2.97l-3.9-3.94,.73-.73,3.86,3.94c1.16,1.18,1.97,2.24,2.43,3.17,.46,.93,.69,1.96,.69,3.09,0,1-.25,1.94-.75,2.82-.5,.88-1.18,1.56-2.05,2.07s-1.79,.75-2.8,.75-1.98-.25-2.86-.75Z"/>
      <path class="cls-2" d="M650.8,240.61c-.85-.22-1.51-.54-1.97-.97-.46-.42-.76-.96-.89-1.6-.21-.75-.31-1.61-.31-2.59h.93c0,.85,.08,1.62,.23,2.32,.18,.75,.67,1.29,1.47,1.62,.8,.34,1.98,.5,3.55,.5h.77c2.47,0,4.14-.44,5-1.31,.86-.87,1.1-2.02,.71-3.44l.97-.23c.28,1.11,.28,2.1-.02,2.99-.3,.89-.99,1.62-2.07,2.18-1.08,.57-2.65,.85-4.71,.85h-.54c-1.24,0-2.28-.11-3.13-.33Zm11.98-.52c-.68-.57-1.19-1.24-1.52-2.01-.33-.77-.66-1.72-.97-2.86v-.08l-2.16-8.57-.73-2.86,.97-.27,2.9,11.46,.04,.08c.23,.98,.49,1.81,.77,2.49,.28,.68,.68,1.25,1.2,1.72,.52,.46,1.22,.69,2.12,.69h1.89l.08,.5-.08,.54h-1.89c-1.06,0-1.92-.28-2.61-.85Z"/>
      <path class="cls-2" d="M670.39,235.9c-.55-.81-.87-1.71-.95-2.7-.08-.99,.12-1.95,.58-2.88,.44-.9,1.06-1.63,1.87-2.2,.81-.57,1.7-.89,2.66-.97s1.9,.1,2.8,.54c.9,.41,1.63,1.02,2.18,1.83s.87,1.71,.95,2.7c.08,.99-.09,1.95-.5,2.87-.51,1.16-1.34,2.18-2.47,3.05-1.13,.88-2.49,1.56-4.07,2.05-1.58,.49-3.27,.73-5.08,.73h-1.47v-1.04h1.47c1.47,0,2.83-.15,4.09-.46,1.26-.31,2.38-.75,3.36-1.31,1.59-.9,2.68-2.05,3.24-3.44,.54-1.13,.61-2.28,.21-3.45-.4-1.17-1.16-2.04-2.3-2.61-.75-.36-1.52-.51-2.32-.44s-1.52,.32-2.18,.77c-.66,.45-1.16,1.04-1.52,1.76-.59,1.18-.68,2.36-.27,3.53,.41,1.17,1.2,2.01,2.35,2.53l8.34,3.74c1.08,.49,2.17,.53,3.26,.12,1.09-.41,1.88-1.13,2.37-2.16,.46-1.03,.5-2.1,.12-3.2-.39-1.11-1.12-1.93-2.2-2.47l-13.63-7.18,.42-.89,13.63,7.18c.87,.46,1.57,1.07,2.08,1.83,.52,.76,.82,1.6,.91,2.51s-.06,1.78-.44,2.6c-.41,.85-1,1.54-1.76,2.08s-1.6,.86-2.51,.95c-.91,.09-1.8-.06-2.65-.44l-8.38-3.71c-.93-.41-1.67-1.02-2.22-1.83Z"/>
      <path class="cls-2" d="M696.65,240.34c-.8-.4-1.37-1.06-1.72-1.99-.35-.93-.56-2.25-.64-3.98l-.69-17.76h.97l.69,17.76,.04,.66c.1,1.31,.3,2.32,.58,3.01,.28,.69,.75,1.18,1.39,1.45s1.6,.41,2.86,.41h.39l.04,.5-.04,.54h-.39c-1.52,0-2.68-.2-3.47-.6Z"/>
      <path class="cls-2" d="M700.13,239.9h.58c1.75,0,2.93-.42,3.55-1.27,.62-.85,.93-1.84,.93-2.97v-4.75h.97v4.75c0,.8-.15,1.59-.46,2.37s-.87,1.47-1.68,2.05-1.91,.87-3.3,.87h-.58v-1.04Zm7.39,.29c-.76-.5-1.33-1.15-1.7-1.95-.37-.8-.57-1.65-.6-2.55l.93-.04c.03,1.18,.39,2.19,1.08,3.01,.69,.82,1.75,1.24,3.17,1.24,1.75,0,2.93-.42,3.53-1.27,.6-.85,.91-1.84,.91-2.97v-4.75h.97v4.75c0,.77-.14,1.56-.42,2.35-.28,.8-.83,1.49-1.64,2.07s-1.92,.87-3.34,.87c-1.16,0-2.12-.25-2.88-.75Zm6.2-15.96v1.85h-1.89v-1.85h1.89Zm2.62-3.51v1.74h-1.74v-1.74h1.74Zm.85,19.47c-.77-.5-1.35-1.15-1.74-1.95s-.58-1.65-.58-2.55l.93-.04c.03,1.18,.39,2.19,1.1,3.01,.71,.82,1.77,1.24,3.19,1.24,1.26,0,2.26-.23,2.99-.69,.73-.46,1.21-1.05,1.43-1.76s.22-1.45,.02-2.22l-1.27-4.75,.89-.23,1.27,4.75c.26,.95,.24,1.88-.04,2.78s-.86,1.65-1.74,2.26c-.88,.61-2.05,.91-3.51,.91-1.18,0-2.16-.25-2.93-.75Zm1.85-15.96v1.85h-1.89v-1.85h1.89Zm7.95,15.09c-1.24-1.08-2.05-2.42-2.43-4.01l.85-.31c.33,1.39,1.04,2.55,2.12,3.49,1.08,.94,2.33,1.41,3.74,1.41l.08,.5-.08,.54c-1.62,0-3.05-.54-4.28-1.62Z"/>
      <path class="cls-2" d="M730.89,239.9h.42c1.03,0,1.96-.25,2.78-.75,.82-.5,1.47-1.2,1.93-2.1l2.82-5.4c.39-.75,.92-1.33,1.6-1.76,.68-.42,1.43-.66,2.24-.69,.81-.04,1.58,.13,2.3,.52,.98,.52,1.7,1.27,2.16,2.26,.46,.99,.64,2.12,.54,3.4-.1,1.27-.46,2.59-1.08,3.96-.21,.46-.55,.86-1.02,1.2s-1.02,.53-1.62,.6-1.19-.05-1.76-.33l-5.98-3.09,.46-.89,6.06,3.09c.62,.33,1.24,.38,1.85,.13,.62-.24,1.03-.62,1.24-1.14l.15-.23c.75-1.72,1-3.35,.77-4.88-.23-1.53-.94-2.62-2.12-3.26-.93-.46-1.88-.54-2.86-.23-.98,.31-1.71,.94-2.2,1.89l-2.74,5.29c-.57,1.11-1.33,1.96-2.28,2.57-.95,.61-2.03,.91-3.24,.91h-.42v-1.04Z"/>
    </g>
  </g>
</svg>