<?xml version="1.0" encoding="UTF-8"?>
<svg id="Layer_1" data-name="Layer 1" xmlns="http://www.w3.org/2000/svg" viewBox="0 0 900 600">
  <defs>
    <style>
      .cls-1 {
        fill: #fbeee5;
      }

      .cls-2 {
        fill: #fff;
        stroke: #fff;
        stroke-width: 1.25px;
      }

      .cls-2, .cls-3 {
        stroke-miterlimit: 10;
      }

      .cls-4 {
        fill: #ff9ebb;
      }

      .cls-5 {
        stroke-linecap: round;
        stroke-linejoin: round;
      }

      .cls-5, .cls-3 {
        fill: none;
        stroke: #2e0033;
        stroke-width: 2.75px;
      }

      .cls-6 {
        fill: #ffcfcf;
      }

      .cls-7 {
        fill: #ffc15c;
      }

      .cls-8 {
        fill: #2e0033;
      }

      .cls-9 {
        fill: #ff5e5c;
      }

      .cls-10 {
        fill: #a27cff;
      }
    </style>
  </defs>
  <rect class="cls-6" x="1.52" y=".17" width="898.24" height="598.83" rx="41.79" ry="41.79"/>
  <g>
    <g>
      <path class="cls-10" d="M383.02,335.98c14.88,23.88,19.13,54.46,9.9,81.03-5.45,15.69-15.29,29.65-27.21,41.22-14.46,14.04-32.43,24.89-52.19,28.9-19.75,4.01-41.32,.73-57.8-10.87-11.28-7.93-19.86-19.48-24.84-32.33-4.5-11.61-6.01-25.14-.39-36.25,1.93-3.81,4.71-7.27,8.38-9.45,3.2-1.9,6.89-2.74,10.5-3.66,13.91-3.55,28.06-9.16,37.16-20.26,3.02-3.68,5.47-8.18,5.24-12.94-.27-5.42-3.89-9.99-6.63-14.68-6.75-11.56-8.42-26.55-2.21-38.42,8.07-15.43,29.82-21.85,45.56-16.09,22.19,8.12,42.03,23.71,54.55,43.8Z"/>
      <path class="cls-9" d="M95.62,275.37c-9.52-32.44-4.59-69.2,14.67-96.98,11.37-16.4,27.25-29.38,44.78-38.93,21.27-11.59,45.56-18.35,69.72-16.63,24.16,1.73,48.06,12.48,63.4,31.22,10.5,12.82,16.7,28.95,18.33,45.44,1.47,14.89-1.15,31.04-11.24,42.09-3.46,3.79-7.79,6.9-12.74,8.24-4.31,1.17-8.86,.94-13.33,.85-17.24-.38-35.43,1.55-49.54,11.47-4.68,3.29-8.97,7.71-10.23,13.29-1.44,6.36,1.28,12.82,2.94,19.13,4.09,15.56,1.18,33.45-9.82,45.18-14.31,15.26-41.57,15.67-57.92,3.93-23.06-16.55-41-41-49.01-68.29Z"/>
      <g>
        <line class="cls-5" x1="205.06" y1="146.38" x2="225.42" y2="132.09"/>
        <line class="cls-5" x1="210.41" y1="156.38" x2="236.14" y2="150.67"/>
        <line class="cls-5" x1="212.2" y1="168.53" x2="242.92" y2="168.17"/>
      </g>
      <g>
        <path class="cls-4" d="M236.86,262.49c0,2.92-.25,9.91-.59,17.86-.02,.69-.04,1.39-.06,2.1v.02c-.5,11.52-1.11,24.41-1.39,29.7-.04,1.07-.08,1.83-.08,2.2-.02,.19-.02,.27-.02,.27,0,0-6.44,5-17.15-5.02-4.26-3.97-7.28-10.66-9.36-17.25,3.99,20.17,9.36,51.4,9.36,73,0,34.29-12.15,63.57-12.15,63.57l1.43,51.46s-61.45,5.71-95.75-2.16c0,0,7.16-47.85,2.85-80.72-4.28-32.87-17.15-86.47-13.56-106.47,3.57-20,12.84-95.01,12.84-95.01l36.56-39.14,1.53-1.64,18.6-19.92,2.35-2.52,.97-1.01,.73-.8s7.68,14.73,4.85,27.22c0,.04-.02,.06-.02,.1-.15,.65-.34,1.32-.55,1.95-1.47,4.41-5.23,10.49-9.51,16.56,0,.02-.02,.04-.04,.06-7.83,11.04-17.42,22.04-18.24,22.98,.38-.31,2.22-1.89,4.93-4.03,7.22-5.77,20.38-15.55,26.42-15.55,8.58,0,57.17,16.43,57.17,16.43,0,0,2.14,14.27-16.43,16.43-18.57,2.14-30.01,.71-30.01,.71,0,0,44.31,40,44.31,48.59Z"/>
        <g>
          <path class="cls-8" d="M143.88,242.1h-.01c-.58,0-1.04-.48-1.04-1.06l.36-31.79c0-.23,.08-.46,.23-.65,.32-.4,32-39.95,34.08-53.09,2.06-13.02-4.42-23.1-4.49-23.2-.32-.49-.18-1.14,.3-1.45,.49-.32,1.13-.18,1.45,.3,.29,.44,6.99,10.86,4.8,24.68-2.09,13.24-31.17,49.9-34.29,53.8l-.35,31.43c0,.58-.48,1.04-1.05,1.04Z"/>
          <path class="cls-8" d="M236.27,280.35c-.02,.69-.04,1.39-.06,2.1v.02c-2.41,.02-4.7,.38-6.21,1.87-.99,.97-1.51,2.41-1.89,3.55-1.45,4.55-1.6,9.63-.44,14.27,1.07,4.26,3.19,7.58,5.96,9.38,.38,.23,.78,.44,1.2,.63-.04,1.07-.08,1.83-.08,2.2-.8-.27-1.55-.63-2.25-1.07-4.13-2.67-6.02-7.26-6.86-10.64-1.26-5.08-1.09-10.41,.48-15.41,.44-1.36,1.11-3.11,2.41-4.41,2.01-1.99,4.83-2.46,7.74-2.5Z"/>
          <path class="cls-8" d="M172.28,132.83c-.31,3.92-.8,8.19-2.2,12.19-1.85,5.29-5.14,9.34-9.23,11.42-1.93,.99-4.05,1.45-6.11,1.45-1.72,0-3.42-.34-4.93-.99l1.53-1.64c2.62,.9,5.79,.69,8.56-.69,3.61-1.83,6.53-5.48,8.21-10.24,1.01-2.9,1.51-5.98,1.83-8.98l2.35-2.52Z"/>
        </g>
        <g>
          <g>
            <g>
              <polygon class="cls-10" points="203.28 157.09 197.55 167.63 197.55 204.61 161.11 204.61 161.11 157.09 203.28 157.09"/>
              <rect class="cls-8" x="161.11" y="194.24" width="36.43" height="10.37"/>
            </g>
            <line class="cls-3" x1="161.83" y1="181.92" x2="197.2" y2="181.92"/>
          </g>
          <g>
            <path class="cls-10" d="M146.83,218.91v124.31h67.52l-.32-129.08c-.02-8.19-6.74-14.78-14.93-14.65l-33.68,.54c-10.31,.16-18.59,8.57-18.59,18.89Z"/>
            <g>
              <path class="cls-1" d="M200.1,211.84h1.92c2.76,0,5,2.24,5,5v25.36c0,2.76-2.24,5-5,5h0c-2.62,0-4.79-2.01-4.99-4.62-.49-6.53-1.39-18.45-1.92-25.37-.22-2.9,2.08-5.38,4.99-5.38Z"/>
              <path class="cls-1" d="M201.89,253.1h0c2.53,0,4.59,2.05,4.59,4.59v9.21c0,2.95-2.74,5.13-5.61,4.47l-.14-.03c-2.11-.48-3.6-2.38-3.57-4.55l.14-9.18c.04-2.51,2.08-4.52,4.59-4.52Z"/>
            </g>
          </g>
        </g>
        <g>
          <path class="cls-4" d="M124.5,296.78l8.57-38.05,38.05-51.44s13.93,6.97,10.72,24.65c-3.22,17.68-24.11,38.58-19.83,53.05,4.29,14.47,27.86,31.62,26.26,59.48-1.61,27.86-6.43,38.05-6.43,38.05l-54.66-6.97-2.68-78.77Z"/>
          <path class="cls-5" d="M124.32,293.92s5-31.79,11.79-41.08c6.79-9.29,35.01-45.55,35.01-45.55,0,0,18.93,9.47,8.93,31.62-10,22.15-20.72,37.87-18.58,45.01,2.14,7.14,26.08,28.94,26.79,60.55"/>
          <path class="cls-5" d="M150.03,234.63c3.63,1.6,7.93,.11,11.15-2.21,7.1-5.13,10.86-14.5,9.29-23.11"/>
        </g>
      </g>
      <g>
        <path class="cls-4" d="M299,492.68l-.71-57.16s-16.25-13.4-10.54-49.12c5.72-35.72,12.68-51.62,12.68-51.62l-13.58-23.58s-10.72,20.72-27.86,11.43l2.86-17.5s-16.08,3.57-23.94-9.29l56.8-45.37-2.86-12.15s-51.44,35.01-59.3,0c0,0,76.45-34.3,82.17-34.3s45.73,21.43,45.73,21.43l31.44,72.16-4.29,180.76s-23.58,34.3-88.6,14.29Z"/>
        <g>
          <path class="cls-5" d="M237.91,295.84s11.79,15.72,23.94,9.29l18.58-17.86,20.01-1.79"/>
          <path class="cls-5" d="M258.99,322.63s20.36,7.86,27.86-11.43l13.58,23.58"/>
          <line class="cls-5" x1="280.42" y1="287.27" x2="302.22" y2="291.55"/>
          <path class="cls-5" d="M260.23,319.13c3.72,.25,7.69-1.52,9.4-4.84,.84-1.62,1.1-3.49,1.11-5.32,0-2.31-.41-4.71-1.75-6.6-.68-.96-1.11-1.41-2.15-1.97"/>
          <path class="cls-5" d="M239.54,297.61c4.95,1.18,10.46-.27,14.19-3.73,3.73-3.47,5.57-8.85,4.75-13.88"/>
        </g>
        <polyline class="cls-5" points="321.86 237.97 336.87 249.4 352.59 284.41"/>
        <g>
          <path class="cls-4" d="M312.4,408.91s-10.18-31.08-3.22-54.12c6.97-23.04,9.11-27.86,9.11-27.86,0,0-47.69-78.24-13.4-95.38l42.87,71.27,9.11,47.16-44.48,58.94Z"/>
          <path class="cls-5" d="M352.59,309.42l-47.69-77.88s-18.49,7.95-10.27,36.53c8.22,28.58,21.17,61.62,21.17,61.62,0,0-18.93,39.39-5,74.04"/>
          <path class="cls-5" d="M305.21,231.82c-2.34,7.14-2.44,15.55,2.05,21.57,3.13,4.2,8.33,6.77,13.56,6.7"/>
        </g>
        <line class="cls-5" x1="341.87" y1="291.2" x2="367.95" y2="276.19"/>
      </g>
    </g>
    <g>
      <path class="cls-7" d="M371.09,145c-3.58-6.9-5.79-13.76-6.53-21.5h0c-.74,7.74-2.95,14.6-6.53,21.5-3.58,6.9-9.24,13.68-17,13.23,7.09,.59,13.12,4.81,17.21,10.62,3.5,4.97,4.5,12.13,6.16,18.01v.05s0-.02,0-.02c.02,.08,.04,.16,.07,.24v-.48c1.67-5.87,2.89-12.82,6.4-17.79,4.1-5.81,10.13-10.03,17.21-10.62-7.76,.45-13.42-6.33-17-13.23Z"/>
      <path class="cls-7" d="M94.05,234.48c-3.58-6.9-5.79-13.76-6.53-21.5h0c-.74,7.74-2.95,14.6-6.53,21.5-3.58,6.9-9.24,13.68-17,13.23,7.09,.59,13.12,4.81,17.21,10.62,3.5,4.97,4.5,12.13,6.16,18.01v.05s0-.02,0-.02c.02,.08,.04,.16,.07,.24v-.48c1.67-5.87,2.89-12.82,6.4-17.79,4.1-5.81,10.13-10.03,17.21-10.62-7.76,.45-13.42-6.33-17-13.23Z"/>
      <path class="cls-7" d="M227.49,495.19c-3.58-6.9-5.79-13.76-6.53-21.5h0c-.74,7.74-2.95,14.6-6.53,21.5-3.58,6.9-9.24,13.68-17,13.23,7.09,.59,13.12,4.81,17.21,10.62,3.5,4.97,4.5,12.13,6.16,18.01v.05s0-.02,0-.02c.02,.08,.04,.16,.07,.24v-.48c1.67-5.87,2.89-12.82,6.4-17.79,4.1-5.81,10.13-10.03,17.21-10.62-7.76,.45-13.42-6.33-17-13.23Z"/>
    </g>
  </g>
  <g>
    <path d="M399.82,124.76c-1.65-1.01-2.97-2.39-3.95-4.12-.98-1.74-1.47-3.62-1.47-5.64,0-1.72,.4-3.44,1.19-5.16,.79-1.72,1.9-3.29,3.31-4.71l3.49-3.49,5.52,6.17-2.94,2.88c-1.08,1.08-1.8,1.92-2.15,2.5-.35,.59-.53,1.19-.53,1.8,0,.44,.12,.84,.35,1.21,.24,.37,.58,.67,1.04,.89,.46,.22,.97,.33,1.54,.33,.88,0,1.58-.23,2.1-.68,.52-.46,.78-1.04,.78-1.75,0-.64-.18-1.26-.53-1.85-.35-.59-1.12-1.41-2.3-2.45l-7.34-6.68,5.62-6.63,7.14,6.53c1.86,1.69,3.21,3.41,4.05,5.16,.84,1.75,1.26,3.73,1.26,5.92,0,2.02-.48,3.91-1.44,5.64-.96,1.74-2.27,3.11-3.92,4.12-1.65,1.01-3.46,1.52-5.42,1.52s-3.76-.51-5.41-1.52Z"/>
    <path d="M425.75,125.01c-1.43-.74-2.56-1.74-3.37-2.99-.81-1.25-1.21-2.6-1.21-4.05v-3.19h7.49v1.72c0,.24,.03,.38,.1,.43,.07,.05,.2,.08,.41,.08h6.58c.67,0,1.08-.14,1.21-.43,.13-.29,.08-.7-.15-1.24l7.89-2.07c.57,2.33,.51,4.48-.18,6.45-.69,1.97-1.9,3.53-3.62,4.68-1.72,1.15-3.81,1.72-6.28,1.72h-4.05c-1.79,0-3.4-.37-4.83-1.11Zm16.52-.15c-1.28-.84-2.35-2.04-3.21-3.59s-1.59-3.46-2.2-5.72l-.05-.2-2.78-11.03-.96-3.69,7.89-2.23,3.74,14.88,.05,.1c.27,1.15,.5,1.97,.68,2.45,.18,.49,.37,.81,.56,.96,.18,.15,.46,.23,.83,.23h2.48l.51,4.55-.51,4.55h-2.48c-1.75,0-3.27-.42-4.55-1.27Z"/>
    <path d="M448.8,117.02h3.19c1.08,0,1.77-.08,2.07-.25,.3-.17,.42-.51,.35-1.01l-.56-6.22,8.1-.81,.56,6.22c.2,2.16-.11,4.09-.94,5.79-.83,1.7-2.07,3.03-3.72,3.97-1.65,.94-3.61,1.42-5.87,1.42h-3.19v-9.11Zm3.29-20.65h7.69v7.69h-7.69v-7.69Zm5.44,27.07c-1.81-1.79-2.84-4.35-3.11-7.69l8.1-.81c.07,.68,.15,1.14,.25,1.39,.1,.25,.3,.43,.61,.53s.83,.15,1.57,.15l.51,4.55-.51,4.55c-3.14,0-5.61-.89-7.41-2.68Z"/>
    <path d="M464.44,117.02h3.19c1.08,0,1.77-.08,2.07-.25,.3-.17,.42-.51,.35-1.01l-.56-6.22,8.1-.81,.56,6.22c.2,2.16-.11,4.09-.94,5.79-.83,1.7-2.07,3.03-3.72,3.97-1.65,.94-3.61,1.42-5.87,1.42h-3.19v-9.11Zm3.29-20.65h7.69v7.69h-7.69v-7.69Zm5.44,27.07c-1.81-1.79-2.84-4.35-3.11-7.69l8.1-.81c.07,.68,.15,1.14,.25,1.39,.1,.25,.3,.43,.61,.53s.83,.15,1.57,.15l.51,4.55-.51,4.55c-3.14,0-5.61-.89-7.41-2.68Z"/>
    <path d="M480.08,117.02h11.49c.51,0,.84-.08,1.01-.25,.13-.13,.19-.31,.18-.53-.02-.22-.13-.46-.33-.73l-11.08-15.69,1.82-6.88,18.32-6.73,2.83,8.5-14.52,5.31,.61-2.23,8.15,12.25c1.01,1.55,1.73,3.09,2.15,4.6s.54,2.94,.35,4.28c-.19,1.33-.65,2.52-1.39,3.57-.81,1.15-1.91,2.04-3.29,2.68-1.38,.64-3.02,.96-4.91,.96h-11.39v-9.11Z"/>
    <path d="M525.27,129.36c2.8-.61,4.76-1.11,5.87-1.52s1.8-.86,2.05-1.37c.25-.51,.33-1.3,.23-2.38l-.86-8.1c-.13-1.52-.51-2.64-1.11-3.37-.61-.73-1.38-1.07-2.33-1.04-.57,0-1.07,.16-1.49,.48-.42,.32-.73,.75-.94,1.29-.2,.54-.29,1.15-.25,1.82,.07,.68,.26,1.15,.58,1.42,.32,.27,.95,.4,1.9,.4h14.73l.51,4.55-.51,4.55h-14.73c-1.99,0-3.75-.42-5.29-1.27-1.54-.84-2.76-2.03-3.67-3.57-.91-1.53-1.45-3.33-1.62-5.39-.17-2.29,.17-4.45,1.01-6.48,.84-2.02,2.09-3.66,3.75-4.91,1.65-1.25,3.52-1.92,5.62-2.02,2.09-.1,4,.38,5.72,1.44,1.72,1.06,3.12,2.56,4.2,4.5,1.08,1.94,1.75,4.14,2.02,6.6l.86,8.05c.34,3.34,0,5.97-1.01,7.89-1.01,1.92-2.8,3.47-5.36,4.63-2.56,1.16-6.33,2.27-11.29,3.31l-.66,.15-1.62-8.91,3.69-.81Z"/>
    <path d="M543.13,117.02h3.19c1.08,0,1.77-.08,2.07-.25,.3-.17,.42-.51,.35-1.01l-.56-6.22,8.1-.81,.56,6.22c.2,2.16-.11,4.09-.94,5.79-.83,1.7-2.07,3.03-3.72,3.97-1.65,.94-3.61,1.42-5.87,1.42h-3.19v-9.11Zm3.04,12.85h7.69v7.69h-7.69v-7.69Zm5.69-6.43c-1.81-1.79-2.84-4.35-3.11-7.69l8.1-.81c.07,.68,.15,1.14,.25,1.39,.1,.25,.3,.43,.61,.53s.83,.15,1.57,.15l.51,4.55-.51,4.55c-3.14,0-5.61-.89-7.41-2.68Z"/>
    <path d="M558.77,117.02h2.38c1.05,0,1.71-.11,2-.33,.29-.22,.43-.67,.43-1.34v-6.28h7.59v6.28c0,1.82-.4,3.56-1.19,5.21-.79,1.65-1.95,2.99-3.47,4.02-1.52,1.03-3.31,1.54-5.36,1.54h-2.38v-9.11Zm9.36,7.46c-1.49-1.1-2.62-2.49-3.39-4.18-.78-1.69-1.16-3.34-1.16-4.96h7.59c.03,.57,.2,1,.51,1.27,.3,.27,.86,.4,1.67,.4,1.01,0,1.67-.11,1.97-.33,.3-.22,.46-.67,.46-1.34v-6.28h7.59v6.28c0,1.82-.4,3.56-1.19,5.21-.79,1.65-1.95,2.99-3.47,4.02-1.52,1.03-3.31,1.54-5.36,1.54s-3.73-.55-5.21-1.64Zm12.25-29.02v7.44h-8.5l.05-7.44h8.45Zm-.1,29.12c-1.48-1.03-2.61-2.37-3.37-4.02-.76-1.65-1.14-3.39-1.14-5.21h7.59c0,.64,.14,1.08,.43,1.32,.29,.24,.87,.35,1.75,.35s1.45-.1,1.82-.3,.58-.54,.63-1.01c.05-.47-.04-1.16-.28-2.07l-2.02-7.54,7.79-2.33,2.02,7.54c.74,2.67,.8,5.14,.18,7.41s-1.83,4.08-3.62,5.41c-1.79,1.33-3.96,2-6.53,2-2.02,0-3.78-.51-5.26-1.54Zm2.33-33.98v5.97h-6.53v-5.97h6.53Zm4.05,4.86l.05,7.44h-8.55l.05-7.44h8.45Z"/>
    <path d="M608.16,129.36c2.8-.61,4.76-1.11,5.87-1.52s1.8-.86,2.05-1.37c.25-.51,.33-1.3,.23-2.38l-.86-8.1c-.13-1.52-.51-2.64-1.11-3.37-.61-.73-1.38-1.07-2.33-1.04-.57,0-1.07,.16-1.49,.48-.42,.32-.73,.75-.94,1.29-.2,.54-.29,1.15-.25,1.82,.07,.68,.26,1.15,.58,1.42,.32,.27,.95,.4,1.9,.4h14.73l.51,4.55-.51,4.55h-14.73c-1.99,0-3.75-.42-5.29-1.27-1.54-.84-2.76-2.03-3.67-3.57-.91-1.53-1.45-3.33-1.62-5.39-.17-2.29,.17-4.45,1.01-6.48,.84-2.02,2.09-3.66,3.75-4.91,1.65-1.25,3.52-1.92,5.62-2.02,2.09-.1,4,.38,5.72,1.44,1.72,1.06,3.12,2.56,4.2,4.5,1.08,1.94,1.75,4.14,2.02,6.6l.86,8.05c.34,3.34,0,5.97-1.01,7.89-1.01,1.92-2.8,3.47-5.36,4.63-2.56,1.16-6.33,2.27-11.29,3.31l-.66,.15-1.62-8.91,3.69-.81Z"/>
    <path d="M626.02,117.02h2.12c2.8,0,5.31-.08,7.54-.23,2.23-.15,4.28-.48,6.17-.99l11.03-2.43-.2,2.18-9.72-4.4c-.68-.3-1.37-.46-2.08-.46s-1.38,.17-2,.51c-.62,.34-1.11,.83-1.44,1.47l-.86,1.57-7.08-4.45,1.01-1.82c1.18-2.09,2.67-3.69,4.45-4.81,1.79-1.11,3.72-1.68,5.79-1.7,2.08-.02,4.12,.55,6.15,1.7l12.7,7.14-1.11,10.48-14.62,3.85c-2.36,.61-4.87,1.01-7.51,1.21-2.65,.2-5.39,.3-8.22,.3h-2.12v-9.11Zm10.42-27.48h7.69v7.69h-7.69v-7.69Z"/>
    <path d="M686.67,128.23c1.54-.46,2.5-.95,2.88-1.49,.39-.54,.53-1.42,.43-2.63l-.76-8c-.14-1.52-.51-2.66-1.14-3.42-.62-.76-1.43-1.12-2.4-1.09-.57,0-1.07,.16-1.49,.48-.42,.32-.73,.75-.94,1.29-.2,.54-.29,1.15-.25,1.82,.07,.61,.29,1.06,.68,1.37,.39,.3,.99,.46,1.8,.46,2.73,0,5.11-.29,7.14-.86l2.23,8.81c-1.21,.34-2.64,.62-4.28,.83-1.64,.22-3.33,.33-5.09,.33-1.92,0-3.65-.43-5.19-1.29-1.54-.86-2.78-2.07-3.72-3.62-.95-1.55-1.5-3.32-1.67-5.31-.17-2.26,.17-4.4,1.01-6.43,.84-2.02,2.09-3.67,3.75-4.93,1.65-1.27,3.52-1.95,5.62-2.05,2.12-.1,4.04,.36,5.74,1.39,1.7,1.03,3.1,2.51,4.18,4.45,1.08,1.94,1.75,4.16,2.02,6.65l.86,8.2c.34,3.34-.02,5.98-1.06,7.92-1.05,1.94-2.88,3.48-5.49,4.63-2.62,1.15-6.45,2.24-11.51,3.29l-.25,.05-1.62-8.91c4.15-.84,6.99-1.49,8.53-1.95Z"/>
    <path d="M710.94,130.22l3.85-1.06c.2-.03,.41-.08,.61-.15,1.42-.44,2.46-.86,3.14-1.27,.67-.4,1.1-.88,1.26-1.42,.17-.54,.19-1.27,.05-2.18l-2.02-14.52,8-1.21,1.47,10.48,.2,1.42,.35,2.78c.37,2.63,.26,4.88-.33,6.76-.59,1.87-1.67,3.44-3.24,4.71-1.57,1.27-3.7,2.3-6.4,3.11l-.96,.3-3.85,1.06-2.12-8.81Zm12.75-5.44c-1.28-.89-2.33-2.34-3.14-4.35-.81-2.01-1.47-4.73-1.97-8.17l-.15-1.01,7.59-1.21,.51,2.94,.46,2.43c.1,.47,.23,.83,.38,1.06,.15,.24,.32,.39,.51,.46,.18,.07,.4,.1,.63,.1h.25l.51,4.55-.51,4.55h-.25c-1.92,0-3.53-.45-4.81-1.34Z"/>
    <path d="M728.5,117.02h4.61l1.37-1.87-.96-24.75,8.1-.4,.71,17.81-1.32-1.06,.56-.61c.78-.84,1.57-1.53,2.38-2.07,.81-.54,1.68-.94,2.61-1.19,.93-.25,1.93-.38,3.01-.38,2.09,0,4,.54,5.72,1.62,1.72,1.08,3.08,2.55,4.07,4.4,1,1.86,1.49,3.91,1.49,6.17,0,2.02-.51,3.91-1.54,5.67-1.03,1.75-2.41,3.15-4.15,4.2-1.74,1.05-3.6,1.57-5.59,1.57h-21.05v-9.11Zm22.85-.35c.42-.24,.75-.56,.99-.96,.24-.4,.35-.88,.35-1.42,0-.74-.26-1.37-.78-1.9-.52-.52-1.22-.78-2.1-.78-.37,0-.74,.07-1.11,.2-.37,.14-.81,.4-1.32,.78-.51,.39-1.15,.95-1.92,1.7l-2.88,2.73h7.24c.61,0,1.12-.12,1.54-.35Zm7.64,8.48c-1.47-.66-2.72-1.46-3.77-2.4l5.26-6.68c.34,.27,.77,.5,1.29,.68,.52,.19,1.11,.28,1.75,.28h.71l.51,4.55-.51,4.55h-.71c-1.55,0-3.06-.33-4.53-.99Z"/>
    <path d="M763.72,117.02h.51c1.25-.03,2.5-.05,3.75-.05,2.02-.03,4.14-.1,6.35-.2,2.21-.1,3.62-.2,4.23-.3l1.42,9.01c-.88,.17-2.79,.31-5.74,.43-2.95,.12-6.25,.19-9.89,.23h-.61v-9.11Zm10.45,7.97c-1.84-.69-3.39-1.81-4.66-3.37-1.26-1.55-2.1-3.37-2.5-5.47-.4-2.13-.27-4.17,.41-6.15,.67-1.97,1.77-3.64,3.29-5.01,1.52-1.37,3.29-2.23,5.31-2.61,1.05-.17,2.41-.14,4.1,.08,1.69,.22,3.41,.57,5.16,1.04l-2.12,8.81c-1.08-.27-2.1-.51-3.06-.71-.96-.2-1.7-.3-2.2-.3-.94,0-1.71,.3-2.3,.89s-.82,1.29-.68,2.1c.13,.74,.56,1.33,1.27,1.77,.71,.44,1.48,.59,2.33,.46l8.65-1.62,1.52,8.91-8.7,1.67c-2.02,.37-3.96,.21-5.79-.48Z"/>
  </g>
  <g>
    <rect x="582.1" y="184.56" width="208.75" height="78.02" rx="39.01" ry="39.01"/>
    <g>
      <path class="cls-2" d="M631.3,234.48c-.87-.5-1.56-1.19-2.06-2.06-.5-.87-.75-1.81-.75-2.81,0-.92,.24-1.86,.71-2.79s1.14-1.82,1.98-2.64l2.81-2.7,.62,.73-2.74,2.66c-.8,.77-1.4,1.56-1.81,2.35-.41,.8-.62,1.59-.62,2.39s.21,1.59,.64,2.29,.99,1.27,1.7,1.7c.71,.42,1.5,.64,2.37,.64,1.28,0,2.38-.46,3.28-1.37s1.35-2,1.35-3.26c0-.9-.19-1.75-.58-2.54-.39-.8-1.14-1.79-2.27-2.97l-3.89-3.93,.73-.73,3.85,3.93c1.16,1.18,1.97,2.24,2.43,3.16,.46,.93,.69,1.95,.69,3.08,0,1-.25,1.94-.75,2.81-.5,.87-1.18,1.56-2.04,2.06s-1.79,.75-2.79,.75-1.98-.25-2.85-.75Z"/>
      <path class="cls-2" d="M647.68,234.9c-.85-.22-1.5-.54-1.97-.96-.46-.42-.76-.96-.89-1.6-.21-.75-.31-1.61-.31-2.58h.92c0,.85,.08,1.62,.23,2.31,.18,.75,.67,1.28,1.47,1.62,.8,.34,1.98,.5,3.55,.5h.77c2.47,0,4.13-.44,4.99-1.31,.86-.87,1.1-2.02,.71-3.43l.96-.23c.28,1.1,.28,2.1-.02,2.99-.3,.89-.98,1.61-2.06,2.18-1.08,.57-2.65,.85-4.7,.85h-.54c-1.23,0-2.27-.11-3.12-.33Zm11.97-.52c-.68-.56-1.19-1.23-1.52-2-.33-.77-.65-1.72-.96-2.85v-.08l-2.16-8.56-.73-2.85,.96-.27,2.89,11.45,.04,.08c.23,.98,.49,1.81,.77,2.49,.28,.68,.68,1.25,1.19,1.72,.51,.46,1.22,.69,2.12,.69h1.89l.08,.5-.08,.54h-1.89c-1.05,0-1.92-.28-2.6-.85Z"/>
      <path class="cls-2" d="M667.24,230.2c-.55-.81-.87-1.71-.94-2.7-.08-.99,.12-1.95,.58-2.87,.44-.9,1.06-1.63,1.87-2.2,.81-.56,1.7-.89,2.66-.96s1.89,.1,2.8,.54c.9,.41,1.62,1.02,2.18,1.83s.87,1.71,.94,2.7c.08,.99-.09,1.95-.5,2.87-.51,1.16-1.34,2.17-2.47,3.05-1.13,.87-2.49,1.56-4.07,2.04-1.58,.49-3.27,.73-5.07,.73h-1.47v-1.04h1.47c1.46,0,2.83-.15,4.09-.46,1.26-.31,2.38-.75,3.35-1.31,1.59-.9,2.67-2.04,3.24-3.43,.54-1.13,.61-2.28,.21-3.45-.4-1.17-1.16-2.04-2.29-2.6-.75-.36-1.52-.51-2.31-.44s-1.52,.32-2.18,.77c-.65,.45-1.16,1.04-1.52,1.75-.59,1.18-.68,2.36-.27,3.53,.41,1.17,1.19,2.01,2.35,2.52l8.33,3.74c1.08,.49,2.17,.53,3.26,.12,1.09-.41,1.88-1.13,2.37-2.16,.46-1.03,.5-2.09,.12-3.2-.39-1.1-1.12-1.93-2.2-2.47l-13.61-7.17,.42-.89,13.61,7.17c.87,.46,1.57,1.07,2.08,1.83,.51,.76,.82,1.59,.91,2.51s-.06,1.78-.44,2.6c-.41,.85-1,1.54-1.75,2.08s-1.59,.85-2.5,.94c-.91,.09-1.79-.06-2.64-.44l-8.36-3.7c-.92-.41-1.66-1.02-2.22-1.83Z"/>
      <path class="cls-2" d="M693.47,234.63c-.8-.4-1.37-1.06-1.72-1.98-.35-.93-.56-2.25-.64-3.97l-.69-17.73h.96l.69,17.73,.04,.65c.1,1.31,.29,2.31,.58,3.01,.28,.69,.75,1.18,1.39,1.45s1.59,.41,2.85,.41h.39l.04,.5-.04,.54h-.39c-1.52,0-2.67-.2-3.47-.6Z"/>
      <path class="cls-2" d="M696.94,234.19h.58c1.75,0,2.93-.42,3.55-1.27,.62-.85,.93-1.84,.93-2.97v-4.74h.96v4.74c0,.8-.15,1.59-.46,2.37s-.87,1.46-1.68,2.04-1.91,.87-3.3,.87h-.58v-1.04Zm7.38,.29c-.76-.5-1.32-1.15-1.7-1.95-.37-.8-.57-1.64-.6-2.54l.93-.04c.03,1.18,.39,2.18,1.08,3.01,.69,.82,1.75,1.23,3.16,1.23,1.75,0,2.92-.42,3.53-1.27,.6-.85,.91-1.84,.91-2.97v-4.74h.96v4.74c0,.77-.14,1.56-.42,2.35-.28,.8-.83,1.48-1.64,2.06s-1.92,.87-3.33,.87c-1.16,0-2.11-.25-2.87-.75Zm6.19-15.94v1.85h-1.89v-1.85h1.89Zm2.62-3.51v1.73h-1.74v-1.73h1.74Zm.85,19.45c-.77-.5-1.35-1.15-1.74-1.95s-.58-1.64-.58-2.54l.93-.04c.03,1.18,.39,2.18,1.1,3.01,.71,.82,1.77,1.23,3.18,1.23,1.26,0,2.25-.23,2.99-.69,.73-.46,1.21-1.05,1.43-1.75s.22-1.45,.02-2.22l-1.27-4.74,.89-.23,1.27,4.74c.26,.95,.24,1.88-.04,2.78s-.86,1.65-1.73,2.25c-.87,.6-2.04,.91-3.51,.91-1.18,0-2.16-.25-2.93-.75Zm1.85-15.94v1.85h-1.89v-1.85h1.89Zm7.94,15.07c-1.23-1.08-2.04-2.42-2.43-4.01l.85-.31c.33,1.39,1.04,2.55,2.12,3.49,1.08,.94,2.32,1.41,3.74,1.41l.08,.5-.08,.54c-1.62,0-3.04-.54-4.28-1.62Z"/>
      <path class="cls-2" d="M727.66,234.19h.42c1.03,0,1.95-.25,2.78-.75,.82-.5,1.47-1.2,1.93-2.1l2.81-5.4c.39-.74,.92-1.33,1.6-1.75,.68-.42,1.43-.66,2.23-.69,.81-.04,1.57,.13,2.29,.52,.98,.51,1.7,1.27,2.16,2.26,.46,.99,.64,2.12,.54,3.39-.1,1.27-.46,2.59-1.08,3.95-.21,.46-.55,.86-1.02,1.19s-1.02,.53-1.62,.6-1.19-.05-1.75-.33l-5.97-3.08,.46-.89,6.05,3.08c.62,.33,1.23,.38,1.85,.13,.62-.24,1.03-.62,1.23-1.14l.15-.23c.75-1.72,1-3.35,.77-4.88-.23-1.53-.94-2.61-2.12-3.26-.93-.46-1.88-.54-2.85-.23-.98,.31-1.71,.94-2.2,1.89l-2.74,5.28c-.56,1.11-1.32,1.96-2.27,2.56-.95,.6-2.03,.91-3.24,.91h-.42v-1.04Z"/>
    </g>
  </g>
</svg>