<?xml version="1.0" encoding="UTF-8"?>
<svg id="Layer_1" data-name="Layer 1" xmlns="http://www.w3.org/2000/svg" viewBox="0 0 900 600">
  <defs>
    <style>
      .cls-1 {
        font-family: DanaVF-Black, DanaVF;
        font-size: 50.72px;
        font-variation-settings: 'wght' 900, 'KASH' 0;
        font-weight: 800;
      }

      .cls-2, .cls-3 {
        fill: #fff;
      }

      .cls-4 {
        fill: #c7a7fd;
      }

      .cls-5 {
        fill: #ffdbe2;
      }

      .cls-6 {
        fill: #acd8f1;
      }

      .cls-7 {
        fill: #b2b68a;
      }

      .cls-3 {
        stroke: #fff;
        stroke-miterlimit: 10;
        stroke-width: .75px;
      }

      .cls-8 {
        fill: #ffcfcf;
      }

      .cls-9 {
        fill: #ff6d60;
      }

      .cls-10 {
        fill: #ffbe5c;
      }

      .cls-11 {
        fill: #34100e;
      }

      .cls-12 {
        fill: #ffacb9;
      }

      .cls-13 {
        fill: none;
        stroke: #000;
        stroke-linecap: round;
        stroke-linejoin: round;
        stroke-width: 2px;
      }
    </style>
  </defs>
  <rect class="cls-8" x=".2" width="900" height="599.81" rx="41.79" ry="41.79"/>
  <g>
    <path class="cls-9" d="M440.81,329.49v270.66H47.44V329.49c0-99.07,73.24-181.02,168.54-194.66,9.2-1.33,18.58-2.02,28.15-2.02,19.57,0,38.47,2.85,56.29,8.19h.02c18.88,5.61,36.54,13.98,52.55,24.67,10.9,7.22,21.02,15.52,30.22,24.74,2.53,2.53,4.97,5.13,7.34,7.77,.41,.44,.78,.85,1.15,1.29,20.44,23.16,35.51,51.17,43.23,82.1,3.84,15.34,5.89,31.39,5.89,47.92Z"/>
    <g>
      <g>
        <path class="cls-10" d="M131.28,464.29c-2.14,39.16-35.62,69.19-74.81,67.08-3.08-.16-6.09-.53-9.04-1.1v-139.72c5.4-.99,11.02-1.38,16.76-1.06,39.19,2.14,69.22,35.62,67.08,74.81Z"/>
        <path class="cls-10" d="M434.92,281.57c-12.19,7.98-26.95,12.28-42.61,11.43-39.16-2.14-69.19-35.62-67.06-74.81,1.17-21.57,11.84-40.36,27.73-52.52,10.9,7.22,21.02,15.52,30.22,24.74,24.77,24.77,42.96,56.09,51.72,91.16Z"/>
      </g>
      <g>
        <path class="cls-5" d="M358.87,267.84c0-27.62,12.81-52.27,32.82-68.37-.37-.44-.74-.85-1.15-1.29-20.35,16.42-33.39,41.55-33.39,69.65,0,47.39,37.02,86.3,83.66,89.34v-1.75c-45.69-3.01-81.93-41.16-81.93-87.59Z"/>
        <path class="cls-5" d="M47.44,420.19v1.75c41.74,6.74,73.68,43.03,73.68,86.63s-31.94,79.91-73.68,86.65v1.77c42.68-6.78,75.4-43.85,75.4-88.42s-32.72-81.61-75.4-88.37Z"/>
      </g>
    </g>
    <g>
      <polygon class="cls-12" points="393.64 600.15 333.95 600.15 332.25 583.94 328.75 550.92 325.23 517.74 323.07 497.25 336.11 495.84 337.81 495.66 345.42 494.85 350.07 494.35 363.7 492.9 381.11 491.04 383.02 507.69 393.64 600.15"/>
      <g>
        <polygon class="cls-12" points="326.52 572.3 174.24 572.3 174.47 571.92 179.49 532.06 325.38 531.29 325.38 569.98 326.52 572.3"/>
        <polygon class="cls-6" points="340.2 600.15 158.37 600.15 174.24 572.31 326.52 572.31 332.25 583.94 340.2 600.15"/>
      </g>
      <path class="cls-11" d="M390.72,367.6h-13.39c-.89-9.93-3.23-18.21-7.48-27.51,.89,7.66,.5,15.48-1.14,23.01-.34,1.52-.73,3.07-1.36,4.5H129.55c-4.73-7.18-6.87-15.07-6.57-24.01-5.32,6.59-6.64,16.12-3.64,24.01h-7.64c-2.39-4.82-4.98-9.09-6.02-14.39-1.05-5.27-.57-11.09,2.46-15.55,2.96-4.34,7.87-6.84,12.25-9.73,4.36-2.89,8.68-6.87,9.21-12.09,.43-4.5-2.07-8.66-3.59-12.91-4.68-13.14,.84-29.21,12.66-36.65,8.64-5.48,20.55-7.21,25.49-16.16,3.66-6.64,1.98-14.75,2.48-22.3,1.11-16.98,13.96-31.53,29.33-38.85,15.35-7.3,29.21-7.25,46.24-6.91,15.28,.59,24.69,1.68,33.24,3.48,11.44,2.39,23.28,5.73,31.69,13.87,6.75,6.48,10.64,15.64,11.48,24.96,.27,2.86,.27,5.89,1.61,8.46,2.68,5.14,9.28,6.37,14.55,8.73,11.12,4.93,18.3,17.53,16.91,29.6-.84,7.25-4.37,13.87-6.37,20.87-2,7.02-2.16,15.39,2.8,20.73,7.34,7.91,20.71,4.62,30.49,9.23,7.66,3.61,12.28,11.94,13.64,20.32,1.34,8.39-.07,16.94-1.52,25.3Z"/>
      <path class="cls-5" d="M177.74,354.82l-2.25,24.8-4.68,51.93-4.02,44.33-2.39,26.39-6.8-1.73-32.15-8.16-38.83-9.87s11.12-25.85,23.64-51.99c2.07-4.34,4.18-8.68,6.3-12.94,5.87-11.78,11.69-22.69,16.51-30.26,7.27-11.41,16.48-19.01,24.64-23.94,7.34-4.48,13.82-6.8,17.32-7.84h.02s-.02-.02,0-.02h.02c.07-.02,.14-.05,.2-.07,.09-.02,.18-.05,.27-.09,1.41-.39,2.18-.55,2.18-.55Z"/>
      <g>
        <path class="cls-5" d="M339.7,507.69l.7,4.77,6.25,42.81c-7.68-4-17.87-4.66-26.53-4.64-2.77,0-5.52,.02-8.3,.07-24.69,.41-49.33,2.5-73.86,5.21-26.53,2.91-54.11,6.43-79.39-2.14l6.98-42.6s-4.23-3.96-7.96-10.62c-4-7.14-7.43-17.41-4.41-29.24,1.77-7,3.55-19.73,5.3-34.19,.89-7.5,1.8-15.46,2.66-23.33v-.02c2.98-26.51,5.8-51.97,8.3-55.06,.82-1.02,2.84-2.09,5.59-3.16h.02l.02-.02c.07-.02,.14-.05,.2-.07,.09-.02,.18-.05,.27-.09,7.18-2.66,18.92-5.23,28.08-7.02h.02c7.57-1.48,13.37-2.41,13.37-2.41l69.84,4.84s7.84,1.27,19.03,4.8h.02c11.34,3.55,26.1,9.39,39.72,18.53,6.43,4.34,12.62,9.39,18.01,15.3,2.25,2.39,4.32,4.93,6.25,7.62,5.05,7.02,9.21,15.35,12.64,24.21,2.96,7.66,5.37,15.73,7.34,23.73,7.82,31.85,8.64,62.72,8.64,62.72h-58.81Z"/>
        <g>
          <path class="cls-6" d="M345.64,374.1c-.23,.89-.57,1.82-1.02,2.75-4.43,9.18-18.57,9.78-23.53,18.69-2.73,4.89-1.86,10.91-3.07,16.37-1.27,5.73-5,10.94-10.16,13.75-5.16,2.8-11.69,3.09-16.98,.55-8.25-3.96-12.23-14.98-8.46-23.3,3.32-7.3,11.32-11.96,13.5-19.67,2.57-9.09-.68-16.73,6.5-24.37,1.09-1.16,2.25-2.3,3.48-3.3,0-.02,.02,0,.02,0,11.34,3.55,26.1,9.39,39.72,18.53Z"/>
          <path class="cls-4" d="M382.54,421.23c-.68,.57-1.46,1.09-2.32,1.57-2.98,1.68-6.59,2.32-9.16,4.57-6.18,5.43-2.77,16-6.68,23.26-3.02,5.62-10.34,8.07-16.53,6.52-6.18-1.57-11.14-6.52-13.91-12.25-5.73-11.84-2.82-26.44,4.3-37.49,4.87-7.5,15.16-16.26,25.42-18.01,2.25,2.39,4.32,4.93,6.25,7.62,5.05,7.02,9.21,15.35,12.64,24.21Z"/>
          <path class="cls-10" d="M294.86,439.05c-9.24,3.75-16.98,11.05-21.28,20.04-1.77,3.71-2.98,7.9-2.13,11.92,.85,4.02,4.27,7.7,8.39,7.74,2.56,.02,4.91-1.29,7.35-2.07,4.81-1.54,10.25-.97,14.63,1.54,5.71,3.28,10.02,9.76,16.59,10.14,4.42,.25,8.61-2.6,10.89-6.39,2.28-3.79,2.91-8.36,2.84-12.78-.17-10.51-4.21-22.77-12.16-30.02-6.55-5.97-17.59-3.18-25.11-.12Z"/>
          <path class="cls-10" d="M190.76,500.96c-9.24,3.75-16.98,11.05-21.28,20.04-1.77,3.71-2.98,7.9-2.13,11.92,.85,4.02,4.27,7.7,8.39,7.74,2.56,.02,4.91-1.29,7.35-2.07,4.81-1.54,10.25-.97,14.63,1.54,5.71,3.28,10.02,9.76,16.59,10.14,4.42,.25,8.61-2.6,10.89-6.39,2.28-3.79,2.91-8.36,2.84-12.78-.17-10.51-4.21-22.77-12.16-30.02-6.55-5.97-17.59-3.18-25.11-.12Z"/>
          <path class="cls-7" d="M242.85,440.93c-.88,3.67-1.05,7.61,.2,11.18,1.25,3.57,4.07,6.7,7.71,7.7,4.53,1.25,9.33-.91,13.08-3.75,7.75-5.87,23.83-30.68,9.24-37.64-12.45-5.94-27.79,12.3-30.23,22.51Z"/>
          <path class="cls-4" d="M202.34,405.46c-1.7,6.65,.64,14.24,5.99,18.54,5.35,4.3,13.47,4.9,19.24,1.18,3.68-2.37,6.32-6.24,10.27-8.13,3.23-1.55,6.94-1.6,10.47-2.18,5.14-.85,10.08-2.89,14.33-5.92,4.75-3.4,8.71-8.25,9.89-13.98,1.8-8.82-3.72-18.15-11.75-22.21-8.03-4.06-17.89-3.41-26.13,.2-7.5,3.27-14.07,8.75-19.23,15.04-4.54,5.53-11.22,10.27-13.06,17.45Z"/>
          <path class="cls-7" d="M398.52,507.69h-33.71c-.57-1.32-1.02-2.68-1.34-4.07-1.41-6.48,.14-13.53,4-18.94,2.27-3.14,5.34-5.96,6.09-9.78,.52-2.73-.27-5.55-.41-8.32-.39-8.37,7.68-18.96,16.73-21.62,7.82,31.85,8.64,62.72,8.64,62.72Z"/>
          <path class="cls-11" d="M335.96,484.92c.3,2.51,1.19,5.02,2.91,6.88,3.29,3.56,9.13,3.96,13.41,1.68,4.28-2.28,7.08-6.73,8.38-11.39,1.07-3.84,1.18-8.18-.87-11.6-8.3-13.86-25.12,3.53-23.83,14.44Z"/>
          <path class="cls-6" d="M202.77,468.99c1.76,10.07,9.22,19.01,18.91,22.28,9.69,3.27,21.19,.58,28.24-6.82,3.13-3.28,5.43-8.16,3.56-12.29-2.38-5.24-9.45-5.82-14.44-8.7-4.18-2.41-7.09-6.88-7.62-11.67-.67-6.04,1.14-12.06-4.87-15.87-4-2.54-8.64-2.73-12.35,.28-8.27,6.71-13.18,22.75-11.42,32.79Z"/>
          <path class="cls-10" d="M210.53,372.51c-.43,13.28-6.34,27.28-18.16,33.33-2.91,1.48-6.23,2.43-9.46,1.96-3.23-.48-6.32-2.68-7.21-5.82-1.57-5.5,3.82-10.98,2.89-16.6-.39-2.23-1.64-4.02-3.09-5.75-2.02-2.41-4.48-4.66-5.5-7.62-1.98-5.73,1.59-11.53,5.05-16.46h.02s-.02-.02,0-.02h.02c.07-.02,.14-.05,.2-.07,.09-.02,.18-.05,.27-.09,7.18-2.66,18.92-5.23,28.08-7.02h.02c5.05,6.73,7.09,17.1,6.87,24.17Z"/>
          <path class="cls-4" d="M242.3,506.44c-2.74,6.49-3.59,14.07-.83,20.55,2.77,6.48,9.71,11.38,16.68,10.41,4.62-.64,8.6-3.59,13.09-4.87,9.77-2.78,21.07,2.54,30.07-2.18,7.82-4.11,10.41-14.78,7.51-23.13-2.9-8.35-9.99-14.57-17.58-19.1-18.17-10.87-41.02-.48-48.95,18.33Z"/>
          <path class="cls-6" d="M346.66,555.27c-7.68-4-17.87-4.66-26.53-4.64-2.77,0-5.52,.02-8.3,.07,2.11-2.32,3.61-5.16,4.3-8.21,1.02-4.43,.32-9.12,1.36-13.53,2.07-8.75,13.25-17.48,22.92-16.51l6.25,42.81Z"/>
          <path class="cls-7" d="M171.91,430.59c-7.95,6.61-13.21,16.36-14.37,26.63-.56,4.92-.09,10.26,2.9,14.21,2.61,3.45,7.04,5.43,11.35,5.07,4.31-.36,8.35-3.04,10.35-6.87,1.27-2.43,1.74-5.22,3-7.66,2.34-4.54,7.09-7.34,10.04-11.52,3.58-5.08,4.04-12.29,.8-17.61-5.43-8.93-16.79-8.3-24.07-2.25Z"/>
          <path class="cls-11" d="M170.76,484.48c-3.36,3.42-4.55,9.37-1.44,13.01,3.04,3.56,8.61,3.5,13.04,2.01,2.76-.93,5.42-2.35,7.35-4.52,1.93-2.17,3.06-5.19,2.5-8.04-2.23-11.4-15.34-8.68-21.45-2.45Z"/>
          <path class="cls-6" d="M164.19,378.4c-.16,5.98-2.61,11.69-5.73,16.8-1.77,2.89-3.86,5.73-6.8,7.43-4.46,2.61-10.48,2.48-13.94,6.3-2.02,2.25-2.68,5.43-4.5,7.84-3.16,4.18-9.55,5.14-14.14,2.66-.93-.5-1.77-1.11-2.52-1.84,5.87-11.78,11.69-22.69,16.51-30.26,7.27-11.41,16.48-19.01,24.64-23.94,4.41,3.43,6.62,9.34,6.48,15Z"/>
          <path class="cls-10" d="M128.86,444.1c-.54,2.95-.78,5.98-1.67,8.85-1.8,5.83-6.2,10.76-7.04,16.8-.79,5.7,2.64,12.17,8.29,13.27,5.03,.97,10.02-2.46,12.73-6.8,2.71-4.34,3.72-9.49,5.16-14.4,2.23-7.6,5.6-14.86,9.97-21.47,2.96-4.47,6.44-8.8,7.73-14.01,1.08-4.39-.12-11.51-4.65-13.82-4.35-2.21-9.84,1.99-13.24,4.48-8.84,6.47-15.3,16.29-17.29,27.11Z"/>
          <path class="cls-4" d="M125.46,492.39l-38.83-9.87s11.12-25.85,23.64-51.99c.93,.02,1.86,.2,2.73,.52,3.34,1.23,5.84,4.5,6.12,8.05,.2,2.71-.77,5.37-1.98,7.8-2.52,5.21-6.14,9.91-8.03,15.37-1.91,5.48-1.71,12.28,2.59,16.19,2.52,2.3,6,3.21,8.73,5.25,2.75,2.05,4.59,5.3,5.02,8.68Z"/>
        </g>
      </g>
      <g>
        <g>
          <g>
            <path class="cls-12" d="M287.27,295.82s-.39,54.95-.39,54.95c-.07,9.71-5.51,21.67-9.38,30.27-7.87,17.51-21.36,34.55-42.58,33.26-24.94-1.53-19.71-37.27-15.95-54.01v-37.56l26.88-9.09,41.41-17.81Z"/>
            <path class="cls-11" d="M274.41,306.63c-5.96,10.62-13.95,20.22-23.88,27.29-9.29,6.66-20.18,10.11-31.55,10.87v-22.06l26.88-9.09c9.54-2.39,19.1-4.66,28.55-7.01Z"/>
          </g>
          <path class="cls-12" d="M189.24,320.83c5.22,4.75,16.68,7.18,29.74,7.82,14,.69,29.82-.71,41.77-3.54,4.77-1.16,8.93-2.51,12.1-4.08,2.68-1.33,4.67-2.8,5.73-4.38,2.29-3.42,4.62-8.59,6.79-14.32,.32-.86,.66-1.72,.96-2.61,.05-.07,.07-.15,.1-.25,.3-.81,.59-1.62,.86-2.46,.86-2.46,1.7-4.92,2.46-7.36,.27-.32,.54-.64,.79-.96,4.99-5.98,8.83-12.87,11.34-20.39,.79-2.39,1.43-4.85,1.94-7.33,.02-.17,.05-.32,.07-.47,.05-.27,.1-.52,.15-.79,.02-.15,.07-.32,.07-.47,.61-3.44,.91-6.99,.91-10.58,0-34.64-28.12-62.73-62.78-62.73-2.9,0-5.78,.2-8.61,.59-1.06,.15-2.12,.32-3.17,.52-6.05,1.16-11.81,3.17-17.12,5.95-15.94,8.27-27.85,23.22-32.1,41.11-.59,2.44-1.03,4.94-1.3,7.45h-.07s-5.56,65.68,9.37,79.26Z"/>
          <g>
            <g>
              <path class="cls-11" d="M190.22,249.7c-1.66,1.55-1.39,3.54,1.16,3.79,3.71,.36,7.58,.32,11.01-1,1.14-.44,2.25-1.05,2.92-1.98,2.51-3.52-3.02-5.11-5.87-4.79-3.22,.36-6.85,1.82-9.14,3.92-.02,.02-.04,.04-.07,.06Z"/>
              <path class="cls-11" d="M251.16,248.08c1.86,1.3,1.88,3.31-.61,3.92-3.62,.89-7.46,1.4-11.04,.58-1.19-.27-2.38-.72-3.17-1.55-2.98-3.13,2.26-5.49,5.13-5.58,3.24-.1,7.04,.82,9.6,2.58,.03,.02,.05,.03,.08,.05Z"/>
            </g>
            <g>
              <path class="cls-11" d="M235.54,303.74c-1.07,5.77-3.75,10.71-9.78,10.84-6.37,.16-10.23-4.75-12.57-10.37-3.05-7.3-3.5-15.78-3.5-15.78l25.67-2.86s1.75,9.93,.18,18.16Z"/>
              <path class="cls-9" d="M235.54,303.74c-1.07,5.77-3.75,10.71-9.78,10.84-6.37,.16-10.23-4.75-12.57-10.37,1.39-1.27,3.32-2.18,4.8-2.71,2.64-.93,5.46-1.14,8.25-.98,2.73,.16,5.48,.7,7.82,2.11,.52,.32,1.02,.68,1.48,1.09Z"/>
            </g>
          </g>
          <path class="cls-4" d="M234.73,266.79s-.03,0-.05,0c-.47-.03-.83-.43-.8-.9,.14-2.28,1.45-4.41,3.43-5.54,1.98-1.14,4.48-1.2,6.52-.17,.9,.46,1.65,1.09,2.38,1.7,.25,.21,.5,.42,.75,.61,1.1,.87,2,1.28,2.84,1.3,.02,0,.03,0,.04,0,1.07,0,2.13-.74,2.49-1.75,.16-.44,.66-.68,1.09-.51,.44,.16,.67,.65,.52,1.09-.61,1.71-2.32,2.92-4.18,2.88-1.62-.03-2.98-.96-3.87-1.66-.27-.21-.53-.43-.79-.65-.69-.57-1.33-1.11-2.06-1.48-1.51-.77-3.43-.71-4.9,.13-1.47,.84-2.48,2.48-2.58,4.17-.03,.45-.4,.8-.85,.8Z"/>
          <path class="cls-4" d="M204.87,266.79s.03,0,.05,0c.47-.03,.83-.43,.8-.9-.14-2.28-1.45-4.41-3.43-5.54-1.98-1.14-4.48-1.2-6.52-.17-.9,.46-1.65,1.09-2.38,1.7-.25,.21-.5,.42-.75,.61-1.1,.87-2,1.28-2.84,1.3-.02,0-.03,0-.04,0-1.07,0-2.13-.74-2.49-1.75-.16-.44-.66-.68-1.09-.51-.44,.16-.67,.65-.52,1.09,.61,1.71,2.32,2.92,4.18,2.88,1.62-.03,2.98-.96,3.87-1.66,.27-.21,.53-.43,.79-.65,.69-.57,1.33-1.11,2.06-1.48,1.51-.77,3.43-.71,4.9,.13,1.47,.84,2.48,2.48,2.58,4.17,.03,.45,.4,.8,.85,.8Z"/>
          <path class="cls-11" d="M304.6,260.06c-4.63-1.3-9.73,.17-13.59,3.03-3.86,2.86-6.96,6.32-9.08,10.63-3.54-.94-7.13-1.91-10.25-3.81-3.13-1.9-5.78-4.9-6.4-8.5-.57-3.35,.64-6.7,1.39-10.01,.75-3.31,.92-7.16-1.31-9.72-3.18-3.64-8.99-2.58-13.64-3.91-6.84-1.96-10.76-9.08-12.97-15.84-1.43-4.38-2.86-9.39-6.96-11.5-3.02-1.56-6.69-1.05-9.97-1.96-3.77-1.05-6.82-3.97-8.8-7.35-1.99-3.38-3.05-7.21-3.99-11.01,16.98-4.89,35.84-5.99,53.22-2.77,7.55,1.4,15.09,3.32,21.94,6.79,6.85,3.48,13.02,8.63,16.69,15.38,2.71,4.98,3.96,10.62,4.85,16.22,1.78,11.22,2.31,23.48-1.12,34.3Z"/>
          <path class="cls-11" d="M215.59,283.92c.16,0,.31-.04,.45-.13,.38-.24,.49-.75,.25-1.13-1.11-1.75-2.2-3.63-2.22-5.58-.01-1.14,.34-2.3,.69-3.43l1.99-6.54c.13-.43-.11-.89-.54-1.02-.43-.14-.89,.12-1.02,.54l-1.99,6.54c-.36,1.18-.77,2.53-.76,3.92,.03,2.38,1.24,4.48,2.48,6.43,.15,.24,.41,.37,.67,.38Z"/>
          <path class="cls-11" d="M245.71,263.19c3.42,5.74-2.68,11.58-8.27,7.91-.43-.28-.8-.67-1.06-1.11-3.43-5.74,2.68-11.59,8.27-7.91,.43,.28,.8,.67,1.06,1.11Z"/>
          <path class="cls-11" d="M203.76,262.72c3.42,5.74-2.68,11.58-8.27,7.91-.43-.28-.8-.67-1.06-1.11-3.43-5.74,2.68-11.59,8.27-7.91,.43,.28,.8,.67,1.06,1.11Z"/>
          <g>
            <path class="cls-12" d="M293.6,260.12c1.75-.56,3.57-.94,5.4-.88,6.85,.22,12.27,6.64,13.47,13.38,1.7,9.56-4.02,19.9-12.99,23.62-7.46,3.09-17.28,1.1-21.49-5.8-7.76-12.69,3.74-26.49,15.61-30.32Z"/>
            <path class="cls-11" d="M286.26,286.81c-.1,.42,.12,.84,.54,.96,.07,0,.12,.02,.2,.02,.34,0,.64-.22,.74-.57,1.72-6.4,3.52-11.02,5.81-15.06,2.76-4.82,6.3-8.68,10.28-11.19,.15-.12,.27-.2,.42-.27,.02-.02,.07-.05,.1-.07,.17-.1,.3-.27,.32-.44,.1-.2,.07-.42-.05-.59-.1-.2-.3-.32-.49-.34-.2-.05-.39-.02-.54,.07-.02,.02-.05,.02-.07,.05-.3,.17-.59,.37-.89,.57-4.03,2.63-7.63,6.59-10.41,11.46-2.36,4.16-4.18,8.91-5.95,15.4Z"/>
          </g>
        </g>
        <g>
          <path class="cls-4" d="M276.3,212.92c-4.3-3.22-23.98,11.91-30.93,17.45-.67,.53-1.13,1.24-1.31,2-.3,1.08-.12,2.3,.62,3.27,1.54,2.05,4.28,4.39,8.92,5.11,1.36,.18,2.69-.25,3.66-1.2,.25-.25,.53-.53,.85-.8,6.16-6.02,22.44-22.65,18.19-25.82Zm-17.04,20.93c-.55,.53-1.31,.76-2.02,.67-2.62-.39-4.14-1.7-5.01-2.85-.71-.92-.53-2.23,.39-2.94,3.86-3.1,14.86-11.54,17.27-9.75,2.48,1.89-7.68,12-10.62,14.88Z"/>
          <path class="cls-10" d="M288.99,224.17c-3.79-2.83-19.48,8.53-27.92,15.09-1.15,.9-2.18,1.7-3.01,2.37-1.61,1.29-1.93,3.63-.69,5.27,1.54,2.05,4.28,4.39,8.95,5.11,.07,0,.16,.02,.23,.02,1.26,.12,2.48-.32,3.4-1.22,5.31-5.13,23.5-23.29,19.04-26.63Zm-17.04,20.93c-.55,.53-1.31,.76-2.02,.67-1.26-.18-2.25-.57-3.06-1.08-.87-.53-1.49-1.17-1.95-1.77-.44-.57-.53-1.31-.3-1.93,.12-.39,.35-.76,.69-1.01,3.86-3.1,14.88-11.54,17.27-9.75,2.48,1.89-7.68,12-10.62,14.88Z"/>
          <path class="cls-7" d="M296.21,245.51c-3.22-3.5-20.97,4.88-30.47,9.7-1.22,.62-2.3,1.17-3.2,1.66-1.82,.99-2.58,3.22-1.66,5.06,1.15,2.3,3.38,5.11,7.84,6.67,.44,.16,.92,.23,1.36,.23,.85,.02,1.7-.23,2.44-.71,6.19-4.05,27.43-18.49,23.69-22.61Zm-20.65,17.38c-.64,.41-1.43,.48-2.12,.28-2.51-.87-3.75-2.46-4.39-3.73-.51-1.06-.09-2.3,.94-2.85,4.37-2.3,16.76-8.55,18.79-6.35,2.09,2.32-9.8,10.35-13.22,12.65Z"/>
        </g>
      </g>
      <g>
        <path class="cls-11" d="M158.58,554.63s-.09,0-.14-.01c-.46-.08-.78-.51-.71-.98l6.91-42.16c-2.11-2.1-13.22-13.92-15.02-31.17-1.94-18.6,16.7-56.89,17.5-58.51,.21-.42,.71-.6,1.14-.39,.42,.21,.6,.72,.39,1.14-.19,.39-19.22,39.46-17.33,57.58,1.88,18.03,14.69,30.3,14.82,30.43,.21,.19,.3,.48,.26,.76l-6.98,42.6c-.07,.42-.43,.71-.84,.71Z"/>
        <path class="cls-11" d="M346.66,556.13c-.41,0-.77-.3-.84-.72l-19.73-121.11c-.07-.46,.24-.9,.71-.98,.49-.08,.9,.24,.98,.7l19.73,121.11c.07,.46-.24,.9-.7,.98-.05,0-.09,.01-.14,.01Z"/>
      </g>
      <g>
        <g>
          <path class="cls-12" d="M175,339.68s-7.36,40.34-16.13,85.91c-7.24,37.6-13.55,74.46-39,82.11-12.53,3.77-26.02-1.32-33.89-11.78-9.5-12.62-18.36-35.99-3.3-74,25.86-65.29,53.61-96.38,53.61-96.38l38.71,14.13Z"/>
          <path class="cls-12" d="M133.45,329.83s7.75-14.74,8.49-21.5c.74-6.75,2.53-54.4,8.25-59.09,5.73-4.69,13.8-.99,13.8-.99,0,0-.38-8.87,6.11-11.65,6.49-2.78,9.91,2.65,9.91,2.65,0,0,12.3-30.8,18.47-29.77,6.17,1.03-10.47,47.83-10.47,47.83l3.89,3.08s23.46-37.86,29.36-35.72c5.9,2.14-18.8,57.49-18.8,57.49,0,0,4.31,10.3-1.46,24.56-5.77,14.26-24.68,26.15-26.32,35.32l-41.23-12.22Z"/>
          <g>
            <path class="cls-11" d="M200.02,269.16c-.15,0-.29-.06-.41-.17-4.84-4.95-10.17-9.48-15.84-13.47-.26-.18-.32-.54-.14-.79,.18-.26,.53-.32,.79-.14,5.72,4.03,11.1,8.6,15.99,13.6,.22,.22,.22,.58,0,.8-.11,.11-.25,.16-.4,.16Z"/>
            <path class="cls-11" d="M188.02,257.89c-.07,0-.13-.01-.2-.04-.29-.11-.44-.44-.33-.73,5.14-13.66,14.16-40.98,11.46-46.62-.2-.42-.45-.67-.77-.78-3.47-1.17-12.66,17.65-17.63,29.76-.12,.29-.46,.43-.74,.31-.29-.12-.43-.45-.31-.74,2.22-5.4,13.61-32.2,19.04-30.41,.62,.21,1.11,.67,1.44,1.37,3.58,7.49-10.81,45.88-11.42,47.51-.09,.23-.3,.37-.53,.37Z"/>
            <path class="cls-11" d="M202.46,282.74c-.08,0-.16-.02-.23-.05-.29-.13-.42-.46-.29-.75,6.22-13.9,21.83-51.13,19.48-56.35-.12-.26-.24-.33-.33-.35-4.14-1.31-19.78,21.08-28.7,35.47-.17,.27-.52,.35-.78,.18-.27-.16-.35-.52-.18-.78,2.41-3.89,23.78-37.92,30.01-35.96,.31,.1,.74,.35,1.02,.97,3.04,6.76-18.56,55.23-19.48,57.29-.09,.21-.3,.34-.52,.34Z"/>
          </g>
        </g>
        <path class="cls-11" d="M130.58,332.5c-.11,0-.23-.03-.33-.1-.26-.18-.32-.54-.14-.79,.1-.14,10-14.2,11.14-22.22,.29-2.03,.57-6.44,.92-12.01,1.41-22.39,3.17-44.59,7.64-48.55,4.92-4.35,12.39-3.84,17.02,1.17,1.36,1.48,8.13,9.1,7.43,13.9-.18,1.22-.82,2.16-1.9,2.8-6.04,3.57-15.32-4.99-15.72-5.36-.23-.21-.24-.57-.03-.8,.22-.23,.57-.24,.8-.03,.09,.09,9.05,8.35,14.36,5.21,.78-.46,1.23-1.11,1.35-1.99,.52-3.55-4.24-9.82-7.14-12.96-4.2-4.55-10.97-5.03-15.43-1.09-4.5,3.98-6.23,31.39-7.26,47.77-.35,5.6-.63,10.02-.93,12.1-1.17,8.29-10.92,22.13-11.33,22.72-.11,.16-.29,.24-.46,.24Z"/>
        <path class="cls-11" d="M174.42,263.76c-.08,0-.16,0-.25,0-.31-.01-.56-.28-.54-.59,.01-.31,.26-.54,.57-.54h.02c2.54,.11,4.77-1.9,5.79-3.94,1.14-2.29,1.33-5.01,1.37-7.62,.04-3.04-.09-6.24-1.32-9.12-1.3-3.05-3.78-5.18-6.48-5.58-2.66-.4-5.6,.97-7.32,3.39-1.56,2.19-2.18,5.21-1.72,8.29,.05,.31-.17,.6-.48,.65-.3,.05-.6-.17-.64-.48-.5-3.36,.2-6.69,1.92-9.12,1.96-2.76,5.33-4.31,8.41-3.86,3.08,.45,5.9,2.85,7.36,6.26,1.31,3.07,1.45,6.42,1.41,9.58-.04,2.74-.24,5.61-1.49,8.11-1.15,2.31-3.62,4.58-6.6,4.58Z"/>
        <path class="cls-11" d="M172.68,358.05s-.03,0-.05,0c-.31-.03-.54-.3-.52-.62,.05-.53,1.16-13.01,3.02-18.83,1.08-3.4,4.73-6.99,9.36-11.53,3.6-3.53,7.67-7.54,11.52-12.41,6.06-7.67,8.39-17.15,6.93-28.19-.54-4.04-1.98-6.39-4.86-11.07-.83-1.35-1.79-2.9-2.87-4.73-5.12-8.69-8.54-13.85-12.98-12.25-3.37,1.22-1.54,17.94,.4,28.19,.03,.15,0,.31-.09,.43-.09,.13-.22,.21-.38,.23-8.24,1.29-17.98,9.07-18.08,9.15-.24,.2-.6,.16-.8-.09-.2-.24-.16-.6,.09-.8,.4-.32,9.65-7.71,18.04-9.29-.84-4.61-4.67-27.04,.44-28.9,5.63-2.04,9.67,4.81,14.35,12.74,1.08,1.82,2.02,3.37,2.85,4.71,2.96,4.82,4.45,7.23,5.02,11.52,1.51,11.35-.9,21.12-7.16,29.04-3.89,4.92-7.99,8.95-11.61,12.51-4.51,4.43-8.07,7.93-9.07,11.07-1.82,5.71-2.96,18.46-2.97,18.59-.02,.3-.27,.52-.57,.52Z"/>
      </g>
    </g>
    <g>
      <circle class="cls-5" cx="408.51" cy="404.65" r="17.97" transform="translate(-82.28 105.08) rotate(-13.33)"/>
      <circle class="cls-5" cx="109.07" cy="563.17" r="17.97" transform="translate(-139.69 46.28) rotate(-14.74)"/>
      <circle class="cls-5" cx="138.63" cy="209.92" r="17.97"/>
      <g>
        <g>
          <path class="cls-5" d="M299.3,194.96c-.47,0-.85-.38-.85-.85v-38.07c0-.47,.38-.85,.85-.85s.85,.38,.85,.85v38.07c0,.47-.38,.85-.85,.85Z"/>
          <path class="cls-5" d="M285.84,189.39c-.22,0-.43-.08-.6-.25-.33-.33-.33-.87,0-1.2l26.92-26.92c.33-.33,.87-.33,1.2,0,.33,.33,.33,.87,0,1.2l-26.92,26.92c-.17,.17-.38,.25-.6,.25Z"/>
          <path class="cls-5" d="M318.34,175.93h-38.07c-.47,0-.85-.38-.85-.85s.38-.85,.85-.85h38.07c.47,0,.85,.38,.85,.85s-.38,.85-.85,.85Z"/>
          <path class="cls-5" d="M312.77,189.39c-.22,0-.43-.08-.6-.25l-26.92-26.92c-.33-.33-.33-.87,0-1.2,.33-.33,.87-.33,1.2,0l26.92,26.92c.33,.33,.33,.87,0,1.2-.17,.17-.38,.25-.6,.25Z"/>
        </g>
        <g>
          <path class="cls-5" d="M399.7,572.49c-.47,0-.85-.38-.85-.85v-38.07c0-.47,.38-.85,.85-.85s.85,.38,.85,.85v38.07c0,.47-.38,.85-.85,.85Z"/>
          <path class="cls-5" d="M386.24,566.91c-.22,0-.43-.08-.6-.25-.33-.33-.33-.87,0-1.2l26.92-26.92c.33-.33,.87-.33,1.2,0,.33,.33,.33,.87,0,1.2l-26.92,26.92c-.17,.17-.38,.25-.6,.25Z"/>
          <path class="cls-5" d="M418.74,553.45h-38.07c-.47,0-.85-.38-.85-.85s.38-.85,.85-.85h38.07c.47,0,.85,.38,.85,.85s-.38,.85-.85,.85Z"/>
          <path class="cls-5" d="M413.17,566.91c-.22,0-.43-.08-.6-.25l-26.92-26.92c-.33-.33-.33-.87,0-1.2,.33-.33,.87-.33,1.2,0l26.92,26.92c.33,.33,.33,.87,0,1.2-.17,.17-.38,.25-.6,.25Z"/>
        </g>
        <g>
          <path class="cls-5" d="M79.13,345.86c-.47,0-.85-.38-.85-.85v-38.07c0-.47,.38-.85,.85-.85s.85,.38,.85,.85v38.07c0,.47-.38,.85-.85,.85Z"/>
          <path class="cls-5" d="M65.67,340.28c-.22,0-.43-.08-.6-.25-.33-.33-.33-.87,0-1.2l26.92-26.92c.33-.33,.87-.33,1.2,0,.33,.33,.33,.87,0,1.2l-26.92,26.92c-.17,.17-.38,.25-.6,.25Z"/>
          <path class="cls-5" d="M98.17,326.82H60.09c-.47,0-.85-.38-.85-.85s.38-.85,.85-.85h38.07c.47,0,.85,.38,.85,.85s-.38,.85-.85,.85Z"/>
          <path class="cls-5" d="M92.59,340.28c-.22,0-.43-.08-.6-.25l-26.92-26.92c-.33-.33-.33-.87,0-1.2,.33-.33,.87-.33,1.2,0l26.92,26.92c.33,.33,.33,.87,0,1.2-.17,.17-.38,.25-.6,.25Z"/>
        </g>
      </g>
    </g>
  </g>
  <g>
    <path class="cls-9" d="M478.82,276.98c-1.02-.54-1.78-1.41-2.28-2.6-.5-1.19-.79-2.78-.88-4.78l-.6-15.33,5.33-.27,.6,15.6v.3c.04,.71,.1,1.18,.17,1.4,.07,.22,.21,.36,.42,.42,.21,.06,.66,.08,1.35,.08h.33l.33,3-.33,3h-.33c-1.71,0-3.08-.27-4.1-.82Z"/>
    <path class="cls-9" d="M485.12,272.22c-.71-1.06-1.12-2.23-1.23-3.52-.11-1.29,.12-2.53,.7-3.73s1.36-2.15,2.35-2.87c.99-.71,2.08-1.13,3.28-1.25s2.39,.08,3.57,.62c1.16,.51,2.09,1.32,2.82,2.43s1.14,2.34,1.25,3.68c.11,1.34-.11,2.62-.67,3.82-.6,1.31-1.49,2.45-2.67,3.42s-2.57,1.71-4.17,2.22c-1.6,.51-3.32,.77-5.17,.77h-2.27v-6h2.27c2.02,0,3.51-.14,4.47-.42s1.66-.71,2.1-1.28c.18-.27,.39-.65,.63-1.17,.18-.38,.19-.76,.05-1.15-.14-.39-.39-.68-.75-.88-.29-.15-.57-.23-.83-.23s-.51,.06-.72,.18c-.21,.12-.37,.28-.48,.48-.2,.38-.25,.74-.15,1.1,.1,.36,.37,.64,.82,.87l7,3.6c.38,.18,.76,.22,1.15,.12,.39-.1,.67-.33,.85-.68,.15-.33,.17-.68,.05-1.05-.12-.37-.41-.66-.85-.88l-11.87-6.1,2.47-5.33,11.77,6.2c1.09,.56,1.97,1.36,2.63,2.42,.67,1.06,1.05,2.21,1.15,3.47,.1,1.26-.12,2.45-.65,3.58-.56,1.16-1.31,2.08-2.27,2.77-.96,.69-2.01,1.09-3.17,1.2-1.16,.11-2.3-.09-3.43-.6l-7.2-3.37c-1.18-.56-2.12-1.36-2.83-2.42Z"/>
    <path class="cls-9" d="M524.15,277.73c-1.27-.04-2.31-.13-3.12-.27-.81-.13-1.57-.35-2.28-.67l-.07-.03c-1.09-.47-1.96-1.14-2.62-2.03s-1.07-1.91-1.25-3.07c-.18-1.16-.1-2.37,.23-3.63l1.3-4.93,5.13,1.53-1.33,5.2c-.11,.47-.13,.78-.05,.95,.08,.17,.32,.34,.72,.52l.03,.03c.29,.11,.69,.2,1.22,.27,.52,.07,1.38,.12,2.57,.15s2.91,.05,5.15,.05l.23,3-.23,3c-2.49,0-4.37-.02-5.63-.07Zm5.47-5.93h2.23c.87,0,1.92-.07,3.15-.2,1.23-.13,2.36-.33,3.38-.6,1.02-.27,1.67-.6,1.93-1l.17-1.03c.04-.29,0-.57-.13-.85-.13-.28-.33-.51-.6-.7s-.56-.31-.87-.35c-.33-.02-.65,.03-.95,.15s-.55,.31-.73,.55c-.19,.25-.29,.53-.32,.87l-.1,1.23,.03,.03c.4,.38,.87,.7,1.4,.97s1.34,.49,2.42,.67,2.48,.27,4.22,.27h2.6l.33,3-.33,3h-2.6c-2,0-4.08-.39-6.23-1.17-2.16-.78-3.92-1.8-5.3-3.07s-2-2.58-1.87-3.93l.2-2c.13-1.35,.58-2.55,1.33-3.6,.75-1.04,1.71-1.82,2.87-2.33s2.39-.7,3.7-.57c1.22,.13,2.32,.58,3.3,1.33,.98,.75,1.72,1.72,2.23,2.88,.51,1.17,.73,2.4,.67,3.68l-.1,1.6c-.07,1.27-.83,2.45-2.3,3.55-1.47,1.1-3.27,1.98-5.4,2.63-2.13,.66-4.17,.98-6.1,.98h-2.23v-6Zm6.73-18.03h5.07v5.07h-5.07v-5.07Z"/>
    <path class="cls-9" d="M551.42,280.6v4.5h-5.17v-4.5h5.17Zm-4.3-8.8h6.4c.71,0,1.17-.06,1.37-.17s.28-.33,.23-.67l-.37-4.1,5.33-.53,.37,4.1c.13,1.42-.07,2.69-.62,3.82s-1.36,1.99-2.45,2.62c-1.09,.62-2.38,.93-3.87,.93h-6.4v-6Zm8.07,13.3h-5.13v-4.5h5.13v4.5Zm1.98-9.07c-1.19-1.18-1.87-2.88-2.05-5.1l5.33-.47c.04,.44,.1,.75,.17,.92,.07,.17,.2,.28,.4,.33,.2,.06,.54,.08,1.03,.08l.33,3-.33,3c-2.07,0-3.69-.59-4.88-1.77Z"/>
    <path class="cls-9" d="M561.72,271.8h2.23c.87,0,1.92-.07,3.15-.2,1.23-.13,2.36-.33,3.38-.6,1.02-.27,1.67-.6,1.93-1l.17-1.03c.04-.29,0-.57-.13-.85-.13-.28-.33-.51-.6-.7s-.56-.31-.87-.35c-.33-.02-.65,.03-.95,.15s-.54,.31-.73,.55c-.19,.25-.29,.53-.32,.87l-.1,1.23,.03,.03c.4,.38,.87,.7,1.4,.97,.53,.27,1.34,.49,2.42,.67s2.48,.27,4.22,.27h2.6l.33,3-.33,3h-2.6c-2,0-4.08-.39-6.23-1.17-2.16-.78-3.92-1.8-5.3-3.07-1.38-1.27-2-2.58-1.87-3.93l.2-2c.13-1.35,.58-2.55,1.33-3.6,.75-1.04,1.71-1.82,2.87-2.33s2.39-.7,3.7-.57c1.22,.13,2.32,.58,3.3,1.33,.98,.75,1.72,1.72,2.23,2.88,.51,1.17,.73,2.4,.67,3.68l-.1,1.6c-.07,1.27-.83,2.45-2.3,3.55-1.47,1.1-3.27,1.98-5.4,2.63-2.13,.66-4.17,.98-6.1,.98h-2.23v-6Zm6.7-17.9h5.07v5.07h-5.07v-5.07Z"/>
    <path class="cls-9" d="M579.22,271.8h.83c1.33-.02,2.81-.15,4.42-.38,1.61-.23,3.22-.54,4.82-.92l7.8-1.87-.2,1.6-6.87-2.77c-.67-.31-1.33-.37-1.98-.17s-1.16,.6-1.52,1.2l-.6,1.07-4.67-2.93,.67-1.2c.78-1.4,1.76-2.45,2.93-3.17,1.18-.71,2.44-1.07,3.8-1.07s2.69,.34,4,1.03l8.5,4.4-.8,6.73-9.53,2.87c-1.71,.51-3.52,.9-5.43,1.17-1.91,.27-3.7,.4-5.37,.4h-.8v-6Zm6.8-18.1h5.07v5.07h-5.07v-5.07Zm11.63,23.15c-1.02-.63-1.83-1.49-2.43-2.57-.6-1.08-.9-2.25-.9-3.52h5.33c0,.27,.13,.51,.38,.72,.25,.21,.58,.32,.98,.32h2.13l.33,3-.33,3h-2.13c-1.22,0-2.34-.32-3.37-.95Z"/>
    <path class="cls-9" d="M602.82,271.8h5.23c.73,0,1.27-.07,1.6-.2,.33-.13,.53-.36,.58-.67,.06-.31,0-.77-.15-1.37l-1.3-4.97,5.13-1.53,1.4,5.27c.47,1.76,.46,3.36-.02,4.8-.48,1.44-1.36,2.58-2.63,3.42-1.28,.83-2.82,1.25-4.62,1.25h-5.23v-6Zm7.43-16.1v4.5h-5.17v-4.5h5.17Zm3.77,4.5h-5.13v-4.5h5.13v4.5Z"/>
    <path d="M630.22,274.9c-.96-.4-1.81-.99-2.55-1.78-.75-.79-1.28-1.67-1.62-2.65-.4-1.2-.47-2.43-.22-3.68,.25-1.26,.79-2.37,1.6-3.35,.81-.98,1.79-1.66,2.95-2.03l5.7-1.87,1.6,5.3-5.63,2c-.4,.13-.68,.33-.83,.6-.16,.27-.21,.57-.17,.9,.04,.31,.21,.58,.5,.8,.29,.22,.62,.3,1,.23l4.27-.7,.87,5.93c-1.2,.18-2.41,.37-3.63,.57,.09-.02-.26,.03-1.03,.17-.91,.11-1.84-.03-2.8-.43Zm8.02,1.78c-1.21-.74-2.17-1.74-2.87-3-.7-1.26-1.05-2.63-1.05-4.12v-10.4h5.33v10.4c0,.4,.11,.77,.33,1.12,.22,.34,.53,.62,.92,.82,.39,.2,.83,.3,1.32,.3h.63l.33,3-.33,3h-.63c-1.44,0-2.77-.37-3.98-1.12Z"/>
    <path d="M642.51,271.8h2.63c.73,0,1.27-.06,1.62-.18s.54-.34,.6-.67c.06-.32,0-.78-.15-1.38l-1.33-4.97,5.13-1.53,1.33,4.97c.49,1.82,.5,3.48,.05,4.97-.46,1.49-1.32,2.66-2.58,3.52s-2.82,1.28-4.67,1.28h-2.63v-6Zm.13,8.5h5.07v5.07h-5.07v-5.07Z"/>
    <path d="M672.18,277.73c-1.27-.04-2.31-.13-3.12-.27-.81-.13-1.57-.35-2.28-.67l-.07-.03c-1.09-.47-1.96-1.14-2.62-2.03s-1.07-1.91-1.25-3.07c-.18-1.16-.1-2.37,.23-3.63l1.3-4.93,5.13,1.53-1.33,5.2c-.11,.47-.13,.78-.05,.95,.08,.17,.32,.34,.72,.52l.03,.03c.29,.11,.69,.2,1.22,.27,.52,.07,1.38,.12,2.57,.15s2.91,.05,5.15,.05l.23,3-.23,3c-2.49,0-4.37-.02-5.63-.07Zm6.47-17.43v4.5h-5.17v-4.5h5.17Zm3.77,4.5h-5.13v-4.5h5.13v4.5Zm-4.77,7h8.03c.71,0,1.17-.06,1.37-.17s.28-.33,.23-.67l-.37-4.1,5.33-.53,.37,4.1c.13,1.42-.07,2.69-.62,3.82s-1.37,1.99-2.47,2.62c-1.1,.62-2.38,.93-3.85,.93h-8.03v-6Zm11.68,4.23c-1.19-1.18-1.87-2.87-2.05-5.07l5.33-.53c.04,.44,.1,.75,.17,.92,.07,.17,.2,.28,.4,.35s.54,.1,1.03,.1h.37l.33,3-.33,3h-.37c-2.07,0-3.69-.59-4.88-1.77Z"/>
    <path d="M694.21,271.8h1.57c.69,0,1.13-.07,1.32-.22s.28-.44,.28-.88v-4.13h5v4.13c0,1.2-.26,2.34-.78,3.43-.52,1.09-1.28,1.97-2.28,2.65s-2.18,1.02-3.53,1.02h-1.57v-6Zm6.17,4.92c-.98-.72-1.72-1.64-2.23-2.75-.51-1.11-.77-2.2-.77-3.27h5c.02,.38,.13,.66,.33,.83s.57,.27,1.1,.27c.67,0,1.1-.07,1.3-.22s.3-.44,.3-.88v-4.13h5v4.13c0,1.2-.26,2.34-.78,3.43s-1.28,1.97-2.28,2.65-2.18,1.02-3.53,1.02-2.46-.36-3.43-1.08Zm8,.07c-.98-.68-1.72-1.56-2.22-2.65s-.75-2.23-.75-3.43h5c0,.42,.09,.71,.28,.87,.19,.16,.57,.23,1.15,.23s.95-.07,1.2-.2c.24-.13,.38-.36,.42-.67s-.03-.77-.18-1.37l-1.33-4.97,5.13-1.53,1.33,4.97c.49,1.76,.53,3.38,.12,4.88-.41,1.5-1.21,2.69-2.38,3.57s-2.61,1.32-4.3,1.32c-1.33,0-2.49-.34-3.47-1.02Z"/>
    <path d="M722.81,254.27l5.33-.27,.9,23.73-5.33,.23-.9-23.7Z"/>
    <path d="M737.64,279.93c1.84-.4,3.13-.73,3.87-1s1.18-.57,1.35-.9c.17-.33,.22-.86,.15-1.57l-.57-5.33c-.09-1-.33-1.74-.73-2.22-.4-.48-.91-.71-1.53-.68-.38,0-.71,.11-.98,.32-.28,.21-.48,.49-.62,.85-.13,.36-.19,.76-.17,1.2,.04,.44,.17,.76,.38,.93s.63,.27,1.25,.27h9.7l.33,3-.33,3h-9.7c-1.31,0-2.47-.28-3.48-.83-1.01-.56-1.82-1.34-2.42-2.35-.6-1.01-.96-2.19-1.07-3.55-.11-1.51,.11-2.93,.67-4.27,.56-1.33,1.38-2.41,2.47-3.23,1.09-.82,2.32-1.27,3.7-1.33,1.38-.07,2.63,.25,3.77,.95,1.13,.7,2.06,1.69,2.77,2.97,.71,1.28,1.15,2.73,1.33,4.35l.57,5.3c.22,2.2,0,3.93-.67,5.2-.67,1.27-1.84,2.28-3.53,3.05-1.69,.77-4.17,1.49-7.43,2.18l-.43,.1-1.07-5.87,2.43-.53Z"/>
    <path d="M749.41,271.8h1.4c1.84,0,3.5-.05,4.97-.15,1.47-.1,2.82-.32,4.07-.65l7.27-1.6-.13,1.43-6.4-2.9c-.44-.2-.9-.3-1.37-.3s-.91,.11-1.32,.33c-.41,.22-.73,.55-.95,.97l-.57,1.03-4.67-2.93,.67-1.2c.78-1.38,1.76-2.43,2.93-3.17,1.18-.73,2.45-1.11,3.82-1.12,1.37-.01,2.72,.36,4.05,1.12l8.37,4.7-.73,6.9-9.63,2.53c-1.56,.4-3.21,.67-4.95,.8-1.74,.13-3.55,.2-5.42,.2h-1.4v-6Z"/>
    <path d="M781.57,256.43l5.23-1.07,2.83,14.03-5.23,1.07-2.83-14.03Zm1.93,15.37h8l.33,3-.33,3h-8v-6Zm7.67,0h.77c.67,0,1.1-.07,1.32-.22,.21-.14,.31-.41,.28-.78l-.63-16.53,5.33-.27,.63,16.53c.07,1.4-.18,2.65-.75,3.75-.57,1.1-1.38,1.96-2.45,2.58-1.07,.62-2.31,.93-3.73,.93h-.77v-6Zm5.78,5.2c-.94-.53-1.67-1.42-2.17-2.65s-.76-2.88-.78-4.95h4.8l.07,.93c.04,.6,.18,1,.4,1.18,.22,.19,.62,.28,1.2,.28h.67l.33,3-.33,3h-.67c-1.4,0-2.57-.27-3.52-.8Z"/>
    <path d="M800.81,271.8h.17c.71,0,1.23-.08,1.55-.25s.51-.53,.55-1.08l5.33,.47c-.11,1.42-.5,2.64-1.17,3.67-.67,1.02-1.54,1.81-2.62,2.35-1.08,.54-2.29,.83-3.65,.85h-.17v-6Zm4.8,5c-.91-.67-1.59-1.57-2.03-2.7s-.61-2.34-.5-3.63l.37-4.13,5.33,.53-.37,4.07c-.02,.38,0,.62,.05,.72,.06,.1,.16,.15,.32,.15l.33,3-.33,3c-1.2,0-2.26-.33-3.17-1Zm3.1-5h10.83c.42,0,.79-.08,1.1-.23,.31-.15,.55-.37,.72-.65,.17-.28,.25-.58,.25-.92,0-.51-.2-.94-.58-1.28-.39-.34-.88-.51-1.48-.48-.4,.02-.78,.15-1.15,.38-.37,.23-.81,.65-1.32,1.25-.51,.6-1.2,1.5-2.07,2.7l-2.97,4.13-4.13-3.8,2.7-3.7c1.31-1.8,2.38-3.17,3.22-4.1s1.71-1.64,2.62-2.13c.91-.49,1.94-.73,3.1-.73,1.38,0,2.63,.36,3.77,1.07,1.13,.71,2.03,1.68,2.68,2.9,.66,1.22,.98,2.58,.98,4.07,0,1.33-.34,2.58-1.02,3.73-.68,1.16-1.59,2.08-2.73,2.77-1.14,.69-2.37,1.03-3.68,1.03h-10.83v-6Z"/>
    <path d="M830.97,254.27l5.33-.27,.9,23.73-5.33,.23-.9-23.7Z"/>
    <path d="M477.52,294.47h6.27l-.67,15.47h-4.93l-.67-15.47Zm.9,23.62c-.6-.61-.9-1.35-.9-2.22s.3-1.57,.9-2.17c.6-.6,1.34-.9,2.23-.9s1.57,.3,2.17,.9,.9,1.32,.9,2.17-.3,1.61-.9,2.22c-.6,.61-1.32,.92-2.17,.92-.89,0-1.63-.31-2.23-.92Z"/>
    <path d="M492.25,310.63v-.93c-.02-.47-.07-.78-.15-.95-.08-.17-.33-.43-.75-.78-.2-.18-.41-.34-.63-.5l-.67-.53c-1.13-.95-1.91-1.79-2.32-2.5-.41-.71-.62-1.63-.62-2.77,0-1.44,.34-2.78,1.03-4,.69-1.22,1.62-2.19,2.8-2.9,1.18-.71,2.47-1.07,3.87-1.07s2.69,.36,3.87,1.08c1.18,.72,2.11,1.7,2.8,2.93,.69,1.23,1.03,2.57,1.03,4.02v1.33h-5.33v-1.33c0-.36-.11-.69-.32-1-.21-.31-.49-.56-.85-.75-.36-.19-.76-.28-1.2-.28s-.85,.09-1.22,.27c-.37,.18-.65,.42-.85,.72-.2,.3-.3,.63-.3,.98,0,.42,.15,.81,.45,1.15s.76,.74,1.38,1.18l.4,.27,.97,.67c.67,.47,1.13,.86,1.38,1.18,.25,.32,.41,.71,.47,1.17,.06,.46,.08,1.26,.08,2.42v.93h-5.33Zm.4,7.45c-.6-.61-.9-1.35-.9-2.22s.3-1.57,.9-2.17c.6-.6,1.34-.9,2.23-.9,.84,0,1.57,.3,2.17,.9s.9,1.32,.9,2.17-.3,1.61-.9,2.22c-.6,.61-1.32,.92-2.17,.92-.89,0-1.63-.31-2.23-.92Z"/>
    <path d="M506.52,294.27l5.33-.27,.9,23.73-5.33,.23-.9-23.7Z"/>
    <path d="M517.42,294.27l5.33-.27,.9,23.73-5.33,.23-.9-23.7Z"/>
    <path d="M531.42,316.98c-1.02-.54-1.78-1.41-2.28-2.6-.5-1.19-.79-2.78-.88-4.78l-.6-15.33,5.33-.27,.6,15.6v.3c.04,.71,.1,1.18,.17,1.4,.07,.22,.21,.36,.42,.42,.21,.06,.66,.08,1.35,.08h.33l.33,3-.33,3h-.33c-1.71,0-3.08-.27-4.1-.82Z"/>
    <path d="M535.52,311.8h6.4c.71,0,1.17-.06,1.37-.17s.28-.33,.23-.67l-.37-4.1,5.33-.53,.37,4.1c.13,1.42-.07,2.69-.62,3.82s-1.36,1.99-2.45,2.62c-1.09,.62-2.38,.93-3.87,.93h-6.4v-6Zm6.37-13.3v4.5h-5.17v-4.5h5.17Zm3.77,4.5h-5.13v-4.5h5.13v4.5Zm-.08,13.03c-1.19-1.18-1.87-2.88-2.05-5.1l5.33-.47c.04,.44,.1,.75,.17,.92,.07,.17,.2,.28,.4,.33,.2,.06,.54,.08,1.03,.08l.33,3-.33,3c-2.07,0-3.69-.59-4.88-1.77Z"/>
    <path d="M550.12,311.8h10.33l.33,3-.33,3h-10.33v-6Z"/>
    <path d="M560.12,311.8h10.33l.33,3-.33,3h-10.33v-6Z"/>
    <path d="M570.12,311.8h10.33l.33,3-.33,3h-10.33v-6Z"/>
    <path d="M580.12,311.8h10.33l.33,3-.33,3h-10.33v-6Z"/>
    <path d="M590.12,311.8h10.33l.33,3-.33,3h-10.33v-6Z"/>
    <path d="M600.12,311.8h10.33l.33,3-.33,3h-10.33v-6Z"/>
    <path d="M610.12,311.8h10.33l.33,3-.33,3h-10.33v-6Z"/>
    <path d="M620.12,311.8h10.33l.33,3-.33,3h-10.33v-6Z"/>
    <path d="M630.11,311.8h10.33l.33,3-.33,3h-10.33v-6Z"/>
    <path d="M640.11,311.8h10.33l.33,3-.33,3h-10.33v-6Z"/>
    <path d="M650.11,311.8h10.33l.33,3-.33,3h-10.33v-6Z"/>
    <path d="M660.11,311.8h10.33l.33,3-.33,3h-10.33v-6Z"/>
    <path d="M670.11,311.8h10.33l.33,3-.33,3h-10.33v-6Z"/>
    <path d="M680.11,311.8h10.33l.33,3-.33,3h-10.33v-6Z"/>
    <path d="M690.11,311.8h10.33l.33,3-.33,3h-10.33v-6Z"/>
    <path d="M700.11,311.8h10.33l.33,3-.33,3h-10.33v-6Z"/>
    <path d="M710.11,311.8h10.33l.33,3-.33,3h-10.33v-6Z"/>
    <path d="M720.11,311.8h10.33l.33,3-.33,3h-10.33v-6Z"/>
    <path d="M730.11,311.8h10.33l.33,3-.33,3h-10.33v-6Z"/>
    <path d="M740.11,311.8h10.33l.33,3-.33,3h-10.33v-6Z"/>
    <path d="M750.11,311.8h10.33l.33,3-.33,3h-10.33v-6Z"/>
    <path d="M760.11,311.8h10.33l.33,3-.33,3h-10.33v-6Z"/>
    <path d="M770.11,311.8h10.33l.33,3-.33,3h-10.33v-6Z"/>
    <path d="M780.11,311.8h1.13c.69,0,1.13-.07,1.32-.22s.28-.44,.28-.88v-4.13h5v4.13c0,1.16-.29,2.28-.87,3.38-.58,1.1-1.37,1.99-2.38,2.68-1.01,.69-2.13,1.03-3.35,1.03h-1.13v-6Zm5.97,4.98c-.96-.68-1.7-1.56-2.23-2.65-.53-1.09-.8-2.2-.8-3.33l4.8-.1c.02,.38,.13,.66,.33,.83s.57,.27,1.1,.27c.67,0,1.1-.07,1.3-.22s.3-.44,.3-.88v-4.13h5v4.13c0,1.2-.26,2.34-.78,3.43-.52,1.09-1.28,1.97-2.28,2.65s-2.18,1.02-3.53,1.02c-1.18,0-2.24-.34-3.2-1.02Zm8.27-.03c-1.02-.7-1.83-1.6-2.42-2.7-.59-1.1-.88-2.18-.88-3.25l4.83-.1c.02,.29,.15,.53,.38,.72s.59,.28,1.08,.28,.86-.03,1.12-.08,.43-.14,.52-.25c.09-.11,.1-.27,.03-.47l-1.1-4.1,4.8-1.43,1.1,4.1c.4,1.47,.37,2.84-.08,4.12-.46,1.28-1.23,2.3-2.32,3.07-1.09,.77-2.32,1.15-3.7,1.15-1.22,0-2.34-.35-3.37-1.05Zm7.62-.7c-1.28-1.17-2.16-2.75-2.65-4.75l4.5-1.83c.16,.76,.49,1.33,1.02,1.73s1.15,.6,1.88,.6l.33,3-.33,3c-1.89,0-3.47-.58-4.75-1.75Z"/>
    <path d="M810.67,320.6v4.5h-5.17v-4.5h5.17Zm-4.3-8.8h6.4c.71,0,1.17-.06,1.37-.17s.28-.33,.23-.67l-.37-4.1,5.33-.53,.37,4.1c.13,1.42-.07,2.69-.62,3.82s-1.36,1.99-2.45,2.62c-1.09,.62-2.38,.93-3.87,.93h-6.4v-6Zm8.07,13.3h-5.13v-4.5h5.13v4.5Zm1.98-9.07c-1.19-1.18-1.87-2.88-2.05-5.1l5.33-.47c.04,.44,.1,.75,.17,.92,.07,.17,.2,.28,.4,.33,.2,.06,.54,.08,1.03,.08l.33,3-.33,3c-2.07,0-3.69-.59-4.88-1.77Z"/>
    <path d="M820.97,311.8h2.63c.73,0,1.27-.06,1.62-.18s.54-.34,.6-.67c.06-.32,0-.78-.15-1.38l-1.33-4.97,5.13-1.53,1.33,4.97c.49,1.82,.5,3.48,.05,4.97-.46,1.49-1.32,2.66-2.58,3.52s-2.82,1.28-4.67,1.28h-2.63v-6Zm1.77-16.37h5.07v5.07h-5.07v-5.07Z"/>
  </g>
  <rect x="479.82" y="358.08" width="359.97" height="55.32" rx="27.66" ry="27.66"/>
  <rect class="cls-2" x="481.88" y="360.97" width="49.86" height="49.86" rx="24.93" ry="24.93"/>
  <g>
    <path class="cls-3" d="M600.21,390.49c-.8-.03-1.37-.08-1.69-.14-.33-.06-.63-.16-.9-.3h-.02c-.48-.2-.84-.48-1.1-.84-.26-.35-.41-.77-.46-1.24-.05-.48,0-1.02,.15-1.63l.73-2.79,.49,.12-.71,2.82c-.2,.79-.22,1.43-.04,1.93,.18,.5,.56,.87,1.14,1.13l.04,.02c.26,.1,.53,.17,.83,.23,.29,.06,.83,.11,1.62,.14,.79,.03,1.97,.05,3.55,.05l.02,.27-.02,.29c-1.62,0-2.83-.02-3.63-.05Zm2.73-7.52v.98h-1.04v-.98h1.04Zm.63,7.29c0-.1,.01-.19,.04-.28h.22c1.54,0,2.69-.02,3.47-.05,.78-.03,1.31-.08,1.61-.13,.3-.05,.57-.14,.82-.24l.06-.02c.58-.26,.98-.64,1.18-1.14,.2-.5,.2-1.15-.02-1.94l-.78-2.84,.49-.14,.78,2.84c.18,.61,.24,1.16,.18,1.65s-.21,.91-.48,1.27c-.27,.35-.64,.63-1.11,.82-.03,.01-.05,.02-.08,.03-.03,0-.06,.02-.09,.03-.03,.01-.07,.02-.11,.02-.27,.1-.57,.17-.88,.23-.31,.06-.86,.11-1.64,.13-.78,.03-1.91,.04-3.4,.04h-.22c-.03-.08-.04-.17-.04-.28Zm2.16-6.31h-1.02v-.98h1.02v.98Z"/>
    <path class="cls-3" d="M613.68,378.46l.51-.1,1.51,10.2-.51,.1-1.51-10.2Zm.73,11.53h4.53l.02,.27-.02,.29h-4.53v-.55Zm4.32,0h.47c.94,0,1.57-.23,1.9-.69,.33-.46,.48-.98,.45-1.55l-.39-10.06,.53-.02,.39,10.06c.01,.42-.06,.85-.21,1.28-.16,.43-.45,.79-.89,1.09-.44,.3-1.03,.45-1.78,.45h-.47v-.55Z"/>
    <path class="cls-3" d="M625.14,395.19c1.66-.35,2.85-.65,3.57-.9,.72-.24,1.25-.61,1.59-1.08,.34-.48,.46-1.18,.35-2.1l-.35-3.24c-.1-1.02-.4-1.82-.92-2.39s-1.16-.84-1.92-.8c-.53,.03-.98,.2-1.36,.51s-.65,.71-.82,1.18c-.17,.48-.23,.96-.19,1.45,.05,.69,.29,1.23,.69,1.6s.97,.56,1.67,.56h4.94l.04,.27-.04,.29h-4.94c-.56,0-1.04-.11-1.46-.32-.42-.21-.74-.52-.99-.93-.24-.41-.39-.89-.45-1.45-.04-.57,.04-1.14,.26-1.7s.54-1.03,1-1.41c.46-.37,1-.57,1.64-.6,.6-.03,1.14,.11,1.61,.4,.48,.29,.86,.72,1.16,1.29s.5,1.22,.59,1.97l.35,3.24c.11,1.07-.03,1.89-.42,2.46-.39,.56-.99,.99-1.8,1.28s-2.1,.62-3.89,1l-.18,.04-.1-.55,.35-.06Z"/>
    <path class="cls-3" d="M632.2,389.99h.1c.78-.01,1.4-.2,1.87-.57,.47-.37,.73-.92,.79-1.67l.53,.02c-.05,.61-.21,1.13-.48,1.54-.27,.42-.63,.72-1.08,.92-.46,.2-1,.3-1.62,.32h-.1v-.55Zm3.66,.19c-.33-.24-.58-.57-.73-.99-.16-.42-.21-.9-.17-1.45l.22-2.51,.53,.02-.22,2.51c-.07,.68,.04,1.22,.33,1.62,.29,.4,.7,.6,1.24,.6l.04,.27-.04,.29c-.46,0-.86-.12-1.19-.36Zm1.19-.19h6.08c.46,0,.9-.12,1.32-.36,.41-.24,.74-.55,.98-.93,.24-.38,.36-.79,.36-1.22,0-.79-.25-1.45-.75-1.99-.5-.54-1.14-.81-1.9-.81-.52,0-.98,.14-1.4,.41-.42,.27-.8,.63-1.15,1.07-.35,.44-.81,1.06-1.37,1.87l-1.73,2.41-.41-.35,1.73-2.37c.58-.86,1.07-1.52,1.46-1.99,.39-.47,.82-.85,1.29-1.15s1-.45,1.58-.45,1.12,.15,1.6,.44c.48,.29,.87,.69,1.15,1.2,.29,.51,.43,1.08,.43,1.7,0,.53-.15,1.03-.45,1.51-.3,.48-.69,.85-1.17,1.13-.48,.28-1,.42-1.56,.42h-6.08v-.55Zm9.27,.28c-.42-.18-.76-.4-1.05-.66l.33-.43c.23,.23,.53,.43,.9,.58,.37,.16,.76,.23,1.18,.23h.29l.04,.27-.04,.29h-.29c-.49,0-.94-.09-1.36-.28Z"/>
    <path class="cls-3" d="M647.77,389.99h.14c.91,0,1.78-.06,2.62-.19,.84-.13,1.75-.36,2.74-.68l5.92-1.92v.18l-5.14-2.94c-.78-.45-1.54-.56-2.29-.34-.75,.22-1.35,.74-1.8,1.54l-.37,.65-.45-.27,.37-.67c.35-.61,.79-1.08,1.31-1.41s1.08-.49,1.68-.49,1.19,.17,1.76,.51l5.28,3.02-.08,.67-6.08,2c-.98,.31-1.9,.54-2.76,.67-.86,.14-1.77,.2-2.72,.2h-.14v-.55Zm11.15,.19c-.42-.24-.74-.56-.99-.97s-.37-.85-.39-1.33l.51-.02c.03,.58,.26,1.08,.68,1.5,.43,.42,.93,.62,1.52,.62h1.33l.04,.27-.04,.29h-1.33c-.48,0-.92-.12-1.34-.36Z"/>
    <path class="cls-3" d="M661.38,389.99h.22c.54,0,1.03-.13,1.47-.4,.44-.27,.78-.64,1.02-1.11l1.49-2.86c.2-.39,.49-.7,.85-.93,.36-.22,.75-.35,1.18-.37,.43-.02,.83,.07,1.21,.28,.52,.27,.9,.67,1.14,1.19,.25,.52,.34,1.12,.29,1.8-.05,.67-.25,1.37-.57,2.09-.11,.24-.29,.46-.54,.63-.25,.18-.54,.28-.86,.32-.32,.03-.63-.02-.93-.17l-3.16-1.63,.24-.47,3.2,1.63c.33,.18,.65,.2,.98,.07,.33-.13,.54-.33,.65-.6l.08-.12c.39-.91,.53-1.77,.41-2.58s-.5-1.38-1.12-1.72c-.49-.25-.99-.29-1.51-.12-.52,.16-.9,.5-1.16,1l-1.45,2.79c-.3,.58-.7,1.04-1.2,1.36-.5,.32-1.07,.48-1.71,.48h-.22v-.55Z"/>
    <path class="cls-3" d="M679.7,390.14c-.46-.27-.83-.63-1.09-1.09-.27-.46-.4-.96-.4-1.49,0-.49,.13-.98,.38-1.48,.25-.5,.6-.96,1.05-1.4l1.49-1.43,.33,.39-1.45,1.41c-.42,.41-.74,.82-.96,1.24-.22,.42-.33,.84-.33,1.27s.11,.84,.34,1.21c.22,.37,.52,.67,.9,.9,.37,.22,.79,.34,1.25,.34,.68,0,1.26-.24,1.73-.72,.48-.48,.71-1.06,.71-1.72,0-.48-.1-.92-.31-1.35s-.61-.95-1.2-1.57l-2.06-2.08,.39-.39,2.04,2.08c.61,.63,1.04,1.18,1.29,1.67,.24,.49,.37,1.03,.37,1.63,0,.53-.13,1.03-.4,1.49-.27,.46-.63,.83-1.08,1.09-.46,.27-.95,.4-1.48,.4s-1.05-.13-1.51-.4Z"/>
    <path class="cls-3" d="M688.37,390.37c-.45-.12-.8-.29-1.04-.51-.24-.22-.4-.51-.47-.85-.11-.39-.16-.85-.16-1.37h.49c0,.45,.04,.86,.12,1.22,.1,.39,.35,.68,.78,.86,.42,.18,1.05,.27,1.88,.27h.41c1.31,0,2.19-.23,2.64-.69,.46-.46,.58-1.07,.38-1.82l.51-.12c.15,.58,.15,1.11,0,1.58-.16,.47-.52,.85-1.09,1.15-.57,.3-1.4,.45-2.49,.45h-.29c-.65,0-1.2-.06-1.65-.17Zm6.33-.28c-.36-.3-.63-.65-.81-1.06s-.35-.91-.51-1.51v-.04l-1.14-4.53-.39-1.51,.51-.14,1.53,6.06,.02,.04c.12,.52,.26,.96,.41,1.32s.36,.66,.63,.91c.27,.24,.65,.37,1.12,.37h1l.04,.27-.04,.29h-1c-.56,0-1.02-.15-1.38-.45Z"/>
    <path class="cls-3" d="M698.72,387.88c-.29-.43-.46-.9-.5-1.43-.04-.52,.06-1.03,.31-1.52,.23-.48,.56-.86,.99-1.16,.43-.3,.9-.47,1.41-.51,.51-.04,1,.05,1.48,.29,.48,.22,.86,.54,1.15,.97,.29,.43,.46,.9,.5,1.43,.04,.52-.05,1.03-.27,1.52-.27,.61-.71,1.15-1.31,1.61-.6,.46-1.32,.82-2.15,1.08-.84,.26-1.73,.39-2.68,.39h-.78v-.55h.78c.77,0,1.5-.08,2.16-.25s1.26-.39,1.77-.69c.84-.48,1.41-1.08,1.71-1.82,.29-.6,.32-1.21,.11-1.83-.21-.62-.62-1.08-1.21-1.38-.39-.19-.8-.27-1.22-.23-.42,.03-.81,.17-1.15,.41-.35,.24-.62,.55-.81,.93-.31,.63-.36,1.25-.14,1.87,.22,.62,.63,1.06,1.24,1.34l4.41,1.98c.57,.26,1.15,.28,1.72,.06,.58-.22,1-.6,1.25-1.14,.24-.54,.27-1.11,.06-1.69-.2-.58-.59-1.02-1.16-1.31l-7.2-3.79,.22-.47,7.2,3.79c.46,.24,.83,.57,1.1,.97s.43,.84,.48,1.33c.05,.48-.03,.94-.23,1.38-.22,.45-.53,.82-.93,1.1s-.84,.45-1.33,.5-.95-.03-1.4-.23l-4.43-1.96c-.49-.22-.88-.54-1.17-.97Z"/>
    <path class="cls-3" d="M712.6,390.23c-.42-.21-.72-.56-.91-1.05s-.3-1.19-.34-2.1l-.37-9.38h.51l.37,9.38,.02,.35c.05,.69,.16,1.22,.31,1.59,.15,.37,.39,.62,.73,.77s.84,.21,1.51,.21h.2l.02,.27-.02,.29h-.2c-.8,0-1.41-.11-1.84-.32Z"/>
    <path class="cls-3" d="M714.44,389.99h.31c.92,0,1.55-.22,1.88-.67s.49-.97,.49-1.57v-2.51h.51v2.51c0,.42-.08,.84-.24,1.25s-.46,.78-.89,1.08c-.43,.31-1.01,.46-1.74,.46h-.31v-.55Zm3.91,.15c-.4-.27-.7-.61-.9-1.03s-.3-.87-.32-1.35l.49-.02c.01,.63,.2,1.16,.57,1.59,.37,.44,.92,.65,1.67,.65,.92,0,1.55-.22,1.87-.67,.32-.45,.48-.97,.48-1.57v-2.51h.51v2.51c0,.41-.07,.82-.22,1.24-.15,.42-.44,.79-.87,1.09s-1.02,.46-1.76,.46c-.61,0-1.12-.13-1.52-.4Zm3.27-8.44v.98h-1v-.98h1Zm1.39-1.86v.92h-.92v-.92h.92Zm.45,10.29c-.41-.27-.71-.61-.92-1.03-.2-.42-.31-.87-.31-1.35l.49-.02c.01,.63,.21,1.16,.58,1.59,.37,.44,.93,.65,1.68,.65,.67,0,1.19-.12,1.58-.37,.39-.24,.64-.55,.75-.93s.12-.77,.01-1.17l-.67-2.51,.47-.12,.67,2.51c.14,.5,.13,.99-.02,1.47-.15,.48-.46,.87-.92,1.19-.46,.32-1.08,.48-1.86,.48-.63,0-1.14-.13-1.55-.4Zm.98-8.44v.98h-1v-.98h1Zm4.2,7.98c-.65-.57-1.08-1.28-1.29-2.12l.45-.16c.18,.73,.55,1.35,1.12,1.85,.57,.5,1.23,.74,1.98,.74l.04,.27-.04,.29c-.86,0-1.61-.29-2.26-.86Z"/>
    <path class="cls-3" d="M730.7,389.99h.22c.54,0,1.03-.13,1.47-.4,.44-.27,.78-.64,1.02-1.11l1.49-2.86c.2-.39,.49-.7,.85-.93,.36-.22,.75-.35,1.18-.37,.43-.02,.83,.07,1.21,.28,.52,.27,.9,.67,1.14,1.19,.25,.52,.34,1.12,.29,1.8-.05,.67-.25,1.37-.57,2.09-.11,.24-.29,.46-.54,.63-.25,.18-.54,.28-.86,.32-.32,.03-.63-.02-.93-.17l-3.16-1.63,.24-.47,3.2,1.63c.33,.18,.65,.2,.98,.07,.33-.13,.54-.33,.65-.6l.08-.12c.39-.91,.53-1.77,.41-2.58s-.5-1.38-1.12-1.72c-.49-.25-.99-.29-1.51-.12-.52,.16-.9,.5-1.16,1l-1.45,2.79c-.3,.58-.7,1.04-1.2,1.36-.5,.32-1.07,.48-1.71,.48h-.22v-.55Z"/>
  </g>
  <polyline class="cls-13" points="505.53 377.78 496.08 386.62 505.53 396.02"/>
  <line class="cls-13" x1="496.08" y1="386.62" x2="516.91" y2="386.62"/>
  <text class="cls-1" transform="translate(1395.47 124.5)"><tspan x="0" y="0">دنرِِ تاوصحم</tspan></text>
</svg>