<svg xmlns="http://www.w3.org/2000/svg" viewBox="0 0 900.32276 601.01184"><g id="Layer_2" data-name="Layer 2"><g id="Layer_1-2" data-name="Layer 1"><rect width="900.32276" height="599.90316" rx="41.79158" fill="#ffcfcf"/><path d="M494.18442,235.75458c-26.487-2.18632-53.14429,3.94252-77.73487,14.02419-29.28764,12.00746-56.88076,30.31042-74.52561,56.58984-17.64491,26.2793-23.96486,61.333-11.20828,90.30216,3.82636,8.68915,9.39655,16.82067,17.14109,22.31282,12.77616,9.06056,29.76709,9.82926,45.199,7.149,15.43177-2.6802,30.197-8.41587,45.60078-11.252,14.75837-2.71742,33.27562-.8676,39.8946,12.60025,4.59416,9.34774,1.41583,20.46107-1.69463,30.40146-5.66289,18.09794-10.93649,36.77049-9.85025,55.70267,1.0863,18.93205,9.645,38.43589,26.01027,48.01608,16.27542,9.52752,37.00925,7.606,54.74492,1.19432,31.30976-11.31887,57.18778-35.60218,73.00657-64.897s21.94888-63.288,20.25888-96.538C637.13071,324.7102,575.14206,242.43693,494.18442,235.75458Z" fill="#ffc15c"/><path d="M138.143,364.88529c8.28813-6.11069,19.51775-6.01088,29.75578-4.90452,59.85211,6.46728,114.91808,38.57948,157.41935,81.21442,17.12537,17.17947,33.42358,38.87427,31.37982,63.04528-1.95761,23.15029-20.30641,41.51158-39.592,54.46662-69.99459,47.01906-168.17238,47.66091-238.77572,1.56122C52.19023,543.20038,27.9234,514.701,34.10466,484.09994c3.26319-16.15385,15.1187-28.89061,29.3948-36.39046,18.08351-9.50034,32.8188-4.18411,51.50166-6.82014C154.63584,435.297,111.4613,384.55731,138.143,364.88529Z" fill="#a27cff"/><path d="M451.07054,467.47591s113.04576,32.49043,138.0299,71.6323c24.98426,39.142,26.6498,59.96212,26.6498,59.96212H140.21758s27.48263-84.11343,66.62451-103.268,131.58347-32.47949,131.58347-32.47949Z" fill="#ffbeff"/><circle cx="271.80107" cy="360.05482" r="66.20816" fill="#ff5e5c"/><circle cx="470.42551" cy="360.05482" r="66.20815" fill="#ff5e5c"/><polygon points="451.071 467.476 410.461 548.059 316.153 469.36 312.41 336.326 337.804 345.549 431.084 379.407 431.084 456.859 451.071 467.476" fill="#ff9ebb"/><path d="M431.08377,379.40657v43.47189a30.26211,30.26211,0,0,1-3.35167,1.90829c-8.29314,4.08546-18.05414,4.28121-27.1546,2.56867-17.614-3.3026-33.53987-13.47956-45.3802-26.91006-11.865-13.4551-19.81575-30.01706-24.73276-47.2394l7.33913-7.65723Z" fill="#2e0033"/><path d="M480.26983,303.01553a110.66863,110.66863,0,0,1-1.12413,17.87475,151.98849,151.98849,0,0,1-8.49894,32.0348c-13.87081,36.91434-54.65722,53.42452-54.65722,53.42452s-82.574-15.46679-97.11895-47.7428q-1.66842-3.72785-3.16506-7.62645c-2.22429-5.71236-4.13412-11.65267-5.81552-17.56465-.54127-1.82779-1.026-3.68444-1.51035-5.512-1.08267-4.19828-2.05123-8.31117-2.9057-12.28086-.45537-2.056-.88293-4.08393-1.253-6.026-1.96457-9.93808-3.18771-18.33412-3.8413-23.38918-.1141-.31384-.19987-.62807-.285-.94243a93.72913,93.72913,0,1,1,182.32045-39.18823l.08538.88524a91.76449,91.76449,0,0,1,.47971,10.05154,93.32552,93.32552,0,0,1-4.32771,27.43961A166.3805,166.3805,0,0,1,480.26983,303.01553Z" fill="#ff9ebb"/><path d="M324.92964,281.61293c16.41607,11.40541,21.60349,32.3386,11.58686,46.7566-10.01714,14.418-31.44511,16.86008-47.86128,5.45518-16.4154-11.40528-21.60324-32.339-11.58622-46.75659C287.08617,272.65038,308.51424,270.208,324.92964,281.61293Z" fill="#ff9ebb"/><path d="M316.18009,328.9502a1.2369,1.2369,0,0,1-1.36122-1.06476c-.98119-7.343-8.90409-13.0752-15.68843-13.82239-1.555-.17166-4.432-.20128-6.30167,1.53019-1.43192,1.32464-2.01736,3.44168-2.43861,5.53091a1.23675,1.23675,0,0,1-2.4247-.48886c.50289-2.49656,1.23643-5.05506,3.18438-6.85659,1.918-1.7768,4.8476-2.54846,8.25181-2.17241a22.43575,22.43575,0,0,1,14.24646,7.88774,48.80541,48.80541,0,0,0-3.78564-11.95492c-3.25173-6.78267-8.25273-11.875-14.07945-14.342-6.49716-2.75013-14.12129-1.88356-18.97635,2.15336a1.23631,1.23631,0,1,1-1.58183-1.90043c5.54727-4.61335,14.196-5.62956,21.52185-2.53082,6.38254,2.70235,11.83232,8.22528,15.34484,15.55115,3.54809,7.40108,4.65739,15.606,5.18423,21.13383a1.23611,1.23611,0,0,1-1.09078,1.34551Z" fill="#2e0033"/><path d="M396.90514,287.84931c.4291,5.12447-2.95463,9.59126-7.55832,9.9767-4.60342.38571-8.68322-3.45624-9.11232-8.581-.42885-5.12422,2.955-9.59126,7.55832-9.97645C392.3965,278.88289,396.476,282.72444,396.90514,287.84931Z" fill="#2e0033"/><path d="M468.8451,285.87457c.4291,5.12448-2.67337,9.5677-6.93038,9.92416-4.25674.3566-8.05528-3.50891-8.48438-8.63313-.4291-5.12486,2.67363-9.56795,6.93038-9.92455C464.61733,276.88484,468.41588,280.75,468.8451,285.87457Z" fill="#2e0033"/><path d="M409.81228,329.65155s14.368,20.99062,32.24577,1.27506" fill="none" stroke="#2e0033" stroke-linecap="round" stroke-linejoin="round" stroke-width="1.89963"/><path d="M436.36227,268.22531q-3.15528,8.33172-6.31081,16.66344a16.63028,16.63028,0,0,0-1.46232,6.11c.10174,5.14856,4.68729,8.85772,8.09743,12.71641,1.34458,1.52142,2.61427,3.36351,2.46369,5.38847a8.67663,8.67663,0,0,1-1.96108,4.19c-3.69281,5.18513-3.35785,4.41193-7.05067,9.59706" fill="none" stroke="#2e0033" stroke-linecap="round" stroke-linejoin="round" stroke-width="2.21736"/><path d="M448.94217,206.96186a66.91209,66.91209,0,0,1,18.47011,34.42048H433.11417c-3.30263-7.68157-6.87436-15.21645-11.59578-22.06621-6.04243-8.78252-13.16148-16.2194-23.167-19.86456a72.809,72.809,0,0,1,24.51254,41.93077H376.72533c-.41584-.14681-.12235.46477-.53818.318a92.95832,92.95832,0,0,0-47.2394-56.31528l-4.52577-5.84694c8.21974-9.41857,19.76668-15.58335,31.85167-18.81254,12.10959-3.20473,24.78186-3.6941,37.28279-3.13146a125.62619,125.62619,0,0,1,23.97436,3.05805c18.49458,4.5013,35.22781,15.33879,47.70417,29.72343,12.45215,14.38465,19.59553,32.38986,23.53406,51.00678h-11.7915A59.15519,59.15519,0,0,0,448.94217,206.96186Z" fill="#ff5e5c"/><path d="M292.72536,276.04532c5.62543-.80476,10.40426,1.47957,14.36674,5.55306,3.96248,4.07336,6.53786,9.26248,9.04976,14.36,2.07529,4.21181,3.77392,8.13037,5.84926,12.342a43.6532,43.6532,0,0,0,.77383-30.72973,93.32832,93.32832,0,0,0,19.40133-18.44087c8.43854-10.472,15.27349-22.736,16.74817-36.10379,1.64055-14.87157-3.43422-29.60792-9.03132-43.48336-6.61629-3.00267-14.67428-5.44462-21.90109-4.69241-14.26,1.48421-30.24515,6.943-38.55684,18.62491-4.72229,6.637-7.58832,14.41246-9.7942,22.25345-6.00122,21.33112-7.42415,44.26365-1.64083,65.65478.28383,1.05009-.06954,3.27646.52543,4.1872C284.13707,280.10528,286.78415,276.8954,292.72536,276.04532Z" fill="#ff5e5c"/><path d="M478.38035,262.01585c-.80746-5.35847-5.1501-9.80775-10.28978-11.52466s-10.89105-.95118-15.82725,1.28446c-.37537.17-.74912.35016-1.11757.54179a4.1665,4.1665,0,0,0,.78261,7.64834l.07018.021C459.72866,262.29106,470.33408,262.58223,478.38035,262.01585Z" fill="#ff5e5c"/><circle cx="362.7268" cy="294.15893" r="40.9116" transform="translate(-101.76155 342.64374) rotate(-45)" fill="#fbeee5"/><path d="M241.19534,506.837s1.8739-36.227-3.74754-63.70967-13.11679-73.70349-8.74453-81.19871,87.44475-85.571,87.44475-85.571,8.7444.937,5.62145,15.30286l9.36911-8.4321s6.246,6.87062.62459,18.11351-27.48263,34.35326-27.48263,34.35326,12.49207,3.12308,8.11981,14.99056c0,0,12.49207,0,13.11681,13.11666a69.14449,69.14449,0,0,1-3.1231,23.73509s7.49524,13.11666,6.24606,35.60244-7.49525,68.08192-7.49525,68.08192S284.91772,510.58464,241.19534,506.837Z" fill="#ff9ebb"/><path d="M261.18276,350.6857l69.95582-67.45733s6.55833,4.37226.62459,18.11351-23.42279,30.29329-32.79175,43.09778c-9.36914,12.80437-16.23977,24.67185-16.23977,24.67185" fill="none" stroke="#2e0033" stroke-linecap="round" stroke-linejoin="round" stroke-width="2.21736"/><path d="M306.15431,335.69514s10.306,4.06,7.49522,16.23974c-2.81066,12.17978-9.369,28.41952-9.99358,34.041" fill="none" stroke="#2e0033" stroke-linecap="round" stroke-linejoin="round" stroke-width="2.21736"/><path d="M315.70553,350.98035s10.1239,3.14073,9.18689,17.19427c-.93689,14.05368-4.68443,29.04411-4.99673,32.79179" fill="none" stroke="#2e0033" stroke-linecap="round" stroke-linejoin="round" stroke-width="2.21736"/><path d="M228.70327,361.92859l87.44475-85.571s9.36914,4.37226,5.62145,15.30286" fill="none" stroke="#2e0033" stroke-linecap="round" stroke-linejoin="round" stroke-width="2.21736"/><path d="M324.68431,375.46173s6.246,16.23974,3.74754,45.38791c-2.49836,29.14829-7.287,70.37217-7.287,70.37217" fill="none" stroke="#2e0033" stroke-linecap="round" stroke-linejoin="round" stroke-width="2.21736"/><path d="M207.67492,599.90316l7.49521-94.10713s53.29973,7.49521,114.09458-16.65623l23.31858,109.0977" fill="none" stroke="#2e0033" stroke-linecap="round" stroke-linejoin="round" stroke-width="2.21736"/><line x1="324.26783" y1="475.8149" x2="471.67469" y2="599.07033" fill="none" stroke="#2e0033" stroke-linecap="round" stroke-linejoin="round" stroke-width="2.21736"/><path d="M243.82274,272.74967a77.52292,77.52292,0,0,1-6.72162-29.63818l-.007-.00026a77.52422,77.52422,0,0,1-10.89158,28.37213c-5.49871,8.96332-13.79186,17.56039-24.21982,16.20729,9.50475,1.48833,17.22956,7.75922,22.19666,15.9984,4.24439,7.04,4.88935,16.80123,6.56593,24.89271l-.00438.061.01044-.03013c.02266.10959.04174.22575.06451.3347l.04791-.65241c2.82534-7.76012,5.14755-17.0199,10.35548-23.38132,6.09444-7.44371,14.6369-12.54552,24.25663-12.65949C254.96106,292.10232,247.98316,282.40751,243.82274,272.74967Z" fill="#ffc15c"/><path d="M636.71733,532.263a77.522,77.522,0,0,1-6.72176-29.63818l-.007-.00026a77.52563,77.52563,0,0,1-10.89148,28.37213c-5.49884,8.96332-13.79186,17.5604-24.21995,16.20729,9.50472,1.48833,17.22956,7.75922,22.19666,15.9984,4.24442,7.04,4.88949,16.80123,6.566,24.89271l-.00437.061.01043-.03013c.02266.10959.04185.22575.06452.3347l.0479-.65241c2.82534-7.76,5.14753-17.01977,10.35546-23.38119,6.09446-7.44384,14.63693-12.54565,24.25665-12.65962C647.85552,551.61561,640.87761,541.9208,636.71733,532.263Z" fill="#ffc15c"/><path d="M492.92717,123.38184a8.6608,8.6608,0,0,1-3.373-2.99268,7.3157,7.3157,0,0,1-1.21777-4.05811v-3.19531h7.50683v1.72461c0,.23682.03321.38037.10156.43115a.73524.73524,0,0,0,.40528.07618h6.59472q1.01368,0,1.2168-.43116a1.5665,1.5665,0,0,0-.15234-1.24267l7.91308-2.07959a11.15875,11.15875,0,0,1-.17773,6.46679,9.10707,9.10707,0,0,1-3.627,4.6919,11.07757,11.07757,0,0,1-6.28907,1.72461h-4.05761A10.3721,10.3721,0,0,1,492.92717,123.38184Zm16.56054-.15235a9.993,9.993,0,0,1-3.2207-3.60107,25.55391,25.55391,0,0,1-2.207-5.73194l-.05078-.20263-2.78906-11.05762-.96387-3.70264,7.91211-2.23193,3.7539,14.9126.05078.10107a21.80851,21.80851,0,0,0,.68458,2.46045,2.376,2.376,0,0,0,.55761.96338,1.29857,1.29857,0,0,0,.83692.22852h2.48535l.50781,4.56494-.50781,4.56494h-2.48535A8.111,8.111,0,0,1,509.48771,123.22949Z"/><path d="M516.03068,115.36768h4.00781a7.9243,7.9243,0,0,0,2.46-.2793,1.26917,1.26917,0,0,0,.91308-1.01416,5.39018,5.39018,0,0,0-.22851-2.105l-2.0293-7.55762,7.81152-2.3335,2.0293,7.55762a13.53653,13.53653,0,0,1,.07519,7.55762,9.67966,9.67966,0,0,1-3.93066,5.35156,12.39768,12.39768,0,0,1-7.10059,1.95264h-4.00781Zm2.68848-24.90479h7.71v7.71h-7.71Z"/><path d="M531.55217,128.606l3.85449-1.06494a4.08886,4.08886,0,0,0,.60937-.15235,15.23492,15.23492,0,0,0,3.14453-1.26806,2.64964,2.64964,0,0,0,1.26758-1.41993,5.06068,5.06068,0,0,0,.05078-2.18115l-2.02832-14.55762,8.01368-1.21728,1.47168,10.49951.20214,1.42041.35547,2.78955a15.43281,15.43281,0,0,1-.33008,6.77149,9.69625,9.69625,0,0,1-3.24609,4.71728,18.76967,18.76967,0,0,1-6.416,3.11963l-.96387.3042-3.85547,1.06494Zm12.78222-5.45264a9.411,9.411,0,0,1-3.14453-4.36182,36.96261,36.96261,0,0,1-1.97851-8.19189L539.059,109.585l7.6084-1.21728.50684,2.94189.457,2.43506a3.32622,3.32622,0,0,0,.37988,1.06494,1.06288,1.06288,0,0,0,.50781.45654,1.82474,1.82474,0,0,0,.63379.10157h.25391l.50683,4.56494-.50683,4.56494h-.25391A8.21749,8.21749,0,0,1,544.33439,123.15332Z"/><path d="M550.62443,131.751l12.22363-2.9419.96387,4.41309-12.22363,2.94189Z"/><path d="M549.15275,115.36768h7.96387a7.06671,7.06671,0,0,0,2.43457-.30469,1.31218,1.31218,0,0,0,.8877-1.01416,5.29575,5.29575,0,0,0-.22852-2.07959l-1.97754-7.55762,7.81055-2.3335,2.13086,8.01417a12.608,12.608,0,0,1-.02539,7.30419,9.66611,9.66611,0,0,1-4.00782,5.19922,12.57441,12.57441,0,0,1-7.02441,1.90186h-7.96387Zm11.31153-24.499v6.84766H552.602V90.86865Zm5.73144,6.84766H558.3842V90.86865h7.81152Z"/><path d="M598.30217,124.396a38.42545,38.42545,0,0,1-4.74219-.40577,14.4483,14.4483,0,0,1-3.47461-1.01416l-.10156-.05078a9.45033,9.45033,0,0,1-3.98145-3.09424,10.38553,10.38553,0,0,1-1.90234-4.6665,13.491,13.491,0,0,1,.35449-5.52881l1.97852-7.50683,7.81152,2.33349-2.0293,7.9126a2.54609,2.54609,0,0,0-.07617,1.44531,2.146,2.146,0,0,0,1.09082.78614l.05078.05078a8.23869,8.23869,0,0,0,1.85156.40576q1.19092.15234,3.90528.22851,2.71289.07619,7.83691.07618l.35449,4.56494-.35449,4.56494Q601.19231,124.49756,598.30217,124.396Zm9.58691-26.52784v6.84766h-7.8623V97.86816Zm5.73145,6.84766H605.809V97.86816h7.81153Zm-7.65918,15.2168a26.02832,26.02832,0,0,1,.40527-4.56494h.55859q4.919,0,7.6084-.10157,2.688-.10107,3.87988-.25341a9.34667,9.34667,0,0,0,1.90235-.40625l.15234-.0503a1.71037,1.71037,0,0,0,1.06446-.93847,4.39024,4.39024,0,0,0-.20215-2.15577l-1.92774-7.05029,7.81153-2.3335,1.92675,7.05079a14.90128,14.90128,0,0,1,.457,5.78222,10.40449,10.40449,0,0,1-1.85156,4.81836,9.61444,9.61444,0,0,1-4.03222,3.1958,10.46517,10.46517,0,0,1-1.64844.65918,13.03465,13.03465,0,0,1-1.85156.40576q-1.01514.15236-2.28223.25391-1.21728.1018-2.86621.17725-1.64941.07617-3.67774.07617h-5.02148A26.03265,26.03265,0,0,1,605.96135,119.93262Z"/><path d="M634.77189,91.98437l7.96387-1.623,4.31055,21.354-7.96289,1.62354Zm2.94141,23.38331h12.17383l.50683,4.56494-.50683,4.56494H637.7133Zm11.667,0h1.166a3.99392,3.99392,0,0,0,2.0039-.33008,1.24666,1.24666,0,0,0,.43067-1.1919L652.018,88.6875l8.11523-.40576.96387,25.1582a11.09308,11.09308,0,0,1-1.1416,5.70654,9.49,9.49,0,0,1-3.72754,3.93067,11.07089,11.07089,0,0,1-5.68164,1.42041h-1.166Z"/><path d="M673.16838,127.74365a51.98407,51.98407,0,0,0,5.88379-1.52148,3.57687,3.57687,0,0,0,2.05371-1.36963,4.62473,4.62473,0,0,0,.22851-2.38379l-.8623-8.11572a6.05622,6.05622,0,0,0-1.11621-3.37305,2.76975,2.76975,0,0,0-2.333-1.03955,2.4017,2.4017,0,0,0-1.49609.48144,2.82815,2.82815,0,0,0-.93848,1.29346,4.50946,4.50946,0,0,0-.25391,1.82617,2.05326,2.05326,0,0,0,.584,1.42041,3.11912,3.11912,0,0,0,1.90136.40577h14.76075l.50683,4.56494-.50683,4.56494H676.81974a10.81912,10.81912,0,0,1-5.2998-1.26807,9.56311,9.56311,0,0,1-3.67773-3.57568,12.4266,12.4266,0,0,1-1.62305-5.40235,13.96484,13.96484,0,0,1,1.01465-6.49218,11.63009,11.63009,0,0,1,3.75293-4.92041,9.93444,9.93444,0,0,1,5.63086-2.02881,9.76025,9.76025,0,0,1,5.73144,1.4458,12.07769,12.07769,0,0,1,4.21,4.51416,17.355,17.355,0,0,1,2.02832,6.61914l.86231,8.06494q.50684,5.02149-1.01367,7.9126a10.81,10.81,0,0,1-5.377,4.64111,57.585,57.585,0,0,1-11.31152,3.32276l-.65918.15185-1.62305-8.92724Z"/><path d="M691.07365,115.36768h.25391a5.43046,5.43046,0,0,0,2.3584-.38038,1.86149,1.86149,0,0,0,.83691-1.64843l8.11621.71a11.72344,11.72344,0,0,1-1.77539,5.57959,10.13071,10.13071,0,0,1-3.98242,3.57568,12.59856,12.59856,0,0,1-5.55371,1.29346h-.25391Zm7.30469,7.60839a9.04729,9.04729,0,0,1-3.09473-4.10888,12.09026,12.09026,0,0,1-.76074-5.52832l.55859-6.29,8.11524.812-.55762,6.188a2.52179,2.52179,0,0,0,.0752,1.09033.50109.50109,0,0,0,.48242.22852l.50683,4.56494-.50683,4.56494A7.94293,7.94293,0,0,1,698.37834,122.97607Zm4.7168-7.60839h16.48437a3.69985,3.69985,0,0,0,1.67383-.355,2.579,2.579,0,0,0,1.09082-.98926,2.6576,2.6576,0,0,0,.38086-1.395,2.50726,2.50726,0,0,0-.8877-1.95264,3.098,3.098,0,0,0-2.25781-.73535,3.58962,3.58962,0,0,0-1.749.583,9.84509,9.84509,0,0,0-2.00391,1.90234q-1.16748,1.36963-3.14453,4.1084l-4.51465,6.28955-6.29-5.78223,4.10938-5.63037q2.99121-4.10815,4.89453-6.23877a14.75238,14.75238,0,0,1,3.98144-3.24609,9.81979,9.81979,0,0,1,4.7168-1.11621,10.57392,10.57392,0,0,1,5.73242,1.62305,11.55856,11.55856,0,0,1,4.083,4.41308,12.8878,12.8878,0,0,1,1.49609,6.188,11.03826,11.03826,0,0,1-1.54687,5.68115,11.81974,11.81974,0,0,1-4.15918,4.21,10.6851,10.6851,0,0,1-5.60547,1.57227H703.09514Zm25.99511,8.14062a14.3056,14.3056,0,0,1-3.77832-2.40918l5.27442-6.69531a4.39039,4.39039,0,0,0,1.29394.68457,5.18866,5.18866,0,0,0,1.75.2793h.71l.50684,4.56494-.50684,4.56494h-.71A10.98436,10.98436,0,0,1,729.09025,123.5083Z"/><path d="M733.83244,115.36768H735.101a53.35131,53.35131,0,0,0,6.72071-.5835q3.67676-.53247,7.3291-1.395l11.86914-2.84033-.30469,2.43457-10.44824-4.21a4.09946,4.09946,0,0,0-3.01855-.25342,3.93839,3.93839,0,0,0-2.30762,1.82617l-.91309,1.623-7.10058-4.46387,1.01367-1.82568a12.60565,12.60565,0,0,1,4.46387-4.81885,10.99735,10.99735,0,0,1,5.78222-1.623,12.96546,12.96546,0,0,1,6.08692,1.57227l12.93457,6.69531-1.21778,10.24609-14.50683,4.36231a55.71938,55.71938,0,0,1-8.26758,1.7749,59.28324,59.28324,0,0,1-8.166.60889h-1.21777Zm28.0498,7.68408a10.53049,10.53049,0,0,1-3.70312-3.90528,10.81937,10.81937,0,0,1-1.36914-5.35156h8.11523a1.39769,1.39769,0,0,0,.584,1.09082,2.26646,2.26646,0,0,0,1.49609.48194h3.2461l.50683,4.56494-.50683,4.56494h-3.2461A9.53514,9.53514,0,0,1,761.88224,123.05176Z"/><path d="M769.74357,115.36768h.5586a4.08582,4.08582,0,0,0,1.7998-.38038,2.772,2.772,0,0,0,1.19238-1.04l3.95606-7.65918a9.21319,9.21319,0,0,1,3.42383-3.67725,9.86282,9.86282,0,0,1,4.81933-1.4458,9.42011,9.42011,0,0,1,4.94532,1.167,9.21917,9.21917,0,0,1,4.26074,4.311,11.61409,11.61409,0,0,1,.8623,6.08691,23.25113,23.25113,0,0,1-2.13086,7.25342,8.3272,8.3272,0,0,1-2.66308,3.373,7.10645,7.10645,0,0,1-3.72754,1.39453,7.43273,7.43273,0,0,1-4.00684-.86231l-7.8623-4.05762,3.95605-8.11572,8.82617,4.36231a1.69189,1.69189,0,0,0-.35547.17773,1.73549,1.73549,0,0,1-.35449.17725l.81153-1.87647a4.52391,4.52391,0,0,0,.43066-2.81543,2.38656,2.38656,0,0,0-1.34375-1.69922,2.60115,2.60115,0,0,0-2.15625-.07568,3.20667,3.20667,0,0,0-1.69922,1.69873l-2.99219,6.08691a12.45386,12.45386,0,0,1-4.13379,4.9961,10.1408,10.1408,0,0,1-5.85839,1.75h-.5586Z"/><rect x="583.24853" y="181.74147" width="209.22994" height="78.19705" rx="39.09848"/><path d="M632.5649,231.77051a5.47626,5.47626,0,0,1-2.06752-2.06753,5.57579,5.57579,0,0,1-.75331-2.81957,6.15359,6.15359,0,0,1,.71433-2.80071,10.01785,10.01785,0,0,1,1.98954-2.64728l2.82084-2.70387.61749.73444-2.74286,2.66489a9.20671,9.20671,0,0,0-1.81474,2.35677,5.17987,5.17987,0,0,0-.61875,2.39576,4.386,4.386,0,0,0,.63761,2.29892,4.87715,4.87715,0,0,0,1.7003,1.699,4.66579,4.66579,0,0,0,2.91458.61185A4.31522,4.31522,0,0,0,638.364,230.469a4.56325,4.56325,0,0,0,1.69507-3.58556,5.76756,5.76756,0,0,0-.57976-2.55044,12.85893,12.85893,0,0,0-2.2788-2.97427l-3.90238-3.94136.73445-.73319,3.8634,3.94011a13.339,13.339,0,0,1,2.43348,3.16793,6.72681,6.72681,0,0,1,.6909,2.81764,5.80528,5.80528,0,0,1-.57676,2.77116,5.56652,5.56652,0,0,1-2.21939,2.38952,5.47449,5.47449,0,0,1-2.80071.75331A5.64722,5.64722,0,0,1,632.5649,231.77051Z" fill="#fff" stroke="#fff" stroke-miterlimit="10" stroke-width="1.25"/><path d="M648.98308,232.19558a4.55414,4.55414,0,0,1-1.97069-.96585,2.88324,2.88324,0,0,1-.88787-1.60346,9.70923,9.70923,0,0,1-.30938-2.58817h.92686a10.77286,10.77286,0,0,0,.23141,2.31778,2.30576,2.30576,0,0,0,1.46889,1.62233,9.60843,9.60843,0,0,0,3.554.503h.77218q3.71059,0,5.00405-1.3142a3.32473,3.32473,0,0,0,.71433-3.43833l.96585-.2314a5.2445,5.2445,0,0,1-.01887,2.99313,3.93319,3.93319,0,0,1-2.06752,2.18322,10.39677,10.39677,0,0,1-4.71354.85015H652.112A12.747,12.747,0,0,1,648.98308,232.19558Zm11.99513-.52191a5.35969,5.35969,0,0,1-1.52548-2.00841,21.67531,21.67531,0,0,1-.96585-2.85982v-.07672l-2.1631-8.57694-.73445-2.85856.96585-.27038,2.89755,11.47448.039.07672a16.48449,16.48449,0,0,0,.77218,2.49259,4.71332,4.71332,0,0,0,1.19725,1.71916,3.06659,3.06659,0,0,0,2.12537.69546h1.89271l.078.50179-.078.54078h-1.89271A3.94416,3.94416,0,0,1,660.97821,231.67367Z" fill="#fff" stroke="#fff" stroke-miterlimit="10" stroke-width="1.25"/><path d="M668.59056,227.482a5.45516,5.45516,0,0,1-.947-2.70388,5.38235,5.38235,0,0,1,.57976-2.87868,5.65362,5.65362,0,0,1,1.87385-2.20209,5.34723,5.34723,0,0,1,5.46685-.42507,5.22519,5.22519,0,0,1,2.182,1.83486,5.47988,5.47988,0,0,1,.947,2.70513,5.8621,5.8621,0,0,1-.50305,2.87743,7.912,7.912,0,0,1-2.47247,3.05223,12.69677,12.69677,0,0,1-4.07593,2.0474,17.081,17.081,0,0,1-5.07951.73445h-1.4689v-1.04257h1.4689a17.17438,17.17438,0,0,0,4.09479-.46406,12.72054,12.72054,0,0,0,3.36161-1.31421,7.051,7.051,0,0,0,3.24465-3.43832,4.51387,4.51387,0,0,0-6.79116-5.58992,4.70894,4.70894,0,0,0-1.395,1.76284,4.3392,4.3392,0,0,0-.19713,3.38315,4.18886,4.18886,0,0,0,2.35677,2.53032l8.34428,3.74769a4.29407,4.29407,0,0,0,5.64167-2.0474,4.192,4.192,0,0,0,.1157-3.20692,4.25123,4.25123,0,0,0-2.20209-2.47247l-13.63884-7.186.42508-.88788,13.63884,7.186a5.65931,5.65931,0,0,1,2.08513,1.83486,5.34023,5.34023,0,0,1,.908,2.51146,4.89693,4.89693,0,0,1-.44393,2.607,5.42588,5.42588,0,0,1-1.75815,2.08639,5.14838,5.14838,0,0,1-5.15748.50179l-8.38327-3.70871A5.16688,5.16688,0,0,1,668.59056,227.482Z" fill="#fff" stroke="#fff" stroke-miterlimit="10" stroke-width="1.25"/><path d="M694.881,231.92519a3.48077,3.48077,0,0,1-1.71916-1.98955,13.53927,13.53927,0,0,1-.63761-3.97909l-.69547-17.77263h.96585l.69546,17.77263.039.65647a10.51293,10.51293,0,0,0,.5785,3.01325,2.53043,2.53043,0,0,0,1.39093,1.44877,7.73557,7.73557,0,0,0,2.85981.40621h.38609l.039.50179-.039.54078h-.38609A7.97981,7.97981,0,0,1,694.881,231.92519Z" fill="#fff" stroke="#fff" stroke-miterlimit="10" stroke-width="1.25"/><path d="M698.35707,231.48125h.57976q2.62779,0,3.554-1.27522a4.92,4.92,0,0,0,.92812-2.97552v-4.75127h.96585v4.75127a6.444,6.444,0,0,1-.46406,2.3769,4.59609,4.59609,0,0,1-1.68018,2.04739,5.58266,5.58266,0,0,1-3.30375.869h-.57976Zm7.39855.28926a4.67086,4.67086,0,0,1-1.699-1.95057,6.37626,6.37626,0,0,1-.59988-2.55044l.92812-.039a4.67976,4.67976,0,0,0,1.08155,3.01451,3.91337,3.91337,0,0,0,3.16793,1.23623q2.6259,0,3.53516-1.27522a4.99828,4.99828,0,0,0,.908-2.97552v-4.75127h.96585v4.75127a7.01866,7.01866,0,0,1-.42508,2.35677,4.33045,4.33045,0,0,1-1.64244,2.06752,5.65561,5.65561,0,0,1-3.34149.869A5.12009,5.12009,0,0,1,705.75562,231.77051Zm6.2013-15.9755v1.855h-1.89271v-1.855Zm2.62716-3.515v1.738H712.8448V212.28Zm.85015,19.49053a4.76908,4.76908,0,0,1-1.73928-1.95057,5.78484,5.78484,0,0,1-.57976-2.55044l.92812-.039a4.6267,4.6267,0,0,0,1.10041,3.01451,3.97452,3.97452,0,0,0,3.18806,1.23623,5.5725,5.5725,0,0,0,2.99312-.69546,3.18826,3.18826,0,0,0,1.42991-1.75814,3.946,3.946,0,0,0,.01887-2.22221l-1.274-4.75127.88788-.2314,1.27522,4.75127a4.87684,4.87684,0,0,1-.039,2.78184,4.28282,4.28282,0,0,1-1.738,2.25994,6.07563,6.07563,0,0,1-3.51629.908A5.28824,5.28824,0,0,1,715.43423,231.77051ZM717.288,215.795v1.855h-1.89272v-1.855Zm7.95945,15.10648a7.57851,7.57851,0,0,1-2.43475-4.01808l.85015-.30937a6.549,6.549,0,0,0,2.12537,3.49617,5.53881,5.53881,0,0,0,3.74644,1.411l.078.50179-.078.54078A6.31526,6.31526,0,0,1,725.24741,230.90149Z" fill="#fff" stroke="#fff" stroke-miterlimit="10" stroke-width="1.25"/><path d="M729.14853,231.48125h.42507a5.2464,5.2464,0,0,0,2.78185-.75331,5.18477,5.18477,0,0,0,1.9317-2.1065l2.82083-5.409a4.41247,4.41247,0,0,1,1.60346-1.75689,4.56671,4.56671,0,0,1,2.23981-.69546,4.34313,4.34313,0,0,1,2.29892.52065,4.78919,4.78919,0,0,1,2.16436,2.2612,6.65886,6.65886,0,0,1,.54078,3.39933,11.93618,11.93618,0,0,1-1.08281,3.96023,2.91354,2.91354,0,0,1-1.0237,1.19725,3.39943,3.39943,0,0,1-1.62233.59863,3.12776,3.12776,0,0,1-1.75814-.32824l-5.98751-3.09.4628-.88914,6.06548,3.09122a2.10194,2.10194,0,0,0,1.855.13457,2.05053,2.05053,0,0,0,1.23623-1.1394l.15469-.2314a8.86009,8.86009,0,0,0,.77217-4.88835,4.17554,4.17554,0,0,0-2.12411-3.26352,3.69146,3.69146,0,0,0-2.85982-.23266,3.63473,3.63473,0,0,0-2.20208,1.894l-2.74286,5.29205a6.42671,6.42671,0,0,1-2.2788,2.56931,5.91766,5.91766,0,0,1-3.24591.908h-.42507Z" fill="#fff" stroke="#fff" stroke-miterlimit="10" stroke-width="1.25"/></g></g></svg>