<?xml version="1.0" encoding="UTF-8"?>
<svg id="Layer_1" data-name="Layer 1" xmlns="http://www.w3.org/2000/svg" viewBox="0 0 900 600">
  <defs>
    <style>
      .cls-1 {
        fill: #fbeee5;
      }

      .cls-2 {
        fill: #fff;
        stroke: #fff;
        stroke-miterlimit: 10;
        stroke-width: 1.25px;
      }

      .cls-3 {
        opacity: .28;
      }

      .cls-4 {
        fill: #6adeeb;
      }

      .cls-5 {
        fill: #ff9ebb;
      }

      .cls-6 {
        fill: #ffcfcf;
      }

      .cls-7 {
        fill: #ffc15c;
      }

      .cls-8 {
        fill: #2e0033;
      }

      .cls-9 {
        fill: #ff5e5c;
      }

      .cls-10 {
        fill: none;
        stroke: #2e0033;
        stroke-linecap: round;
        stroke-linejoin: round;
        stroke-width: 2.51px;
      }

      .cls-11 {
        fill: #ffbeff;
      }

      .cls-12 {
        fill: #a27cff;
      }
    </style>
  </defs>
  <rect class="cls-6" x=".33" width="899.67" height="600.45" rx="41.79" ry="41.79"/>
  <g>
    <g>
      <path class="cls-4" d="M93.77,450.54c-11.2-30.62-8.77-66.33,8.01-94.29,9.9-16.51,24.36-30,40.61-40.3,19.72-12.49,42.66-20.54,66-20.4,23.34,.14,47,8.99,62.93,26.06,10.9,11.68,17.88,26.81,20.48,42.58,2.35,14.24,.84,29.95-8.16,41.22-3.09,3.86-7.06,7.13-11.73,8.73-4.07,1.39-8.46,1.47-12.76,1.65-16.6,.72-33.97,3.73-46.92,14.16-4.3,3.46-8.14,7.99-9,13.44-.98,6.22,2.04,12.26,4.03,18.23,4.91,14.72,3.24,32.12-6.61,44.11-12.8,15.59-38.98,17.7-55.45,7.43-23.22-14.48-42.01-36.89-51.43-62.65Z"/>
      <path class="cls-11" d="M444.04,375.45c-8.08-.59-15.51,4.19-21.87,9.23-37.13,29.44-60.32,73.97-70.73,120.23-4.19,18.64-5.94,39.94,5.55,55.19,11.01,14.61,30.93,19.14,49.2,19.67,66.32,1.94,131.95-38.86,159.61-99.23,10.24-22.35,14.44-51.54-2.51-69.33-8.95-9.4-22.18-12.91-34.83-11.91-16.02,1.26-23.6,10.99-37.15,17.08-28.73,12.92-21.27-39.03-47.29-40.94Z"/>
    </g>
    <g>
      <path class="cls-12" d="M235.74,419.77s-89.57,15.38-115.03,76.48c-25.47,61.1-21.95,104.17-21.95,104.17H483.8s-4.83-102.41-39.08-130.1c-34.25-27.69-67.18-40.44-67.18-40.44l-141.81-10.11Z"/>
      <g>
        <polygon class="cls-5" points="377.55 429.88 332.32 521.73 233.98 419.33 264.27 407.46 266.47 358.25 283.13 365.04 361.32 396.9 361.32 421.98 377.55 429.88"/>
        <path class="cls-8" d="M361.32,396.9v21.28c-4.15,1.89-8.72,2.92-13.28,3.41-17.9,1.96-36.94-4.67-48.44-18.57-7.51-9.04-15.06-23.99-16.35-35.87-.08-.72-.1-1.42-.1-2.12l78.18,31.87Z"/>
      </g>
      <path class="cls-1" d="M430.68,231.02s.03,.03,0,.05c-.34,1.99-.75,3.9-1.13,5.73v.05c-3.51,15.44-8.62,25.54-9.85,27.32-2.48,3.54-116.38,49.14-160.34,66.65-6.27,2.5-11.12,4.42-14.01,5.58h-.03c-1.13,.46-1.99,.77-2.48,.98-.34,.13-.52,.21-.52,.21,0,0-10.03-6.07-20.64-20.25t-.03-.05c-1.55-2.04-3.1-4.29-4.64-6.69v-.03c-5.93-9.32-11.63-21.3-15.4-36.31-1.93-7.67-3.38-16.17-4.08-25.49-3.51-46.77,19.68-86.15,47.72-110.68,5.34-4.67,11.12-8.81,17.18-12.34t.05-.05c3.04-1.78,6.14-3.41,9.34-4.91,8.98-4.24,18.49-7.33,28.3-9.27,23.58-4.67,61.57-8.7,89.66,5.24,.98,.49,1.93,.98,2.89,1.52,10.16,5.63,18.86,13.82,24.81,25.44,17.23,33.52,17.26,64.92,13.18,87.28Z"/>
      <path class="cls-8" d="M402.46,270.43c-4.55-45.51-28.68-89.61-64.54-117.95l1.6-2.03c36.4,28.77,60.89,73.52,65.51,119.72l-2.57,.26Z"/>
      <path class="cls-8" d="M430.68,231.02s.03,.03,0,.05c-.34,1.99-.75,3.9-1.13,5.73-8.64-37.08-35.93-63.29-52.54-76.28l-.77-.59c-8.69-6.82-17.69-13.87-28.12-14.02l.05-2.58c11.27,.18,21.05,7.82,29.66,14.56l.77,.59c26.41,20.68,44.44,45.94,52.08,72.54Z"/>
      <g>
        <path class="cls-9" d="M385.34,178.84c12.46,1.27,25.34,4.86,34.14,13.78,8.8,8.92,11.91,24.3,4.17,34.16,8.15-1.18,15.14,6.76,16.78,14.84,2.07,10.17-2.03,21.35-10.18,27.77-4.97,3.91-11.13,6.05-17.33,7.27-20.1,3.97-41.85-1.42-57.79-14.31-15.94-12.89-25.76-33.05-26.11-53.56-.18-10.62,2.2-22.69,12.94-26.66,12.94-4.79,29.88-4.67,43.37-3.3Z"/>
        <g>
          <path class="cls-5" d="M418.17,317.42c.05,2.42-3.07,5-3.24,7.75-.16,2.64,2.65,5.44,2.23,8.42-1.16,8.24-3.48,17.79-7.66,28.97-12.51,33.39-49.34,48.34-49.34,48.34,0,0-74.6-13.94-87.75-43.12-1.01-2.25-1.96-4.54-2.86-6.89-2.01-5.16-3.74-10.54-5.26-15.88-.49-1.65-.93-3.33-1.37-4.98-.98-3.8-1.86-7.51-2.63-11.1-.41-1.86-.8-3.69-1.13-5.45-1.78-8.99-2.89-16.58-3.48-21.15-.1-.28-.18-.57-.26-.85-1.75-5.4-3.02-11.05-3.66-16.89-5.16-46.53,28.35-88.42,74.86-93.56,46.48-5.16,88.32,28.38,93.48,74.91l.08,.8c.31,3.05,.46,6.09,.44,9.09-.05,8.57-1.42,16.94-3.9,24.82,.59,4.73,1.34,10.2,1.47,16.78Z"/>
          <g>
            <path class="cls-5" d="M275.21,307.94c14.83,10.31,19.53,29.23,10.49,42.28-9.04,13.04-28.4,15.26-43.23,4.96-14.83-10.31-19.53-29.23-10.49-42.28,9.04-13.04,28.4-15.26,43.23-4.96Z"/>
            <path class="cls-8" d="M267.33,350.75c-.6,.07-1.15-.36-1.23-.96-.89-6.64-8.05-11.82-14.18-12.49-1.4-.15-4-.18-5.69,1.39-1.29,1.2-1.82,3.11-2.2,5-.12,.6-.71,1-1.32,.88-.6-.12-1-.71-.88-1.32,.45-2.26,1.11-4.57,2.87-6.2,1.73-1.61,4.38-2.31,7.45-1.97,4.55,.5,9.62,3.13,12.87,7.13-.81-4.16-1.93-7.69-3.43-10.81-2.94-6.13-7.46-10.73-12.73-12.96-5.87-2.48-12.76-1.7-17.14,1.96-.48,.39-1.18,.33-1.57-.14-.39-.47-.33-1.18,.14-1.57,5.01-4.17,12.82-5.1,19.44-2.3,5.77,2.44,10.69,7.43,13.87,14.06,3.21,6.69,4.22,14.11,4.69,19.11,.06,.61-.38,1.15-.98,1.22,0,0,0,0,0,0Z"/>
            <g>
              <path class="cls-9" d="M304.37,285.49c-7.11,5.44,11.69-14.78,19.91-17.81,3.62-1.33,7.47-1.71,11.29-1.95,4.39-.28,8.85-.38,13.18,.41,2.08,.38,3.48,2.38,3.28,4.49l-.17,1.73c-.23,2.41-2.45,4.09-4.84,3.71-8.34-1.33-27.05-2.52-42.64,9.41Z"/>
              <path class="cls-9" d="M420.16,266.74c.31,3.05,.45,6.09,.42,9.09-8.44-.95-15.88,.09-20.33,1.04-2.35,.51-4.66-1.06-5.01-3.45l-.26-1.73c-.3-2.1,.98-4.16,3.06-4.66,4.27-1.01,8.73-1.12,13.14-1.07,3.02,.05,6.04,.16,8.98,.78Z"/>
              <g>
                <g>
                  <path class="cls-8" d="M342.86,303.75c.39,4.63-2.66,8.68-6.82,9.03-4.16,.35-7.85-3.12-8.24-7.76-.39-4.63,2.66-8.68,6.82-9.03,4.16-.35,7.85,3.12,8.24,7.75Z"/>
                  <path class="cls-8" d="M407.84,301.92c.39,4.63-2.41,8.65-6.25,8.98-3.85,.32-7.28-3.17-7.67-7.8-.39-4.63,2.41-8.65,6.25-8.98,3.85-.32,7.28,3.17,7.67,7.8Z"/>
                  <path class="cls-10" d="M354.72,345.38s6.59,15.82,21.07,5.27"/>
                </g>
                <g>
                  <path class="cls-8" d="M377.12,341.89c-.22,.02-.44-.02-.65-.13-.54-.29-.74-.97-.45-1.51l.11-.21c.31-.58,.64-1.19,1.03-1.82,1.11-1.96,2.44-4.16,3.78-6.38,1.83-3.04,3.72-6.17,5.14-8.83-1.05-.66-1.93-1.27-2.73-1.9-2.63-1.99-4.57-4.12-5.93-6.52-2.17-3.83-2.99-8.62-2.52-14.66,.2-2.46,.58-4.92,.95-7.29,.36-2.3,.73-4.69,.93-7.03,.05-.62,.59-1.08,1.2-1.02,.62,.05,1.07,.59,1.02,1.21-.2,2.42-.58,4.85-.95,7.19-.36,2.33-.74,4.74-.93,7.12-.43,5.58,.3,9.96,2.24,13.38,1.21,2.12,2.96,4.04,5.35,5.85,.96,.76,2.05,1.49,3.42,2.31,.51,.3,.69,.95,.42,1.47-1.49,2.91-3.63,6.45-5.69,9.88-1.33,2.21-2.65,4.39-3.77,6.37-.38,.62-.69,1.19-.98,1.73l-.11,.21c-.18,.34-.51,.54-.86,.58Z"/>
                  <g class="cls-3">
                    <path class="cls-8" d="M386.71,325.38c-2.42,4.72-6.57,11.14-9.44,16.21-.35-.14-.73-.32-1.09-.53-1.16,.44-2.46-.13-3.54-.75-2.32-1.32-4.6-2.96-6.02-5.23-1.44-2.27-1.89-5.32-.55-7.65,1.7-2.95,5.66-3.89,8.99-3.2,1.66,.36,3.38,1.11,4.2,2.59,.32-1.39,3.27-6.07,6.61-5.29,1.13,.89,1.88,1.42,.85,3.86Z"/>
                  </g>
                </g>
              </g>
            </g>
          </g>
        </g>
        <path class="cls-9" d="M252.06,300.21c-.2,.46,0,1.06,.43,1.31,4.7-2.11,10.03,1.26,13.54,5.04,4.91,5.28,8.57,11.7,10.62,18.61,10.39-9.74,12.87-25.87,5.8-38.23,15.44-10.39,23.97-31.17,21.33-49.6,11.5-4.01,22.56-10.4,29.76-20.23,7.2-9.83,9.86-23.54,4.55-34.5-23.54,3.56-43.07,13.39-64.65,18.67-8.96,2.19-18.52,4.35-25.07,10.86-3.71,3.69-6.13,8.5-7.89,13.43-8.69,24.26,5.56,49.6,11.59,74.66Z"/>
      </g>
      <path class="cls-1" d="M344.47,180.43c-25.05,18.08-42.59,44.67-57.11,71.92-9.11,17.07-17.28,34.73-22.47,53.35-2.37,8.55-4.36,16.81-5.55,25.13-1.34,9.84-1.55,19.7,.1,30.06-2.27,1.06-4.8,1.21-7.53,.57-1.03-.21-2.12-.57-3.2-1.03-4.54-1.86-9.44-5.55-14.29-10.48-1.93-1.94-3.84-4.05-5.75-6.35-15.32-18.59-28.73-47.62-27.14-68.46,.03-.28,.05-.57,.08-.85,.9-10.48,3.71-20.76,8.1-30.29,.93-2.01,1.93-4,3.02-5.97,9.7-17.82,25.05-32.59,43.54-40.9,11.84-5.32,24.66-8.11,37.45-10.28,3.38-.57,6.86-1.11,10.37-1.6,1.29-.21,2.58-.36,3.87-.54,12.17-1.65,24.71-2.92,36.5-4.26Z"/>
      <g>
        <path class="cls-8" d="M392.68,118.3c-13.83,6.04-27.88,14.62-41.66,25.23-.98,.75-1.96,1.52-2.91,2.3-2.37,1.89-4.75,3.82-7.09,5.84-.67,.57-1.34,1.14-2.01,1.73-10.73,9.32-21.18,19.83-31.03,31.3-9.03,10.46-17.59,21.69-25.48,33.57-10.78,16.19-25.95,40.93-33.4,68.56-4.57,16.99-5.8,33.96-3.77,49.58h.03c1.13,8.86,3.33,17.28,6.58,25.05l-3.2-1.03c-2.81-7.2-4.77-14.95-5.88-23.03-2.22-16.14-.98-33.67,3.77-51.23,7.53-27.99,22.85-52.99,33.74-69.33,7.4-11.1,15.35-21.69,23.73-31.58h.03c26.18-30.91,56.41-55.21,85.69-68.46,.98,.49,1.93,.98,2.89,1.52Z"/>
        <path class="cls-8" d="M212.74,238.01c-2.24,26.03,.83,52.99,8.92,79.28t.03,.05c3.38,11,7.61,21.92,12.74,32.59-1.93-1.94-3.84-4.05-5.75-6.35-4.75-10.82-8.64-21.85-11.66-32.98v-.03c-5.98-22.16-8.49-44.62-7.3-66.6,.39-6.77,1.11-13.48,2.17-20.14,6.19-38.27,24.35-72.92,50.56-98.08t.05-.05c3.04-1.78,6.14-3.41,9.34-4.91-29.87,25.07-50.71,62.13-57.39,103.45-.75,4.57-1.32,9.14-1.7,13.76Z"/>
      </g>
      <g>
        <path class="cls-1" d="M317.9,333.61c7.4,2.36,15.71,.83,22.41-3.11,2.69-1.58,5.3-3.73,6.18-6.72,.89-2.99-.72-6.85-3.8-7.34-1.19-.19-2.39,.12-3.55,.42-6.14,1.58-12.71,2.82-18.74,.86-3.12-1.01-5.94-2.85-9.11-3.7-7.97-2.15-8.99,3.16-5.95,9.02,2.59,5,7.21,8.86,12.57,10.57Z"/>
        <path class="cls-1" d="M417.16,333.58c-3.77,.93-7.71,1.06-11.5,.18-5.49-1.27-10.42-4.73-13.41-9.48-3.51-5.58-2.94-10.95,5.18-9.48,3.22,.57,6.19,2.17,9.39,2.92,3.74,.88,7.58,.57,11.35-.31,.1,4.75-.15,10.1-1.01,16.17Z"/>
      </g>
      <g>
        <line class="cls-10" x1="429.36" y1="528.34" x2="448.24" y2="599.98"/>
        <polyline class="cls-10" points="235.74 419.77 333.64 523.06 376.23 600.42"/>
        <polyline class="cls-10" points="215.54 425.48 322.23 535.81 354.28 601.3"/>
        <line class="cls-10" x1="377.55" y1="429.88" x2="333.64" y2="523.06"/>
        <line class="cls-10" x1="392.04" y1="436.91" x2="343.74" y2="539.76"/>
        <line class="cls-10" x1="207.2" y1="540.2" x2="209.39" y2="599.98"/>
      </g>
    </g>
    <g>
      <path class="cls-7" d="M465.8,328.35c.14-9.56,1.74-18.28,5.44-27.1h0c-5.3,7.95-11.68,14.1-19.57,19.49-7.89,5.39-17.96,9.44-26.1,4.44,7.33,4.77,11.4,12.85,12.45,21.54,.9,7.42-2.19,15.76-3.81,23.1l-.03,.05s.01-.01,.02-.02c-.02,.1-.05,.2-.07,.3l.28-.52c5.23-5.39,10.59-12.21,17.27-15.55,7.82-3.91,16.8-4.97,24.81-1.48-8.66-4.04-10.84-14.68-10.7-24.24Z"/>
      <path class="cls-7" d="M171.07,524.61c-4.4-8.49-7.12-16.93-8.02-26.45h0c-.9,9.52-3.62,17.96-8.02,26.45-4.4,8.49-11.35,16.83-20.89,16.28,8.71,.73,16.12,5.92,21.16,13.07,4.3,6.11,5.52,14.92,7.57,22.15v.06s0-.02,0-.03c.03,.1,.05,.2,.08,.3v-.6c2.06-7.22,3.56-15.78,7.86-21.89,5.04-7.15,12.45-12.34,21.16-13.07-9.54,.55-16.49-7.79-20.89-16.28Z"/>
    </g>
  </g>
  <g>
    <path d="M500.17,141.75c-3.38-2.1-5.52-5.4-6.41-9.92-.9-4.52-.36-9.63,1.6-15.35l7.7,3.04c-1.28,3.65-1.82,6.7-1.6,9.13s1.13,4.14,2.74,5.1c1.6,.96,3.83,1.12,6.67,.48l.81-.2c2.13-.51,3.67-.95,4.64-1.32,.96-.37,1.59-.78,1.88-1.22s.4-1.07,.33-1.88c0-.17-.59-.43-1.77-.79-1.18-.36-2.6-.74-4.26-1.14l2.48-8.68c1.99,1.01,3.86,2.11,5.6,3.3,1.74,1.18,3.16,2.4,4.26,3.65,1.1,1.25,1.68,2.42,1.75,3.5,.13,2.33-.2,4.35-.99,6.04-.79,1.69-2.15,3.15-4.05,4.36-1.91,1.22-4.49,2.23-7.73,3.04l-1.12,.25c-4.97,1.15-9.14,.68-12.52-1.42Zm24.94-10.63c-.71-.05-1.5-.16-2.38-.33-.61-.13-1.39-.34-2.33-.61-.95-.27-2.08-.62-3.4-1.04-1.32-.42-2.82-.91-4.51-1.45l2.48-8.68c.34,.07,.56,.13,.66,.2,4.83,1.32,7.91,2.12,9.22,2.41,1.32,.29,2.47,.43,3.45,.43l.51,4.57-.51,4.57c-1.42,0-2.48-.03-3.19-.08Z"/>
    <path d="M527.8,122.07h9.73c1.08,0,1.77-.08,2.08-.25,.3-.17,.42-.51,.35-1.01l-.56-6.24,8.11-.81,.56,6.24c.2,2.17-.11,4.1-.94,5.81-.83,1.71-2.07,3.04-3.73,3.98-1.66,.95-3.62,1.42-5.88,1.42h-9.73v-9.13Zm9.68-20.25v6.85h-7.86v-6.85h7.86Zm5.73,6.85h-7.81v-6.85h7.81v6.85Zm-.13,19.84c-1.81-1.79-2.85-4.38-3.12-7.76l8.11-.71c.07,.68,.15,1.14,.25,1.4s.3,.42,.61,.51c.3,.08,.83,.13,1.57,.13l.51,4.57-.51,4.57c-3.14,0-5.62-.9-7.43-2.69Z"/>
    <path d="M550,122.07h2.38c1.05,0,1.71-.11,2-.33s.43-.67,.43-1.34v-6.29h7.6v6.29c0,1.83-.4,3.57-1.19,5.23-.79,1.66-1.95,3-3.47,4.03-1.52,1.03-3.31,1.55-5.37,1.55h-2.38v-9.13Zm9.38,7.48c-1.49-1.1-2.62-2.49-3.4-4.19-.78-1.69-1.17-3.35-1.17-4.97h7.6c.03,.58,.2,1,.51,1.27,.3,.27,.86,.41,1.67,.41,1.01,0,1.67-.11,1.98-.33,.3-.22,.46-.67,.46-1.34v-6.29h7.6v6.29c0,1.83-.4,3.57-1.19,5.23-.79,1.66-1.95,3-3.47,4.03-1.52,1.03-3.31,1.55-5.37,1.55s-3.73-.55-5.22-1.65Zm12.17,.1c-1.49-1.03-2.61-2.38-3.37-4.03-.76-1.66-1.14-3.4-1.14-5.23h7.6c0,.64,.14,1.08,.43,1.32s.87,.35,1.75,.35,1.45-.1,1.82-.3c.37-.2,.58-.54,.63-1.01,.05-.47-.04-1.17-.28-2.08l-2.03-7.56,7.81-2.33,2.03,7.56c.74,2.67,.8,5.15,.18,7.43-.63,2.28-1.83,4.09-3.62,5.43s-3.97,2-6.54,2c-2.03,0-3.79-.52-5.27-1.55Z"/>
    <path d="M599.47,134.45c2.8-.61,4.76-1.12,5.88-1.52,1.12-.41,1.8-.86,2.05-1.37,.25-.51,.33-1.3,.23-2.38l-.86-8.12c-.13-1.52-.51-2.65-1.11-3.37-.61-.73-1.39-1.07-2.33-1.04-.58,0-1.07,.16-1.5,.48-.42,.32-.74,.75-.94,1.29-.2,.54-.29,1.15-.25,1.83,.07,.68,.26,1.15,.58,1.42s.95,.41,1.9,.41h14.75l.51,4.57-.51,4.57h-14.75c-1.99,0-3.76-.42-5.3-1.27-1.54-.84-2.76-2.04-3.67-3.58s-1.45-3.34-1.62-5.4c-.17-2.3,.17-4.46,1.01-6.5,.84-2.03,2.09-3.67,3.75-4.92,1.66-1.25,3.53-1.93,5.63-2.03,2.09-.1,4,.38,5.73,1.45,1.72,1.07,3.12,2.57,4.21,4.52,1.08,1.95,1.76,4.15,2.03,6.62l.86,8.07c.34,3.35,0,5.99-1.01,7.92-1.01,1.93-2.8,3.48-5.37,4.64-2.57,1.17-6.33,2.28-11.3,3.32l-.66,.15-1.62-8.93,3.7-.81Z"/>
    <path d="M617.36,122.07h3.04v9.13h-3.04v-9.13Zm2.54,0h7.96c1.12,0,1.93-.1,2.43-.3,.51-.2,.8-.54,.89-1.01,.08-.47,0-1.17-.23-2.08l-1.98-7.56,7.81-2.33,2.13,8.02c.71,2.67,.7,5.11-.03,7.31-.73,2.2-2.06,3.93-4,5.2-1.94,1.27-4.28,1.9-7.02,1.9h-7.96v-9.13Zm1.77,13.09h8.52v7.46h-8.46l-.05-7.46Zm4.21,6.34h6.54v5.99h-6.54v-5.99Zm2.08-6.34h8.57l-.05,7.46h-8.46l-.05-7.46Z"/>
    <path d="M669,131.1c-1.93-.07-3.51-.2-4.74-.41-1.23-.2-2.39-.54-3.47-1.01l-.1-.05c-1.66-.71-2.98-1.74-3.98-3.09-1-1.35-1.63-2.91-1.9-4.67-.27-1.76-.15-3.6,.35-5.53l1.98-7.51,7.81,2.33-2.03,7.92c-.17,.71-.19,1.19-.08,1.45,.12,.25,.48,.52,1.09,.79l.05,.05c.44,.17,1.06,.3,1.85,.41,.79,.1,2.09,.18,3.9,.23s4.42,.08,7.83,.08l.35,4.57-.35,4.57c-3.79,0-6.64-.03-8.57-.1Zm9.83-26.54v6.85h-7.86v-6.85h7.86Zm5.73,6.85h-7.81v-6.85h7.81v6.85Zm-7.25,10.66h12.22c1.08,0,1.77-.08,2.08-.25,.3-.17,.42-.51,.35-1.01l-.56-6.24,8.11-.81,.56,6.24c.2,2.17-.11,4.1-.94,5.81-.83,1.71-2.08,3.04-3.75,3.98-1.67,.95-3.62,1.42-5.85,1.42h-12.22v-9.13Zm17.77,6.44c-1.81-1.79-2.85-4.36-3.12-7.71l8.11-.81c.07,.68,.15,1.14,.25,1.4s.3,.43,.61,.53c.3,.1,.83,.15,1.57,.15h.56l.51,4.57-.51,4.57h-.56c-3.14,0-5.62-.9-7.43-2.69Z"/>
    <path d="M701.39,134.96h7.7v7.71h-7.7v-7.71Zm1.11-12.89h3.19c1.08,0,1.77-.08,2.08-.25,.3-.17,.42-.51,.36-1.01l-.56-6.24,8.11-.81,.56,6.24c.2,2.17-.11,4.1-.94,5.81-.83,1.71-2.07,3.04-3.73,3.98-1.66,.95-3.62,1.42-5.88,1.42h-3.19v-9.13Zm8.74,6.44c-1.81-1.79-2.85-4.36-3.12-7.71l8.11-.81c.07,.68,.15,1.14,.25,1.4,.1,.25,.3,.43,.61,.53,.3,.1,.83,.15,1.57,.15l.51,4.57-.51,4.57c-3.14,0-5.62-.9-7.42-2.69Z"/>
    <path d="M718.17,122.07h9.23c2.16,0,3.66-.03,4.49-.1,.83-.07,1.38-.22,1.65-.46,.27-.24,.37-.68,.3-1.32l-.71-9.44c-.14-1.39-.49-2.44-1.06-3.15-.58-.71-1.34-1.05-2.28-1.01-.58,0-1.06,.16-1.47,.48-.41,.32-.71,.74-.91,1.27-.2,.53-.29,1.11-.25,1.75,.07,.58,.3,1.01,.68,1.32,.39,.3,.97,.46,1.75,.46,1.42,0,2.66-.03,3.73-.1,1.06-.07,1.9-.15,2.51-.25l1.32,8.47c-.27,.03-1.06,.09-2.36,.18-1.3,.08-3.03,.13-5.2,.13-2.97,0-5.35-.84-7.12-2.51-1.77-1.67-2.66-4-2.66-6.98,0-2.27,.36-4.3,1.06-6.11,.71-1.81,1.78-3.26,3.22-4.36,1.44-1.1,3.2-1.73,5.3-1.9,2.09-.17,4,.22,5.7,1.17,1.71,.95,3.08,2.33,4.13,4.16,1.05,1.83,1.64,3.94,1.77,6.34l.66,10.05c.17,2.44-.18,4.46-1.04,6.09s-2.37,2.86-4.54,3.7c-2.16,.85-5.09,1.27-8.77,1.27h-9.12v-9.13Zm12.93-34.55v6.85h-7.86v-6.85h7.86Zm5.73,6.85h-7.8v-6.85h7.8v6.85Z"/>
    <path d="M747.77,95.38l8.11-.41,1.37,36.13-8.11,.36-1.37-36.08Z"/>
    <path d="M758.26,135.31l3.85-1.07c.2-.03,.41-.08,.61-.15,1.42-.44,2.47-.86,3.14-1.27,.68-.41,1.1-.88,1.27-1.42,.17-.54,.19-1.27,.05-2.18l-2.03-14.56,8.01-1.22,1.47,10.5,.2,1.42,.35,2.79c.37,2.64,.26,4.9-.33,6.77-.59,1.88-1.67,3.45-3.24,4.72s-3.71,2.31-6.41,3.12l-.96,.3-3.85,1.07-2.13-8.83Zm12.77-5.46c-1.28-.9-2.33-2.35-3.14-4.36-.81-2.01-1.47-4.75-1.98-8.2l-.15-1.01,7.6-1.22,.51,2.94,.46,2.44c.1,.47,.23,.83,.38,1.07,.15,.24,.32,.39,.51,.46,.19,.07,.4,.1,.63,.1h.25l.51,4.57-.51,4.57h-.25c-1.93,0-3.53-.45-4.82-1.34Z"/>
    <path d="M775.85,122.07h.56c.68,0,1.28-.13,1.8-.38,.52-.25,.92-.6,1.19-1.04l3.95-7.66c.81-1.55,1.95-2.78,3.42-3.68,1.47-.9,3.08-1.38,4.82-1.45,1.74-.07,3.39,.32,4.94,1.17,2.03,1.08,3.45,2.52,4.26,4.31,.81,1.79,1.1,3.82,.86,6.09-.24,2.27-.95,4.69-2.13,7.26-.64,1.42-1.53,2.54-2.66,3.37-1.13,.83-2.37,1.29-3.73,1.4s-2.69-.19-4-.86l-7.86-4.06,3.95-8.12,8.82,4.36c-.17,.07-.29,.13-.35,.18-.07,.05-.19,.11-.35,.18l.81-1.88c.47-1.08,.62-2.02,.43-2.82-.19-.79-.63-1.36-1.34-1.7-.71-.34-1.43-.36-2.15-.08s-1.29,.85-1.7,1.7l-2.99,6.09c-1.05,2.17-2.42,3.83-4.13,5-1.71,1.17-3.66,1.75-5.85,1.75h-.56v-9.13Z"/>
  </g>
  <g>
    <rect x="591.6" y="191.35" width="209.08" height="78.23" rx="39.11" ry="39.11"/>
    <g>
      <path class="cls-2" d="M640.88,241.4c-.88-.5-1.56-1.19-2.07-2.07-.5-.88-.75-1.82-.75-2.82,0-.93,.24-1.86,.71-2.8s1.14-1.82,1.99-2.65l2.82-2.7,.62,.73-2.74,2.67c-.8,.77-1.4,1.56-1.81,2.36-.41,.8-.62,1.6-.62,2.4s.21,1.59,.64,2.3,.99,1.27,1.7,1.7c.71,.43,1.5,.64,2.37,.64,1.29,0,2.38-.46,3.28-1.37s1.35-2,1.35-3.27c0-.9-.19-1.75-.58-2.55-.39-.8-1.14-1.79-2.28-2.98l-3.9-3.94,.73-.73,3.86,3.94c1.16,1.19,1.97,2.24,2.43,3.17,.46,.93,.69,1.96,.69,3.09,0,1.01-.25,1.95-.75,2.82-.5,.88-1.18,1.57-2.05,2.07s-1.79,.75-2.8,.75-1.98-.25-2.86-.75Z"/>
      <path class="cls-2" d="M657.29,241.83c-.85-.22-1.51-.54-1.97-.97-.46-.43-.76-.96-.89-1.6-.21-.75-.31-1.61-.31-2.59h.93c0,.85,.08,1.62,.23,2.32,.18,.75,.67,1.29,1.47,1.62,.8,.34,1.98,.5,3.55,.5h.77c2.47,0,4.14-.44,5-1.31,.86-.88,1.1-2.02,.71-3.44l.97-.23c.28,1.11,.28,2.11-.02,2.99-.3,.89-.99,1.62-2.07,2.18-1.08,.57-2.65,.85-4.71,.85h-.54c-1.24,0-2.28-.11-3.13-.33Zm11.99-.52c-.68-.57-1.19-1.24-1.52-2.01-.33-.77-.66-1.73-.97-2.86v-.08l-2.16-8.58-.73-2.86,.97-.27,2.9,11.48,.04,.08c.23,.98,.49,1.81,.77,2.49,.28,.68,.68,1.26,1.2,1.72,.52,.46,1.22,.7,2.12,.7h1.89l.08,.5-.08,.54h-1.89c-1.06,0-1.92-.28-2.61-.85Z"/>
      <path class="cls-2" d="M676.88,237.11c-.55-.81-.87-1.71-.95-2.7-.08-.99,.12-1.95,.58-2.88,.44-.9,1.06-1.64,1.87-2.2,.81-.57,1.7-.89,2.66-.97s1.9,.1,2.8,.54c.9,.41,1.63,1.02,2.18,1.84s.87,1.71,.95,2.71c.08,.99-.09,1.95-.5,2.88-.51,1.16-1.34,2.18-2.47,3.05-1.13,.88-2.49,1.56-4.07,2.05-1.58,.49-3.27,.73-5.08,.73h-1.47v-1.04h1.47c1.47,0,2.83-.15,4.09-.46,1.26-.31,2.38-.75,3.36-1.31,1.59-.9,2.68-2.05,3.24-3.44,.54-1.13,.61-2.29,.21-3.46-.4-1.17-1.16-2.04-2.3-2.61-.75-.36-1.52-.51-2.32-.44s-1.52,.32-2.18,.77c-.66,.45-1.16,1.04-1.52,1.76-.59,1.19-.68,2.36-.27,3.54,.41,1.17,1.2,2.02,2.36,2.53l8.34,3.75c1.08,.49,2.17,.53,3.26,.12,1.09-.41,1.89-1.13,2.38-2.16,.46-1.03,.5-2.1,.12-3.21-.39-1.11-1.12-1.93-2.2-2.47l-13.63-7.19,.42-.89,13.63,7.19c.87,.46,1.57,1.08,2.08,1.84,.52,.76,.82,1.6,.91,2.51s-.06,1.78-.44,2.61c-.41,.85-1,1.55-1.76,2.09s-1.6,.86-2.51,.95c-.91,.09-1.8-.06-2.65-.45l-8.38-3.71c-.93-.41-1.67-1.02-2.22-1.84Z"/>
      <path class="cls-2" d="M703.15,241.56c-.8-.4-1.37-1.06-1.72-1.99-.35-.93-.56-2.25-.64-3.98l-.69-17.78h.97l.69,17.78,.04,.66c.1,1.31,.3,2.32,.58,3.01,.28,.7,.75,1.18,1.39,1.45s1.6,.41,2.86,.41h.39l.04,.5-.04,.54h-.39c-1.52,0-2.68-.2-3.47-.6Z"/>
      <path class="cls-2" d="M706.63,241.11h.58c1.75,0,2.93-.43,3.55-1.28,.62-.85,.93-1.84,.93-2.98v-4.75h.97v4.75c0,.8-.15,1.59-.46,2.38s-.87,1.47-1.68,2.05-1.91,.87-3.3,.87h-.58v-1.04Zm7.39,.29c-.76-.5-1.33-1.15-1.7-1.95-.37-.8-.57-1.65-.6-2.55l.93-.04c.03,1.19,.39,2.19,1.08,3.02,.69,.82,1.75,1.24,3.17,1.24,1.75,0,2.93-.43,3.53-1.28,.6-.85,.91-1.84,.91-2.98v-4.75h.97v4.75c0,.77-.14,1.56-.42,2.36-.28,.8-.83,1.49-1.64,2.07s-1.92,.87-3.34,.87c-1.16,0-2.12-.25-2.88-.75Zm6.2-15.98v1.86h-1.89v-1.86h1.89Zm2.63-3.52v1.74h-1.74v-1.74h1.74Zm.85,19.5c-.77-.5-1.35-1.15-1.74-1.95s-.58-1.65-.58-2.55l.93-.04c.03,1.19,.39,2.19,1.1,3.02,.71,.82,1.77,1.24,3.19,1.24,1.26,0,2.26-.23,2.99-.7,.73-.46,1.21-1.05,1.43-1.76s.22-1.45,.02-2.22l-1.27-4.75,.89-.23,1.27,4.75c.26,.95,.24,1.88-.04,2.78s-.86,1.66-1.74,2.26c-.88,.61-2.05,.91-3.51,.91-1.18,0-2.16-.25-2.93-.75Zm1.85-15.98v1.86h-1.89v-1.86h1.89Zm7.95,15.11c-1.24-1.08-2.05-2.42-2.43-4.02l.85-.31c.33,1.39,1.04,2.56,2.12,3.5,1.08,.94,2.33,1.41,3.74,1.41l.08,.5-.08,.54c-1.62,0-3.05-.54-4.28-1.62Z"/>
      <path class="cls-2" d="M737.4,241.11h.42c1.03,0,1.96-.25,2.78-.75,.82-.5,1.47-1.21,1.93-2.11l2.82-5.41c.39-.75,.92-1.33,1.6-1.76,.68-.43,1.43-.66,2.24-.7,.81-.04,1.58,.13,2.3,.52,.98,.52,1.7,1.27,2.16,2.26,.46,.99,.64,2.12,.54,3.4-.1,1.28-.46,2.6-1.08,3.96-.21,.46-.55,.86-1.02,1.2s-1.02,.53-1.62,.6-1.19-.05-1.76-.33l-5.98-3.09,.46-.89,6.06,3.09c.62,.33,1.24,.38,1.85,.13,.62-.24,1.03-.62,1.24-1.14l.15-.23c.75-1.73,1-3.36,.77-4.89-.23-1.53-.94-2.62-2.12-3.26-.93-.46-1.88-.54-2.86-.23-.98,.31-1.71,.94-2.2,1.89l-2.74,5.29c-.57,1.11-1.33,1.97-2.28,2.57-.95,.61-2.03,.91-3.24,.91h-.42v-1.04Z"/>
    </g>
  </g>
</svg>