<?xml version="1.0" encoding="UTF-8"?>
<svg id="Layer_2" data-name="Layer 2" xmlns="http://www.w3.org/2000/svg" viewBox="0 0 1471.99 1461.5">
  <defs>
    <style>
      .cls-1 {
        fill: #f9cdcd;
      }

      .cls-2 {
        fill: #c4def2;
      }

      .cls-3 {
        fill: #fff;
      }

      .cls-4 {
        fill: #d5e9fa;
      }

      .cls-5 {
        fill: #eef8ff;
      }

      .cls-6 {
        fill: #b2b2b2;
      }

      .cls-7 {
        fill: #bfbfbf;
      }

      .cls-8 {
        fill: #d8d8d8;
      }

      .cls-9 {
        fill: #d3d3d3;
      }

      .cls-10 {
        fill: #efefef;
      }

      .cls-11 {
        fill: #fedbdb;
      }

      .cls-12 {
        fill: #a5a5a5;
      }

      .cls-13 {
        fill: #efbdbd;
      }

      .cls-14 {
        fill: #accfe5;
      }

      .cls-15 {
        fill: #ededed;
      }

      .cls-16 {
        fill: #fff5f5;
      }
    </style>
  </defs>
  <g id="Layer_1-2" data-name="Layer 1">
    <g>
      <path class="cls-10" d="M1280.45,906.14c59.71,65.97,45.54,147.53,59.71,127.14,12.45-17.91-1.67-145.7-104.06-280.27-9.33-10.24-18.62-20-27.66-29.17-13.28-13.48-26.55-26.25-39.41-38.16,37.52,47.51,102.71,133.21,121.8,178.48,27.33,64.77-38.46-32.38-81.98-98.35-43.52-65.97-87.04-104.42-111.33-113.98-15.18-5.97-13.94-19.49,1.53-19.4-21.23-6.89-47.9-10.22-78.72-3.05-81.22,18.89-117.65,7.27-165.47-4.01-10.95-2.58-25.95,1.27-42.57,8.72,7.18,3.78,5.36,13.07-6.52,17.74-14.4,5.67-35.56,21.49-59.47,47.18l50.22,20.36c28.22-22.46,55.5-38.46,76.64-41.42.65-.31,1.38-.5,2.15-.5h148.84c.77,0,1.5.19,2.15.5,42.23,5.92,109.02,63.89,158.69,121.38,15.38,17.8,29.75,36.15,42.78,54.57,21.25,19.86,39.83,38.07,52.66,52.24Z"/>
      <path class="cls-10" d="M729.43,686.65c-1.37,1.27-2.75,2.55-4.12,3.85l3.93,1.6c3.65-4.64,7.09-9,10.27-13-3.45,2.54-6.81,5.07-10.08,7.56Z"/>
      <path class="cls-8" d="M1236.1,753.01c102.39,134.57,116.51,262.36,104.06,280.27-14.17,20.39,0-61.17-59.71-127.14-12.83-14.17-31.4-32.38-52.66-52.24,13.64,19.27,25.81,38.61,36.11,57.46,22.95,42.03,35.89,79.89,38.45,112.53,2.26,28.79.13,56.75-6.09,83.12.94,2.33,1.77,4.71,2.44,7.15,19.32.44,37.58,7.33,51.78,19.61.87.76,1.72,1.53,2.55,2.32,1.65-2.47,3.29-4.99,4.93-7.55,10.77-44.01,12.77-88.93,10.36-130.06-5.04-85.98-69.58-176.73-132.21-245.47Z"/>
      <path class="cls-7" d="M1355.38,1138.43c.91-3.29,1.76-6.58,2.57-9.89-1.63,2.56-3.28,5.08-4.93,7.55.81.76,1.59,1.55,2.36,2.34Z"/>
      <path class="cls-7" d="M933.34,1355.93c.45-2.74,1.07-5.45,1.88-8.09-.38-.05-.75-.11-1.12-.17-16.24-2.64-29.57-12.41-37.32-25.59l-1.95,80.01c17.38,1.48,34.56,2.3,51.34,2.54-10.58-13.23-15.74-30.71-12.82-48.7Z"/>
      <path class="cls-1" d="M893.92,687.45h-13.96c-17.18,0-43.22,13.41-72.79,36.23l28.55,11.57c32.21-34.18,50.26-44.62,58.21-47.8Z"/>
      <path class="cls-1" d="M1292.84,1031.64c-.12-2.32-.27-4.64-.46-6.97-4.02-51.22-36.88-119.54-89.44-187.6,2.39,9.98,13.16,62.63-10.35,118.59,2.39,4.26,4.69,8.54,6.88,12.85,48.76,95.76,1.63,96.06-35.79,34.27-27.33,32.4-70.88,62.08-139.52,80.87-44.07,12.06-85.12,15.84-121.93,13.04l-3.18,130.6c10.69.89,21.48,1.39,32.33,1.5-.04-2.96.13-5.92.51-8.87.76-6.65,2.71-13.18,5.72-19.15,11.68-23.99,38.1-38.61,65.76-34.12,9.09,1.48,17.53,4.84,24.93,9.89-.62-13.45,2.95-27.21,10.47-39.86,10.08-16.96,26.44-30.39,46.06-37.83,19.87-7.53,40.94-8.26,59.81-2.15,14.27-21.99,40.57-36.21,69.71-37.42,22.17-.92,42.98,5.92,58.64,17.88,8.89-14.43,15.62-29.64,19.84-45.53Z"/>
      <path class="cls-8" d="M744.36,673c-4.9,4.41-9.88,8.96-14.93,13.64,3.27-2.49,6.63-5.01,10.08-7.56,1.69-2.13,3.31-4.16,4.85-6.08Z"/>
      <path class="cls-8" d="M812.31,634.09c16.61-7.46,31.61-11.31,42.57-8.72,47.82,11.28,84.25,22.9,165.47,4.01,30.83-7.17,57.49-3.84,78.72,3.05,3.16.02,6.92.61,11.25,1.94-23.17-19.13-41.04-32.63-49.25-38.7-5.18,6.16-16.14,11.34-32.78,15.47-21.32,5.29-49.58,8.2-79.57,8.2s-58.25-2.91-79.57-8.2c-15.79-3.92-26.48-8.79-31.95-14.55-9.09,6.75-27.58,20.8-51.13,40.36,12.58-5.45,21.43-5.4,26.24-2.86Z"/>
      <path class="cls-3" d="M805.79,651.83c11.88-4.67,13.7-13.96,6.52-17.74-4.81-2.53-13.66-2.59-26.24,2.86-12.66,10.52-26.79,22.63-41.71,36.06-1.54,1.92-3.16,3.95-4.85,6.08-3.18,4-6.62,8.35-10.27,13l17.08,6.92c23.91-25.69,45.07-41.52,59.47-47.18Z"/>
      <path class="cls-3" d="M1099.07,632.42c-15.47-.08-16.71,13.43-1.53,19.4,24.29,9.56,67.81,48.01,111.33,113.98,43.52,65.97,109.3,163.12,81.98,98.35-19.1-45.27-84.28-130.97-121.8-178.48-21.3-19.73-41.47-37.08-58.72-51.32-4.33-1.33-8.09-1.92-11.25-1.94Z"/>
      <path class="cls-11" d="M1024.18,1083.66c68.64-18.79,112.19-48.47,139.52-80.87-3.35-5.54-6.63-11.57-9.76-18.08-37.95-79.16-80.46-165.52-121.45-214.1,0,0,104.65,86,160.11,185.06,23.5-55.96,12.74-108.61,10.35-118.59-8.05-10.43-16.55-20.85-25.5-31.21-60.23-69.72-125.16-118.42-157.89-118.42h-125.64c-7.95,3.18-25.99,13.62-58.21,47.8l71.39,28.94c1.93.78,3.17,2.68,3.12,4.76l-7.97,327.74c36.81,2.81,77.85-.97,121.93-13.04Z"/>
      <path class="cls-13" d="M898.13,1265.85c7.86-12.02,20.4-20.49,35.04-23.08-1.13-4.57-1.71-9.26-1.77-13.98-10.84-.11-21.63-.61-32.33-1.5l-.94,38.56Z"/>
      <path class="cls-13" d="M1288.89,1093.55c3.73-19.89,5.08-40.64,3.95-61.91-4.21,15.89-10.95,31.11-19.84,45.53,6.18,4.72,11.55,10.23,15.89,16.38Z"/>
      <path class="cls-16" d="M1032.49,770.61c40.99,48.58,83.5,134.94,121.45,214.1,3.12,6.51,6.4,12.54,9.76,18.08,37.42,61.78,84.55,61.49,35.79-34.27-2.19-4.3-4.5-8.59-6.88-12.85-55.46-99.06-160.11-185.06-160.11-185.06Z"/>
      <path class="cls-11" d="M1289.43,155.44c-94.59,1.13-150.47,48.79-177.7,48.93-18.13.09-30.87,4.48-37.38,7.41,0,.13,0,.25-.01.36,2.16,2.12,6.08,6.32,10.11,12.3,2.32,1.98,4.74,4.28,7.12,6.9,7.21,1.28,17.7,6.78,29.52,24.51,22.12,33.19,74.88,69.78,181.25,56.16,86.81-11.11,122.59-68.37,132.82-89.05-1.33-4.14-2.89-8.21-4.68-12.17-19.39-18.11-68.86-56.22-141.04-55.35Z"/>
      <path class="cls-7" d="M845.54,380.5c7.11,3.39,22.04,9.78,52.46,20.73,5.36.7,10.95,1.28,16.71,1.74-37.55-18.63-45.92-25.69-69.17-22.47Z"/>
      <path class="cls-7" d="M1012.17,382.54c-4.38,6.1-13.52,14.05-25.63,20.11,7.15-.65,13.99-1.49,20.45-2.51,9.81-3.97,17.75-8.67,23.05-13.41,7.47-6.67,8.94-11.96,7.89-15.96-.38-.14-.77-.27-1.17-.41-.71-.24-1.44-.48-2.18-.72-7.38,1.38-16.56,4.76-22.4,12.89Z"/>
      <path class="cls-7" d="M975.64,418.69s-10.63-2.12-13.15-4.6c-4.54.14-9.14.22-13.78.22-2.45,0-4.88-.03-7.3-.07,17.72,2.56,35.57,4.66,49.64,6.19-8.78-1.86-15.41-1.74-15.41-1.74Z"/>
      <path class="cls-7" d="M1033.44,477.94c2.63-26.68-8.33-41.34-21.4-49.4-9.25,6.91-27.4,18.72-49.52,24.16-32.33,7.94-25.54,87.36,0,110.05,21.78,19.36,75.33,18.9,92.01,7.08v-7.51c-8.45-10.6-25.63-38.34-21.1-84.37Z"/>
      <path class="cls-7" d="M998.82,259.44c0-3.84-.4-7.66-1.18-11.35-2.07-9.79-6.9-18.8-13.68-26.03-4.69.28-12.84,1.92-24.83,8.25,0,0-19.29,12.48-17.02,47.08,1.38,20.95,7.11,31.08,11.43,35.82,3.17-.54,6.28-1.36,9.31-2.46,2.7-.98,5.3-2.17,7.78-3.54,3.3-6.46,6.44-17.09,4.95-33.22-2.84-30.63-1.13-32.9,4.54-18.72,3.17,7.93,10.8,21.39,9.71,34.18,2.2-3.35,4.06-6.96,5.5-10.78,2.32-6.14,3.49-12.61,3.49-19.24Z"/>
      <path class="cls-6" d="M955.66,343.26c1.54,8.14,3.32,16.34,6.31,20.94,4.69,7.21,14.28,7.73,20.64,7.15,1.15-.92,2.04-1.76,2.71-2.47l-12.43-25.21c-4.1-1.23-9.89-1.96-17.23-.41Z"/>
      <path class="cls-6" d="M947.23,355.77c-.5-2.74-1.14-6.04-1.75-9.53-15.42,4.23-16.69-2.63-26.62-1.47-1.5.18-3.03.73-4.55,1.54l-11.13,22.57c3.47,3.67,13.22,11.37,34.75,12.66,3.85-5.32,10.97-16.64,9.3-25.78Z"/>
      <path class="cls-7" d="M1069.35,241.38c-12.08,11.06-19.74,15.63-37.18,12.71-5.92-.99-10.65-1.65-13.21-2.46-.75,4.23.13,9.01,6.83,10.98,13.19,3.88,26.71-.37,37.61,9.41,7.33,6.58,18.56,2,24.24-6.36,0-1.25-.02-2.5-.11-3.74-.23-3.55-.79-6.94-1.57-10.14-4.35-8.59-10.36-16.1-16.61-10.39Z"/>
      <path class="cls-6" d="M903.8,606.96c13.92,1.56,29.15,2.38,44.91,2.38,29.21,0,56.61-2.81,77.16-7.91,22.67-5.63,28.66-12,28.66-14.59v-17.02c-16.69,11.82-70.23,12.28-92.01-7.08-25.54-22.69-32.33-102.11,0-110.05,22.12-5.44,40.27-17.25,49.52-24.16-6.98-4.31-14.56-6.74-20.99-8.1-14.07-1.52-31.92-3.63-49.64-6.19-8.88-.14-17.56-.53-25.91-1.17-7.56,9.55-19.34,30.73-21.61,71.67-3.01,54.25.12,107.45,9.91,122.21Z"/>
      <path class="cls-6" d="M847.84,592.44c1.1.72,2.41,1.46,3.96,2.23-1.47-.83-2.79-1.57-3.96-2.23Z"/>
      <path class="cls-6" d="M843.81,379.66c.52.26,1.09.54,1.73.84,23.25-3.21,31.62,3.85,69.17,22.47,10.83.87,22.26,1.33,34,1.33,13.13,0,25.88-.57,37.83-1.66,12.11-6.06,21.25-14.01,25.63-20.11,5.84-8.13,15.02-11.51,22.4-12.89-10.92-3.46-25.41-6.25-41.69-8.04l2.8,5.68c.75,1.51.68,3.3-.18,4.75-.47.8-12.06,19.7-51.25,19.7s-50.78-18.9-51.26-19.7c-.86-1.45-.92-3.24-.18-4.75l2.22-4.5c-33.33,4.62-47.69,12.21-51.23,16.87Z"/>
      <path class="cls-8" d="M991.06,420.43c6.43,1.36,14.01,3.79,20.99,8.1,13.06,8.06,24.03,22.73,21.4,49.4-4.54,46.04,12.65,73.77,21.1,84.37v-166.2s-.09.05-.13.08c-.19.12-.39.24-.58.35-.21.12-.41.25-.62.37-.2.12-.41.23-.62.35-.21.12-.43.24-.65.36-.22.12-.44.23-.66.35-.22.12-.45.23-.67.35-.23.12-.46.23-.7.35-.23.11-.46.23-.7.34-.24.12-.49.23-.74.35-.24.11-.49.22-.73.33-.25.11-.51.23-.77.34-.25.11-.51.22-.77.33-.27.11-.53.22-.8.33-.26.11-.53.21-.8.32-.28.11-.56.22-.84.33-.27.11-.55.21-.83.31-.29.11-.58.22-.87.32-.29.1-.58.21-.87.31-.3.11-.6.21-.9.32-.3.1-.6.2-.91.31-.31.1-.61.21-.93.31-.31.1-.64.2-.96.3-.31.1-.62.2-.94.3-.34.1-.68.21-1.02.31-.31.09-.62.19-.94.28-.37.11-.75.21-1.12.32-.3.09-.6.17-.91.26-.42.12-.85.23-1.28.34-.27.07-.54.15-.82.22-.71.19-1.43.37-2.16.55-18.01,4.47-41,7.24-65.79,7.99,2.51,2.48,13.15,4.6,13.15,4.6,0,0,6.63-.12,15.41,1.74Z"/>
      <path class="cls-8" d="M1030.04,386.74c-5.3,4.73-13.24,9.43-23.05,13.41,6.76-1.06,13.1-2.31,18.88-3.74,22.67-5.63,28.66-12.01,28.66-14.6,0-1.94-3.54-6.39-16.61-11.03,1.05,3.99-.42,9.28-7.89,15.96Z"/>
      <path class="cls-8" d="M843.81,379.66c-.62.81-.91,1.54-.91,2.15,0,2.59,5.99,8.97,28.66,14.6,7.9,1.96,16.81,3.58,26.45,4.83-30.43-10.95-45.35-17.34-52.46-20.73-.64-.3-1.21-.59-1.73-.84Z"/>
      <path class="cls-12" d="M842.89,586.84c0,1.2,1.3,3.22,4.95,5.6,1.18.66,2.49,1.4,3.96,2.23,4.41,2.18,10.77,4.53,19.75,6.76,9.46,2.35,20.38,4.2,32.24,5.53-9.79-14.76-12.92-67.96-9.91-122.21,2.27-40.94,14.05-62.12,21.61-71.67-17.29-1.33-33.16-3.69-46.36-6.96-.73-.18-1.46-.37-2.17-.55-.24-.06-.47-.13-.7-.19-.47-.12-.94-.25-1.4-.38-.28-.08-.55-.15-.82-.23-.41-.11-.82-.23-1.22-.35-.28-.08-.56-.17-.84-.25-.38-.11-.76-.23-1.13-.34-.28-.09-.56-.18-.84-.26-.35-.11-.71-.22-1.06-.34-.28-.09-.56-.18-.83-.28-.34-.11-.68-.23-1.01-.34-.27-.09-.54-.19-.8-.28-.33-.11-.65-.23-.97-.34-.26-.1-.52-.19-.78-.29-.31-.12-.62-.23-.92-.35-.26-.1-.51-.2-.76-.3-.29-.12-.59-.23-.88-.35-.25-.1-.49-.2-.74-.31-.28-.12-.56-.24-.84-.36-.23-.1-.47-.2-.7-.31-.27-.12-.54-.25-.81-.37-.22-.1-.44-.21-.66-.31-.26-.12-.52-.25-.78-.38-.21-.11-.43-.21-.63-.32-.25-.13-.49-.25-.74-.38-.2-.11-.41-.22-.61-.32-.24-.13-.47-.26-.69-.39-.19-.11-.39-.22-.58-.33-.22-.13-.44-.26-.66-.39-.18-.11-.37-.22-.55-.33-.05-.03-.1-.06-.14-.09v190.73Z"/>
      <path class="cls-12" d="M972.89,343.67l-10.91-22.13c-.21.06-.42.11-.63.17-.3.08-.61.16-.91.24-.53.14-1.06.26-1.59.39-.33.08-.65.15-.98.22-.52.11-1.04.21-1.57.31-.72.14-1.44.26-2.17.37-.34.05-.68.11-1.03.16-.53.07-1.05.13-1.58.19-.13.01-.26.03-.39.05,1.84,4.5,3.08,12.03,4.52,19.62,7.34-1.55,13.13-.82,17.23.41Z"/>
      <path class="cls-12" d="M918.85,344.78c9.93-1.17,11.21,5.69,26.62,1.47-1.41-8.01-2.68-16.98-1.8-22.24-.48,0-.95-.02-1.42-.03-.09,0-.19,0-.28,0-.59-.02-1.17-.05-1.76-.09-.24-.02-.49-.03-.73-.05-.56-.04-1.11-.09-1.67-.14-.27-.03-.54-.06-.81-.09-.54-.06-1.08-.12-1.62-.2-.3-.04-.61-.09-.91-.14-.78-.12-1.55-.25-2.33-.4-.5-.1-1-.19-1.5-.3-.33-.07-.67-.15-1-.23-.53-.12-1.05-.25-1.57-.38-.31-.08-.61-.16-.92-.24-.21-.06-.42-.11-.63-.17l-12.22,24.78c1.52-.81,3.05-1.37,4.55-1.54Z"/>
      <path class="cls-7" d="M945.48,346.24c.61,3.49,1.25,6.79,1.75,9.53,1.67,9.14-5.45,20.46-9.3,25.78,2.01.12,4.11.19,6.33.19,21.44,0,32.88-6.01,38.36-10.39-6.37.58-15.95.06-20.64-7.15-2.99-4.59-4.76-12.8-6.31-20.94-1.44-7.59-2.68-15.12-4.52-19.62-.15.02-.31.03-.46.05-.55.05-1.1.1-1.65.14-.25.02-.5.03-.75.05-.58.04-1.16.07-1.74.09-.1,0-.21,0-.31,0-.66.02-1.31.04-1.97.04-.19,0-.38-.01-.58-.01-.88,5.26.39,14.23,1.8,22.24Z"/>
      <path class="cls-6" d="M959.13,230.32c-20.42,10.78-36.31-7.37-50.49,19.85-11.85,22.74,1.08,51.94,21.01,61.85,4.74,1.31,9.63,1.99,14.6,1.99,3.13,0,6.24-.27,9.29-.79-4.32-4.74-10.06-14.87-11.43-35.82-2.27-34.6,17.02-47.08,17.02-47.08Z"/>
      <path class="cls-12" d="M908.64,250.17c14.18-27.23,30.07-9.08,50.49-19.85,11.99-6.33,20.13-7.97,24.83-8.25-3.21-3.42-6.85-6.44-10.85-8.94-.09.14-.2.28-.3.42-.16.23-.32.47-.49.7-.26.36-.53.71-.81,1.05-.18.22-.35.44-.53.65-.32.37-.65.73-.99,1.09-.16.17-.31.34-.48.51-.51.51-1.03,1-1.58,1.47-.13.11-.27.22-.41.33-.43.36-.88.72-1.34,1.06-.22.16-.45.32-.67.48-.39.27-.79.55-1.19.8-.25.16-.5.32-.76.47-.41.25-.82.48-1.25.71-.26.14-.51.28-.78.42-.47.24-.95.47-1.43.69-.22.1-.44.21-.67.31-.71.31-1.44.6-2.18.86-.1.03-.2.06-.29.1-.65.23-1.31.44-1.98.63-.26.07-.52.14-.79.21-.52.14-1.04.27-1.57.38-.3.07-.6.12-.9.18-.51.1-1.03.19-1.55.27-.3.05-.6.09-.91.13-.56.07-1.12.13-1.69.17-.27.02-.53.05-.8.07-.83.05-1.67.09-2.52.09s-1.69-.03-2.52-.09c-.27-.02-.53-.05-.8-.07-.57-.05-1.13-.1-1.69-.17-.3-.04-.61-.09-.91-.13-.52-.08-1.04-.17-1.56-.27-.3-.06-.6-.12-.89-.18-.53-.12-1.06-.25-1.58-.39-.26-.07-.52-.13-.77-.2-.68-.2-1.36-.41-2.02-.64-.08-.03-.17-.05-.26-.08-.74-.27-1.47-.56-2.19-.87-.22-.09-.42-.2-.63-.29-.5-.23-.99-.46-1.47-.71-.25-.13-.5-.26-.74-.4-.44-.24-.87-.48-1.29-.74-.24-.15-.49-.29-.73-.45-.42-.27-.83-.55-1.24-.84-.21-.15-.42-.29-.63-.45-.49-.36-.96-.74-1.42-1.12-.11-.09-.22-.17-.33-.26-.56-.48-1.09-.98-1.61-1.49-.14-.14-.28-.29-.42-.44-.36-.38-.72-.76-1.06-1.16-.17-.2-.33-.4-.5-.61-.29-.36-.57-.73-.84-1.1-.16-.22-.31-.44-.47-.66-.1-.15-.21-.29-.31-.44-15.98,9.93-25.71,27.25-25.71,46.33,0,22.89,14.45,43.51,35.97,51.31,1.32.48,2.65.89,4,1.27-19.93-9.91-32.85-39.11-21.01-61.85Z"/>
      <path class="cls-8" d="M980.12,255.28c-5.67-14.18-7.38-11.91-4.54,18.72,1.49,16.13-1.64,26.76-4.95,33.22,7.76-4.28,14.34-10.38,19.2-17.76,1.09-12.8-6.54-26.25-9.71-34.18Z"/>
      <path class="cls-6" d="M1008.82,259.44c0,5.5-.7,10.92-2.06,16.17,28.45,1.43,44.93,11.76,53.9,20.54,4.83,4.73,8.04,9.49,10.12,13.34,11.19-14.49,16.84-29.2,16.85-43.85-5.68,8.36-16.92,12.94-24.24,6.36-10.89-9.79-24.42-5.53-37.61-9.41-6.69-1.97-7.58-6.75-6.83-10.98-1.63-.52-2.36-1.1-1.95-1.88-3.41.72-6.39,1.24-8.71,1.6.33,2.67.53,5.38.53,8.1Z"/>
      <path class="cls-8" d="M1018.96,251.63c2.55.81,7.29,1.47,13.21,2.46,17.44,2.92,25.1-1.65,37.18-12.71,6.24-5.72,12.25,1.79,16.61,10.39-3.39-13.78-11.08-24.14-15.83-29.52-12.93,16.58-37.54,24.2-53.12,27.5-.41.78.32,1.36,1.95,1.88Z"/>
      <path class="cls-1" d="M1302.34,312.01c-106.37,13.61-159.12-22.97-181.25-56.16-11.82-17.73-22.31-23.23-29.52-24.51,7.92,8.71,15.44,21,17.61,37.46,5.11,38.73,19.81,47.47,71.48,66.19,51.67,18.72,143.81,27.23,207.62-11.06,42.92-25.75,49.16-69.18,48.64-94.86-.53-2.05-1.12-4.09-1.77-6.1-10.23,20.68-46.01,77.94-132.82,89.05Z"/>
      <path class="cls-13" d="M1388.28,323.92c-63.82,38.29-155.96,29.78-207.62,11.06-51.67-18.72-66.37-27.46-71.48-66.19-2.17-16.46-9.68-28.75-17.61-37.46-2.38-2.62-4.79-4.91-7.12-6.9,5.92,8.78,12.05,21.38,13.06,36.82,1.31,20.21-6.47,40.24-23.1,59.57.27,15.35,4.35,22.93,32.95,25.28,12.66,1.04,22.63,6.68,35.26,13.81,19.81,11.19,46.94,26.51,102.82,32.93,42.33,4.86,85.54-3.01,121.69-22.16,34.41-18.23,59.24-45.45,68.13-74.69,6.79-22.35,7.24-45.56,1.67-66.95.52,25.68-5.73,69.11-48.64,94.86Z"/>
      <path class="cls-7" d="M648.78,467.47c-3.41-3.59-6.76-8.95-9.5-16.21-5.17-13.73-20.31-23.36-36.42-29.95,2.41,17.94-1.76,37.22-12.82,53.86-.47.71-.96,1.39-1.45,2.08,26.3,1.46,46.55-2.48,60.19-9.78Z"/>
      <path class="cls-7" d="M660.85,441.82c1.93,4.07,3.31,7.76,4.22,11.08,5.01-8.29,5.59-18.02,1.42-28.15-7.54-18.3-30.55-28.03-40.45-32.89-11.58-.14-23.45-.31-34.55-.49,4.26,6.23,7.4,13.1,9.4,20.34,24.62,3.81,51.41,12.12,59.96,30.11Z"/>
      <path class="cls-7" d="M728.42,397.76v-2.31l-9.62-9.11c-15.71-6.09-45.09-14.41-92.87-17.32-3.15,5.69-7.56,10.62-12.88,14.36,14.02-.19,28.19-.35,40.63-.45.98,0,1.89.3,2.64.83,6.51,4.48,13.06,8.9,19.54,13.43l16.54,11.49c16.29,2.09,29.29-5.67,36.02-10.92Z"/>
      <path class="cls-7" d="M251.58,439.74c19.49-33.75,105.82-31.17,105.82-31.17,0,0-72.67,8.98-85.36,42.68-1.48,3.94-3.15,7.31-4.91,10.15,19.58,16.19,53.69,22.95,98.35,16.15,13.14-2,25.67-3.54,37.71-4.7-2.23-2.41-4.29-5.03-6.12-7.9-1.14-1.83-2.14-3.72-3.01-5.65-8.03-13.08-11.7-28.52-9.38-44.34.16-1.1.35-2.2.57-3.3-.74-.08-1.48-.17-2.21-.28-14.51-2.13-27.52-9.34-37.35-20.52-17.42.35-34.78.64-51.93.9-7.48.07-26.75.27-35.75.36-1.49,1.05-3.05,2.16-4.67,3.31-5.99,16.74-6.35,31.74-1.77,44.3Z"/>
      <path class="cls-7" d="M234.31,521.79c1.75,1.19,3.63,2.31,5.7,3.34,21.28,4.85,48.88,7.78,84.15,6.08,113.2-5.46,109.62-4.04,249.67-.44,79.61,2.04,114.9-3.34,130.54-8.37l24.06-29.79v-5.94c-13.46,15.98-50.62,24.06-67.4,26.99-1.86,1.67-3.67,3.27-5.37,4.77-.87.78-1.96,1.16-3.04,1.15l-24.69-.25c-23.5-.23-50.53-.71-74.06-1.23-31.98-.75-66.89-1.64-98.75-3.13h0c-31.82,1.49-66.78,2.4-98.75,3.13-23.54.51-50.55.99-74.06,1.23l-24.69.25c-1.16.01-2.23-.42-3.03-1.14-9.82-8.6-22.89-20.66-33.83-30.61-1.73,7.86-2.45,23.08,13.56,33.96Z"/>
      <path class="cls-7" d="M195.61,402.18c3.77,8.78,11.93,11.45,17.21,12.23.09-1.52.89-2.87,2.07-3.69l19.47-13.53c6.48-4.52,13.03-8.95,19.54-13.43.8-.56,1.73-.85,2.64-.83,22.88.2,51.6.55,74.47.98,3.14.06,6.31.12,9.48.18-3.06-4.52-5.56-9.38-7.47-14.46-29.32-.34-53.19-.91-68.15-1.68-28.05-1.45-53.1,17.76-69.24,34.22Z"/>
      <path class="cls-6" d="M301.97,642.52c19.05,14.72,181.01,11.34,261.99,11.34,60.98,0,58.75-25.47,53.93-38.05-4.4-2.73-9.66-4.38-15.36-4.54-.11,0-.22,0-.33-.02-.2-.02-.41-.01-.61-.01h-17.12c-3.64,1.21-8.93,2.78-15.99,4.42,6,3.56,11.11,8.18,12.51,13.95,3.93,16.17-125.64,12.58-198.04,12.58-59.4,0-69.42-19.96-49.01-30.6-.49-.12-.96-.23-1.42-.34h-23.88c-.2,0-.41,0-.61.01-.11.01-.22.02-.33.02-6.58.18-12.8,2.4-17.8,6.29-.71,6.43.69,16.18,12.07,24.96Z"/>
      <path class="cls-6" d="M597.67,584.01c-8.27-3.83-30.03-7.89-87.06-4.7-96.22,5.37-87.65,12.33-142.9,4.36-33.59-4.84-48.56-3.8-55.14-2.24v19.81h285.11v-17.23Z"/>
      <path class="cls-6" d="M728.42,486.67v-88.91c-6.72,5.25-19.73,13.02-36.02,10.92l2.93,2.04c1.36.95,2.09,2.46,2.08,4,.03,11.23.16,36.93.08,47.79l-.05,15.93c0,1.42-.62,2.73-1.59,3.62-10.25,9.13-23.72,21.65-34.83,31.6,16.78-2.92,53.94-11,67.4-26.99Z"/>
      <path class="cls-6" d="M674.16,488.68c4.73-4.38,9.34-8.64,13.47-12.4-.03-17.24-.11-41.49,0-59.01-10.92-7.58-24.94-17.69-35.44-25.14-8.2-.06-17.08-.16-26.17-.27,9.9,4.86,32.91,14.58,40.45,32.89,4.17,10.13,3.59,19.86-1.42,28.15,5.41,19.65-5.69,25.73-16.29,14.57-13.64,7.3-33.89,11.24-60.19,9.78-3.93,5.54-8.45,10.51-13.47,14.79,46.96,8.46,81.97,1.64,99.04-3.36Z"/>
      <path class="cls-6" d="M195.61,402.18c-5.88,6-10.58,11.64-13.81,15.77v74.66l12.2,15.11c10,5.91,24.89,12.6,46,17.41-2.07-1.04-3.95-2.15-5.7-3.34-16-10.88-15.29-26.1-13.56-33.96-2.23-2.02-4.37-3.97-6.38-5.77-1.06-.97-1.6-2.29-1.59-3.62l-.05-15.93c-.09-10.72.05-36.72.08-47.79,0-.1.01-.2.02-.31-5.27-.79-13.44-3.46-17.21-12.23Z"/>
      <path class="cls-6" d="M379.86,490.33c12.47-3.45,23.01-6.68,32.45-9.51-3.29-2.32-6.34-4.97-9.11-7.97-12.04,1.16-24.57,2.7-37.71,4.7-44.66,6.8-78.77.05-98.35-16.15-13.26,21.46-31.73,12.15-16.66-19.59.34-.71.71-1.4,1.1-2.08-4.58-12.56-4.22-27.56,1.77-44.3-9.75,6.93-21.46,15.32-30.76,21.81.17,17.58.03,41.72,0,59.02,6.86,6.23,14.98,13.77,22.76,21.01,21.39,2.77,79.97,8.13,134.51-6.95Z"/>
      <path class="cls-12" d="M573.83,530.77c-140.05-3.59-136.47-5.01-249.67.44-35.27,1.7-62.87-1.24-84.15-6.08-21.11-4.81-35.99-11.49-46-17.41l31.99,39.61h458.23l20.14-24.93c-15.64,5.03-50.93,10.41-130.54,8.37Z"/>
      <path class="cls-12" d="M455.11,514.97s0,0,0,0c31.82-1.44,66.78-2.43,98.75-3.13,31.2-.71,65.57-1.18,96.92-1.46,6.87-6.37,15.29-14.21,23.38-21.7-17.08,4.99-52.08,11.82-99.04,3.36-9.1,7.77-19.78,13.35-31.36,16.2-5.72,1.41-11.45,2.11-17.08,2.11-12.99,0-25.51-3.7-36.37-10.91-2.93-1.95-5.7-4.13-8.26-6.51-10.57,2.88-21.89,3.54-32.91,1.92-6.42-.94-12.54-2.61-18.28-4.9-6.64-2.12-12.92-5.15-18.55-9.12-9.44,2.83-19.98,6.06-32.45,9.51-54.53,15.08-113.12,9.72-134.51,6.95,4.99,4.64,9.82,9.14,14.08,13.1,31.37.27,65.72.76,96.92,1.46,31.98.68,66.89,1.69,98.75,3.13,0,0,0,0,0,0h0Z"/>
      <path class="cls-8" d="M685.89,355.17h-55.17c-.79,4.93-2.44,9.6-4.79,13.85,47.78,2.91,77.16,11.23,92.87,17.32l-32.92-31.17Z"/>
      <path class="cls-8" d="M195.61,402.18c16.14-16.47,41.19-35.68,69.24-34.22,14.97.77,38.83,1.35,68.15,1.68-1.75-4.66-3.01-9.5-3.77-14.47h-104.9l-42.53,40.28v22.51c3.23-4.14,7.93-9.77,13.81-15.77Z"/>
      <path class="cls-8" d="M357.4,408.57s-86.33-2.58-105.82,31.17c-.39.68-.77,1.37-1.1,2.08-15.08,31.74,3.39,41.05,16.66,19.59,1.76-2.84,3.42-6.21,4.91-10.15,12.69-33.69,85.36-42.68,85.36-42.68Z"/>
      <path class="cls-8" d="M639.28,451.25c2.74,7.27,6.09,12.63,9.5,16.21,10.6,11.16,21.7,5.08,16.29-14.57-.91-3.31-2.29-7.01-4.22-11.08-8.55-17.99-35.33-26.3-59.96-30.11.87,3.14,1.53,6.35,1.97,9.6,16.12,6.59,31.25,16.22,36.42,29.95Z"/>
      <path class="cls-12" d="M367.7,583.67c55.26,7.97,46.68,1.01,142.9-4.36,57.03-3.18,78.79.87,87.06,4.7v-26.67h-285.11v24.09c6.58-1.56,21.55-2.61,55.14,2.24Z"/>
      <path class="cls-7" d="M455.3,624.38c-67.56-2.03-105.2-8.95-121.37-12.8-20.41,10.64-10.39,30.6,49.01,30.6,72.41,0,201.97,3.59,198.04-12.58-1.4-5.77-6.51-10.38-12.51-13.95-21.05,4.89-57.78,10.39-113.17,8.72Z"/>
      <path class="cls-12" d="M617.89,615.81c4.82,12.58,7.04,38.05-53.93,38.05-80.98,0-242.94,3.38-261.99-11.34-11.37-8.78-12.78-18.53-12.07-24.96-.72.56-1.41,1.16-2.08,1.79-5.47,5.16-8.49,12-8.49,19.24,0,11.16,7.02,20.71,17.24,24.96h316.99c3.26-1.36,6.26-3.29,8.83-5.72,5.47-5.18,8.49-12.01,8.49-19.24,0-9.54-5.13-17.89-13-22.78Z"/>
      <path class="cls-8" d="M455.3,624.38c55.39,1.66,92.13-3.83,113.17-8.72,7.06-1.64,12.35-3.21,15.99-4.42h-251.95c.45.11.93.23,1.42.34,16.17,3.85,53.81,10.77,121.37,12.8Z"/>
      <path class="cls-10" d="M845.67,1068.23c-3.86,67.11-.21,120.64,12.76,103.34,13.56-18.09,27.89-102.04,35.75-154.54l2.28-93.59c-8.1,22.78-26.93,79.03-32.99,125.69-4.79,36.91-14.3,45.9-17.79,19.1Z"/>
      <path class="cls-10" d="M693.54,727.1h0s0,0,0,0h0s-37.91,41.73-238.43,41.73c-157.68,0-214.8-25.79-232.01-36.82-38.57,5.29-81.64,14.36-119,24.93,7.07.84,5.7,10.88-13.7,31.57,12.86-7.16,29.27-10.92,49.88-10.59,57.71.94,170.53,5.79,245.82,9.24,38.19-1.09,65.34-1.42,68.95-1.45,0,0,.02,0,.03,0,0,0,.02,0,.03,0,.02,0,.04,0,.06,0,3.72.04,32.53.38,72.66,1.56,75.27-3.45,189.85-8.4,248.16-9.35,15.1-.25,27.94,1.71,38.79,5.59-38.56-44.39,17.75-30.79,44.99,22.27,20.42,39.78,32.48,60.11,37.58,81.39l.91-37.6c-22.45-119.65-204.72-122.47-204.72-122.47Z"/>
      <path class="cls-10" d="M795.05,1333.37c-10.91,9.67-25.64,14.21-47.98,14.21-8.8,0-18.78-.7-30.18-2.08-13.64-1.65-25.78-3.18-36.5-4.53-66.11-8.33-93.47-11.78-225.29-11.78s-159.18,3.45-225.29,11.78c-10.71,1.35-22.85,2.88-36.49,4.53-11.39,1.38-21.38,2.08-30.18,2.08-22.34,0-37.07-4.54-47.98-14.21-14.97-13.28-21.87-35.63-25.04-71.65-6.78-5.49-15.16-10.57-23.82-19.74h0c-42.78-27.66-57.5,159.13,96.25,139.07,140.8-18.37,274.11-16.18,295.57-15.68,21.46-.5,154.76-2.69,295.57,15.68,153.75,20.05,139.03-166.73,96.25-139.07h0c-11.79,12.49-23.06,17.39-30.47,26.06-3.42,32.34-10.36,52.85-24.43,65.33Z"/>
      <path class="cls-10" d="M693.54,727.1s-47.88-.1-111.31-.18c31.08,2.19,67.47,2.93,111.31.18Z"/>
      <path class="cls-10" d="M332.19,726.85c-23.19.05-41.16.13-50.88.25-7.54.09-15.73.5-24.37,1.18,21.15.28,48.24.13,75.25-1.43Z"/>
      <path class="cls-8" d="M858.43,1171.57c-12.97,17.3-16.62-36.23-12.76-103.34-2.19-16.81-2.01-47.7,3.19-94.64,13.49-121.77,17.61-134.76-29.57-185.09-1.64-1.75-3.13-3.41-4.52-5-10.85-3.87-23.68-5.83-38.79-5.59-58.31.95-172.89,5.9-248.16,9.35,94.19,2.76,250.8,10.13,292.02,28.97,39.55,18.08,30.8,78.88,18.69,163.02-7.39,51.37-15.77,109.58-15.77,172.42,0,49.82-.26,87.72-3.28,116.35,7.42-8.68,18.69-13.58,30.47-26.06h0c42.78-27.66,57.5,159.13-96.25,139.07-140.8-18.37-274.11-16.18-295.57-15.68-21.46-.5-154.76-2.69-295.57,15.68-153.75,20.05-139.03-166.73-96.25-139.07h0c8.66,9.17,17.04,14.25,23.82,19.74-2.45-27.82-2.67-63.79-2.67-110.03,0-62.84-8.38-121.06-15.77-172.42-12.11-84.15-20.86-144.94,18.69-163.02,41.76-19.09,201.99-26.4,295.72-29.08-75.29-3.45-188.11-8.3-245.82-9.24-20.62-.34-37.02,3.43-49.88,10.59h0c-47.17,50.32-43.07,63.32-29.58,185.05,15.03,98.37,15.89,223.2-2.98,198.02-20.05-26.76-41.8-197.62-41.8-197.62,0,57.57,2.53,102.76,6.73,138.48-2.64-17.01,3.16,263.29,3.81,294.73,7.34,2.18,31.43,7.11,105.87,11.19,34.51-10.1,137.09-34.52,322.65-34.52s269.81,25.22,297.25,35.78c99.25-4.48,125.83-10.62,132.34-12.79l9.48-389.79c-7.86,52.49-22.2,136.45-35.75,154.54Z"/>
      <path class="cls-7" d="M455.11,1383.83c-185.57,0-288.14,24.41-322.65,34.52,63.68,3.49,164.21,6.36,322.65,6.36,138.81,0,233.17-2.2,297.25-5.1-27.43-10.56-112.29-35.78-297.25-35.78Z"/>
      <path class="cls-8" d="M66.46,768.83c7.81-2.78,16.18-5.51,24.96-8.17,5.25-2.8,9.71-4.07,12.68-3.72,37.36-10.57,80.43-19.65,119-24.93-4.68-3-6.41-4.9-6.41-4.91h0s16.33.87,40.25,1.18c8.64-.68,16.82-1.09,24.37-1.18,9.72-.12,27.7-.2,50.88-.25,26.89-1.56,53.7-4.51,74.46-9.83,47.43-12.16,92.51,4.05,175.58,9.89,63.43.09,111.31.18,111.31.18,0,0,182.27,2.83,204.72,122.47l1.88-77.41-243.23-98.61H253.31L10.08,772.16l1.72,70.55c7.36-29.2,22.7-62.52,54.66-73.89Z"/>
      <path class="cls-7" d="M246.53,729.4c148.53,12.38,298.64,13.12,447.01-2.3h0c-43.84,2.74-80.23,2-111.31-.18-83.07-5.85-128.15-22.06-175.58-9.89-20.76,5.32-47.56,8.27-74.46,9.83-27.01,1.56-54.09,1.71-75.25,1.43-23.92-.32-40.25-1.18-40.25-1.18h0c8.41.55,21.25,1.6,29.84,2.3Z"/>
      <path class="cls-7" d="M455.11,768.83c200.51,0,238.41-41.72,238.43-41.73-68.38,14.46-138.65,19.58-208.42,21.36-79.62,1.09-160.31-3.43-238.92-16.3-8.23-1.38-21.29-3.54-29.51-5.05,0,0,1.74,1.91,6.41,4.91,17.22,11.03,74.33,36.82,232.01,36.82Z"/>
      <path class="cls-2" d="M81.59,977.84c7.44,51.7,15.87,110.29,15.87,173.85,0,12.98.02,25.16.1,36.59,17.73,58.85,79.74,85.27,154.78,82.41,89.13-3.4,173.81-34.48,372.12-18.89,135.76,10.68,176.23-40.18,188.26-73.32.04-8.53.04-17.46.04-26.79,0-63.55,8.43-122.15,15.87-173.85,11.49-79.85,19.79-137.53-12.95-152.5-12.52-5.73-36.88-10.36-67.27-14.12,36.32,10.36,80.84,40.28,53.26,126.4-25.81,80.62-27.69,142.43-70.98,179.38-2.45,15.34-6.68,29.86-13.2,42.89-35.45,70.85-27.42,28.71-15.37-25.03-30.49,13.83-74.42,21.13-140.05,21.13-220.6,0-285.22,51.25-345.38,0-9.17-7.82-19.75-20.48-30.49-36.46-8.63,37.31-18.88,10.08-24-41.1-38.23-74.88-65.72-179.93-18.51-236.96-5.97-12.01-13.78-19.95-23.72-23.61-10.76,2.26-19.45,4.75-25.44,7.48-32.75,14.97-24.44,72.66-12.95,152.5Z"/>
      <path class="cls-3" d="M814.77,783.51c1.39,1.59,2.88,3.26,4.52,5,47.18,50.32,43.07,63.32,29.57,185.09-5.2,46.94-5.38,77.83-3.19,94.64,3.49,26.8,13,17.81,17.79-19.1,6.06-46.66,24.89-102.9,32.99-125.69l.88-36.28c-5.11-21.29-17.16-41.61-37.58-81.39-27.24-53.06-83.55-66.65-44.99-22.27Z"/>
      <path class="cls-4" d="M260.79,836.29c-98.14,41.17-58.03,176.34-71.4,265.85-1.03,6.89-2.1,12.66-3.19,17.4,10.74,15.98,21.32,28.65,30.49,36.46,60.16,51.25,124.78,0,345.38,0,65.63,0,109.57-7.3,140.05-21.13,3.8-16.95,8-35.05,11.36-51.12,14.02-67.06-19.94-186.22-19.94-186.22,0,0,52.22,125.17,37.15,219.49,43.29-36.95,45.17-98.76,70.98-179.38,27.57-86.12-16.94-116.04-53.26-126.4-55.18-6.81-130.27-10.71-190.67-12.9-91.16,2.66-233.03,11.14-296.95,37.96ZM594.74,927.69c0-10.87,8.81-19.68,19.68-19.68s19.68,8.81,19.68,19.68-8.81,19.68-19.68,19.68-19.68-8.81-19.68-19.68ZM640.8,874.48c0-10.87,8.81-19.68,19.68-19.68s19.68,8.81,19.68,19.68-8.81,19.68-19.68,19.68-19.68-8.81-19.68-19.68Z"/>
      <path class="cls-14" d="M624.46,1251.81c-198.32-15.6-282.99,15.49-372.12,18.89-75.04,2.86-137.05-23.56-154.78-82.41.55,76.92,3.99,119.64,24.25,137.6,12.81,11.36,33.19,14.17,70.32,9.69,13.62-1.64,25.74-3.17,36.44-4.52,66.55-8.39,94.09-11.86,226.54-11.86s159.99,3.47,226.54,11.86c10.7,1.35,22.82,2.88,36.44,4.52,37.13,4.48,57.5,1.67,70.32-9.69,21.1-18.71,23.96-64.28,24.31-147.4-12.03,33.15-52.5,84-188.26,73.32Z"/>
      <path class="cls-5" d="M143.69,841.46c13.66,27.48,17.71,76.2,15.62,143.3-1.06,33.9.22,67.02,2.89,93.66,5.12,51.19,15.37,78.42,24,41.1,1.09-4.73,2.16-10.5,3.19-17.4,13.37-89.51-26.74-224.68,71.4-265.85,63.92-26.82,205.79-35.3,296.95-37.96-56.88-2.06-100.72-2.59-102.62-2.62-4.51.05-244.04,2.99-335.14,22.14,9.93,3.66,17.75,11.6,23.72,23.61Z"/>
      <path class="cls-5" d="M693.54,897.51s33.96,119.16,19.94,186.22c-3.36,16.08-7.56,34.18-11.36,51.12-12.05,53.75-20.08,95.88,15.37,25.03,6.52-13.03,10.75-27.55,13.2-42.89,15.07-94.32-37.15-219.49-37.15-219.49Z"/>
      <path class="cls-5" d="M660.48,894.17c10.87,0,19.68-8.81,19.68-19.68s-8.81-19.68-19.68-19.68-19.68,8.81-19.68,19.68,8.81,19.68,19.68,19.68Z"/>
      <path class="cls-5" d="M614.43,947.38c10.87,0,19.68-8.81,19.68-19.68s-8.81-19.68-19.68-19.68-19.68,8.81-19.68,19.68,8.81,19.68,19.68,19.68Z"/>
      <path d="M71.69,979.27c7.39,51.37,15.77,109.58,15.77,172.42,0,46.24.22,82.21,2.67,110.03,3.17,36.02,10.07,58.38,25.04,71.65,10.91,9.67,25.64,14.21,47.98,14.21,8.8,0,18.78-.71,30.18-2.08,13.64-1.65,25.78-3.18,36.49-4.53,66.11-8.33,93.47-11.78,225.29-11.78s159.18,3.45,225.29,11.78c10.71,1.35,22.85,2.88,36.5,4.53,11.39,1.38,21.37,2.08,30.18,2.08,22.33,0,37.07-4.54,47.98-14.21,14.08-12.48,21.02-32.99,24.43-65.33,3.02-28.63,3.28-66.53,3.28-116.35,0-62.84,8.38-121.06,15.77-172.42,12.11-84.15,20.86-144.94-18.69-163.02-41.22-18.84-197.83-26.21-292.02-28.97-40.13-1.18-68.93-1.52-72.66-1.56-.02,0-.04,0-.06,0,0,0-.02,0-.03,0,0,0-.02,0-.03,0-3.61.04-30.76.36-68.95,1.45-93.74,2.68-253.96,9.99-295.72,29.08-39.55,18.08-30.8,78.88-18.69,163.02ZM119.98,817.85c91.09-19.16,330.63-22.09,335.14-22.14,1.9.02,45.74.56,102.62,2.62,60.4,2.18,135.49,6.08,190.67,12.9,30.39,3.75,54.75,8.39,67.27,14.12,32.75,14.97,24.44,72.66,12.95,152.5-7.44,51.7-15.87,110.29-15.87,173.85,0,9.33,0,18.26-.04,26.79-.35,83.12-3.21,128.7-24.31,147.4-12.82,11.36-33.19,14.17-70.32,9.69-13.62-1.64-25.74-3.17-36.44-4.52-66.55-8.39-94.09-11.86-226.54-11.86s-159.99,3.47-226.54,11.86c-10.7,1.35-22.82,2.88-36.44,4.52-37.13,4.48-57.51,1.67-70.32-9.69-20.26-17.96-23.7-60.68-24.25-137.6-.08-11.43-.1-23.62-.1-36.59,0-63.55-8.43-122.15-15.87-173.85-11.49-79.85-19.79-137.53,12.95-152.5,5.99-2.74,14.68-5.22,25.44-7.48Z"/>
      <path d="M246.19,732.15c78.62,12.87,159.3,17.39,238.92,16.3,69.77-1.78,140.05-6.89,208.42-21.36h0s0,0,0,0c-148.37,15.42-298.48,14.68-447.01,2.3-8.59-.7-21.43-1.75-29.84-2.3h0c8.21,1.52,21.28,3.67,29.51,5.05Z"/>
      <path class="cls-15" d="M330.51,292.73c12.31-12.21,45.13-16.2,49.86-16.72,1.4-.7,2.8-1.36,4.21-2-.97.61-1.93,1.23-2.89,1.86,13.33-1.45,25.32,12.54,25.32,12.54-51.67,11.18-64.83,45.08-68.17,62.71.49,4.32,1.43,8.52,2.76,12.53,34.27,39.79,94.32-8.27,94.32-8.27,0,0-2.74,37.43,27.65,43.81,30.4,6.38,33.38-39.16,33.38-39.16,45.28,5.61,51.82-44.02,48.44-63.62-3.45-3.7-7.75-6.98-12.93-9.64-2.1-1.04-4.31-1.91-6.61-2.63-.39,1.91-.93,3.79-1.64,5.62-5.05,13.61-19.91,23.62-34.38,20.97,25.21-6.99,35.78-36.31,17.92-55.87-1.93-2.09-4.15-3.95-6.61-5.56-2.75,3.16-6.25,5.81-10.58,7.68-29.53,12.8-51.42-1.73-51.42-1.73,0,0,34.11,1.31,46.5-18.3,12.39-19.61.64-45.95.64-45.95,19.64,3.54,29.23,34.08,18.35,53.34,1.78.68,3.5,1.52,5.14,2.5,17.4,7.05,27.49,21.76,27.49,21.76l287.27,19.46,5.17-.52-225.32-71.15c-.5-.16-.97-.4-1.39-.69-6.32,5.77-18.12,14.79-33.41,18.55-.62.37-1.25.74-1.9,1.07-12.75,6.95-30.53,4.72-39.7-6.78,2.03.97,4.09,1.74,6.16,2.33,6.72.12,22.6-1.04,26.5-14.37,4.98-17.03-13.17-32.21-13.17-32.21,0,0,29.46-4.37,29.29-26.51-.17-22.14-18.76-25.95-18.76-25.95,0,0,28.5-11.88,29.45-42.72.6-19.39-7.87-30.15-14.25-35.48-.49.01-.97.02-1.46.05-3.65.21-7.25.85-10.7,1.93-1.6.5-3.33.16-4.63-.89-1.3-1.05-1.99-2.68-1.83-4.35.17-1.84.21-3.72.1-5.59-.55-9.64-4.75-18.5-11.84-25.03-25.37-12.77-50.7,4.75-45.97,15.07,4.74,10.35,2.51,23.07,1.77,26.54.61,1.51,1.16,3.04,1.62,4.6-6.87-8.43-15.32-16.4-25.07-21.22-.26-.08-.52-.17-.77-.29-6.4-3.07-13.52-4.54-20.67-4.31-.57.02-1.15.04-1.72.08-24.21,1.72-42.69,22.64-41.31,46.94.57,10.04,4.37,19.34,10.99,26.87,1.52,1.73,1.66,4.28.34,6.17-.84,1.19-2.12,1.93-3.5,2.09-3.75,3.8-13.96,8.54-32.64,13.51-31.29,8.32-44.63,39.14-49.82,56.9.28,4,.92,7.95,1.95,11.8.63,2.39-.57,4.88-2.83,5.87-19.06,8.33-33.02,27.94-36.44,51.18-1.26,8.59-.97,17.05.65,24.98,7.92,12.35,22.23,14.97,31.07,6.19Z"/>
      <path class="cls-9" d="M509.79,246.84c5.36,3.22,9.87,7.95,12.76,13.53,3.32,6.33,4.59,13.68,3.76,20.78,8.46.19,16.94,3.34,23.62,8.64,14.7,11.37,20.13,32.18,13.47,49.46-6.07,16.63-23.86,28.85-41.56,26.38,34.09-8.31,44.66-46.61,23.54-69.23,3.38,19.6-3.16,69.23-48.44,63.62,0,0-2.98,45.55-33.38,39.16-30.4-6.38-27.65-43.81-27.65-43.81,0,0-60.05,48.06-94.32,8.27,4.97,15,15.47,27.36,29.17,33.72,5.82,2.49,12.3,4.08,19.39,4.57,0,0,.64.05,1.06.08.13,0,.27,0,.4,0,.29,0,.57.04.85.09,2.57.26,5.18,1.24,6.88,3.42,2.2,2.7,2.32,6.42,2.05,9.47-.41,4.4-1.25,8.19-1.75,12.38-1.26,8.78-.51,17.91,2.57,26.12,9.68,16.18,27.17,28.33,48.39,31.45,10.55,1.55,21.39.72,31.35-2.41.49-.16,1-.23,1.5-.23,1.2,0,2.35.45,3.27,1.25,8.3-2.6,15.67-7.55,21.8-13.98,2.78-2.9,5.31-6.09,7.55-9.49,2.27-3.38,4.28-6.96,5.92-10.73-3.48,11.9-10.47,23.17-20.18,31.15-3.31,2.79-7.01,5.07-10.93,6.87,1.58,1.33,3.24,2.59,4.97,3.74,13.21,8.77,29.37,11.41,45.52,7.42,16.31-4.02,30.63-14.28,40.34-28.9,17.6-26.5,15.33-60.52-5.39-80.89-1.6-1.57-1.96-4.02-.88-5.98,1.08-1.96,3.34-2.96,5.52-2.46,3.05.72,6.19.99,9.35.81,18.07-1.02,31.93-16.56,30.91-34.62-.65-11.45-7.07-21.56-17.19-27.04-1.93-1.05-2.95-3.23-2.52-5.38.43-2.15,2.22-3.77,4.4-3.99l218.63-22.03-287.27-19.46s-10.09-14.71-27.49-21.76ZM511.43,408.99c-2.33,9.52-9.36,17.79-18.31,22-9.13,4.34-20.15,4.53-29.42.5-13.41-5.58-22.82-20.82-19.61-35.17,6,25.46,34.88,37.17,55.12,20.1,5.99-5.1,10.32-12.42,12.28-21.27,1.16,4.4,1.09,9.21-.06,13.84Z"/>
      <path class="cls-9" d="M499.85,242.93c1.64.33,3.24.81,4.8,1.41,10.88-19.26,1.28-49.8-18.35-53.34,0,0,11.75,26.34-.64,45.95-12.39,19.61-46.5,18.3-46.5,18.3,0,0,21.89,14.53,51.42,1.73,4.33-1.87,7.82-4.52,10.58-7.68-4.34-2.83-9.44-4.85-15.13-5.88,4.35-1.33,9.16-1.45,13.84-.49Z"/>
      <path class="cls-9" d="M331.68,328.89c.24-.96.48-1.93.76-2.89,5.54-16.82,17.45-30.25,31.72-40.34,6.38-5.27,12.28-8.68,16.03-9.56.06-.03.12-.06.18-.09-4.73.52-37.55,4.51-49.86,16.72-8.84,8.77-23.15,6.15-31.07-6.19,3.94,19.35,15.76,35.49,32.24,42.35Z"/>
      <path class="cls-3" d="M407,288.4s-11.98-13.99-25.32-12.54c-18.93,12.41-37.04,29.66-42.85,51.94-.32,1.45-.59,2.89-.82,4.33.73,1,1.09,2.26.92,3.56-.68,5.24-.68,10.4-.11,15.41,3.34-17.62,16.5-51.52,68.17-62.71Z"/>
      <path class="cls-3" d="M380.19,276.1c-3.75.88-9.66,4.29-16.03,9.56,5.1-3.61,10.51-6.8,16.03-9.56Z"/>
      <path d="M521.84,365.63c17.7,2.47,35.49-9.75,41.56-26.38,6.67-17.28,1.24-38.09-13.47-49.46-6.68-5.3-15.16-8.45-23.62-8.64.83-7.1-.45-14.45-3.76-20.78-2.89-5.58-7.4-10.31-12.76-13.53-1.64-.98-3.36-1.82-5.14-2.5-1.56-.6-3.16-1.08-4.8-1.41-4.68-.96-9.49-.85-13.84.49,5.69,1.03,10.79,3.05,15.13,5.88,2.46,1.6,4.68,3.47,6.61,5.56,17.85,19.55,7.28,48.88-17.92,55.87,14.47,2.65,29.33-7.36,34.38-20.97.71-1.82,1.25-3.7,1.64-5.62,2.3.72,4.5,1.59,6.61,2.63,5.18,2.66,9.48,5.94,12.93,9.64,21.12,22.62,10.55,60.92-23.54,69.23Z"/>
      <path d="M499.2,416.42c-20.24,17.07-49.13,5.36-55.12-20.1-3.21,14.35,6.21,29.6,19.61,35.17,9.27,4.03,20.3,3.84,29.42-.5,8.96-4.21,15.98-12.48,18.31-22,1.14-4.63,1.22-9.44.06-13.84-1.96,8.85-6.3,16.17-12.28,21.27Z"/>
      <path d="M586.03,197.23c-.99-4.84-3.03-9.4-5.92-13.2-2.89-3.8-6.59-6.87-10.75-8.73,5.66,7.08,8.65,15.05,8.87,22.91.56,24.19-22.14,38.92-44.06,32.66-2.07-.59-4.13-1.35-6.16-2.33,9.17,11.5,26.95,13.73,39.7,6.78.65-.33,1.28-.7,1.9-1.07,12.38-7.48,19.48-22.77,16.43-37.02Z"/>
      <path class="cls-15" d="M1182.33,1427.75c22.63-14.29,11.88-83.76,11.88-83.76,0,0-17.39-14.83-22.5-37.59-.35-.95-.66-1.91-.93-2.89-23.38,10.51-57.61-4.18-59.3-27.23,0,0,28.76,16.62,52.7,4.79,23.94-11.83,26.54-51.04,26.54-51.04,0,0,14,26.81-4.2,59.09-2.74,4.85-6.3,8.61-10.39,11.41,15.82,31.6,59.4,28.11,72.02-5.8.79,16.69-12.28,32.11-28.32,36.15-2.24.61-4.51,1-6.8,1.2,1.64,9.69,5.51,17.8,10.82,24.19,21.05,6.63,80.88,6.05,79.88-47.46,0,0,52.51,2.06,48.86-33.52-3.65-35.57-46.84-36.93-46.84-36.93,0,0,63.62-64.37,19.44-108.44-3.24-1.37-6.6-2.52-10.08-3.41-19.59,1.01-62.72,10.37-82.57,70.7,0,0-14.63-15.45-11.3-30.57-.84,1.05-1.68,2.11-2.5,3.17.89-1.5,1.82-2.98,2.78-4.47,1.08-5.01,9.61-42.49,25.16-55.19,11.58-9.45,9.71-27.19-5.07-37.62-8.43-2.43-17.5-3.59-26.85-3.2-27.28,1.13-51.66,14.91-63.61,35.96-1.22,2.15-3.82,3.08-6.13,2.2-3.72-1.42-7.56-2.51-11.47-3.3-20.5,3.41-59.48,14.56-73.22,50.57-8.53,22.34-15.58,33.52-20.44,36.49-.43.97-1.16,1.81-2.14,2.35-2.02,1.12-4.54.71-6.1-.98-7.95-8.61-18.28-14.17-29.88-16.05-28.33-4.61-55.13,14.7-59.73,43.03-1.18,7.27-.79,14.7,1.09,21.74.14.49.26.99.41,1.47.06.2.13.39.19.59,4.14,13.03,12.98,24.35,22.87,33.91-1.64-.74-3.25-1.55-4.83-2.43-3.7.42-18.91,1.62-30.42-5.19-11.55-6.83-35.59,21.7-21.79,53.27,6.43,7.66,15.51,13.15,26.13,14.88,2.17.35,4.36.54,6.53.57,1.67.02,3.22.87,4.13,2.27.91,1.4,1.06,3.16.4,4.7-1.67,3.88-2.86,7.98-3.54,12.19-.04.28-.07.55-.11.83,5.05,7.98,16.35,19.83,39.54,21.54,35.44,2.61,52.46-28.59,52.46-28.59,0,0,2.13,21.74,27.46,24.6,25.33,2.86,33.88-30.36,33.88-30.36,0,0,15.2,22.6,35.3,18.95,16.21-2.95,19.16-22.02,19.69-29.28-.48-2.2-1.13-4.43-1.98-6.66,11.56,12.06,11.84,32.27,2.41,45.86-.02.03-.05.07-.07.1-6.02,18.75-19.01,32.24-26.65,38.91.02.03.04.06.05.09.05.1,1.61,3.18,4.63,7.56,12.91,6.83,36.7,16.66,52.51,6.68ZM1085.7,1291.59c-11.58,27.36-40.26,33.43-63.2,24.56-26.57-4.26-42.47-32.15-35.67-58.02,5.2-19.76,22.84-34.86,43.38-35.57,6.46-.24,12.89.93,18.53,3.54-6.19-.49-12.21-.09-17.87,1.33-26.4,7.05-38.33,29.72-35.35,51.14,8.74,8.64,27.59,22.25,52.61,11.95,35.06-14.43,19.9-64.08,19.9-64.08,0,0,38.1,16.89,17.67,65.16Z"/>
      <path class="cls-9" d="M1243.73,1426.84c5.15,12.49,16.17,21.23,29.47,23.39,20.99,3.41,40.82-10.88,44.23-31.86.6-3.66.66-7.37.2-11.02-.28-2.22.95-4.36,3.02-5.23,2.06-.87,4.46-.26,5.85,1.49,21.06,26.46,60.14,33.23,92.92,16.09,18.07-9.44,31.68-24.76,38.3-43.13,6.57-18.22,5.48-37.27-3.07-53.63-1.24-2.36-2.64-4.64-4.15-6.82-2.63,4.58-5.88,8.84-9.6,12.52-10.22,10.19-23.88,16.89-37.88,19.57,8.97-2.79,17.44-7.19,24.9-12.83,8.32-6.32,15.08-14.36,19.1-23.82,0-.02.01-.04.02-.06-1-1.42-1.21-3.26-.51-4.87,4.83-11.13,7.11-23.56,6.59-35.94-1.04-25.11-13.17-46.94-30.95-60.07-4.87-2.45-10.31-4.2-16.34-5.1-6.58-1.08-13.42-.94-20.18-.54-7.82.52-19.32,1.34-20.34-9.32-.06-.47-.06-.96-.05-1.45-.03-.31-.03-.62,0-.93.01-.12.02-.23.03-.35.17-4.9-.02-9.84-.74-14.66-.51-3.49-1.27-6.83-2.26-10.03-5.96-17.07-19.63-30.98-37.1-38.36,44.18,44.08-19.44,108.44-19.44,108.44,0,0,43.19,1.36,46.84,36.93,3.65,35.57-48.86,33.52-48.86,33.52,1,53.52-58.83,54.1-79.88,47.46,22.01,26.47,68.71,23.45,83.32-18.28-.16,26.68-24.73,46.96-50.85,45.26-22.88-1.28-42.78-18.52-45.89-41.37-.42-3.2-.49-6.44-.22-9.64-13.88.24-27.7-6.71-35.06-18.75-1.4-2.24-2.54-4.62-3.45-7.07,5.11,22.76,22.5,37.59,22.5,37.59,0,0,10.75,69.48-11.88,83.76-15.81,9.98-39.6.15-52.51-6.68,6.67,9.67,20.45,25.64,40.65,29.53,19.97,3.85,41.94-4.76,65.31-25.59,1.21-1.08,2.87-1.5,4.45-1.14,1.58.36,2.89,1.47,3.5,2.97ZM1356.66,1326.17c34.93-15.54,30.68-61.85-5-73.55,16.64-1.45,32.56,11.02,37.23,26.88,5.2,16.53-1.16,35.67-15.63,45.32-4.64,3.14-9.91,5.25-15.29,6.09-5.37.83-10.84.46-15.76-1.24,5.17-.48,10.03-1.6,14.44-3.49Z"/>
      <path class="cls-9" d="M1151.79,1374.51c-9.63,14.35-28.48,21.35-45.04,16.15-5.36-1.64-10.3-4.43-14.33-8.09-4.02-3.66-7.16-8.16-8.92-13.05,3.62,3.73,7.54,6.81,11.78,9.06,31.82,16.37,63.16-11,56.14-43.36-.53,7.26-3.48,26.34-19.69,29.28-20.1,3.65-35.3-18.95-35.3-18.95,0,0-8.54,33.21-33.88,30.36-25.33-2.86-27.46-24.6-27.46-24.6,0,0-17.03,31.21-52.46,28.59-23.19-1.71-34.5-13.56-39.54-21.54-4.1,28.02,15.09,54.34,43.14,58.9,18.99,3.08,38.04-4.49,49.73-19.78,1.22-1.59,3.27-2.3,5.21-1.81,1.94.5,3.4,2.11,3.7,4.09,2.52,16.58,15.35,29.52,31.93,32.22,15.7,2.55,31.61-4.99,39.58-18.77.9-1.55,2.55-2.5,4.33-2.5.05,0,.11,0,.16,0,1.81.06,3.44,1.09,4.27,2.69,7.64-6.67,20.63-20.16,26.65-38.91Z"/>
      <path class="cls-9" d="M1068.03,1226.43s15.16,49.65-19.9,64.08c-25.02,10.3-43.86-3.31-52.61-11.95,2.13,15.33,11.88,30.02,29.45,37.91-.83-.09-1.66-.2-2.47-.33,22.95,8.87,51.62,2.8,63.2-24.56,20.43-48.27-17.67-65.16-17.67-65.16Z"/>
      <path class="cls-9" d="M1171.53,1282.26c.27,5.19,1.21,10.08,2.93,14.57.51,1.28,1.08,2.5,1.67,3.69,4.09-2.8,7.65-6.56,10.39-11.41,18.2-32.27,4.2-59.09,4.2-59.09,0,0-2.6,39.21-26.54,51.04-23.94,11.83-52.7-4.79-52.7-4.79,1.7,23.05,35.93,37.75,59.3,27.23-.51-1.83-.89-3.69-1.11-5.55-.62-5.4-.03-10.85,1.86-15.7Z"/>
      <path class="cls-9" d="M1246.7,1110.11c-15.56,12.7-24.08,50.18-25.16,55.19.03-.05.06-.1.09-.15,1.55-4.64,7.07-12.01,15.21-19.54,14.08-15.03,31.84-26.71,52.02-29.45-5.95-20.8-24.18-37.04-47.23-43.68,14.78,10.43,16.65,28.17,5.07,37.62Z"/>
      <path class="cls-3" d="M1060.34,1154.72c13.74-36.01,52.72-47.16,73.22-50.57-14.56-2.96-30.22-1.61-45.18,4.06-35.58,13.49-56.76,48.48-48.23,79.66.31,1.14.2,2.31-.25,3.34,4.86-2.97,11.91-14.15,20.44-36.49Z"/>
      <path class="cls-3" d="M931.35,1269.65c11.52,6.81,26.73,5.61,30.42,5.19-9.53-5.33-17.74-13.23-23.2-22.7-19.35,1.82-35.46,16.78-38.6,36.08-2.1,12.9,1.78,25.4,9.59,34.7-13.8-31.58,10.25-60.1,21.79-53.27Z"/>
      <path class="cls-3" d="M1232.54,1197.18c19.84-60.33,62.97-69.69,82.57-70.7-6.44-1.66-13.24-2.48-20.24-2.31-.04,0-.08,0-.12,0-1.27,0-2.44-.49-3.33-1.29-1.88.1-3.76.25-5.64.48-26.24,4.08-48.17,22.89-64.53,43.25-3.33,15.12,11.3,30.57,11.3,30.57Z"/>
      <path class="cls-3" d="M1221.62,1165.16c4.41-6.82,9.51-13.45,15.21-19.54-8.14,7.52-13.66,14.9-15.21,19.54Z"/>
      <path d="M1463.52,1318.3c-1.92-3.68-4.16-7.19-6.65-10.48,4.63-11.77,6.79-24.68,6.26-37.54-.29-7-1.36-13.78-3.09-20.24-1.28-6.36-3.24-12.57-5.96-18.51-5.78-12.64-14.19-21.76-24.39-27.78-13.93-10.82-31.13-16.9-49.49-16.14-1.54.06-3.09.17-4.64.34,0-1.13,0-2.25-.05-3.37-.55-13.39-4.92-26.09-12.57-37.03,13.42-44.6,18.59-94.65,15.36-149.63-2.65-45.17-21.04-95.12-54.67-148.44-26.73-42.39-63.12-87.05-108.16-132.74-68.62-69.61-136.93-120.67-150.92-130.91v-204c0-21.52-55.54-28.78-76.87-30.77l-16.28-33.02c14.25-6.59,25.61-18.12,31.95-32.53,49.21,1.25,59.78,30.05,61.05,34.25.22,24.27,11.33,33.81,42.14,36.35,10.47.86,19.15,5.76,31.16,12.55,20.55,11.61,48.7,27.51,106.59,34.16,8.54.98,17.12,1.47,25.67,1.47,35.82,0,71.23-8.51,101.84-24.72,37.29-19.75,63.22-48.38,73.02-80.62,11.03-36.28,6.56-74.73-12.24-105.51-21.7-35.52-61.18-59.36-114.18-68.95-83.37-15.08-142.12,16.5-181,37.4-15.73,8.45-28.15,15.13-37.16,16.11-33.08,3.61-35.77,28.2-35.88,35.05-12.1,19.83-46.12,26.66-58.1,28.49-4.59-16.01-15.11-29.51-29.59-37.9.14-1.03.23-2.07.23-3.12,0-14.81-14.66-26.86-32.67-26.86s-32.67,12.05-32.67,26.86c0,1.05.09,2.09.23,3.12-19.91,11.55-32.13,32.59-32.13,55.83,0,25.22,14.83,48.1,37.42,58.59l-16.76,34c-22.31,2.66-67.45,10.45-67.45,29.78v205.03c0,.16.01.32.02.48-14.9,11-63.59,47.9-117.81,99.04l-55.34-22.44c-.6-.24-1.24-.37-1.88-.37h-27.07c6.51-6.88,10.08-15.66,10.08-24.96,0-18.76-14.25-34.15-33.23-36.89v-44.36h78.95c1.51,0,2.94-.68,3.89-1.86l46.81-57.95c.72-.89,1.11-2,1.11-3.14v-101.08c0-1.37-.56-2.69-1.56-3.63l-45.54-43.13c-.93-.88-2.16-1.37-3.44-1.37h-56.73c-.75-10.08-4.92-19.33-11.69-26.4l235.42-23.72c2.36-.24,4.23-2.1,4.47-4.46.24-2.36-1.2-4.57-3.47-5.28l-238.16-75.2c10.32-8.55,16.32-21.72,15.54-35.46-.87-15.34-9.73-28.69-22.9-35.54,12.45-10.96,19.35-27.1,18.39-44.02-.82-14.54-7.26-27.9-18.13-37.61-10.87-9.71-24.86-14.59-39.41-13.77-2.18.12-4.36.38-6.5.76,0-.08,0-.16-.01-.24-.71-12.5-6.24-23.97-15.58-32.31-9.34-8.34-21.36-12.54-33.86-11.83-19.94,1.13-36.52,14.4-42.17,33.03-6.69-2.31-13.82-3.32-20.95-2.91-.57.03-1.14.09-1.71.14-.04,0-.07,0-.11,0-.72.06-1.43.14-2.13.23-.29.04-.58.07-.87.12-.55.08-1.1.17-1.65.27-.35.06-.69.12-1.04.19-.61.12-1.22.25-1.83.4-.19.04-.38.09-.56.13-25.03,6.13-42.99,29.43-41.48,56.06.43,7.64,2.39,14.93,5.76,21.57-11.3-1.46-23.18.45-34.48,5.66-15.7,7.24-28.89,20.25-37.16,36.65-8.29,16.45-10.89,34.55-7.44,51.41-20.24,10.51-34.85,32-38.54,57.08-5.05,34.37,11.87,67.22,39.71,78.34-.17,2.25-.23,4.49-.2,6.72h-106.07c-1.28,0-2.51.49-3.44,1.37l-45.54,43.13c-1,.94-1.56,2.26-1.56,3.63v101.08c0,1.14.39,2.25,1.11,3.14l46.81,57.95c.95,1.18,2.38,1.86,3.89,1.86h78.95v44.37c-8.15,1.19-15.69,4.78-21.61,10.38-7.49,7.07-11.62,16.48-11.62,26.51s3.76,18.36,9.97,24.96h-26.97c-.64,0-1.28.12-1.88.37L3.12,764.19c-1.93.78-3.17,2.68-3.12,4.76l15.6,641.19c.03,1.08.41,2.13,1.08,2.98,3.48,4.39,24.89,8.33,63.65,11.72,51.43,4.5,158.21,9.87,374.79,9.87,158.34,0,257.98-2.87,320.22-6.17,44.86,1.39,102.01,1.96,174.42,1.96,37.54,0,70.97-.15,100.72-.49,6.76,6.09,15.25,10.31,24.74,11.85,15.29,2.49,30.71-2.64,41.56-13.1,2.04-.06,4.06-.12,6.06-.18,7.98,11.1,23.17,27.45,45.68,31.82,3.77.73,7.58,1.1,11.44,1.1,18.36,0,37.66-8.3,57.55-24.78,7.26,12.45,19.61,21.02,34.11,23.37,12.79,2.08,25.64-.95,36.16-8.53,10.52-7.58,17.47-18.8,19.55-31.6.05-.29.09-.58.13-.87,25.07,22.36,63.73,26.67,96.62,9.47,20.3-10.61,35.6-27.87,43.08-48.6,7.53-20.88,6.25-42.78-3.62-61.66ZM1235.78,1425.01c-23.37,20.83-45.34,29.44-65.31,25.59-20.2-3.89-33.98-19.86-40.65-29.53-3.02-4.37-4.58-7.46-4.63-7.56-.02-.03-.04-.06-.05-.09-.83-1.6-2.46-2.63-4.27-2.69-.05,0-.11,0-.16,0-1.78,0-3.43.95-4.33,2.5-7.97,13.78-23.87,21.32-39.58,18.77-16.58-2.69-29.41-15.64-31.93-32.22-.3-1.98-1.76-3.59-3.7-4.09-1.94-.5-4,.21-5.21,1.81-11.69,15.29-30.74,22.87-49.73,19.78-28.05-4.56-47.24-30.88-43.14-58.9.04-.28.07-.55.11-.83.68-4.21,1.88-8.31,3.54-12.19.66-1.54.51-3.3-.4-4.7-.91-1.4-2.46-2.25-4.13-2.27-2.16-.03-4.36-.22-6.53-.57-10.62-1.73-19.71-7.22-26.13-14.88-7.8-9.3-11.68-21.81-9.59-34.7,3.14-19.3,19.25-34.26,38.6-36.08,5.46,9.47,13.67,17.37,23.2,22.7,1.58.88,3.19,1.69,4.83,2.43-9.89-9.56-18.73-20.88-22.87-33.91-.06-.2-.13-.39-.19-.59-.15-.49-.27-.98-.41-1.47-1.88-7.04-2.27-14.48-1.09-21.74,4.6-28.33,31.4-47.63,59.73-43.03,11.6,1.89,21.94,7.44,29.88,16.05,1.56,1.69,4.08,2.1,6.1.98.98-.54,1.71-1.38,2.14-2.35.45-1.02.57-2.2.25-3.34-8.53-31.18,12.65-66.17,48.23-79.66,14.95-5.67,30.61-7.02,45.18-4.06,3.91.79,7.75,1.88,11.47,3.3,2.31.88,4.91-.05,6.13-2.2,11.96-21.05,36.33-34.83,63.61-35.96,9.35-.38,18.42.77,26.85,3.2,23.05,6.65,41.28,22.88,47.23,43.68-20.18,2.74-37.94,14.41-52.02,29.45-5.7,6.09-10.8,12.72-15.21,19.54-.03.05-.06.1-.09.15-.96,1.48-1.89,2.97-2.78,4.47.82-1.06,1.65-2.11,2.5-3.17,16.35-20.35,38.28-39.17,64.53-43.25,1.88-.23,3.77-.38,5.64-.48.89.8,2.06,1.29,3.33,1.29.04,0,.08,0,.12,0,7-.17,13.8.65,20.24,2.31,3.48.9,6.84,2.05,10.08,3.41,17.47,7.37,31.14,21.28,37.1,38.36.99,3.2,1.76,6.54,2.26,10.03.72,4.82.91,9.76.74,14.66-.01.12-.02.23-.03.35-.03.31-.02.62,0,.93,0,.49,0,.98.05,1.45,1.03,10.66,12.52,9.84,20.34,9.32,6.76-.4,13.6-.54,20.18.54,6.03.9,11.47,2.65,16.34,5.1,17.78,13.13,29.91,34.96,30.95,60.07.52,12.38-1.76,24.81-6.59,35.94-.7,1.61-.49,3.45.51,4.87,0,.02-.01.04-.02.06-4.02,9.45-10.78,17.49-19.1,23.82-7.46,5.63-15.93,10.03-24.9,12.83,14-2.68,27.66-9.38,37.88-19.57,3.72-3.67,6.96-7.94,9.6-12.52,1.52,2.19,2.92,4.46,4.15,6.82,8.55,16.37,9.65,35.41,3.07,53.63-6.63,18.37-20.23,33.69-38.3,43.13-32.78,17.14-71.86,10.37-92.92-16.09-1.39-1.75-3.79-2.36-5.85-1.49-2.07.87-3.3,3.01-3.02,5.23.46,3.65.39,7.36-.2,11.02-3.41,20.98-23.24,35.28-44.23,31.86-13.3-2.16-24.32-10.91-29.47-23.39-.62-1.5-1.92-2.6-3.5-2.97-1.58-.36-3.24.06-4.45,1.14ZM12.83,885.24l-1.04-42.53-1.72-70.55,243.23-98.61h403.6l243.23,98.61-1.88,77.41-.91,37.6-.88,36.28-2.28,93.59-9.48,389.79c-6.51,2.17-33.1,8.31-132.34,12.79-64.08,2.89-158.43,5.1-297.25,5.1-158.44,0-258.97-2.87-322.65-6.36-74.45-4.08-98.53-9.01-105.87-11.19-.4-.12-.76-.23-1.06-.33l-11.72-481.77-.97-39.82ZM224.34,355.17h104.9c.75,4.97,2.02,9.81,3.77,14.47,1.91,5.08,4.41,9.93,7.47,14.46-3.16-.06-6.34-.12-9.48-.18-22.87-.44-51.59-.78-74.47-.98-.91-.01-1.84.27-2.64.83-6.51,4.48-13.06,8.9-19.54,13.43l-19.47,13.53c-1.17.82-1.97,2.18-2.07,3.69,0,.1-.02.2-.02.31-.03,11.07-.16,37.07-.08,47.79l.05,15.93c0,1.33.53,2.65,1.59,3.62,2,1.8,4.15,3.74,6.38,5.77,10.94,9.94,24.01,22,33.83,30.61.8.72,1.87,1.15,3.03,1.14l24.69-.25c23.51-.24,50.52-.72,74.06-1.23,31.96-.73,66.93-1.64,98.75-3.13,0,0,0,0,0,0-31.85-1.44-66.77-2.44-98.75-3.13-31.21-.71-65.56-1.19-96.92-1.46-4.27-3.96-9.1-8.47-14.08-13.1-7.78-7.24-15.91-14.78-22.76-21.01.03-17.3.17-41.44,0-59.02,9.3-6.5,21.01-14.88,30.76-21.81,1.62-1.15,3.18-2.26,4.67-3.31,9-.09,28.27-.29,35.75-.36,17.15-.26,34.51-.55,51.93-.9,9.83,11.18,22.84,18.39,37.35,20.52.73.11,1.47.2,2.21.28-.22,1.1-.41,2.2-.57,3.3-2.33,15.82,1.35,31.26,9.38,44.34.87,1.93,1.87,3.82,3.01,5.65,1.83,2.87,3.89,5.49,6.12,7.9,2.77,2.99,5.83,5.64,9.11,7.97,5.63,3.98,11.91,7,18.55,9.12,5.74,2.29,11.86,3.96,18.28,4.9,11.02,1.62,22.34.96,32.91-1.92,2.56,2.38,5.33,4.56,8.26,6.51,10.86,7.21,23.37,10.91,36.37,10.91,5.64,0,11.36-.7,17.08-2.11,11.57-2.85,22.26-8.43,31.36-16.2,5.02-4.29,9.54-9.25,13.47-14.79.49-.69.98-1.38,1.45-2.08,11.05-16.64,15.23-35.92,12.82-53.86-.44-3.25-1.1-6.46-1.97-9.6-2-7.24-5.14-14.11-9.4-20.34,11.09.18,22.96.35,34.55.49,9.08.11,17.97.2,26.17.27,10.5,7.45,24.52,17.56,35.44,25.14-.12,17.52-.04,41.77,0,59.01-4.12,3.77-8.73,8.02-13.47,12.4-8.09,7.49-16.51,15.33-23.38,21.7-31.36.28-65.73.75-96.92,1.46-31.97.7-66.93,1.69-98.75,3.13,0,0,0,0,0,0,31.85,1.49,66.77,2.38,98.75,3.13,23.53.51,50.56,1,74.06,1.23l24.69.25c1.08,0,2.17-.37,3.04-1.15,1.7-1.5,3.51-3.1,5.37-4.77,11.11-9.95,24.58-22.47,34.83-31.6.98-.89,1.6-2.2,1.59-3.62l.05-15.93c.08-10.86-.05-36.56-.08-47.79,0-1.54-.72-3.05-2.08-4l-2.93-2.04-16.54-11.49c-6.48-4.52-13.03-8.95-19.54-13.43-.75-.53-1.65-.84-2.64-.83-12.44.1-26.61.26-40.63.45,5.32-3.75,9.73-8.67,12.88-14.36,2.35-4.24,4-8.91,4.79-13.85h55.17l32.92,31.17,9.62,9.11v97.16l-24.06,29.79-20.14,24.93H226l-31.99-39.61-12.2-15.11v-97.16l42.53-40.28ZM298.79,261.56c3.42-23.24,17.38-42.85,36.44-51.18,2.26-.99,3.46-3.48,2.83-5.87-1.03-3.85-1.67-7.8-1.95-11.8-.84-12.2,1.77-24.85,7.69-36.59,14.73-29.21,46.51-44.19,72.35-34.12.79.31,1.62.4,2.42.3,1.38-.17,2.66-.9,3.5-2.09,1.32-1.89,1.18-4.44-.34-6.17-6.62-7.53-10.42-16.82-10.99-26.87-1.38-24.31,17.1-45.22,41.31-46.94.57-.04,1.15-.06,1.72-.08,7.14-.23,14.27,1.24,20.67,4.31.25.12.51.21.77.29,9.75,4.81,18.2,12.78,25.07,21.22-.46-1.56-1-3.09-1.62-4.6-3.5-8.63-9.41-16.39-16.86-22.01,3.36-16.13,17.44-28.36,34.01-29.3,9.82-.56,19.29,2.75,26.64,9.31.14.13.27.26.41.39,7.09,6.53,11.3,15.39,11.84,25.03.11,1.87.07,3.75-.1,5.59-.16,1.66.53,3.3,1.83,4.35,1.3,1.05,3.04,1.39,4.63.89,3.45-1.07,7.05-1.72,10.7-1.93.49-.03.98-.04,1.46-.05,11.36-.28,22.21,3.7,30.72,11.3,8.88,7.93,14.14,18.83,14.81,30.71.93,16.44-7.22,31.98-21.28,40.56-1.71,1.04-2.63,3.01-2.34,5,.29,1.98,1.74,3.6,3.68,4.11,13.81,3.61,23.64,15.62,24.44,29.9.77,13.52-7.03,26.32-19.41,31.84-1.9.85-3.07,2.78-2.95,4.85.09,1.55.88,2.93,2.1,3.79.42.3.88.53,1.39.69l225.32,71.15-5.17.52-218.63,22.03c-2.18.22-3.97,1.84-4.4,3.99-.43,2.15.59,4.33,2.52,5.38,10.12,5.47,16.54,15.58,17.19,27.04,1.02,18.07-12.84,33.6-30.91,34.62-3.15.18-6.3-.09-9.35-.81-2.18-.51-4.44.49-5.52,2.46-1.08,1.96-.72,4.41.88,5.98,20.72,20.37,22.99,54.39,5.39,80.89-9.7,14.62-24.03,24.88-40.34,28.9-16.15,3.98-32.32,1.34-45.52-7.42-1.73-1.15-3.39-2.41-4.97-3.74,3.92-1.8,7.62-4.08,10.93-6.87,9.71-7.97,16.7-19.25,20.18-31.15-1.64,3.77-3.65,7.36-5.92,10.73-2.25,3.39-4.77,6.58-7.55,9.49-6.13,6.43-13.5,11.38-21.8,13.98-.92-.8-2.08-1.25-3.27-1.25-.5,0-1.01.08-1.5.23-9.95,3.13-20.79,3.97-31.35,2.41-21.22-3.12-38.71-15.27-48.39-31.45-3.08-8.21-3.83-17.34-2.57-26.12.49-4.19,1.34-7.98,1.75-12.38.27-3.05.15-6.77-2.05-9.47-1.7-2.17-4.31-3.16-6.88-3.42-.28-.05-.56-.08-.85-.09-.13,0-.26,0-.4,0-.42-.03-1.06-.08-1.06-.08-7.09-.49-13.57-2.09-19.39-4.57-13.7-6.37-24.2-18.73-29.17-33.72-1.33-4.01-2.26-8.21-2.76-12.53-.57-5-.57-10.17.11-15.41.17-1.3-.2-2.56-.92-3.56.23-1.44.49-2.88.82-4.33,5.81-22.28,23.92-39.52,42.85-51.94.96-.63,1.93-1.25,2.89-1.86-1.41.64-2.81,1.31-4.21,2-.06.03-.12.06-.18.09-5.52,2.76-10.93,5.95-16.03,9.56-14.27,10.1-26.18,23.52-31.72,40.34-.28.96-.52,1.92-.76,2.89-16.48-6.86-28.31-22.99-32.24-42.35-1.61-7.93-1.91-16.39-.65-24.98ZM622.41,657.83c-2.57,2.44-5.57,4.36-8.83,5.72h-316.99c-10.23-4.26-17.24-13.8-17.24-24.96,0-7.25,3.01-14.08,8.49-19.24.67-.63,1.36-1.23,2.08-1.79,5-3.9,11.22-6.11,17.8-6.29.11,0,.22,0,.33-.02.2-.02.41-.01.61-.01h292.95c.2,0,.41,0,.61.01.11.01.22.02.33.02,5.71.16,10.96,1.81,15.36,4.54,7.87,4.89,13,13.24,13,22.78,0,7.23-3.01,14.07-8.49,19.24ZM312.56,581.43v-24.09h285.11v43.89h-285.11v-19.81ZM1142.14,170.67c37.66-20.24,94.55-50.82,174.48-36.37,50.11,9.06,87.25,31.3,107.43,64.32,2.4,3.93,4.53,8,6.42,12.17,1.79,3.96,3.35,8.02,4.68,12.17.64,2.02,1.24,4.05,1.77,6.1,5.57,21.39,5.13,44.6-1.67,66.95-8.89,29.24-33.72,56.46-68.13,74.69-36.15,19.15-79.36,27.02-121.69,22.16-55.88-6.42-83.01-21.74-102.82-32.93-12.63-7.13-22.6-12.76-35.26-13.81-28.6-2.35-32.69-9.93-32.95-25.28,16.63-19.33,24.41-39.36,23.1-59.57-1-15.44-7.13-28.04-13.06-36.82-4.03-5.98-7.96-10.18-10.11-12.3,0-.12,0-.24.01-.36.25-5.96,3.24-21.27,26.98-23.86,10.95-1.19,24.12-8.28,40.81-17.25ZM1214.36,1059.3c-29.14,1.21-55.44,15.43-69.71,37.42-18.87-6.12-39.94-5.39-59.81,2.15-19.62,7.44-35.97,20.87-46.06,37.83-7.52,12.65-11.08,26.41-10.47,39.86-7.41-5.05-15.84-8.41-24.93-9.89-27.66-4.5-54.08,10.13-65.76,34.12-3.01,5.96-4.96,12.49-5.72,19.15-.38,2.95-.55,5.91-.51,8.87.07,4.72.65,9.41,1.77,13.98-14.64,2.59-27.17,11.07-35.04,23.08l.94-38.56,3.18-130.6,7.97-327.74c.05-2.08-1.19-3.97-3.12-4.76l-71.39-28.94-28.55-11.57c29.57-22.82,55.62-36.23,72.79-36.23h139.6c32.73,0,97.66,48.69,157.89,118.42,8.95,10.35,17.45,20.78,25.5,31.21,52.56,68.07,85.42,136.38,89.44,187.6.18,2.33.33,4.65.46,6.97,1.13,21.27-.22,42.02-3.95,61.91-4.34-6.15-9.71-11.66-15.89-16.38-15.66-11.96-36.47-18.8-58.64-17.88ZM1357.95,1128.54c-.81,3.3-1.66,6.6-2.57,9.89-.77-.79-1.55-1.57-2.36-2.34-.83-.79-1.68-1.56-2.55-2.32-14.21-12.28-32.46-19.17-51.78-19.61-.67-2.44-1.49-4.82-2.44-7.15,6.23-26.37,8.35-54.33,6.09-83.12-2.56-32.64-15.5-70.5-38.45-112.53-10.29-18.85-22.47-38.19-36.11-57.46-13.03-18.41-27.4-36.77-42.78-54.57-49.66-57.49-116.45-115.46-158.69-121.38-.65-.31-1.38-.5-2.15-.5h-148.84c-.77,0-1.5.19-2.15.5-21.14,2.96-48.42,18.96-76.64,41.42l-50.22-20.36-17.08-6.92-3.93-1.6c1.38-1.29,2.75-2.57,4.12-3.85,5.05-4.68,10.03-9.23,14.93-13.64,14.92-13.43,29.04-25.54,41.71-36.06,23.55-19.56,42.04-33.6,51.13-40.36,5.47,5.76,16.16,10.63,31.95,14.55,21.31,5.29,49.57,8.2,79.57,8.2s58.26-2.91,79.57-8.2c16.63-4.13,27.6-9.31,32.78-15.47,8.21,6.07,26.08,19.57,49.25,38.7,17.25,14.24,37.42,31.6,58.72,51.32,12.86,11.91,26.13,24.68,39.41,38.16,9.04,9.17,18.33,18.93,27.66,29.17,62.63,68.74,127.17,159.49,132.21,245.47,2.41,41.13.41,86.04-10.36,130.06ZM892.82,367.29c-.75,1.51-.68,3.3.18,4.75.47.8,12.06,19.7,51.26,19.7s50.78-18.9,51.25-19.7c.86-1.45.92-3.24.18-4.75l-2.8-5.68c16.27,1.79,30.76,4.58,41.69,8.04.74.24,1.47.47,2.18.72.4.14.79.27,1.17.41,13.07,4.64,16.61,9.09,16.61,11.03,0,2.59-5.99,8.97-28.66,14.6-5.78,1.44-12.13,2.68-18.88,3.74-6.46,1.01-13.3,1.85-20.45,2.51-11.94,1.09-24.7,1.66-37.83,1.66-11.74,0-23.17-.46-34-1.33-5.76-.46-11.35-1.04-16.71-1.74-9.63-1.25-18.55-2.87-26.45-4.83-22.67-5.63-28.66-12.01-28.66-14.6,0-.6.3-1.33.91-2.15,3.54-4.66,17.9-12.25,51.23-16.87l-2.22,4.5ZM926.52,321.54c.21.06.42.11.63.17.3.08.61.16.92.24.52.14,1.05.26,1.57.38.33.08.66.16,1,.23.5.11,1,.2,1.5.3.77.15,1.55.28,2.33.4.3.05.61.1.91.14.54.07,1.08.13,1.62.2.27.03.54.06.81.09.56.06,1.11.1,1.67.14.24.02.49.03.73.05.59.04,1.17.07,1.76.09.09,0,.19,0,.28,0,.47.01.95.03,1.42.03.19,0,.38.01.58.01.66,0,1.32-.02,1.97-.04.1,0,.21,0,.31,0,.58-.02,1.16-.05,1.74-.09.25-.02.5-.03.75-.05.55-.04,1.1-.09,1.65-.14.15-.02.31-.03.46-.05.13-.01.26-.03.39-.05.53-.06,1.06-.12,1.58-.19.34-.05.69-.1,1.03-.16.72-.11,1.45-.23,2.17-.37.52-.1,1.05-.2,1.57-.31.33-.07.65-.15.98-.22.53-.12,1.06-.25,1.59-.39.31-.08.61-.16.91-.24.21-.06.42-.11.63-.17l10.91,22.13,12.43,25.21c-.66.7-1.56,1.55-2.71,2.47-5.48,4.38-16.91,10.39-38.36,10.39-2.22,0-4.32-.07-6.33-.19-21.53-1.29-31.28-8.99-34.75-12.66l11.13-22.57,12.22-24.78ZM843.58,396.53c.22.13.44.26.66.39.19.11.38.22.58.33.23.13.46.26.69.39.2.11.4.22.61.32.24.13.49.26.74.38.21.11.42.21.63.32.26.13.51.25.78.38.22.1.44.21.66.31.27.12.54.25.81.37.23.1.46.21.7.31.28.12.56.24.84.36.24.1.49.2.74.31.29.12.58.23.88.35.25.1.5.2.76.3.3.12.61.23.92.35.26.1.52.19.78.29.32.12.64.23.97.34.27.09.53.19.8.28.33.11.67.23,1.01.34.28.09.55.19.83.28.35.11.7.22,1.06.34.28.09.56.18.84.26.37.11.75.23,1.13.34.28.08.56.17.84.25.4.12.81.23,1.22.35.27.08.54.15.82.23.46.13.93.25,1.4.38.24.06.47.13.7.19.71.19,1.43.37,2.17.55,13.2,3.28,29.07,5.64,46.36,6.96,8.35.64,17.04,1.03,25.91,1.17,2.42.04,4.85.07,7.3.07,4.65,0,9.24-.08,13.78-.22,24.79-.75,47.78-3.52,65.79-7.99.73-.18,1.45-.37,2.16-.55.28-.07.55-.15.82-.22.43-.11.86-.23,1.28-.34.31-.09.61-.17.91-.26.38-.11.75-.21,1.12-.32.32-.09.63-.19.94-.28.34-.1.69-.2,1.02-.31.32-.1.63-.2.94-.3.32-.1.64-.2.96-.3.31-.1.62-.2.93-.31.3-.1.61-.2.91-.31.3-.1.6-.21.9-.32.29-.1.58-.21.87-.31.29-.11.59-.22.87-.32.28-.1.56-.21.83-.31.28-.11.56-.22.84-.33.27-.11.54-.21.8-.32.27-.11.54-.22.8-.33.26-.11.52-.22.77-.33.26-.11.52-.23.77-.34.25-.11.49-.22.73-.33.25-.12.5-.23.74-.35.24-.11.47-.23.7-.34.24-.12.47-.23.7-.35.23-.12.45-.23.67-.35.22-.12.44-.23.66-.35.22-.12.44-.24.65-.36.21-.12.41-.23.62-.35.21-.12.42-.25.62-.37.19-.12.39-.24.58-.35.04-.03.09-.05.13-.08v190.73c0,2.59-5.99,8.96-28.66,14.59-20.55,5.1-47.95,7.91-77.16,7.91-15.77,0-30.99-.83-44.91-2.38-11.87-1.33-22.79-3.18-32.24-5.53-8.98-2.23-15.34-4.58-19.75-6.76-1.55-.77-2.87-1.52-3.96-2.23-3.65-2.38-4.95-4.4-4.95-5.6v-190.73s.1.06.14.09c.18.11.36.22.55.33ZM970.64,307.22c-2.48,1.37-5.08,2.56-7.78,3.54-3.03,1.1-6.15,1.92-9.31,2.46-3.05.52-6.16.79-9.29.79-4.97,0-9.87-.67-14.6-1.99-1.35-.37-2.68-.79-4-1.27-21.51-7.8-35.97-28.42-35.97-51.31,0-19.07,9.73-36.4,25.71-46.33.1.15.21.29.31.44.15.22.31.44.47.66.27.37.55.74.84,1.1.16.2.33.41.5.61.34.4.69.78,1.06,1.16.14.15.27.3.42.44.51.51,1.05,1.01,1.61,1.49.11.09.22.17.33.26.46.38.93.76,1.42,1.12.21.15.42.3.63.45.41.29.82.57,1.24.84.24.15.48.3.73.45.42.25.85.5,1.29.74.25.13.49.27.74.4.48.25.97.48,1.47.71.21.1.42.2.63.29.72.31,1.45.6,2.19.87.08.03.17.05.26.08.66.23,1.34.45,2.02.64.25.07.51.14.77.2.52.14,1.05.27,1.58.39.3.06.59.12.89.18.52.1,1.03.19,1.56.27.3.05.6.09.91.13.56.07,1.12.13,1.69.17.27.02.53.05.8.07.83.05,1.67.09,2.52.09s1.69-.03,2.52-.09c.27-.02.53-.05.8-.07.57-.05,1.13-.1,1.69-.17.31-.04.61-.09.91-.13.52-.08,1.04-.17,1.55-.27.3-.06.6-.12.9-.18.53-.12,1.05-.25,1.57-.38.26-.07.53-.13.79-.21.67-.19,1.33-.4,1.98-.63.1-.03.2-.06.29-.1.74-.26,1.46-.55,2.18-.86.23-.1.45-.21.67-.31.48-.22.96-.45,1.43-.69.26-.13.52-.28.78-.42.42-.23.84-.47,1.25-.71.26-.15.51-.31.76-.47.41-.26.8-.53,1.19-.8.22-.16.45-.31.67-.48.46-.34.9-.69,1.34-1.06.13-.11.28-.21.41-.33.55-.47,1.08-.96,1.58-1.47.17-.16.32-.34.48-.51.34-.36.68-.72.99-1.09.18-.21.36-.43.53-.65.28-.35.55-.69.81-1.05.17-.23.33-.46.49-.7.1-.14.2-.28.3-.42,4,2.51,7.64,5.53,10.85,8.94,6.78,7.23,11.61,16.24,13.68,26.03.79,3.69,1.18,7.5,1.18,11.35,0,6.63-1.17,13.1-3.49,19.24-1.44,3.83-3.29,7.43-5.5,10.78-4.85,7.38-11.43,13.47-19.2,17.76ZM1070.13,222.24c4.75,5.38,12.44,15.74,15.83,29.52.79,3.2,1.34,6.59,1.57,10.14.08,1.25.11,2.49.11,3.74-.01,14.65-5.66,29.35-16.85,43.85-2.08-3.85-5.29-8.62-10.12-13.34-8.97-8.77-25.46-19.11-53.9-20.54,1.36-5.25,2.06-10.67,2.06-16.17,0-2.72-.19-5.43-.53-8.1,2.33-.36,5.3-.87,8.71-1.6,15.58-3.3,40.18-10.92,53.12-27.5ZM949.72,1420.5c-29.39,0-55.86-.09-79.79-.29,13.7-2.21,21.61-4.58,23.61-7.1.67-.85,1.05-1.9,1.08-2.98l.2-8.04,1.95-80.01c7.75,13.18,21.09,22.95,37.32,25.59.37.06.75.12,1.12.17-.8,2.65-1.43,5.35-1.88,8.09-2.92,18,2.24,35.47,12.82,48.7,1.13,1.41,2.32,2.77,3.57,4.08,0,0,.01.02.02.02,4.44,4.66,9.62,8.64,15.38,11.75-5.04,0-10.16,0-15.38,0h-.02Z"/>
      <path d="M1219.83,1330.86c16.03-4.05,29.11-19.47,28.32-36.15-12.62,33.92-56.21,37.4-72.02,5.8-.59-1.18-1.16-2.4-1.67-3.69-1.72-4.49-2.65-9.38-2.93-14.57-1.89,4.85-2.48,10.3-1.86,15.7.22,1.87.59,3.72,1.11,5.55.27.97.58,1.93.93,2.89.9,2.45,2.05,4.83,3.45,7.07,7.37,12.04,21.18,18.99,35.06,18.75-.27,3.2-.19,6.44.22,9.64,3.11,22.86,23,40.1,45.89,41.37,26.12,1.7,50.69-18.58,50.85-45.26-14.61,41.73-61.3,44.75-83.32,18.28-5.31-6.39-9.18-14.49-10.82-24.19,2.28-.2,4.56-.59,6.8-1.2Z"/>
      <path d="M1357.98,1330.9c5.38-.84,10.65-2.94,15.29-6.09,14.47-9.65,20.83-28.79,15.63-45.32-4.67-15.86-20.59-28.32-37.23-26.88,35.67,11.71,39.93,58.01,5,73.55-4.42,1.89-9.27,3.02-14.44,3.49,4.92,1.7,10.39,2.07,15.76,1.24Z"/>
      <path d="M995.52,1278.57c-2.98-21.43,8.96-44.09,35.35-51.14,5.66-1.42,11.67-1.82,17.87-1.33-5.65-2.61-12.07-3.78-18.53-3.54-20.54.72-38.18,15.82-43.38,35.57-6.8,25.87,9.1,53.76,35.67,58.02.81.13,1.64.24,2.47.33-17.56-7.89-27.32-22.58-29.45-37.91Z"/>
      <path d="M1095.29,1378.58c-4.25-2.25-8.16-5.33-11.78-9.06,1.76,4.89,4.9,9.39,8.92,13.05,4.03,3.66,8.97,6.45,14.33,8.09,16.55,5.2,35.4-1.79,45.04-16.15.02-.03.05-.07.07-.1,9.43-13.58,9.15-33.8-2.41-45.86.85,2.24,1.5,4.46,1.98,6.66,7.03,32.36-24.31,59.73-56.14,43.36Z"/>
    </g>
  </g>
</svg>