<svg id="Group_25" data-name="Group 25" xmlns="http://www.w3.org/2000/svg" width="516.226" height="613.267" viewBox="0 0 516.226 613.267">
  <path id="Path_1" data-name="Path 1" d="M563.64,390.9V746.077H47.44V390.9c0-130,96.109-237.543,221.167-255.443a259.051,259.051,0,0,1,110.806,8.1h.026A258.583,258.583,0,0,1,488.054,208.4c3.32,3.32,6.522,6.732,9.632,10.2.538.577,1.024,1.115,1.509,1.693A257.258,257.258,0,0,1,563.653,390.9Z" transform="translate(-47.427 -132.81)" fill="#c44bff"/>
  <g id="Group_3" data-name="Group 3" transform="translate(0 43.121)">
    <g id="Group_1" data-name="Group 1">
      <path id="Path_2" data-name="Path 2" d="M157.462,487.68a93.275,93.275,0,0,1-98.169,88.026,85.928,85.928,0,0,1-11.863-1.443V390.915a93.308,93.308,0,0,1,110.019,96.778Z" transform="translate(-47.43 -95.816)" fill="#b9ff5c"/>
      <path id="Path_3" data-name="Path 3" d="M469.2,317.76A93.2,93.2,0,0,1,361.672,165.67a254.872,254.872,0,0,1,39.656,32.465A257.46,257.46,0,0,1,469.2,317.76Z" transform="translate(39.286 -165.67)" fill="#b9ff5c"/>
    </g>
    <g id="Group_2" data-name="Group 2" transform="translate(0.013 42.661)">
      <path id="Path_4" data-name="Path 4" d="M359.407,289.591a114.9,114.9,0,0,1,43.068-89.719c-.486-.577-.971-1.115-1.509-1.693a117.4,117.4,0,0,0,65.967,208.635v-2.3A115.335,115.335,0,0,1,359.42,289.578Z" transform="translate(49.267 -198.18)" fill="#ffdbe2"/>
      <path id="Path_5" data-name="Path 5" d="M47.44,420.19v2.3a115.189,115.189,0,0,1,0,227.387V652.2a117.466,117.466,0,0,0,0-231.993Z" transform="translate(-47.44 -128.857)" fill="#ffdbe2"/>
    </g>
  </g>
  <g id="Group_19" data-name="Group 19" transform="translate(35.645 64.478)">
    <path id="Path_6" data-name="Path 6" d="M415.675,634.22H337.347l-2.231-21.272-4.593-43.331-4.619-43.54-2.834-26.888,17.112-1.85,2.231-.236,9.986-1.063,6.1-.656,17.886-1.9,22.846-2.441,2.506,21.849Z" transform="translate(2.993 -85.431)" fill="#ffacb9"/>
    <g id="Group_4" data-name="Group 4" transform="translate(109.936 458.427)">
      <path id="Path_7" data-name="Path 7" d="M374.069,585.105H174.24l.3-.5,6.587-52.306,191.444-1.01v50.771Z" transform="translate(-153.415 -531.29)" fill="#ffacb9"/>
      <path id="Path_8" data-name="Path 8" d="M396.976,608.843H158.37L179.2,572.31H379.025l7.519,15.261Z" transform="translate(-158.37 -518.482)" fill="#acd8f1"/>
    </g>
    <path id="Path_9" data-name="Path 9" d="M479.881,425.57H462.31a105.163,105.163,0,0,0-9.816-36.1,92.265,92.265,0,0,1-1.5,30.195,31.913,31.913,0,0,1-1.785,5.905H137.161a52.287,52.287,0,0,1-8.621-31.507c-6.981,8.648-8.713,21.153-4.777,31.507H113.737c-3.136-6.325-6.535-11.928-7.9-18.883-1.378-6.916-.748-14.553,3.228-20.405,3.884-5.7,10.327-8.976,16.075-12.768,5.721-3.792,11.39-9.015,12.086-15.865.564-5.905-2.716-11.364-4.711-16.941-6.141-17.243,1.1-38.331,16.613-48.094,11.338-7.191,26.967-9.461,33.449-21.206,4.8-8.713,2.6-19.356,3.254-29.263,1.457-22.282,18.319-41.375,38.488-50.981,20.143-9.579,38.331-9.514,60.678-9.068,20.051.774,32.4,2.2,43.619,4.567,15.012,3.136,30.549,7.519,41.585,18.2,8.858,8.5,13.962,20.524,15.065,32.754.354,3.753.354,7.729,2.113,11.1,3.517,6.745,12.178,8.359,19.093,11.456,14.592,6.469,24.014,23,22.19,38.843-1.1,9.514-5.735,18.2-8.359,27.387-2.625,9.212-2.834,20.2,3.674,27.2,9.632,10.38,27.177,6.063,40.01,12.112,10.052,4.737,16.114,15.668,17.9,26.665,1.758,11.01-.092,22.23-1.995,33.2Z" transform="translate(-65.044 -181.946)" fill="#34100e"/>
    <path id="Path_10" data-name="Path 10" d="M206.192,354.823l-2.953,32.544L197.1,455.512l-5.275,58.172-3.136,34.63-8.923-2.27-42.189-10.708L86.62,522.384s14.592-33.922,31.022-68.224c2.716-5.7,5.485-11.39,8.267-16.981,7.7-15.458,15.34-29.775,21.665-39.709a101.855,101.855,0,0,1,55.062-41.7h.026s-.026-.026,0-.026h.026c.092-.026.184-.066.262-.092a1.872,1.872,0,0,0,.354-.118c1.85-.512,2.861-.722,2.861-.722Z" transform="translate(-70.838 -127.969)" fill="#ffdbe2"/>
    <g id="Group_6" data-name="Group 6" transform="translate(15.795 215.202)">
      <path id="Path_11" data-name="Path 11" d="M398.3,558.2l.919,6.259,8.2,56.177c-10.078-5.249-23.45-6.115-34.814-6.089-3.635,0-7.244.026-10.892.092-32.4.538-64.733,3.281-96.923,6.837-34.814,3.819-71.006,8.438-104.179-2.808l9.16-55.9a62.716,62.716,0,0,1-10.446-13.936c-5.249-9.37-9.75-22.846-5.787-38.37,2.323-9.186,4.658-25.891,6.955-44.866,1.168-9.842,2.362-20.287,3.491-30.615v-.026c3.911-34.788,7.611-68.2,10.892-72.252,1.076-1.339,3.727-2.743,7.335-4.147h.026l.026-.026c.092-.026.184-.066.262-.092a1.87,1.87,0,0,0,.354-.118c9.422-3.491,24.828-6.863,36.848-9.212h.026c9.934-1.942,17.545-3.163,17.545-3.163l91.648,6.351a196.637,196.637,0,0,1,24.972,6.3h.026c14.881,4.658,34.25,12.322,52.123,24.316A131.093,131.093,0,0,1,429.7,402.984a97.173,97.173,0,0,1,8.2,10c6.627,9.212,12.086,20.143,16.587,31.77a258.208,258.208,0,0,1,9.632,31.14c10.262,41.8,11.338,82.3,11.338,82.3H398.287Z" transform="translate(-66.209 -345.94)" fill="#ffdbe2"/>
      <g id="Group_5" data-name="Group 5" transform="translate(0 3.162)">
        <path id="Path_12" data-name="Path 12" d="M365.827,379.889a19.6,19.6,0,0,1-1.339,3.609c-5.813,12.046-24.368,12.834-30.877,24.526-3.582,6.417-2.441,14.317-4.029,21.482a27.482,27.482,0,0,1-13.332,18.043,24.95,24.95,0,0,1-22.282.722c-10.826-5.2-16.049-19.657-11.1-30.575,4.357-9.579,14.855-15.695,17.715-25.812,3.372-11.928-.892-21.954,8.53-31.98a47.412,47.412,0,0,1,4.567-4.33c0-.026.026,0,.026,0C328.585,360.231,347.954,367.895,365.827,379.889Z" transform="translate(-25.941 -346.098)" fill="#acd8f1"/>
        <path id="Path_13" data-name="Path 13" d="M398.664,431.169a19.594,19.594,0,0,1-3.044,2.06c-3.911,2.2-8.648,3.044-12.02,6-8.11,7.125-3.635,21-8.766,30.523-3.963,7.375-13.569,10.59-21.691,8.556-8.11-2.06-14.618-8.556-18.253-16.075-7.519-15.537-3.7-34.7,5.643-49.2,6.391-9.842,19.894-21.337,33.357-23.634a97.18,97.18,0,0,1,8.2,10c6.627,9.212,12.086,20.143,16.587,31.77Z" transform="translate(-10.356 -335.532)" fill="#c7a7fd"/>
        <path id="Path_14" data-name="Path 14" d="M302.257,440.111a53.671,53.671,0,0,0-27.925,26.3c-2.323,4.868-3.911,10.367-2.8,15.642s5.6,10.1,11.01,10.157c3.359.026,6.443-1.693,9.645-2.716a24.244,24.244,0,0,1,19.2,2.021c7.493,4.3,13.149,12.808,21.77,13.306,5.8.328,11.3-3.412,14.29-8.385s3.819-10.97,3.727-16.771c-.223-13.792-5.525-29.88-15.957-39.394-8.6-7.834-23.082-4.173-32.951-.157Z" transform="translate(-29.007 -321.09)" fill="#ffbe5c"/>
        <path id="Path_15" data-name="Path 15" d="M198.157,502.021a53.671,53.671,0,0,0-27.925,26.3c-2.323,4.868-3.91,10.367-2.8,15.642s5.6,10.1,11.01,10.157c3.359.026,6.443-1.693,9.645-2.716a24.245,24.245,0,0,1,19.2,2.021c7.493,4.3,13.149,12.808,21.77,13.306,5.8.328,11.3-3.412,14.29-8.385s3.819-10.97,3.727-16.771c-.223-13.792-5.525-29.88-15.957-39.394-8.6-7.834-23.082-4.173-32.951-.157Z" transform="translate(-61.512 -301.758)" fill="#ffbe5c"/>
        <path id="Path_16" data-name="Path 16" d="M243.068,448.322a26.183,26.183,0,0,0,.262,14.671c1.64,4.685,5.341,8.792,10.117,10.1,5.945,1.64,12.243-1.194,17.164-4.921,10.17-7.7,31.271-40.26,12.125-49.393-16.338-7.795-36.467,16.141-39.669,29.539Z" transform="translate(-38.069 -326.834)" fill="#b2b68a"/>
        <path id="Path_17" data-name="Path 17" d="M202.511,416.54c-2.231,8.727.84,18.686,7.86,24.329s17.676,6.43,25.248,1.548c4.829-3.11,8.293-8.188,13.477-10.669,4.239-2.034,9.107-2.1,13.739-2.861a45.237,45.237,0,0,0,18.8-7.769c6.233-4.462,11.43-10.826,12.978-18.345,2.362-11.574-4.882-23.817-15.419-29.145s-23.476-4.475-34.289.262c-9.842,4.291-18.463,11.482-25.235,19.736-5.958,7.257-14.723,13.477-17.138,22.9Z" transform="translate(-50.67 -341.598)" fill="#c7a7fd"/>
        <path id="Path_18" data-name="Path 18" d="M409.624,527.277H365.389a31.029,31.029,0,0,1-1.758-5.341,31.8,31.8,0,0,1,5.249-24.854c2.979-4.12,7.007-7.821,7.992-12.834.682-3.582-.354-7.283-.538-10.918-.512-10.984,10.078-24.88,21.954-28.371,10.262,41.8,11.338,82.3,11.338,82.3Z" transform="translate(-0.347 -318.184)" fill="#b2b68a"/>
        <path id="Path_19" data-name="Path 19" d="M335.982,491.03a16.02,16.02,0,0,0,3.819,9.028c4.317,4.672,11.981,5.2,17.6,2.2s9.291-8.831,11-14.947c1.4-5.039,1.548-10.734-1.142-15.222-10.892-18.188-32.964,4.632-31.271,18.949Z" transform="translate(-8.799 -311.816)" fill="#34100e"/>
        <path id="Path_20" data-name="Path 20" d="M202.878,479.922c2.31,13.214,12.1,24.946,24.815,29.237s27.807.761,37.058-8.95c4.107-4.3,7.125-10.708,4.672-16.128-3.123-6.876-12.4-7.637-18.949-11.417a20.572,20.572,0,0,1-10-15.314c-.879-7.926,1.5-15.826-6.391-20.825-5.249-3.333-11.338-3.582-16.206.367-10.852,8.805-17.3,29.854-14.986,43.029Z" transform="translate(-50.473 -321.613)" fill="#acd8f1"/>
        <path id="Path_21" data-name="Path 21" d="M223.363,380.054c-.564,17.427-8.32,35.8-23.83,43.737-3.819,1.942-8.175,3.189-12.414,2.572s-8.293-3.517-9.461-7.637c-2.06-7.217,5.013-14.409,3.792-21.783-.512-2.926-2.152-5.275-4.055-7.545-2.651-3.163-5.879-6.115-7.217-10-2.6-7.519,2.086-15.13,6.627-21.6h.026s-.026-.026,0-.026h.026c.092-.026.184-.066.262-.092a1.872,1.872,0,0,0,.354-.118c9.422-3.491,24.828-6.863,36.848-9.212h.026c6.627,8.831,9.3,22.439,9.015,31.717Z" transform="translate(-60.775 -348.35)" fill="#ffbe5c"/>
        <path id="Path_22" data-name="Path 22" d="M243.088,513.538c-3.6,8.516-4.711,18.463-1.089,26.967s12.742,14.933,21.888,13.661c6.063-.84,11.285-4.711,17.177-6.391,12.821-3.648,27.649,3.333,39.459-2.861,10.262-5.393,13.661-19.4,9.855-30.352S317.27,495.442,307.31,489.5c-23.844-14.264-53.829-.63-64.235,24.054Z" transform="translate(-38.81 -306.085)" fill="#c7a7fd"/>
        <path id="Path_23" data-name="Path 23" d="M357.536,568.664c-10.078-5.249-23.45-6.115-34.814-6.089-3.635,0-7.244.026-10.892.092a23.925,23.925,0,0,0,5.643-10.774c1.339-5.813.42-11.968,1.785-17.755,2.716-11.482,17.387-22.938,30.077-21.665l8.2,56.177Z" transform="translate(-16.311 -297.133)" fill="#acd8f1"/>
        <path id="Path_24" data-name="Path 24" d="M176.461,432A53.822,53.822,0,0,0,157.6,466.943c-.735,6.456-.118,13.464,3.806,18.647a16.912,16.912,0,0,0,28.476-2.362c1.667-3.189,2.283-6.85,3.937-10.052,3.071-5.958,9.3-9.632,13.175-15.117,4.7-6.666,5.3-16.128,1.05-23.109-7.125-11.718-22.033-10.892-31.586-2.953Z" transform="translate(-64.552 -324.079)" fill="#b2b68a"/>
        <path id="Path_25" data-name="Path 25" d="M171.773,486.159c-4.409,4.488-5.971,12.3-1.89,17.072,3.989,4.672,11.3,4.593,17.112,2.638a22.209,22.209,0,0,0,9.645-5.931,12.655,12.655,0,0,0,3.281-10.551c-2.926-14.96-20.13-11.39-28.148-3.215Z" transform="translate(-61.373 -307.522)" fill="#34100e"/>
        <path id="Path_26" data-name="Path 26" d="M179.062,383.087c-.21,7.847-3.425,15.34-7.519,22.046-2.323,3.792-5.065,7.519-8.923,9.75-5.853,3.425-13.752,3.254-18.293,8.267-2.651,2.953-3.517,7.126-5.905,10.288-4.147,5.485-12.532,6.745-18.555,3.491a14.661,14.661,0,0,1-3.307-2.414c7.7-15.458,15.34-29.775,21.665-39.709a98.616,98.616,0,0,1,32.334-31.415c5.787,4.5,8.687,12.256,8.5,19.684Z" transform="translate(-77.284 -343.654)" fill="#acd8f1"/>
        <path id="Path_27" data-name="Path 27" d="M131.615,454.155c-.709,3.871-1.024,7.847-2.191,11.613-2.362,7.65-8.136,14.12-9.238,22.046-1.037,7.48,3.464,15.97,10.879,17.414,6.6,1.273,13.149-3.228,16.7-8.923s4.882-12.453,6.771-18.9a104.535,104.535,0,0,1,13.083-28.174c3.884-5.866,8.451-11.548,10.144-18.385,1.417-5.761-.157-15.1-6.1-18.135-5.708-2.9-12.913,2.611-17.374,5.879A57.73,57.73,0,0,0,131.6,454.168Z" transform="translate(-76.199 -328.507)" fill="#ffbe5c"/>
        <path id="Path_28" data-name="Path 28" d="M137.585,511.706,86.63,498.754s14.592-33.922,31.022-68.224a11.12,11.12,0,0,1,3.582.682,12.593,12.593,0,0,1,8.031,10.564c.262,3.556-1.01,7.047-2.6,10.236-3.307,6.837-8.057,13-10.537,20.169-2.506,7.191-2.244,16.114,3.4,21.245,3.307,3.018,7.874,4.212,11.456,6.889a17.1,17.1,0,0,1,6.587,11.39Z" transform="translate(-86.63 -322.689)" fill="#c7a7fd"/>
      </g>
    </g>
    <g id="Group_14" data-name="Group 14" transform="translate(136.82 4.679)">
      <g id="Group_12" data-name="Group 12">
        <g id="Group_7" data-name="Group 7" transform="translate(48.447 144.752)">
          <path id="Path_29" data-name="Path 29" d="M309.594,295.82l-.512,72.108c-.092,12.742-7.231,28.436-12.309,39.722-10.327,22.978-28.03,45.338-55.876,43.645-32.728-2.008-25.864-48.908-20.93-70.875V331.133L255.24,319.2l54.34-23.371Z" transform="translate(-215.776 -295.82)" fill="#ffacb9"/>
          <path id="Path_30" data-name="Path 30" d="M291.718,306.63c-7.821,13.936-18.306,26.534-31.337,35.811-12.191,8.74-26.481,13.267-41.4,14.264V327.757l35.273-11.928C266.772,312.693,279.317,309.714,291.718,306.63Z" transform="translate(-214.776 -292.445)" fill="#34100e"/>
        </g>
        <path id="Path_31" data-name="Path 31" d="M192.482,362.952c6.85,6.233,21.888,9.422,39.026,10.262,18.371.905,39.131-.932,54.813-4.645a78.972,78.972,0,0,0,15.878-5.354c3.517-1.745,6.128-3.674,7.519-5.748,3.005-4.488,6.063-11.272,8.91-18.791.42-1.129.866-2.257,1.26-3.425a1.071,1.071,0,0,0,.131-.328c.394-1.063.774-2.126,1.129-3.228,1.129-3.228,2.231-6.456,3.228-9.658.354-.42.709-.84,1.037-1.26a82.375,82.375,0,0,0,14.881-26.757,85.708,85.708,0,0,0,2.546-9.619c.026-.223.066-.42.092-.617.066-.354.131-.682.2-1.037a5.005,5.005,0,0,0,.092-.617,79.63,79.63,0,0,0,1.194-13.884A82.412,82.412,0,0,0,250.733,186.7c-1.391.2-2.782.42-4.16.682a81.469,81.469,0,0,0-22.466,7.808,82.348,82.348,0,0,0-42.123,53.947,76.521,76.521,0,0,0-1.706,9.776h-.092s-7.3,86.189,12.3,104.009Z" transform="translate(-178.857 -185.381)" fill="#ffacb9"/>
        <g id="Group_10" data-name="Group 10" transform="translate(13.541 78.645)">
          <g id="Group_8" data-name="Group 8">
            <path id="Path_32" data-name="Path 32" d="M190.546,250.955c-2.178,2.034-1.824,4.645,1.522,4.973,4.868.472,9.947.42,14.448-1.312a8.3,8.3,0,0,0,3.832-2.6c3.294-4.619-3.963-6.706-7.7-6.286a22.489,22.489,0,0,0-11.994,5.144.57.57,0,0,1-.092.079Z" transform="translate(-189.175 -245.369)" fill="#34100e"/>
            <path id="Path_33" data-name="Path 33" d="M256.065,248.9c2.441,1.706,2.467,4.344-.8,5.144-4.75,1.168-9.789,1.837-14.487.761a8.186,8.186,0,0,1-4.16-2.034c-3.91-4.107,2.966-7.2,6.732-7.322a22.392,22.392,0,0,1,12.6,3.386c.039.026.066.039.1.066Z" transform="translate(-174.726 -245.443)" fill="#34100e"/>
          </g>
          <g id="Group_9" data-name="Group 9" transform="translate(26.92 52.657)">
            <path id="Path_34" data-name="Path 34" d="M243.612,309.414c-1.4,7.572-4.921,14.054-12.834,14.225-8.359.21-13.424-6.233-16.495-13.608-4-9.579-4.593-20.707-4.593-20.707l33.685-3.753s2.3,13.031.236,23.83Z" transform="translate(-209.69 -285.57)" fill="#34100e"/>
            <path id="Path_35" data-name="Path 35" d="M242.519,304.761c-1.4,7.572-4.921,14.054-12.834,14.225-8.359.21-13.424-6.233-16.495-13.608a19.441,19.441,0,0,1,6.3-3.556,27.715,27.715,0,0,1,10.826-1.286,22.254,22.254,0,0,1,10.262,2.769,13.7,13.7,0,0,1,1.942,1.43Z" transform="translate(-208.597 -280.917)" fill="#ff6d60"/>
          </g>
        </g>
        <path id="Path_36" data-name="Path 36" d="M235,269.082h-.066a1.116,1.116,0,0,1-1.05-1.181,9,9,0,0,1,13.057-7.493,16.992,16.992,0,0,1,3.123,2.231c.328.276.656.551.984.8a6.461,6.461,0,0,0,3.727,1.706h.052a3.586,3.586,0,0,0,3.268-2.3,1.114,1.114,0,0,1,1.43-.669,1.138,1.138,0,0,1,.682,1.43,5.771,5.771,0,0,1-5.485,3.779,8.764,8.764,0,0,1-5.078-2.178c-.354-.276-.7-.564-1.037-.853a15.188,15.188,0,0,0-2.7-1.942,6.77,6.77,0,0,0-9.816,5.643,1.12,1.12,0,0,1-1.115,1.05Z" transform="translate(-161.676 -162.425)" fill="#c7a7fd"/>
        <path id="Path_37" data-name="Path 37" d="M210.883,269.082h.066A1.116,1.116,0,0,0,212,267.9a9,9,0,0,0-13.057-7.493,16.991,16.991,0,0,0-3.123,2.231c-.328.276-.656.551-.984.8a6.461,6.461,0,0,1-3.727,1.706h-.052a3.586,3.586,0,0,1-3.268-2.3,1.114,1.114,0,0,0-1.43-.669,1.138,1.138,0,0,0-.682,1.43,5.771,5.771,0,0,0,5.485,3.779,8.764,8.764,0,0,0,5.078-2.178c.354-.276.7-.564,1.037-.853a15.188,15.188,0,0,1,2.7-1.942,6.77,6.77,0,0,1,9.816,5.643,1.12,1.12,0,0,0,1.115,1.05Z" transform="translate(-176.747 -162.425)" fill="#c7a7fd"/>
        <path id="Path_38" data-name="Path 38" d="M334.442,283.338c-6.076-1.706-12.768.223-17.833,3.976a38.3,38.3,0,0,0-11.915,13.949c-4.645-1.234-9.356-2.506-13.451-5s-7.585-6.43-8.4-11.154c-.748-4.4.84-8.792,1.824-13.136s1.207-9.4-1.719-12.755c-4.173-4.777-11.8-3.386-17.9-5.131-8.976-2.572-14.12-11.915-17.02-20.786-1.876-5.748-3.753-12.322-9.133-15.091-3.963-2.047-8.779-1.378-13.083-2.572-4.947-1.378-8.95-5.21-11.548-9.645s-4-9.461-5.236-14.448a154.991,154.991,0,0,1,69.838-3.635c9.907,1.837,19.8,4.357,28.791,8.91s17.085,11.325,21.9,20.182c3.556,6.535,5.2,13.936,6.364,21.285,2.336,14.723,3.031,30.812-1.47,45.01Z" transform="translate(-169.435 -185.511)" fill="#34100e"/>
        <path id="Path_39" data-name="Path 39" d="M216.574,289.5a1.066,1.066,0,0,0,.591-.171,1.078,1.078,0,0,0,.328-1.483c-1.457-2.3-2.887-4.763-2.913-7.322a15.171,15.171,0,0,1,.905-4.5l2.611-8.582a1.071,1.071,0,0,0-2.047-.63l-2.611,8.582a17.384,17.384,0,0,0-1,5.144c.039,3.123,1.627,5.879,3.254,8.438a1.083,1.083,0,0,0,.879.5Z" transform="translate(-168.371 -160.363)" fill="#34100e"/>
        <path id="Path_40" data-name="Path 40" d="M248.934,263.9c4.488,7.532-3.517,15.2-10.852,10.38a4.472,4.472,0,0,1-1.391-1.457c-4.5-7.532,3.517-15.209,10.852-10.38A4.471,4.471,0,0,1,248.934,263.9Z" transform="translate(-161.206 -161.961)" fill="#34100e"/>
        <path id="Path_41" data-name="Path 41" d="M206.984,263.425c4.488,7.532-3.517,15.2-10.852,10.38a4.471,4.471,0,0,1-1.391-1.457c-4.5-7.532,3.517-15.209,10.852-10.38A4.471,4.471,0,0,1,206.984,263.425Z" transform="translate(-174.304 -162.108)" fill="#34100e"/>
        <g id="Group_11" data-name="Group 11" transform="translate(126.77 96.742)">
          <path id="Path_42" data-name="Path 42" d="M299.264,260.4a21.11,21.11,0,0,1,7.086-1.155c8.989.289,16.1,8.713,17.676,17.558,2.231,12.545-5.275,26.114-17.046,31-9.789,4.055-22.676,1.443-28.2-7.611C268.6,283.532,283.687,265.423,299.264,260.4Z" transform="translate(-275.462 -259.234)" fill="#ffacb9"/>
          <path id="Path_43" data-name="Path 43" d="M286.267,295.42a1.032,1.032,0,0,0,.709,1.26c.092,0,.157.026.262.026a1,1,0,0,0,.971-.748c2.257-8.4,4.619-14.461,7.624-19.762a41.567,41.567,0,0,1,13.49-14.684,2.6,2.6,0,0,1,.551-.354,1.14,1.14,0,0,1,.131-.092.835.835,0,0,0,.42-.577.746.746,0,0,0-.066-.774.829.829,0,0,0-.643-.446.927.927,0,0,0-.709.092c-.026.026-.066.026-.092.066-.394.223-.774.486-1.168.748a43.656,43.656,0,0,0-13.661,15.038c-3.1,5.459-5.485,11.692-7.808,20.209Z" transform="translate(-272.098 -259.233)" fill="#34100e"/>
        </g>
      </g>
      <g id="Group_13" data-name="Group 13" transform="translate(85.381 35.383)">
        <path id="Path_44" data-name="Path 44" d="M286.41,213.059c-5.643-4.225-31.468,15.629-40.588,22.9a4.8,4.8,0,0,0-1.719,2.624,4.9,4.9,0,0,0,.814,4.291,17.468,17.468,0,0,0,11.705,6.706,5.723,5.723,0,0,0,4.8-1.575c.328-.328.7-.7,1.115-1.05,8.083-7.9,29.447-29.722,23.87-33.882Zm-22.361,27.465a3.258,3.258,0,0,1-2.651.879,9.7,9.7,0,0,1-6.574-3.74,2.745,2.745,0,0,1,.512-3.858c5.065-4.068,19.5-15.143,22.663-12.794,3.254,2.48-10.078,15.747-13.936,19.526Z" transform="translate(-243.922 -212.475)" fill="#c7a7fd"/>
        <path id="Path_45" data-name="Path 45" d="M299.1,224.309c-4.973-3.714-25.563,11.194-36.638,19.8-1.509,1.181-2.861,2.231-3.95,3.11a5.01,5.01,0,0,0-.905,6.916,17.474,17.474,0,0,0,11.745,6.706c.092,0,.21.026.3.026a5.574,5.574,0,0,0,4.462-1.6c6.968-6.732,30.838-30.562,24.985-34.945Zm-22.361,27.465a3.258,3.258,0,0,1-2.651.879,10.053,10.053,0,0,1-4.015-1.417,9.3,9.3,0,0,1-2.559-2.323,2.655,2.655,0,0,1-.394-2.533,2.575,2.575,0,0,1,.905-1.325c5.065-4.068,19.526-15.143,22.663-12.794,3.254,2.48-10.078,15.747-13.936,19.526Z" transform="translate(-239.959 -208.962)" fill="#ffbe5c"/>
        <path id="Path_46" data-name="Path 46" d="M307.364,245.77c-4.225-4.593-27.518,6.4-39.984,12.729-1.6.814-3.018,1.535-4.2,2.178a5.03,5.03,0,0,0-2.178,6.64,17.429,17.429,0,0,0,10.288,8.753,5.313,5.313,0,0,0,1.785.3,5.655,5.655,0,0,0,3.2-.932c8.123-5.315,35.995-24.264,31.087-29.67Zm-27.1,22.807a3.422,3.422,0,0,1-2.782.367,9.746,9.746,0,0,1-5.761-4.895,2.828,2.828,0,0,1,1.234-3.74c5.735-3.018,21.993-11.22,24.657-8.333,2.743,3.044-12.86,13.582-17.348,16.6Z" transform="translate(-238.749 -202.42)" fill="#b2b68a"/>
      </g>
    </g>
    <g id="Group_15" data-name="Group 15" transform="translate(98.268 314.121)">
      <path id="Path_47" data-name="Path 47" d="M161.422,596.255a1.253,1.253,0,0,1-.184-.013,1.136,1.136,0,0,1-.932-1.286l9.068-55.324c-2.769-2.756-17.348-18.267-19.71-40.9-2.546-24.408,21.915-74.654,22.964-76.78a1.118,1.118,0,1,1,2.008.984c-.249.512-25.221,51.781-22.741,75.559,2.467,23.66,19.277,39.761,19.448,39.932a1.128,1.128,0,0,1,.341,1l-9.16,55.9a1.112,1.112,0,0,1-1.1.932Z" transform="translate(-149.479 -421.322)" fill="#34100e"/>
      <path id="Path_48" data-name="Path 48" d="M353.086,594.481a1.124,1.124,0,0,1-1.1-.945L326.093,434.61a1.133,1.133,0,0,1,.932-1.286,1.1,1.1,0,0,1,1.286.919L354.2,593.169a1.133,1.133,0,0,1-.919,1.286c-.066,0-.118.013-.184.013Z" transform="translate(-94.335 -417.579)" fill="#34100e"/>
    </g>
    <g id="Group_18" data-name="Group 18" transform="translate(0 34.917)">
      <g id="Group_17" data-name="Group 17">
        <path id="Path_49" data-name="Path 49" d="M206.352,344.1s-9.658,52.936-21.167,112.735c-9.5,49.341-17.781,97.71-51.178,107.749-16.442,4.947-34.145-1.732-44.472-15.458-12.466-16.561-24.093-47.228-4.33-97.107,33.935-85.677,70.35-126.475,70.35-126.475l50.8,18.542Z" transform="translate(-74.593 -172.025)" fill="#ffacb9"/>
        <path id="Path_50" data-name="Path 50" d="M133.45,367.417s10.17-19.343,11.141-28.213,3.32-71.386,10.826-77.541,18.109-1.3,18.109-1.3-.5-11.64,8.018-15.288a10.257,10.257,0,0,1,13,3.477s16.141-40.417,24.237-39.066-13.739,62.765-13.739,62.765l5.1,4.042s30.785-49.682,38.528-46.874-24.67,75.441-24.67,75.441,5.656,13.516-1.916,32.229-32.386,34.315-34.538,46.349L133.45,367.4Z" transform="translate(-56.215 -208.273)" fill="#ffacb9"/>
        <g id="Group_16" data-name="Group 16" transform="translate(137.607)">
          <path id="Path_51" data-name="Path 51" d="M205.17,273.742a.789.789,0,0,1-.538-.223,149.332,149.332,0,0,0-20.786-17.676.744.744,0,0,1,.853-1.22,151.292,151.292,0,0,1,20.983,17.847.744.744,0,0,1,0,1.05.723.723,0,0,1-.525.21Z" transform="translate(-178.186 -194.212)" fill="#34100e"/>
          <path id="Path_52" data-name="Path 52" d="M190.694,273.3a.625.625,0,0,1-.262-.052.748.748,0,0,1-.433-.958c6.745-17.925,18.581-53.776,15.038-61.177a1.794,1.794,0,0,0-1.01-1.024c-4.554-1.535-16.613,23.161-23.135,39.053a.744.744,0,0,1-1.378-.564c2.913-7.086,17.86-42.254,24.985-39.906a3.244,3.244,0,0,1,1.89,1.8c4.7,9.829-14.185,60.206-14.986,62.345a.746.746,0,0,1-.7.486Z" transform="translate(-179.457 -208.554)" fill="#34100e"/>
          <path id="Path_53" data-name="Path 53" d="M205.932,301.06a.778.778,0,0,1-.3-.066.74.74,0,0,1-.381-.984c8.162-18.24,28.646-67.1,25.563-73.945-.157-.341-.315-.433-.433-.459-5.433-1.719-25.956,27.662-37.662,46.546a.743.743,0,0,1-1.26-.787c3.163-5.1,31.205-49.761,39.381-47.189a2.214,2.214,0,0,1,1.339,1.273c3.989,8.871-24.355,72.476-25.563,75.179a.745.745,0,0,1-.682.446Z" transform="translate(-175.746 -203.71)" fill="#34100e"/>
        </g>
      </g>
      <path id="Path_54" data-name="Path 54" d="M130.759,359.548a.761.761,0,0,1-.433-.131.742.742,0,0,1-.184-1.037c.131-.184,13.122-18.634,14.618-29.158.381-2.664.748-8.451,1.207-15.76,1.85-29.381,4.16-58.513,10.026-63.71,6.456-5.708,16.259-5.039,22.335,1.535,1.785,1.942,10.669,11.941,9.75,18.24a4.942,4.942,0,0,1-2.493,3.674c-7.926,4.685-20.1-6.548-20.629-7.034a.743.743,0,1,1,1.01-1.089c.118.118,11.876,10.957,18.844,6.837a3.427,3.427,0,0,0,1.772-2.611c.682-4.658-5.564-12.886-9.369-17.007-5.511-5.971-14.4-6.6-20.248-1.43-5.905,5.223-8.175,41.192-9.527,62.686-.459,7.349-.827,13.149-1.22,15.878-1.535,10.879-14.33,29.04-14.868,29.814a.735.735,0,0,1-.6.315Z" transform="translate(-57.291 -196.9)" fill="#34100e"/>
      <path id="Path_55" data-name="Path 55" d="M177.9,272.689h-.328a.742.742,0,0,1,.039-1.483h.026c3.333.144,6.259-2.493,7.6-5.17,1.5-3.005,1.745-6.574,1.8-10,.052-3.989-.118-8.188-1.732-11.968-1.706-4-4.96-6.8-8.5-7.322A10.355,10.355,0,0,0,167.2,241.2a15.034,15.034,0,0,0-2.257,10.879.752.752,0,0,1-.63.853.74.74,0,0,1-.84-.63,16.634,16.634,0,0,1,2.52-11.968,11.893,11.893,0,0,1,11.036-5.065c4.042.591,7.742,3.74,9.658,8.215,1.719,4.029,1.9,8.425,1.85,12.571-.052,3.6-.315,7.362-1.955,10.642-1.509,3.031-4.75,6.01-8.661,6.01Z" transform="translate(-46.907 -200.246)" fill="#34100e"/>
      <path id="Path_56" data-name="Path 56" d="M175.655,389.61h-.066a.76.76,0,0,1-.682-.814c.066-.7,1.522-17.072,3.963-24.71,1.417-4.462,6.207-9.173,12.283-15.13a171.9,171.9,0,0,0,15.117-16.285c7.952-10.065,11.01-22.505,9.094-36.992-.709-5.3-2.6-8.385-6.378-14.527-1.089-1.772-2.349-3.805-3.766-6.207-6.719-11.4-11.207-18.175-17.033-16.075-4.422,1.6-2.021,23.542.525,36.992a.713.713,0,0,1-.118.564.694.694,0,0,1-.5.3c-10.813,1.693-23.594,11.9-23.725,12.007a.747.747,0,0,1-.932-1.168c.525-.42,12.663-10.117,23.673-12.191-1.1-6.049-6.128-35.483.577-37.924,7.388-2.677,12.689,6.312,18.831,16.718,1.417,2.388,2.651,4.422,3.74,6.181,3.884,6.325,5.84,9.488,6.587,15.117,1.981,14.894-1.181,27.715-9.4,38.108a174.914,174.914,0,0,1-15.235,16.416c-5.918,5.813-10.59,10.406-11.9,14.527-2.388,7.493-3.884,24.224-3.9,24.395a.736.736,0,0,1-.748.682Z" transform="translate(-46.941 -193.435)" fill="#34100e"/>
    </g>
  </g>
  <g id="Group_24" data-name="Group 24" transform="translate(15.498 29.368)">
    <circle id="Ellipse_1" data-name="Ellipse 1" cx="23.581" cy="23.581" r="23.581" transform="matrix(0.973, -0.231, 0.231, 0.973, 429.961, 309.835)" fill="#ffdbe2"/>
    <circle id="Ellipse_2" data-name="Ellipse 2" cx="23.581" cy="23.581" r="23.581" transform="matrix(0.967, -0.254, 0.254, 0.967, 36.595, 518.56)" fill="#ffdbe2"/>
    <circle id="Ellipse_3" data-name="Ellipse 3" cx="23.581" cy="23.581" r="23.581" transform="translate(80.598 48.238)" fill="#ffdbe2"/>
    <g id="Group_23" data-name="Group 23">
      <g id="Group_20" data-name="Group 20" transform="translate(288.931)">
        <path id="Path_57" data-name="Path 57" d="M299.565,207.378a1.114,1.114,0,0,1-1.115-1.115V156.305a1.115,1.115,0,1,1,2.231,0v49.957a1.114,1.114,0,0,1-1.115,1.115Z" transform="translate(-273.478 -155.19)" fill="#ffdbe2"/>
        <path id="Path_58" data-name="Path 58" d="M286.1,198.326a1.092,1.092,0,0,1-.787-.328,1.117,1.117,0,0,1,0-1.575L320.643,161.1a1.113,1.113,0,0,1,1.575,1.575L286.892,198A1.092,1.092,0,0,1,286.1,198.326Z" transform="translate(-277.68 -153.447)" fill="#ffdbe2"/>
        <path id="Path_59" data-name="Path 59" d="M330.493,176.461H280.535a1.115,1.115,0,1,1,0-2.231h49.957a1.115,1.115,0,1,1,0,2.231Z" transform="translate(-279.42 -149.245)" fill="#ffdbe2"/>
        <path id="Path_60" data-name="Path 60" d="M321.44,198.326a1.092,1.092,0,0,1-.787-.328l-35.326-35.326A1.113,1.113,0,0,1,286.9,161.1l35.326,35.326a1.117,1.117,0,0,1,0,1.575A1.092,1.092,0,0,1,321.44,198.326Z" transform="translate(-277.677 -153.447)" fill="#ffdbe2"/>
      </g>
      <g id="Group_21" data-name="Group 21" transform="translate(420.681 495.414)">
        <path id="Path_61" data-name="Path 61" d="M399.965,584.908a1.114,1.114,0,0,1-1.115-1.115V533.835a1.115,1.115,0,0,1,2.231,0v49.957A1.114,1.114,0,0,1,399.965,584.908Z" transform="translate(-373.878 -532.72)" fill="#ffdbe2"/>
        <path id="Path_62" data-name="Path 62" d="M386.5,575.846a1.092,1.092,0,0,1-.787-.328,1.117,1.117,0,0,1,0-1.575l35.326-35.326a1.113,1.113,0,0,1,1.575,1.575l-35.326,35.326A1.092,1.092,0,0,1,386.5,575.846Z" transform="translate(-378.08 -530.98)" fill="#ffdbe2"/>
        <path id="Path_63" data-name="Path 63" d="M430.893,553.981H380.935a1.115,1.115,0,1,1,0-2.231h49.957a1.115,1.115,0,1,1,0,2.231Z" transform="translate(-379.82 -526.778)" fill="#ffdbe2"/>
        <path id="Path_64" data-name="Path 64" d="M421.84,575.846a1.092,1.092,0,0,1-.787-.328l-35.326-35.326a1.113,1.113,0,0,1,1.575-1.575l35.326,35.326a1.117,1.117,0,0,1,0,1.575A1.092,1.092,0,0,1,421.84,575.846Z" transform="translate(-378.077 -530.98)" fill="#ffdbe2"/>
      </g>
      <g id="Group_22" data-name="Group 22" transform="translate(0 198.018)">
        <path id="Path_65" data-name="Path 65" d="M79.4,358.278a1.114,1.114,0,0,1-1.115-1.115V307.205a1.115,1.115,0,1,1,2.231,0v49.957A1.114,1.114,0,0,1,79.4,358.278Z" transform="translate(-53.295 -306.09)" fill="#ffdbe2"/>
        <path id="Path_66" data-name="Path 66" d="M65.935,349.216a1.092,1.092,0,0,1-.787-.328,1.117,1.117,0,0,1,0-1.575l35.326-35.326a1.113,1.113,0,0,1,1.575,1.575L66.722,348.888A1.092,1.092,0,0,1,65.935,349.216Z" transform="translate(-57.497 -304.35)" fill="#ffdbe2"/>
        <path id="Path_67" data-name="Path 67" d="M110.326,327.351H60.355a1.115,1.115,0,0,1,0-2.231h49.957a1.115,1.115,0,1,1,0,2.231Z" transform="translate(-59.24 -300.148)" fill="#ffdbe2"/>
        <path id="Path_68" data-name="Path 68" d="M101.26,349.216a1.092,1.092,0,0,1-.787-.328L65.147,313.562a1.113,1.113,0,0,1,1.575-1.575l35.326,35.326a1.117,1.117,0,0,1,0,1.575A1.092,1.092,0,0,1,101.26,349.216Z" transform="translate(-57.497 -304.35)" fill="#ffdbe2"/>
      </g>
    </g>
  </g>
</svg>
