<svg xmlns="http://www.w3.org/2000/svg" width="106.563" height="105.799" viewBox="0 0 106.563 105.799">
  <g id="Layer_1" data-name="Layer 1" transform="translate(0.001 -0.053)">
    <g id="Group_405" data-name="Group 405" transform="translate(-0.001 0.053)">
      <path id="Path_737" data-name="Path 737" d="M784.969,644.953c4.323,4.776,3.3,10.68,4.323,9.2.9-1.3-.121-10.548-7.533-20.29-.675-.741-1.348-1.448-2-2.112-.961-.976-1.922-1.9-2.853-2.763,2.716,3.439,7.435,9.643,8.818,12.921,1.979,4.689-2.784-2.344-5.935-7.12s-6.3-7.559-8.06-8.251c-1.1-.432-1.009-1.411.111-1.4a10.506,10.506,0,0,0-5.7-.221c-5.88,1.367-8.517.526-11.979-.29a5.276,5.276,0,0,0-3.082.631c.52.274.388.946-.472,1.284a13.823,13.823,0,0,0-4.305,3.415l3.636,1.474c2.043-1.626,4.018-2.784,5.548-3a.36.36,0,0,1,.156-.036h10.775a.359.359,0,0,1,.156.036c3.057.428,7.892,4.625,11.488,8.787,1.113,1.289,2.154,2.617,3.1,3.95,1.538,1.438,2.883,2.756,3.812,3.782Z" transform="translate(-692.273 -579.358)" fill="#efefef"/>
      <path id="Path_738" data-name="Path 738" d="M725.608,679.646c-.1.092-.2.185-.3.279l.285.116c.264-.336.513-.652.743-.941q-.375.276-.73.547Z" transform="translate(-672.802 -629.941)" fill="#efefef"/>
      <path id="Path_739" data-name="Path 739" d="M1228.391,753.01c7.412,9.742,8.434,18.993,7.533,20.29-1.026,1.476,0-4.428-4.323-9.2-.929-1.026-2.273-2.344-3.812-3.782a42.654,42.654,0,0,1,2.614,4.16,21.017,21.017,0,0,1,2.784,8.146,19.529,19.529,0,0,1-.441,6.017,4.666,4.666,0,0,1,.177.518,5.916,5.916,0,0,1,3.749,1.42c.063.055.125.111.185.168q.179-.268.357-.547a31.972,31.972,0,0,0,.75-9.416c-.365-6.224-5.037-12.794-9.571-17.77Z" transform="translate(-1138.906 -698.501)" fill="#d8d8d8"/>
      <path id="Path_740" data-name="Path 740" d="M1353.191,1129.256c.066-.238.127-.476.186-.716-.118.185-.238.368-.357.547.059.055.115.112.171.169Z" transform="translate(-1255.07 -1046.845)" fill="#bfbfbf"/>
      <path id="Path_741" data-name="Path 741" d="M897.618,1324.531a4.467,4.467,0,0,1,.136-.586l-.081-.012a3.844,3.844,0,0,1-2.7-1.853l-.141,5.792c1.258.107,2.5.167,3.717.184a4.482,4.482,0,0,1-.928-3.526Z" transform="translate(-830.05 -1226.374)" fill="#bfbfbf"/>
      <path id="Path_742" data-name="Path 742" d="M813.45,687.45h-1.011c-1.244,0-3.129.971-5.269,2.623l2.067.838c2.332-2.474,3.638-3.23,4.214-3.46Z" transform="translate(-748.736 -637.687)" fill="#f9cdcd"/>
      <path id="Path_743" data-name="Path 743" d="M927.558,851.156q-.013-.252-.033-.5c-.291-3.708-2.67-8.654-6.475-13.581a14.6,14.6,0,0,1-.749,8.585q.26.462.5.93c3.53,6.932.118,6.954-2.591,2.481-1.978,2.346-5.131,4.494-10.1,5.854a26.025,26.025,0,0,1-8.827.944l-.23,9.455q1.161.1,2.341.108a4.525,4.525,0,0,1,.037-.642,4.131,4.131,0,0,1,.414-1.386,4.5,4.5,0,0,1,6.565-1.754,5.181,5.181,0,0,1,.758-2.886,6.753,6.753,0,0,1,7.664-2.894,6.3,6.3,0,0,1,5.047-2.709,6.566,6.566,0,0,1,4.245,1.294,12.3,12.3,0,0,0,1.436-3.3Z" transform="translate(-833.965 -776.475)" fill="#f9cdcd"/>
      <path id="Path_744" data-name="Path 744" d="M730.511,673q-.532.479-1.081.987.355-.27.73-.547Z" transform="translate(-676.624 -624.283)" fill="#d8d8d8"/>
      <path id="Path_745" data-name="Path 745" d="M787.969,598.451a5.263,5.263,0,0,1,3.082-.631c3.462.817,6.1,1.658,11.979.29a10.506,10.506,0,0,1,5.7.221,2.876,2.876,0,0,1,.815.14c-1.677-1.385-2.971-2.362-3.565-2.8a4.63,4.63,0,0,1-2.373,1.12,28.248,28.248,0,0,1-11.521,0,4.914,4.914,0,0,1-2.313-1.053c-.658.489-2,1.506-3.7,2.922A2.335,2.335,0,0,1,787.969,598.451Z" transform="translate(-729.164 -552.551)" fill="#d8d8d8"/>
      <path id="Path_746" data-name="Path 746" d="M734.782,633.837c.86-.338.992-1.011.472-1.284a2.338,2.338,0,0,0-1.9.207c-.917.762-1.939,1.638-3.02,2.611l-.351.44c-.23.289-.479.6-.743.941l1.237.5A13.812,13.812,0,0,1,734.782,633.837Z" transform="translate(-676.448 -586.653)" fill="#fff"/>
      <path id="Path_747" data-name="Path 747" d="M1087.677,632.411c-1.12-.006-1.21.972-.111,1.4,1.758.692,4.909,3.476,8.059,8.251s7.913,11.809,5.935,7.12c-1.383-3.277-6.1-9.481-8.818-12.921-1.542-1.428-3-2.684-4.251-3.715a2.87,2.87,0,0,0-.814-.14Z" transform="translate(-1008.112 -586.632)" fill="#fff"/>
      <path id="Path_748" data-name="Path 748" d="M849.354,716.133c4.969-1.36,8.122-3.509,10.1-5.854-.243-.4-.48-.838-.707-1.309-2.747-5.731-5.825-11.983-8.792-15.5,0,0,7.576,6.226,11.591,13.4a14.605,14.605,0,0,0,.749-8.585q-.874-1.133-1.846-2.259c-4.36-5.047-9.061-8.573-11.43-8.573h-9.1c-.576.23-1.881.986-4.214,3.46l5.168,2.1a.362.362,0,0,1,.226.344l-.577,23.726a25.989,25.989,0,0,0,8.827-.944Z" transform="translate(-775.21 -637.687)" fill="#fedbdb"/>
      <path id="Path_749" data-name="Path 749" d="M898.13,1230.082a3.818,3.818,0,0,1,2.537-1.671,4.444,4.444,0,0,1-.128-1.012q-1.177-.012-2.34-.108Z" transform="translate(-833.111 -1138.446)" fill="#efbdbd"/>
      <path id="Path_750" data-name="Path 750" d="M1274.15,1036.122a18.871,18.871,0,0,0,.286-4.482,12.269,12.269,0,0,1-1.436,3.3A5.46,5.46,0,0,1,1274.15,1036.122Z" transform="translate(-1180.843 -956.96)" fill="#efbdbd"/>
      <path id="Path_751" data-name="Path 751" d="M1032.49,770.61c2.967,3.517,6.045,9.769,8.792,15.5.226.471.463.908.706,1.309,2.709,4.472,6.121,4.451,2.591-2.481-.159-.311-.326-.622-.5-.93-4.015-7.171-11.591-13.4-11.591-13.4Z" transform="translate(-957.745 -714.827)" fill="#fff5f5"/>
      <path id="Path_752" data-name="Path 752" d="M1089.911,155.426c-6.848.082-10.893,3.532-12.864,3.542a6.7,6.7,0,0,0-2.706.536c0,.009,0,.018,0,.026a5.867,5.867,0,0,1,.732.89,5.7,5.7,0,0,1,.515.5,3.534,3.534,0,0,1,2.137,1.774c1.6,2.4,5.421,5.052,13.121,4.066a12.075,12.075,0,0,0,9.615-6.447,8.334,8.334,0,0,0-.339-.881,14.883,14.883,0,0,0-10.21-4.007Z" transform="translate(-996.565 -144.177)" fill="#fedbdb"/>
      <path id="Path_753" data-name="Path 753" d="M845.54,379.8c.515.245,1.6.708,3.8,1.5.388.051.793.093,1.21.126C847.829,380.081,847.223,379.57,845.54,379.8Z" transform="translate(-784.328 -352.261)" fill="#bfbfbf"/>
      <path id="Path_754" data-name="Path 754" d="M988.4,370.574a5.294,5.294,0,0,1-1.855,1.456c.518-.047,1.013-.108,1.48-.182a5.831,5.831,0,0,0,1.669-.971c.541-.483.647-.866.571-1.155l-.085-.03-.158-.052a2.517,2.517,0,0,0-1.622.933Z" transform="translate(-915.121 -342.884)" fill="#bfbfbf"/>
      <path id="Path_755" data-name="Path 755" d="M943.888,414.423a3.032,3.032,0,0,1-.952-.333q-.493.015-1,.016c-.177,0-.353,0-.528-.005,1.283.185,2.575.337,3.594.448A5.485,5.485,0,0,0,943.888,414.423Z" transform="translate(-873.258 -384.116)" fill="#bfbfbf"/>
      <path id="Path_756" data-name="Path 756" d="M947.455,432.116a3.443,3.443,0,0,0-1.549-3.576,10.386,10.386,0,0,1-3.585,1.749c-2.34.575-1.849,6.324,0,7.967,1.577,1.4,5.453,1.368,6.661.513v-.544a8.321,8.321,0,0,1-1.527-6.108Z" transform="translate(-872.641 -397.52)" fill="#bfbfbf"/>
      <path id="Path_757" data-name="Path 757" d="M946.043,224.766a3.923,3.923,0,0,0-1.076-2.706,4.547,4.547,0,0,0-1.8.6s-1.4.9-1.232,3.408a4.166,4.166,0,0,0,.827,2.593,3.885,3.885,0,0,0,.674-.178,3.955,3.955,0,0,0,.563-.256,4.334,4.334,0,0,0,.358-2.4c-.206-2.217-.082-2.382.329-1.355a5.658,5.658,0,0,1,.7,2.474,3.978,3.978,0,0,0,.4-.78,3.925,3.925,0,0,0,.253-1.393Z" transform="translate(-873.735 -205.988)" fill="#bfbfbf"/>
      <path id="Path_758" data-name="Path 758" d="M955.66,342.444a4.771,4.771,0,0,0,.457,1.516,1.562,1.562,0,0,0,1.494.518,1.93,1.93,0,0,0,.2-.179l-.9-1.825A2.5,2.5,0,0,0,955.66,342.444Z" transform="translate(-886.476 -317.598)" fill="#b2b2b2"/>
      <path id="Path_759" data-name="Path 759" d="M906.369,345.442c-.036-.2-.083-.437-.127-.69-1.116.306-1.208-.19-1.927-.106a.95.95,0,0,0-.329.112l-.806,1.634a3.641,3.641,0,0,0,2.516.917,2.876,2.876,0,0,0,.673-1.866Z" transform="translate(-837.796 -319.69)" fill="#b2b2b2"/>
      <path id="Path_760" data-name="Path 760" d="M1022.4,239.539a2.693,2.693,0,0,1-2.692.92,9.593,9.593,0,0,1-.956-.178.634.634,0,0,0,.495.795c.955.281,1.934-.027,2.723.681a1.218,1.218,0,0,0,1.755-.46c0-.09,0-.181-.008-.271a4.275,4.275,0,0,0-.114-.734c-.315-.622-.75-1.166-1.2-.752Z" transform="translate(-944.988 -222.068)" fill="#bfbfbf"/>
      <path id="Path_761" data-name="Path 761" d="M893.588,427.106a29.484,29.484,0,0,0,3.251.172,24.307,24.307,0,0,0,5.586-.573c1.641-.408,2.075-.869,2.075-1.056v-1.232c-1.208.856-5.084.889-6.661-.513-1.849-1.643-2.341-7.392,0-7.967a10.388,10.388,0,0,0,3.585-1.749,4.806,4.806,0,0,0-1.52-.586c-1.019-.11-2.311-.263-3.594-.448-.643-.01-1.271-.038-1.876-.085a9.013,9.013,0,0,0-1.564,5.188c-.218,3.927.009,7.779.717,8.847Z" transform="translate(-828.159 -383.17)" fill="#b2b2b2"/>
      <path id="Path_762" data-name="Path 762" d="M847.84,592.44a2.8,2.8,0,0,0,.287.161Z" transform="translate(-786.462 -549.555)" fill="#b2b2b2"/>
      <path id="Path_763" data-name="Path 763" d="M843.8,362.907l.125.061c1.683-.232,2.289.279,5.007,1.627.784.063,1.612.1,2.461.1.951,0,1.874-.041,2.739-.12a5.3,5.3,0,0,0,1.855-1.456,2.517,2.517,0,0,1,1.622-.933,16.3,16.3,0,0,0-3.018-.582l.2.411a.36.36,0,0,1-.013.344c-.034.058-.873,1.426-3.71,1.426s-3.676-1.368-3.711-1.426a.362.362,0,0,1-.013-.344l.161-.326c-2.413.334-3.452.884-3.709,1.221Z" transform="translate(-782.714 -335.426)" fill="#b2b2b2"/>
      <path id="Path_764" data-name="Path 764" d="M964.586,397.861a4.8,4.8,0,0,1,1.519.586,3.444,3.444,0,0,1,1.549,3.576,8.316,8.316,0,0,0,1.527,6.108V396.1l-.009.006-.042.025-.045.027-.045.025-.047.026-.048.025-.048.025-.051.025-.051.025-.053.025-.053.024-.056.025-.056.024-.058.024-.058.023-.061.024-.06.022-.063.023-.063.022-.065.023-.066.022-.067.022-.069.022-.068.022-.074.022-.068.02-.081.023-.066.019-.093.025-.059.016-.156.04a23.448,23.448,0,0,1-4.763.578,3.029,3.029,0,0,0,.952.333,5.482,5.482,0,0,1,1.116.126Z" transform="translate(-892.84 -367.429)" fill="#d8d8d8"/>
      <path id="Path_765" data-name="Path 765" d="M1008.659,371.935a5.867,5.867,0,0,1-1.669.971c.489-.077.948-.167,1.367-.271,1.641-.408,2.075-.869,2.075-1.057,0-.14-.256-.463-1.2-.8.076.289-.03.672-.571,1.155Z" transform="translate(-934.09 -343.942)" fill="#d8d8d8"/>
      <path id="Path_766" data-name="Path 766" d="M842.966,379.66a.269.269,0,0,0-.066.156c0,.188.434.649,2.075,1.057a17.239,17.239,0,0,0,1.915.35c-2.2-.793-3.283-1.255-3.8-1.5l-.125-.061Z" transform="translate(-781.88 -352.179)" fill="#d8d8d8"/>
      <path id="Path_767" data-name="Path 767" d="M842.871,409.918c0,.087.094.233.358.405l.287.161a7.182,7.182,0,0,0,1.43.489,18.265,18.265,0,0,0,2.334.4c-.709-1.068-.935-4.92-.717-8.847a9.015,9.015,0,0,1,1.564-5.188,20.956,20.956,0,0,1-3.356-.5l-.157-.04-.051-.014-.1-.028-.059-.017-.088-.025-.061-.018-.082-.025-.061-.019-.077-.025-.06-.02-.073-.025-.058-.02-.07-.025-.056-.021-.067-.025-.055-.022-.064-.025-.054-.022-.061-.026-.051-.022-.059-.027-.048-.022-.056-.027-.046-.023-.054-.027-.044-.023-.05-.028-.042-.024-.048-.028-.04-.024-.01-.007v13.808Z" transform="translate(-781.852 -367.438)" fill="#a5a5a5"/>
      <path id="Path_768" data-name="Path 768" d="M952.705,323.142l-.79-1.6-.046.012-.066.017-.115.028-.071.016-.114.022c-.052.01-.1.019-.157.027l-.075.012-.114.014-.028,0a8.927,8.927,0,0,1,.327,1.42,2.5,2.5,0,0,1,1.247.03Z" transform="translate(-882.274 -298.266)" fill="#a5a5a5"/>
      <path id="Path_769" data-name="Path 769" d="M914.629,323.232c.719-.085.812.412,1.927.106a5.8,5.8,0,0,1-.13-1.61l-.1,0h-.02l-.127-.007-.053,0-.121-.01-.059-.006-.117-.014-.066-.01c-.056-.009-.112-.018-.169-.029l-.109-.022-.072-.017-.114-.028-.067-.017-.046-.012-.885,1.794a.935.935,0,0,1,.329-.112Z" transform="translate(-848.111 -298.276)" fill="#a5a5a5"/>
      <path id="Path_770" data-name="Path 770" d="M938.477,325.276c.044.253.09.492.127.69a2.876,2.876,0,0,1-.673,1.866c.146.009.3.014.458.014a4.34,4.34,0,0,0,2.777-.752,1.562,1.562,0,0,1-1.494-.518,4.786,4.786,0,0,1-.457-1.516,8.941,8.941,0,0,0-.327-1.42l-.033,0-.12.01-.054,0-.126.007h-.022l-.143,0h-.042a5.8,5.8,0,0,0,.13,1.61Z" transform="translate(-870.03 -300.214)" fill="#bfbfbf"/>
      <path id="Path_771" data-name="Path 771" d="M908.092,230.32c-1.478.78-2.629-.534-3.655,1.437a3.472,3.472,0,0,0,1.521,4.478,3.96,3.96,0,0,0,1.057.144,4.005,4.005,0,0,0,.673-.057,4.162,4.162,0,0,1-.828-2.593C906.7,231.223,908.092,230.32,908.092,230.32Z" transform="translate(-838.657 -213.65)" fill="#b2b2b2"/>
      <path id="Path_772" data-name="Path 772" d="M891.034,215.811c1.026-1.971,2.177-.657,3.655-1.437a4.545,4.545,0,0,1,1.8-.6,3.953,3.953,0,0,0-.785-.647l-.022.03-.035.051q-.028.039-.059.076l-.038.047c-.023.027-.047.053-.072.079l-.035.037c-.037.037-.074.072-.114.106l-.03.024c-.031.026-.064.052-.1.077l-.049.035c-.028.02-.057.04-.086.058l-.055.034c-.03.018-.059.035-.09.051l-.057.03-.1.05-.048.022c-.051.022-.1.043-.158.062l-.021.007q-.07.025-.143.046l-.057.015c-.038.01-.075.02-.114.028l-.065.013-.112.02-.066.009c-.041.005-.081.009-.122.012l-.058.005c-.06,0-.121.007-.182.007s-.122,0-.182-.007l-.058-.005-.122-.012-.066-.009-.113-.02-.064-.013-.114-.028-.056-.014c-.049-.014-.1-.03-.146-.046l-.019-.006q-.08-.029-.159-.063l-.046-.021c-.036-.017-.072-.033-.106-.051l-.054-.029c-.032-.017-.063-.035-.093-.054l-.053-.033c-.031-.02-.06-.04-.09-.061l-.046-.033c-.035-.026-.07-.054-.1-.081l-.024-.019c-.041-.035-.079-.071-.117-.108l-.03-.032c-.026-.028-.052-.055-.077-.084l-.036-.044c-.021-.026-.041-.053-.061-.08l-.034-.048-.022-.032a3.952,3.952,0,0,0,.743,7.068c.1.035.192.064.29.092a3.473,3.473,0,0,1-1.521-4.478Z" transform="translate(-825.255 -197.705)" fill="#a5a5a5"/>
      <path id="Path_773" data-name="Path 773" d="M971.317,247.5c-.41-1.027-.534-.862-.329,1.355a4.328,4.328,0,0,1-.358,2.4,3.946,3.946,0,0,0,1.39-1.286A5.656,5.656,0,0,0,971.317,247.5Z" transform="translate(-900.363 -229.025)" fill="#d8d8d8"/>
      <path id="Path_774" data-name="Path 774" d="M1006.909,250.433a4.663,4.663,0,0,1-.149,1.171,5.78,5.78,0,0,1,3.9,1.487,4.052,4.052,0,0,1,.733.966,5.2,5.2,0,0,0,1.22-3.174,1.218,1.218,0,0,1-1.755.46c-.788-.709-1.768-.4-2.723-.681a.634.634,0,0,1-.494-.795c-.118-.038-.171-.08-.141-.136-.247.052-.463.09-.631.116a4.791,4.791,0,0,1,.038.586Z" transform="translate(-933.877 -231.655)" fill="#b2b2b2"/>
      <path id="Path_775" data-name="Path 775" d="M1017.047,224.377a9.56,9.56,0,0,0,.956.178,2.693,2.693,0,0,0,2.692-.92c.452-.414.887.13,1.2.752a5.193,5.193,0,0,0-1.146-2.137,6.8,6.8,0,0,1-3.846,1.991C1016.877,224.3,1016.929,224.339,1017.047,224.377Z" transform="translate(-943.281 -206.164)" fill="#d8d8d8"/>
      <path id="Path_776" data-name="Path 776" d="M1106.828,229.416c-7.7.985-11.519-1.663-13.121-4.066a3.535,3.535,0,0,0-2.137-1.774,4.948,4.948,0,0,1,1.275,2.712c.37,2.8,1.434,3.436,5.175,4.792s10.411,1.971,15.03-.8a7.505,7.505,0,0,0,3.521-6.867c-.038-.148-.081-.3-.128-.442a12.076,12.076,0,0,1-9.615,6.447Z" transform="translate(-1012.547 -206.832)" fill="#f9cdcd"/>
      <path id="Path_777" data-name="Path 777" d="M1097.132,231.632c-4.62,2.772-11.29,2.156-15.03.8s-4.8-1.988-5.175-4.792a4.942,4.942,0,0,0-1.275-2.712,5.674,5.674,0,0,0-.515-.5,5.427,5.427,0,0,1,.946,2.665,5.988,5.988,0,0,1-1.672,4.313c.02,1.111.315,1.66,2.385,1.83a6.157,6.157,0,0,1,2.553,1,17.385,17.385,0,0,0,7.443,2.384,15.263,15.263,0,0,0,8.81-1.6,9.7,9.7,0,0,0,4.932-5.407,8.942,8.942,0,0,0,.121-4.847,7.506,7.506,0,0,1-3.521,6.867Z" transform="translate(-996.63 -208.187)" fill="#efbdbd"/>
      <path id="Path_778" data-name="Path 778" d="M592.947,424.652a3.489,3.489,0,0,1-.688-1.173,4.459,4.459,0,0,0-2.637-2.168,5.7,5.7,0,0,1-.928,3.9c-.034.051-.069.1-.1.151A8.4,8.4,0,0,0,592.947,424.652Z" transform="translate(-545.98 -390.814)" fill="#bfbfbf"/>
      <path id="Path_779" data-name="Path 779" d="M596.511,395.022a4.934,4.934,0,0,1,.305.8,2.193,2.193,0,0,0,.1-2.038c-.546-1.325-2.212-2.029-2.928-2.381-.838-.01-1.7-.022-2.5-.035a4.931,4.931,0,0,1,.68,1.472C593.953,393.118,595.892,393.72,596.511,395.022Z" transform="translate(-548.67 -363.041)" fill="#bfbfbf"/>
      <path id="Path_780" data-name="Path 780" d="M621.4,371.1v-.167l-.7-.659a22.608,22.608,0,0,0-6.723-1.254,3.117,3.117,0,0,1-.932,1.04c1.015-.014,2.041-.025,2.941-.033a.329.329,0,0,1,.191.06c.471.324.945.644,1.415.972l1.2.832A3.558,3.558,0,0,0,621.4,371.1Z" transform="translate(-568.669 -342.309)" fill="#bfbfbf"/>
      <path id="Path_781" data-name="Path 781" d="M248.677,394.4c1.411-2.443,7.661-2.257,7.661-2.257s-5.261.65-6.179,3.09a4.2,4.2,0,0,1-.355.735c1.417,1.172,3.887,1.661,7.12,1.169.951-.145,1.858-.256,2.73-.34a4.032,4.032,0,0,1-.443-.572,3.47,3.47,0,0,1-.218-.409,4.78,4.78,0,0,1-.679-3.21q.017-.119.041-.239c-.054-.006-.107-.012-.16-.02a4.441,4.441,0,0,1-2.7-1.486c-1.261.025-2.518.046-3.759.065l-2.588.026-.338.24a4.678,4.678,0,0,0-.128,3.207Z" transform="translate(-230.465 -362.568)" fill="#bfbfbf"/>
      <path id="Path_782" data-name="Path 782" d="M220.933,489.212a3.507,3.507,0,0,0,.413.242,22.555,22.555,0,0,0,6.092.44c8.195-.4,7.936-.292,18.074-.032,5.763.148,8.318-.242,9.45-.606L256.7,487.1v-.43c-.974,1.157-3.665,1.742-4.879,1.954-.135.121-.266.237-.389.345a.324.324,0,0,1-.22.083l-1.787-.018c-1.7-.017-3.658-.051-5.361-.089-2.315-.054-4.842-.119-7.149-.227h0c-2.3.108-4.834.174-7.149.227-1.7.037-3.659.072-5.361.089l-1.787.018a.323.323,0,0,1-.219-.083c-.711-.623-1.657-1.5-2.449-2.216a2.246,2.246,0,0,0,.982,2.458Z" transform="translate(-203.97 -451.442)" fill="#bfbfbf"/>
      <path id="Path_783" data-name="Path 783" d="M195.61,370.356a1.536,1.536,0,0,0,1.246.885.352.352,0,0,1,.15-.267l1.41-.979c.469-.327.943-.648,1.415-.972a.323.323,0,0,1,.191-.06c1.656.014,3.736.04,5.391.071l.686.013a5.016,5.016,0,0,1-.541-1.047c-2.123-.025-3.851-.066-4.934-.122-2.031-.1-3.844,1.286-5.013,2.477Z" transform="translate(-181.449 -341.245)" fill="#bfbfbf"/>
      <path id="Path_784" data-name="Path 784" d="M290.632,613.5c1.379,1.066,13.1.821,18.966.821,4.415,0,4.253-1.844,3.9-2.755a2.221,2.221,0,0,0-1.112-.329h-.024c-.014,0-.03,0-.044,0h-1.239c-.264.088-.646.2-1.158.32a1.79,1.79,0,0,1,.906,1.01c.285,1.171-9.1.911-14.337.911-4.3,0-5.026-1.445-3.548-2.215l-.1-.025h-1.8a2.191,2.191,0,0,0-1.289.455,1.95,1.95,0,0,0,.874,1.807Z" transform="translate(-268.771 -566.992)" fill="#b2b2b2"/>
      <path id="Path_785" data-name="Path 785" d="M333.209,578.583c-.6-.277-2.174-.571-6.3-.34-6.966.389-6.345.893-10.345.316a12.061,12.061,0,0,0-3.992-.162v1.434h20.64v-1.247Z" transform="translate(-289.942 -536.309)" fill="#b2b2b2"/>
      <path id="Path_786" data-name="Path 786" d="M665.9,404.2V397.76a3.555,3.555,0,0,1-2.608.791l.212.148a.35.35,0,0,1,.151.29c0,.813.012,2.673.006,3.46l0,1.153a.358.358,0,0,1-.115.262c-.742.661-1.717,1.567-2.521,2.288C662.235,405.939,664.925,405.354,665.9,404.2Z" transform="translate(-613.166 -368.969)" fill="#b2b2b2"/>
      <path id="Path_787" data-name="Path 787" d="M582.271,398.869c.342-.317.676-.625.975-.9,0-1.248-.008-3,0-4.272-.791-.549-1.805-1.281-2.566-1.82-.594,0-1.237-.012-1.895-.02.717.352,2.382,1.055,2.928,2.381a2.193,2.193,0,0,1-.1,2.038c.392,1.422-.412,1.863-1.179,1.055a8.4,8.4,0,0,1-4.357.708,5.861,5.861,0,0,1-.975,1.071,15.786,15.786,0,0,0,7.17-.243Z" transform="translate(-533.467 -363.496)" fill="#b2b2b2"/>
      <path id="Path_788" data-name="Path 788" d="M182.8,402.18a13.752,13.752,0,0,0-1,1.142v5.4l.883,1.094a11.564,11.564,0,0,0,3.33,1.26,3.606,3.606,0,0,1-.413-.242,2.248,2.248,0,0,1-.982-2.458c-.161-.146-.316-.287-.462-.418a.35.35,0,0,1-.115-.262l0-1.153c-.007-.776,0-2.658.006-3.46,0-.007,0-.014,0-.022A1.54,1.54,0,0,1,182.8,402.18Z" transform="translate(-168.639 -373.069)" fill="#b2b2b2"/>
      <path id="Path_789" data-name="Path 789" d="M233.975,402.3c.9-.25,1.666-.484,2.349-.688a4.152,4.152,0,0,1-.659-.577c-.872.084-1.779.2-2.73.34-3.233.492-5.7,0-7.12-1.169-.96,1.554-2.3.88-1.206-1.418.025-.051.051-.1.08-.151a4.678,4.678,0,0,1,.128-3.207c-.706.5-1.554,1.109-2.227,1.579.012,1.273,0,3.02,0,4.273.5.451,1.084,1,1.648,1.521a26.424,26.424,0,0,0,9.738-.5Z" transform="translate(-206.476 -366.807)" fill="#b2b2b2"/>
      <path id="Path_790" data-name="Path 790" d="M221.506,509.389c-10.139-.26-9.88-.363-18.074.032a22.585,22.585,0,0,1-6.092-.44,11.551,11.551,0,0,1-3.33-1.26l2.316,2.867H229.5l1.458-1.8C229.824,509.147,227.27,509.536,221.506,509.389Z" transform="translate(-179.965 -470.968)" fill="#a5a5a5"/>
      <path id="Path_791" data-name="Path 791" d="M260.535,483.3h0c2.3-.1,4.834-.176,7.149-.227,2.259-.051,4.747-.085,7.016-.106.5-.461,1.107-1.029,1.693-1.571a15.8,15.8,0,0,1-7.17.243,5.532,5.532,0,0,1-2.27,1.173,5.166,5.166,0,0,1-1.236.153,4.722,4.722,0,0,1-3.231-1.261,5.9,5.9,0,0,1-3.706-.216,4.926,4.926,0,0,1-1.343-.66c-.683.2-1.446.439-2.349.688a26.426,26.426,0,0,1-9.738.5l1.019.948c2.271.02,4.758.055,7.016.106,2.315.049,4.842.122,7.149.227h0Z" transform="translate(-227.588 -446.025)" fill="#a5a5a5"/>
      <path id="Path_792" data-name="Path 792" d="M630.271,355.17h-3.994a3.079,3.079,0,0,1-.347,1,22.612,22.612,0,0,1,6.723,1.254l-2.383-2.256Z" transform="translate(-580.617 -329.462)" fill="#d8d8d8"/>
      <path id="Path_793" data-name="Path 793" d="M182.8,358.573c1.168-1.192,2.982-2.583,5.013-2.477,1.084.056,2.811.1,4.934.122a5.223,5.223,0,0,1-.273-1.048h-7.594l-3.079,2.916v1.63a13.641,13.641,0,0,1,1-1.142Z" transform="translate(-168.639 -329.462)" fill="#d8d8d8"/>
      <path id="Path_794" data-name="Path 794" d="M252.987,408.528s-6.25-.187-7.661,2.256c-.028.049-.056.1-.08.151-1.092,2.3.245,2.972,1.206,1.418a4.244,4.244,0,0,0,.355-.735c.919-2.439,6.179-3.09,6.179-3.09Z" transform="translate(-227.114 -378.954)" fill="#d8d8d8"/>
      <path id="Path_795" data-name="Path 795" d="M603.669,414.563a3.475,3.475,0,0,0,.688,1.174c.767.808,1.571.368,1.179-1.055a4.954,4.954,0,0,0-.305-.8c-.619-1.3-2.558-1.9-4.341-2.18a5.243,5.243,0,0,1,.143.695A4.456,4.456,0,0,1,603.669,414.563Z" transform="translate(-557.389 -381.899)" fill="#d8d8d8"/>
      <path id="Path_796" data-name="Path 796" d="M316.543,559.246c4,.577,3.379.073,10.345-.316,4.129-.23,5.7.063,6.3.34V557.34H312.55v1.744a12.043,12.043,0,0,1,3.992.162Z" transform="translate(-289.923 -516.996)" fill="#a5a5a5"/>
      <path id="Path_797" data-name="Path 797" d="M333.769,612.507a45.157,45.157,0,0,1-8.786-.927c-1.477.77-.752,2.215,3.548,2.215,5.242,0,14.621.26,14.337-.911a1.793,1.793,0,0,0-.906-1.01,32.324,32.324,0,0,1-8.193.631Z" transform="translate(-300.808 -567.31)" fill="#bfbfbf"/>
      <path id="Path_798" data-name="Path 798" d="M303.84,615.81c.349.911.51,2.755-3.9,2.755-5.862,0-17.587.245-18.966-.821a1.952,1.952,0,0,1-.874-1.807c-.052.041-.1.084-.151.13a1.9,1.9,0,0,0-.615,1.393,1.967,1.967,0,0,0,1.248,1.807h22.948a2.116,2.116,0,0,0,.639-.414,1.909,1.909,0,0,0,.615-1.393,1.94,1.94,0,0,0-.941-1.649Z" transform="translate(-259.108 -571.233)" fill="#a5a5a5"/>
      <path id="Path_799" data-name="Path 799" d="M341.4,612.191a32.36,32.36,0,0,0,8.193-.631c.511-.119.894-.232,1.158-.32H332.51l.1.025A45.155,45.155,0,0,0,341.4,612.191Z" transform="translate(-308.438 -566.994)" fill="#d8d8d8"/>
      <path id="Path_800" data-name="Path 800" d="M844.317,933.922c-.279,4.858-.015,8.733.924,7.481.982-1.31,2.019-7.387,2.588-11.188l.165-6.775a49.959,49.959,0,0,0-2.388,9.1c-.347,2.672-1.035,3.323-1.288,1.383Z" transform="translate(-783.096 -856.593)" fill="#efefef"/>
      <path id="Path_801" data-name="Path 801" d="M134.063,727.1h0s-2.744,3.021-17.261,3.021c-11.415,0-15.55-1.867-16.8-2.666a65.934,65.934,0,0,0-8.615,1.8c.512.061.413.788-.992,2.286a7.089,7.089,0,0,1,3.611-.767c4.178.068,12.345.419,17.8.669,2.765-.079,4.73-.1,4.992-.1h.009c.269,0,2.355.028,5.26.113,5.449-.25,13.744-.608,17.965-.677a7.922,7.922,0,0,1,2.808.4c-2.792-3.214,1.285-2.229,3.257,1.612,1.478,2.88,2.351,4.352,2.721,5.892l.066-2.722C147.258,727.3,134.063,727.1,134.063,727.1Z" transform="translate(-83.856 -674.467)" fill="#efefef"/>
      <path id="Path_802" data-name="Path 802" d="M92.229,1246a4.929,4.929,0,0,1-3.473,1.029,18.352,18.352,0,0,1-2.185-.151c-.987-.12-1.866-.23-2.642-.328-4.786-.6-6.767-.853-16.309-.853s-11.524.25-16.309.853c-.775.1-1.654.209-2.642.328a18.342,18.342,0,0,1-2.185.151A4.929,4.929,0,0,1,43.009,1246c-1.084-.961-1.583-2.579-1.813-5.187a14.054,14.054,0,0,1-1.724-1.429h0c-3.1-2-4.163,11.52,6.968,10.068a153.352,153.352,0,0,1,21.4-1.135,153.356,153.356,0,0,1,21.4,1.135c11.13,1.451,10.065-12.07,6.968-10.068h0c-.854.9-1.669,1.259-2.206,1.886-.248,2.341-.75,3.826-1.769,4.729Z" transform="translate(-34.672 -1149.474)" fill="#efefef"/>
      <path id="Path_803" data-name="Path 803" d="M590.288,726.933s-3.466-.007-8.058-.013A59.886,59.886,0,0,0,590.288,726.933Z" transform="translate(-540.08 -674.299)" fill="#efefef"/>
      <path id="Path_804" data-name="Path 804" d="M262.388,726.85c-1.679,0-2.98.009-3.683.018-.546.006-1.139.036-1.764.085C258.471,726.974,260.432,726.963,262.388,726.85Z" transform="translate(-238.339 -674.235)" fill="#efefef"/>
      <path id="Path_805" data-name="Path 805" d="M77.023,806.388c-.939,1.252-1.2-2.623-.924-7.481a32.1,32.1,0,0,1,.231-6.851c.977-8.815,1.275-9.756-2.141-13.4-.119-.127-.227-.247-.327-.362a7.954,7.954,0,0,0-2.808-.4c-4.221.069-12.516.427-17.965.677,6.819.2,18.156.733,21.14,2.1,2.863,1.309,2.23,5.71,1.353,11.8a86,86,0,0,0-1.142,12.482c0,3.607-.019,6.35-.237,8.423.537-.628,1.353-.983,2.206-1.887h0c3.1-2,4.163,11.52-6.968,10.068a153.4,153.4,0,0,0-21.4-1.135,153.4,153.4,0,0,0-21.4,1.135c-11.13,1.451-10.065-12.07-6.968-10.068h0a14.036,14.036,0,0,0,1.724,1.429c-.177-2.014-.193-4.618-.193-7.965a85.994,85.994,0,0,0-1.142-12.482c-.877-6.092-1.51-10.493,1.353-11.8,3.023-1.382,14.623-1.911,21.408-2.105-5.45-.25-13.618-.6-17.8-.669a7.08,7.08,0,0,0-3.611.767h0c-3.415,3.643-3.118,4.584-2.141,13.4,1.088,7.121,1.15,16.158-.216,14.335-1.451-1.937-3.026-14.306-3.026-14.306a87.123,87.123,0,0,0,.487,10.025c-.191-1.231.229,19.06.276,21.336.531.158,2.275.515,7.664.81,2.5-.731,9.924-2.5,23.358-2.5s19.532,1.826,21.519,2.59c7.185-.324,9.109-.769,9.581-.926l.686-28.218c-.569,3.8-1.607,9.878-2.588,11.188Z" transform="translate(-14.879 -721.578)" fill="#d8d8d8"/>
      <path id="Path_806" data-name="Path 806" d="M155.818,1383.83c-13.434,0-20.859,1.767-23.358,2.5,4.61.253,11.888.46,23.358.46,10.049,0,16.88-.159,21.519-.369C175.351,1385.656,169.208,1383.83,155.818,1383.83Z" transform="translate(-122.871 -1283.654)" fill="#bfbfbf"/>
      <path id="Path_807" data-name="Path 807" d="M14.162,680.438c.565-.2,1.171-.4,1.807-.591a1.749,1.749,0,0,1,.918-.269,65.8,65.8,0,0,1,8.615-1.8,2.457,2.457,0,0,1-.464-.355h0s1.182.063,2.914.085c.625-.049,1.218-.079,1.764-.085.7-.009,2.005-.014,3.683-.018a30.016,30.016,0,0,0,5.39-.712c3.434-.88,6.7.293,12.711.716l8.058.013s13.2.2,14.82,8.866l.136-5.6L56.906,673.54H27.688L10.08,680.679l.125,5.107c.533-2.114,1.643-4.526,3.957-5.349Z" transform="translate(-9.35 -624.784)" fill="#d8d8d8"/>
      <path id="Path_808" data-name="Path 808" d="M218.85,713.827a173.828,173.828,0,0,0,32.361-.167h0a60.132,60.132,0,0,1-8.058-.013c-6.014-.423-9.277-1.6-12.711-.716a30.008,30.008,0,0,1-5.39.712c-1.955.113-3.916.124-5.448.1-1.732-.023-2.914-.085-2.914-.085h0c.609.04,1.538.116,2.16.167Z" transform="translate(-201.003 -661.027)" fill="#bfbfbf"/>
      <path id="Path_809" data-name="Path 809" d="M233.95,730.121c14.516,0,17.259-3.02,17.261-3.021a83.212,83.212,0,0,1-15.088,1.546,99.063,99.063,0,0,1-17.3-1.18c-.6-.1-1.541-.256-2.136-.366a2.54,2.54,0,0,0,.464.355c1.247.8,5.381,2.666,16.8,2.666Z" transform="translate(-201.003 -674.467)" fill="#bfbfbf"/>
      <path id="Path_810" data-name="Path 810" d="M72.155,823.282A86.564,86.564,0,0,1,73.3,835.868q0,1.409.007,2.649c1.284,4.26,5.773,6.173,11.205,5.966,6.452-.246,12.583-2.5,26.939-1.367,9.828.773,12.758-2.909,13.629-5.308q0-.926,0-1.939a86.574,86.574,0,0,1,1.149-12.586c.832-5.781,1.433-9.956-.937-11.04a19.738,19.738,0,0,0-4.87-1.022c2.629.75,5.852,2.916,3.856,9.151-1.868,5.836-2,10.311-5.138,12.986a10.693,10.693,0,0,1-.956,3.1c-2.566,5.129-1.985,2.078-1.113-1.812-2.207,1-5.388,1.53-10.139,1.53-15.97,0-20.648,3.71-25,0a13.4,13.4,0,0,1-2.207-2.639c-.625,2.7-1.367.73-1.737-2.975-2.768-5.421-4.758-13.026-1.34-17.154a3.2,3.2,0,0,0-1.717-1.709,9.322,9.322,0,0,0-1.842.542c-2.371,1.084-1.769,5.26-.937,11.04Z" transform="translate(-66.248 -752.497)" fill="#c4def2"/>
      <path id="Path_811" data-name="Path 811" d="M802.625,758.81c.1.115.208.236.327.362,3.416,3.643,3.118,4.584,2.141,13.4a32.092,32.092,0,0,0-.231,6.851c.253,1.94.941,1.289,1.288-1.383a49.975,49.975,0,0,1,2.388-9.1l.064-2.626c-.37-1.541-1.242-3.012-2.721-5.892-1.972-3.841-6.048-4.825-3.257-1.612Z" transform="translate(-743.641 -702.092)" fill="#fff"/>
      <path id="Path_812" data-name="Path 812" d="M191.6,801.087c-7.1,2.98-4.2,12.766-5.169,19.246-.075.5-.152.917-.231,1.26a13.383,13.383,0,0,0,2.207,2.64c4.355,3.71,9.033,0,25,0,4.751,0,7.932-.528,10.139-1.53.275-1.227.579-2.537.822-3.7,1.015-4.855-1.444-13.481-1.444-13.481s3.78,9.062,2.689,15.89c3.134-2.675,3.27-7.15,5.138-12.986,2-6.234-1.226-8.4-3.856-9.151-3.995-.493-9.431-.775-13.8-.934-6.6.193-16.87.806-21.5,2.748Zm24.176,6.617a1.425,1.425,0,1,1,1.425,1.425A1.425,1.425,0,0,1,215.776,807.7Zm3.334-3.852a1.425,1.425,0,1,1,1.425,1.425A1.425,1.425,0,0,1,219.11,803.852Z" transform="translate(-172.72 -740.549)" fill="#d5e9fa"/>
      <path id="Path_813" data-name="Path 813" d="M135.7,1183.8c-14.357-1.13-20.487,1.121-26.939,1.367-5.432.207-9.922-1.706-11.205-5.966.04,5.568.289,8.661,1.756,9.961.927.822,2.4,1.026,5.091.7.986-.119,1.863-.229,2.638-.327,4.818-.607,6.811-.859,16.4-.859s11.582.251,16.4.859c.775.1,1.652.208,2.638.327,2.688.324,4.163.121,5.091-.7,1.528-1.354,1.735-4.653,1.76-10.671C148.462,1180.89,145.532,1184.571,135.7,1183.8Z" transform="translate(-90.497 -1093.179)" fill="#accfe5"/>
      <path id="Path_814" data-name="Path 814" d="M121.7,799c.989,1.989,1.282,5.516,1.131,10.374a53.491,53.491,0,0,0,.209,6.78c.371,3.706,1.113,5.677,1.737,2.975.079-.342.156-.76.231-1.26.968-6.48-1.936-16.265,5.169-19.246,4.627-1.942,14.9-2.555,21.5-2.748-4.118-.149-7.291-.188-7.429-.19-.326,0-17.667.216-24.262,1.6A3.207,3.207,0,0,1,121.7,799Z" transform="translate(-111.294 -738.091)" fill="#eef8ff"/>
      <path id="Path_815" data-name="Path 815" d="M692,897.5s2.458,8.626,1.444,13.481c-.243,1.164-.547,2.474-.822,3.7-.872,3.891-1.454,6.941,1.113,1.812a10.7,10.7,0,0,0,.956-3.1C695.784,906.561,692,897.5,692,897.5Z" transform="translate(-641.796 -832.531)" fill="#eef8ff"/>
      <path id="Path_816" data-name="Path 816" d="M642.225,857.659a1.425,1.425,0,1,0-1.425-1.425A1.425,1.425,0,0,0,642.225,857.659Z" transform="translate(-594.41 -792.931)" fill="#eef8ff"/>
      <path id="Path_817" data-name="Path 817" d="M596.175,910.869a1.425,1.425,0,1,0-1.425-1.425A1.425,1.425,0,0,0,596.175,910.869Z" transform="translate(-551.694 -842.289)" fill="#eef8ff"/>
      <path id="Path_818" data-name="Path 818" d="M62.217,799.732a86.005,86.005,0,0,1,1.142,12.482c0,3.347.016,5.951.193,7.965.229,2.608.729,4.226,1.813,5.187a4.929,4.929,0,0,0,3.473,1.029,18.535,18.535,0,0,0,2.185-.151c.987-.119,1.866-.23,2.642-.328,4.786-.6,6.767-.853,16.309-.853s11.524.25,16.309.853c.775.1,1.654.208,2.642.328a18.359,18.359,0,0,0,2.185.151,4.93,4.93,0,0,0,3.473-1.029c1.019-.9,1.522-2.388,1.769-4.729.219-2.073.237-4.816.237-8.423a86,86,0,0,1,1.142-12.482c.877-6.092,1.51-10.493-1.353-11.8-2.984-1.364-14.322-1.9-21.14-2.1-2.905-.085-4.99-.11-5.26-.113H89.97c-.261,0-2.227.026-4.992.1-6.786.194-18.385.723-21.408,2.105-2.863,1.309-2.23,5.71-1.353,11.8Zm3.5-11.686c6.594-1.387,23.935-1.6,24.262-1.6.138,0,3.311.041,7.429.19,4.373.158,9.809.44,13.8.934a19.7,19.7,0,0,1,4.87,1.022c2.371,1.084,1.769,5.26.937,11.04a86.566,86.566,0,0,0-1.149,12.586q0,1.013,0,1.939c-.025,6.017-.232,9.317-1.76,10.671-.928.822-2.4,1.026-5.091.7-.986-.119-1.863-.229-2.638-.327-4.818-.607-6.811-.859-16.4-.859s-11.582.251-16.4.859c-.775.1-1.652.208-2.638.327-2.688.324-4.163.121-5.091-.7-1.467-1.3-1.716-4.393-1.756-9.961q-.009-1.241-.007-2.649a86.573,86.573,0,0,0-1.149-12.586c-.832-5.781-1.433-9.956.937-11.04a9.265,9.265,0,0,1,1.842-.542Z" transform="translate(-57.027 -728.843)"/>
      <path id="Path_819" data-name="Path 819" d="M218.816,727.456a99.068,99.068,0,0,0,17.3,1.18A83.139,83.139,0,0,0,251.2,727.09h0a173.828,173.828,0,0,1-32.361.167c-.622-.051-1.551-.127-2.16-.167h0c.594.11,1.541.266,2.136.366Z" transform="translate(-200.994 -674.457)"/>
      <path id="Path_820" data-name="Path 820" d="M300.341,35.353c.891-.884,3.267-1.173,3.61-1.21.1-.051.2-.1.3-.145-.07.044-.14.089-.209.135a2.546,2.546,0,0,1,1.833.908c-3.741.809-4.693,3.263-4.935,4.54a4.49,4.49,0,0,0,.2.907c2.481,2.881,6.828-.6,6.828-.6s-.2,2.71,2,3.172,2.416-2.835,2.416-2.835c3.278.406,3.751-3.187,3.507-4.606a3.382,3.382,0,0,0-.936-.7,3.3,3.3,0,0,0-.479-.19,2.52,2.52,0,0,1-.119.407,2.338,2.338,0,0,1-2.489,1.518,2.461,2.461,0,0,0,1.3-4.045,2.55,2.55,0,0,0-.479-.4,2.116,2.116,0,0,1-.766.556,4.065,4.065,0,0,1-3.722-.125s2.469.095,3.366-1.325a3.969,3.969,0,0,0,.046-3.326c1.422.256,2.116,2.467,1.328,3.861a2.384,2.384,0,0,1,.372.181,4.887,4.887,0,0,1,1.99,1.575l20.8,1.409.374-.038-16.312-5.151a.384.384,0,0,1-.1-.05,5.747,5.747,0,0,1-2.419,1.343c-.045.027-.09.054-.138.077a2.338,2.338,0,0,1-2.874-.491,2.837,2.837,0,0,0,.446.169c.486.009,1.636-.075,1.918-1.04.361-1.233-.953-2.332-.953-2.332s2.133-.316,2.12-1.919a1.825,1.825,0,0,0-1.358-1.879,3.635,3.635,0,0,0,2.132-3.093,3.057,3.057,0,0,0-1.032-2.569l-.106,0a3.211,3.211,0,0,0-.775.14.362.362,0,0,1-.468-.379,2.694,2.694,0,0,0,.007-.4,2.653,2.653,0,0,0-.857-1.812c-1.837-.924-3.67.344-3.328,1.091a3.34,3.34,0,0,1,.128,1.921c.044.109.084.22.117.333a5.7,5.7,0,0,0-1.815-1.536.4.4,0,0,1-.056-.021,3.226,3.226,0,0,0-1.5-.312l-.125.006a3.228,3.228,0,0,0-2.991,3.4,3.194,3.194,0,0,0,.8,1.945.362.362,0,0,1-.229.6,5.987,5.987,0,0,1-2.363.978c-2.265.6-3.231,2.833-3.607,4.119a4.529,4.529,0,0,0,.141.854.363.363,0,0,1-.2.425,4.738,4.738,0,0,0-2.638,3.705,5.239,5.239,0,0,0,.047,1.808,1.438,1.438,0,0,0,2.249.448Z" transform="translate(-276.414 -14.165)" fill="#ededed"/>
      <path id="Path_821" data-name="Path 821" d="M353.766,246.831a2.49,2.49,0,0,1,.924.979,2.607,2.607,0,0,1,.272,1.5,2.9,2.9,0,0,1,1.71.625,3.162,3.162,0,0,1,.975,3.581,2.919,2.919,0,0,1-3.009,1.91,3.038,3.038,0,0,0,1.7-5.012c.245,1.419-.229,5.012-3.507,4.606,0,0-.216,3.3-2.417,2.835s-2-3.172-2-3.172-4.347,3.479-6.828.6a4.08,4.08,0,0,0,2.112,2.441,4.305,4.305,0,0,0,1.4.331l.077.006h.029a.347.347,0,0,1,.062.007.7.7,0,0,1,.5.248.944.944,0,0,1,.148.686c-.03.319-.09.593-.127.9a3.859,3.859,0,0,0,.186,1.891,4.892,4.892,0,0,0,3.5,2.277,5.127,5.127,0,0,0,2.27-.174.351.351,0,0,1,.109-.017.361.361,0,0,1,.237.09,3.742,3.742,0,0,0,1.578-1.012,4.838,4.838,0,0,0,.547-.687,4.9,4.9,0,0,0,.429-.777,4.617,4.617,0,0,1-1.461,2.255,3.474,3.474,0,0,1-.791.5,4,4,0,0,0,.36.271,4.1,4.1,0,0,0,3.3.537,4.937,4.937,0,0,0,2.92-2.092,4.625,4.625,0,0,0-.39-5.856.362.362,0,0,1,.336-.611,2.376,2.376,0,0,0,1.67-4.405.362.362,0,0,1,.136-.678l15.827-1.595-20.8-1.409a4.887,4.887,0,0,0-1.99-1.575Zm.119,11.739a2.445,2.445,0,0,1-1.326,1.593,2.609,2.609,0,0,1-2.13.036,2.338,2.338,0,0,1-1.42-2.546,2.461,2.461,0,0,0,3.99,1.455,2.783,2.783,0,0,0,.889-1.54A2.034,2.034,0,0,1,353.885,258.569Z" transform="translate(-316.861 -228.965)" fill="#d3d3d3"/>
      <path id="Path_822" data-name="Path 822" d="M443.554,194.759a2.152,2.152,0,0,1,.347.1c.788-1.394.093-3.605-1.328-3.861a3.969,3.969,0,0,1-.046,3.326c-.9,1.42-3.366,1.325-3.366,1.325a4.065,4.065,0,0,0,3.722.125,2.122,2.122,0,0,0,.766-.556,2.962,2.962,0,0,0-1.1-.426,2.043,2.043,0,0,1,1-.035Z" transform="translate(-407.368 -177.177)" fill="#d3d3d3"/>
      <path id="Path_823" data-name="Path 823" d="M301.774,279.838c.017-.07.035-.14.055-.209a5.915,5.915,0,0,1,2.3-2.92,3.391,3.391,0,0,1,1.16-.692l.013-.007c-.342.038-2.718.326-3.61,1.21a1.439,1.439,0,0,1-2.249-.448A4.131,4.131,0,0,0,301.774,279.838Z" transform="translate(-277.762 -256.033)" fill="#d3d3d3"/>
      <path id="Path_824" data-name="Path 824" d="M343,276.67a2.545,2.545,0,0,0-1.833-.908,6.893,6.893,0,0,0-3.1,3.76c-.023.1-.043.209-.059.313a.358.358,0,0,1,.067.258,4.608,4.608,0,0,0-.008,1.116c.242-1.276,1.194-3.73,4.935-4.54Z" transform="translate(-313.54 -255.796)" fill="#fff"/>
      <path id="Path_825" data-name="Path 825" d="M365.32,276.1a3.384,3.384,0,0,0-1.16.692A8.91,8.91,0,0,1,365.32,276.1Z" transform="translate(-337.797 -256.116)" fill="#fff"/>
      <path id="Path_826" data-name="Path 826" d="M488.6,251.226a2.919,2.919,0,0,0,3.009-1.91,3.16,3.16,0,0,0-.975-3.581,2.9,2.9,0,0,0-1.71-.625,2.613,2.613,0,0,0-.272-1.5,2.49,2.49,0,0,0-.924-.979,2.386,2.386,0,0,0-.372-.181,2.149,2.149,0,0,0-.348-.1,2.034,2.034,0,0,0-1,.035,2.96,2.96,0,0,1,1.1.426,2.52,2.52,0,0,1,.479.4,2.461,2.461,0,0,1-1.3,4.045,2.338,2.338,0,0,0,2.489-1.518,2.475,2.475,0,0,0,.119-.407,3.327,3.327,0,0,1,.478.19,3.383,3.383,0,0,1,.936.7,3.038,3.038,0,0,1-1.7,5.012Z" transform="translate(-450.826 -224.761)"/>
      <path id="Path_827" data-name="Path 827" d="M447.485,396.69a2.461,2.461,0,0,1-3.99-1.455,2.338,2.338,0,0,0,1.42,2.546,2.609,2.609,0,0,0,2.13-.036,2.443,2.443,0,0,0,1.326-1.593,2.041,2.041,0,0,0,0-1A2.787,2.787,0,0,1,447.485,396.69Z" transform="translate(-411.346 -366.548)"/>
      <path id="Path_828" data-name="Path 828" d="M532.21,176.888a2.368,2.368,0,0,0-.428-.956A2.038,2.038,0,0,0,531,175.3a2.789,2.789,0,0,1,.642,1.659,2.431,2.431,0,0,1-3.19,2.364,2.764,2.764,0,0,1-.446-.169,2.338,2.338,0,0,0,2.874.491c.047-.024.093-.051.138-.077a2.578,2.578,0,0,0,1.189-2.68Z" transform="translate(-489.786 -162.613)"/>
      <path id="Path_829" data-name="Path 829" d="M925.453,1095.208c1.638-1.035.86-6.064.86-6.064a5.56,5.56,0,0,1-1.629-2.721c-.025-.069-.048-.138-.067-.209-1.693.761-4.171-.3-4.293-1.971,0,0,2.082,1.2,3.815.347s1.921-3.7,1.921-3.7a4.683,4.683,0,0,1-.3,4.278A2.447,2.447,0,0,1,925,1086a2.811,2.811,0,0,0,5.214-.42,2.7,2.7,0,0,1-2.05,2.617,2.8,2.8,0,0,1-.492.087,3.664,3.664,0,0,0,.783,1.751c1.524.48,5.855.438,5.783-3.436,0,0,3.8.149,3.537-2.427s-3.391-2.674-3.391-2.674,4.606-4.66,1.407-7.85a5.127,5.127,0,0,0-.73-.247c-1.418.073-4.541.751-5.977,5.118a2.924,2.924,0,0,1-.818-2.213c-.061.076-.122.153-.181.229.064-.109.132-.216.2-.323.078-.363.7-3.076,1.821-4a1.685,1.685,0,0,0-.367-2.724,6.1,6.1,0,0,0-1.944-.232,5.509,5.509,0,0,0-4.6,2.6.362.362,0,0,1-.444.159,5.239,5.239,0,0,0-.83-.239c-1.484.247-4.306,1.054-5.3,3.661a6.088,6.088,0,0,1-1.48,2.642.361.361,0,0,1-.6.1,3.729,3.729,0,0,0-2.163-1.162,3.767,3.767,0,0,0-4.245,4.689c.01.035.019.072.03.106,0,.014.009.028.014.043a6.11,6.11,0,0,0,1.656,2.455q-.178-.081-.35-.176a3.855,3.855,0,0,1-2.2-.376c-.836-.494-2.576,1.571-1.577,3.856a3.115,3.115,0,0,0,1.892,1.077,3.253,3.253,0,0,0,.473.041.362.362,0,0,1,.328.5,3.745,3.745,0,0,0-.256.882c0,.02,0,.04-.008.06a3.5,3.5,0,0,0,2.862,1.559,4.186,4.186,0,0,0,3.8-2.07,2.1,2.1,0,0,0,1.988,1.781c1.834.207,2.453-2.2,2.453-2.2s1.1,1.636,2.556,1.372c1.173-.214,1.387-1.594,1.425-2.12a3.363,3.363,0,0,0-.143-.482,2.7,2.7,0,0,1,.174,3.32l0,.007a6.554,6.554,0,0,1-1.929,2.817l0,.006a5.149,5.149,0,0,0,.335.547c.935.495,2.657,1.206,3.8.484Zm-7-9.857a3.441,3.441,0,0,1-4.575,1.778,3.356,3.356,0,0,1-2.582-4.2,3.437,3.437,0,0,1,3.14-2.575,2.946,2.946,0,0,1,1.341.256,4.011,4.011,0,0,0-1.294.1,3.316,3.316,0,0,0-2.559,3.7,3.412,3.412,0,0,0,3.809.865c2.538-1.045,1.441-4.639,1.441-4.639s2.758,1.223,1.279,4.717Z" transform="translate(-839.86 -991.853)" fill="#ededed"/>
      <path id="Path_830" data-name="Path 830" d="M1138.057,1151.378a2.791,2.791,0,0,0,5.35-1.411.362.362,0,0,1,.642-.271,5.38,5.38,0,0,0,6.727,1.165,5.737,5.737,0,0,0,2.773-3.122,4.689,4.689,0,0,0-.523-4.376,4.276,4.276,0,0,1-.695.906,5.333,5.333,0,0,1-2.742,1.417,5.917,5.917,0,0,0,1.8-.929,4.3,4.3,0,0,0,1.383-1.724.008.008,0,0,1,0,0,.361.361,0,0,1-.037-.353,5.946,5.946,0,0,0,.477-2.6,5.681,5.681,0,0,0-2.24-4.349,3.9,3.9,0,0,0-1.183-.369,6.643,6.643,0,0,0-1.461-.039c-.566.037-1.4.1-1.472-.675a.7.7,0,0,1,0-.1.327.327,0,0,1,0-.067l0-.025a5.823,5.823,0,0,0-.053-1.061,4.34,4.34,0,0,0-2.849-3.5c3.2,3.191-1.407,7.85-1.407,7.85s3.127.1,3.391,2.673-3.537,2.427-3.537,2.427c.072,3.875-4.259,3.917-5.783,3.436a3.5,3.5,0,0,0,6.032-1.323,3.43,3.43,0,0,1-3.681,3.276,3.545,3.545,0,0,1-3.322-2.995,3.256,3.256,0,0,1-.016-.7,2.932,2.932,0,0,1-2.538-1.357,2.819,2.819,0,0,1-.25-.512,5.56,5.56,0,0,0,1.629,2.721s.778,5.03-.86,6.064c-1.145.722-2.867.011-3.8-.484a4.938,4.938,0,0,0,2.943,2.138c1.446.279,3.036-.344,4.728-1.852a.362.362,0,0,1,.576.133Zm8.175-7.288a2.814,2.814,0,0,0-.362-5.325,2.7,2.7,0,0,1,2.7,1.946,2.944,2.944,0,0,1-1.132,3.281,2.748,2.748,0,0,1-1.107.441,2.4,2.4,0,0,1-1.141-.09,3.461,3.461,0,0,0,1.045-.253Z" transform="translate(-1048.019 -1048.088)" fill="#d3d3d3"/>
      <path id="Path_831" data-name="Path 831" d="M957.687,1338.064a2.945,2.945,0,0,1-3.261,1.169,2.745,2.745,0,0,1-1.037-.586,2.39,2.39,0,0,1-.646-.945,3.455,3.455,0,0,0,.853.656,2.794,2.794,0,0,0,4.064-3.139c-.038.526-.252,1.907-1.425,2.12-1.455.264-2.556-1.372-2.556-1.372s-.618,2.4-2.453,2.2a2.1,2.1,0,0,1-1.988-1.781,4.185,4.185,0,0,1-3.8,2.07,3.5,3.5,0,0,1-2.862-1.559,3.768,3.768,0,0,0,6.723,2.832.362.362,0,0,1,.645.165,2.792,2.792,0,0,0,5.177.974.362.362,0,0,1,.313-.181h.012a.362.362,0,0,1,.309.195,6.554,6.554,0,0,0,1.929-2.817Z" transform="translate(-874.305 -1238.563)" fill="#d3d3d3"/>
      <path id="Path_832" data-name="Path 832" d="M1000.769,1226.421s1.1,3.594-1.441,4.639a3.413,3.413,0,0,1-3.809-.865,3.537,3.537,0,0,0,2.132,2.745c-.06-.007-.12-.015-.179-.024a3.441,3.441,0,0,0,4.575-1.778c1.479-3.495-1.279-4.717-1.279-4.717Z" transform="translate(-923.451 -1137.639)" fill="#d3d3d3"/>
      <path id="Path_833" data-name="Path 833" d="M1115.827,1233.8a3.434,3.434,0,0,0,.212,1.055c.037.093.078.181.121.267a2.445,2.445,0,0,0,.752-.826,4.683,4.683,0,0,0,.3-4.278s-.188,2.839-1.921,3.695-3.815-.347-3.815-.347c.123,1.669,2.6,2.733,4.293,1.971a2.651,2.651,0,0,1-.08-.4,2.392,2.392,0,0,1,.135-1.137Z" transform="translate(-1031.016 -1140.978)" fill="#d3d3d3"/>
      <path id="Path_834" data-name="Path 834" d="M1223.361,1075.2c-1.126.919-1.743,3.633-1.821,4l.006-.011a4.211,4.211,0,0,1,1.1-1.414,6.478,6.478,0,0,1,3.766-2.132,4.833,4.833,0,0,0-3.419-3.162,1.685,1.685,0,0,1,.367,2.724Z" transform="translate(-1133.109 -994.843)" fill="#d3d3d3"/>
      <path id="Path_835" data-name="Path 835" d="M1039.863,1106.4c.995-2.607,3.817-3.414,5.3-3.661a5.914,5.914,0,0,0-3.271.294c-2.576.977-4.109,3.51-3.492,5.767a.364.364,0,0,1-.018.242A6.087,6.087,0,0,0,1039.863,1106.4Z" transform="translate(-963.101 -1022.807)" fill="#fff"/>
      <path id="Path_836" data-name="Path 836" d="M901.718,1253.408a3.856,3.856,0,0,0,2.2.376,4.459,4.459,0,0,1-1.679-1.643,3.15,3.15,0,0,0-2.794,2.612,3.118,3.118,0,0,0,.694,2.512C899.141,1254.978,900.882,1252.913,901.718,1253.408Z" transform="translate(-834.294 -1161.497)" fill="#fff"/>
      <path id="Path_837" data-name="Path 837" d="M1221.61,1128.259c1.436-4.368,4.559-5.045,5.978-5.118a5.343,5.343,0,0,0-1.465-.167h-.009a.361.361,0,0,1-.241-.093c-.136.007-.272.018-.408.035a7.912,7.912,0,0,0-4.672,3.131,2.924,2.924,0,0,0,.818,2.213Z" transform="translate(-1132.382 -1041.595)" fill="#fff"/>
      <path id="Path_838" data-name="Path 838" d="M1221.62,1147.035a10.093,10.093,0,0,1,1.1-1.415A4.2,4.2,0,0,0,1221.62,1147.035Z" transform="translate(-1133.183 -1062.689)" fill="#fff"/>
      <path id="Path_839" data-name="Path 839" d="M105.948,95.485a5.4,5.4,0,0,0-.481-.759,6.725,6.725,0,0,0,.229-4.183,6.106,6.106,0,0,0-.431-1.34,4.386,4.386,0,0,0-1.766-2.011,5.448,5.448,0,0,0-3.583-1.168c-.111,0-.224.012-.336.025,0-.082,0-.163,0-.244a5.015,5.015,0,0,0-.91-2.681,31.164,31.164,0,0,0,1.112-10.832c-.192-3.27-1.523-6.886-3.958-10.746a58.364,58.364,0,0,0-7.83-9.609,96.912,96.912,0,0,0-10.926-9.477V27.691c0-1.558-4.021-2.083-5.565-2.228l-1.179-2.39a4.661,4.661,0,0,0,2.313-2.355c3.562.09,4.328,2.175,4.42,2.479.016,1.757.82,2.448,3.051,2.632a5.56,5.56,0,0,1,2.256.909,18.022,18.022,0,0,0,7.716,2.473,16.308,16.308,0,0,0,1.858.106,15.836,15.836,0,0,0,7.373-1.79,10.281,10.281,0,0,0,5.286-5.836,9.4,9.4,0,0,0-.886-7.638c-1.571-2.571-4.429-4.3-8.266-4.992-6.035-1.092-10.289,1.194-13.1,2.708a9.257,9.257,0,0,1-2.69,1.166,2.561,2.561,0,0,0-2.6,2.537c-.876,1.436-3.339,1.93-4.206,2.062A4.638,4.638,0,0,0,70.7,14.791a1.676,1.676,0,0,0,.017-.226,2.411,2.411,0,0,0-4.73,0,1.676,1.676,0,0,0,.017.226,4.675,4.675,0,0,0,.383,8.283l-1.213,2.461c-1.615.193-4.883.757-4.883,2.156V42.534c0,.012,0,.023,0,.035a97.664,97.664,0,0,0-8.529,7.17l-4.006-1.625a.368.368,0,0,0-.136-.027h-1.96a2.613,2.613,0,0,0,.73-1.807,2.733,2.733,0,0,0-2.406-2.671V40.4H49.7a.361.361,0,0,0,.282-.135l3.389-4.2a.362.362,0,0,0,.08-.227V28.524a.361.361,0,0,0-.113-.263l-3.3-3.122a.362.362,0,0,0-.249-.1H45.688a3.083,3.083,0,0,0-.846-1.911l17.043-1.717a.362.362,0,0,0,.072-.705L44.716,15.262a3.1,3.1,0,0,0-.533-5.14,3.95,3.95,0,0,0-3.3-6.851.139.139,0,0,0,0-.017,3.394,3.394,0,0,0-6.632-.8,3.956,3.956,0,0,0-1.517-.211c-.041,0-.083.007-.124.01H32.6c-.052,0-.1.01-.154.017l-.063.009-.119.02-.075.014c-.044.009-.088.018-.132.029l-.041.009a3.955,3.955,0,0,0-2.586,5.62,4.563,4.563,0,0,0-2.5.41A5.915,5.915,0,0,0,23.7,14.75a5.526,5.526,0,0,0-2.79,4.132,5.2,5.2,0,0,0,2.875,5.671c-.012.163-.017.325-.014.486H16.093a.362.362,0,0,0-.249.1l-3.3,3.122a.361.361,0,0,0-.113.263v7.318a.362.362,0,0,0,.08.227l3.389,4.2a.361.361,0,0,0,.282.135H21.9v3.212a2.874,2.874,0,0,0-1.564.751,2.621,2.621,0,0,0-.841,1.919,2.571,2.571,0,0,0,.722,1.807H18.264a.354.354,0,0,0-.136.027L.225,55.371A.362.362,0,0,0,0,55.716l1.129,46.418a.366.366,0,0,0,.078.216c.252.318,1.8.6,4.608.848,3.723.326,11.453.715,27.132.715,11.463,0,18.676-.208,23.182-.447,3.248.1,7.385.142,12.627.142,2.718,0,5.138-.011,7.291-.035a3.514,3.514,0,0,0,4.8-.09l.439-.013a5.537,5.537,0,0,0,3.307,2.3,4.345,4.345,0,0,0,.828.08,6.662,6.662,0,0,0,4.166-1.794,3.516,3.516,0,0,0,6.5-1.213c0-.021.007-.042.009-.063a6.207,6.207,0,0,0,6.995.686,6.462,6.462,0,0,0,3.119-3.518,5.5,5.5,0,0,0-.262-4.464ZM89.461,103.21c-1.692,1.508-3.282,2.131-4.728,1.853a4.938,4.938,0,0,1-2.943-2.138,5.062,5.062,0,0,1-.335-.547l0-.007a.361.361,0,0,0-.309-.195h-.012a.363.363,0,0,0-.313.181,2.792,2.792,0,0,1-5.177-.974.362.362,0,0,0-.645-.165,3.768,3.768,0,0,1-6.723-2.832c0-.02.005-.04.008-.06a3.777,3.777,0,0,1,.256-.882.361.361,0,0,0-.328-.5,3.265,3.265,0,0,1-.473-.041,3.134,3.134,0,0,1-2.586-3.589A3.149,3.149,0,0,1,67.944,90.7a4.458,4.458,0,0,0,1.68,1.643q.172.1.35.176a6.109,6.109,0,0,1-1.656-2.455c0-.014-.009-.028-.014-.043-.011-.035-.02-.071-.03-.106a3.767,3.767,0,0,1,4.245-4.689,3.732,3.732,0,0,1,2.163,1.162.362.362,0,0,0,.615-.341c-.618-2.257.916-4.79,3.492-5.767a5.914,5.914,0,0,1,3.271-.294,5.233,5.233,0,0,1,.83.239.362.362,0,0,0,.444-.159,5.51,5.51,0,0,1,4.6-2.6,6.124,6.124,0,0,1,1.944.232A4.834,4.834,0,0,1,93.3,80.854a6.476,6.476,0,0,0-3.766,2.132,10.111,10.111,0,0,0-1.1,1.415l-.007.011q-.1.161-.2.324c.059-.077.119-.153.181-.229a7.911,7.911,0,0,1,4.672-3.131c.136-.017.273-.028.408-.035a.36.36,0,0,0,.241.093h.009a5.294,5.294,0,0,1,2.195.414,4.777,4.777,0,0,1,2.686,2.777,4.716,4.716,0,0,1,.164.726,5.836,5.836,0,0,1,.054,1.061l0,.025a.418.418,0,0,0,0,.067,1,1,0,0,0,0,.1c.075.772.906.712,1.472.675a6.645,6.645,0,0,1,1.461.039,3.9,3.9,0,0,1,1.183.369,5.681,5.681,0,0,1,2.241,4.349,5.945,5.945,0,0,1-.477,2.6.361.361,0,0,0,.037.353.01.01,0,0,1,0,0,4.311,4.311,0,0,1-1.383,1.724,5.947,5.947,0,0,1-1.8.929,5.332,5.332,0,0,0,2.742-1.417,4.276,4.276,0,0,0,.695-.906,4.577,4.577,0,0,1,.3.494,4.783,4.783,0,0,1,.222,3.882,5.739,5.739,0,0,1-2.773,3.122,5.379,5.379,0,0,1-6.727-1.165.362.362,0,0,0-.642.271,2.791,2.791,0,0,1-3.216,3.1,2.776,2.776,0,0,1-2.133-1.693.362.362,0,0,0-.576-.132ZM.927,64.134.852,61.055.728,55.948l17.608-7.139H47.554l17.608,7.139-.136,5.6-.066,2.722L64.9,66.9l-.165,6.775-.686,28.218c-.471.157-2.4.6-9.581.926-4.639.209-11.469.369-21.519.369-11.47,0-18.748-.208-23.358-.46-5.39-.3-7.133-.652-7.664-.81l-.077-.024L1,67.018l-.07-2.883ZM16.239,25.761h7.594a5.173,5.173,0,0,0,.273,1.048,5.034,5.034,0,0,0,.541,1.047l-.686-.013c-1.656-.032-3.735-.056-5.391-.071a.328.328,0,0,0-.191.06c-.471.324-.945.644-1.415.972l-1.409.979a.357.357,0,0,0-.15.267c0,.007,0,.014,0,.022,0,.8-.012,2.684-.006,3.46l0,1.153a.353.353,0,0,0,.115.262l.462.418c.792.72,1.738,1.593,2.449,2.216a.323.323,0,0,0,.219.083l1.787-.018c1.7-.017,3.657-.052,5.361-.089,2.314-.053,4.845-.119,7.149-.227h0c-2.306-.1-4.834-.177-7.149-.227-2.259-.051-4.746-.086-7.016-.106l-1.019-.948c-.563-.524-1.152-1.07-1.648-1.521,0-1.252.012-3,0-4.273.673-.471,1.521-1.077,2.227-1.579l.338-.24,2.588-.026c1.242-.019,2.5-.04,3.759-.065a4.441,4.441,0,0,0,2.7,1.486c.053.008.106.014.16.02q-.024.119-.041.239a4.776,4.776,0,0,0,.679,3.21,3.47,3.47,0,0,0,.218.409,4.038,4.038,0,0,0,.443.572,4.258,4.258,0,0,0,.66.577,4.9,4.9,0,0,0,1.343.66,5.9,5.9,0,0,0,3.706.216A4.722,4.722,0,0,0,38.126,37a5.162,5.162,0,0,0,1.236-.153,5.536,5.536,0,0,0,2.27-1.173,5.884,5.884,0,0,0,.975-1.071c.035-.05.071-.1.1-.151a5.7,5.7,0,0,0,.928-3.9,5.234,5.234,0,0,0-.143-.695,4.928,4.928,0,0,0-.681-1.472c.8.013,1.662.025,2.5.035.657.008,1.3.014,1.895.02.76.539,1.775,1.271,2.566,1.82-.009,1.268,0,3.024,0,4.272-.3.273-.632.581-.975.9-.586.542-1.2,1.11-1.693,1.571-2.27.02-4.758.054-7.016.106-2.314.051-4.845.122-7.149.227h0c2.306.108,4.834.172,7.149.227,1.7.037,3.66.072,5.361.089l1.787.018a.328.328,0,0,0,.22-.083c.123-.109.254-.224.389-.345.8-.72,1.779-1.627,2.521-2.288a.352.352,0,0,0,.115-.262l0-1.153c.006-.786,0-2.647-.006-3.46a.352.352,0,0,0-.151-.29l-.212-.148-1.2-.832c-.469-.327-.943-.648-1.415-.972a.323.323,0,0,0-.191-.06c-.9.007-1.926.019-2.941.033a3.125,3.125,0,0,0,.932-1.04,3.066,3.066,0,0,0,.347-1h3.994l2.383,2.256.7.66v7.034l-1.742,2.157-1.458,1.8H16.36l-2.316-2.867-.883-1.094V28.677l3.079-2.916Zm5.39-6.777a4.738,4.738,0,0,1,2.638-3.705.363.363,0,0,0,.2-.425A4.526,4.526,0,0,1,24.331,14a5.117,5.117,0,0,1,.557-2.649c1.066-2.115,3.367-3.2,5.238-2.47A.357.357,0,0,0,30.3,8.9a.362.362,0,0,0,.229-.6,3.192,3.192,0,0,1-.8-1.945,3.227,3.227,0,0,1,2.991-3.4l.125-.006a3.227,3.227,0,0,1,1.5.312.4.4,0,0,0,.056.021,5.684,5.684,0,0,1,1.815,1.536,3.428,3.428,0,0,0-.117-.333A3.8,3.8,0,0,0,34.878,2.9,2.689,2.689,0,0,1,37.34.777a2.652,2.652,0,0,1,1.929.674l.03.028a2.65,2.65,0,0,1,.857,1.812,2.694,2.694,0,0,1-.007.4.362.362,0,0,0,.468.379,3.247,3.247,0,0,1,.775-.14l.106,0a3.225,3.225,0,0,1,1.756,5.978.362.362,0,0,0,.1.66,2.377,2.377,0,0,1,.364,4.47.362.362,0,0,0-.062.625.353.353,0,0,0,.1.05l16.312,5.151-.374.038L43.862,22.5a.362.362,0,0,0-.136.678,2.376,2.376,0,0,1-1.67,4.405.362.362,0,0,0-.336.611,4.625,4.625,0,0,1,.39,5.856,4.935,4.935,0,0,1-2.92,2.092,4.11,4.11,0,0,1-3.3-.537,3.994,3.994,0,0,1-.36-.271,3.475,3.475,0,0,0,.791-.5,4.613,4.613,0,0,0,1.461-2.255,4.876,4.876,0,0,1-.429.777,4.983,4.983,0,0,1-.547.687,3.742,3.742,0,0,1-1.578,1.012.362.362,0,0,0-.237-.09.373.373,0,0,0-.109.017,5.115,5.115,0,0,1-2.27.174,4.892,4.892,0,0,1-3.5-2.277,3.859,3.859,0,0,1-.186-1.891c.035-.3.1-.578.127-.9a.944.944,0,0,0-.148-.686.708.708,0,0,0-.5-.248.433.433,0,0,0-.062-.007h-.029l-.077-.006a4.324,4.324,0,0,1-1.4-.331,4.084,4.084,0,0,1-2.112-2.441,4.54,4.54,0,0,1-.2-.907,4.607,4.607,0,0,1,.008-1.116.361.361,0,0,0-.067-.258c.017-.1.035-.208.059-.313a6.9,6.9,0,0,1,3.1-3.76l.209-.135q-.153.069-.3.145l-.013.007a8.907,8.907,0,0,0-1.16.692,5.918,5.918,0,0,0-2.3,2.92c-.02.069-.038.139-.055.209a4.128,4.128,0,0,1-2.334-3.066,5.258,5.258,0,0,1-.047-1.808ZM45.057,47.671a2.1,2.1,0,0,1-.639.414H21.47a1.967,1.967,0,0,1-1.248-1.807,1.9,1.9,0,0,1,.615-1.393c.049-.046.1-.089.151-.13a2.187,2.187,0,0,1,1.289-.455H22.3c.014,0,.03,0,.044,0H43.619a2.22,2.22,0,0,1,1.112.329,1.94,1.94,0,0,1,.941,1.649,1.9,1.9,0,0,1-.615,1.393ZM22.626,42.14V40.4h20.64v3.177H22.626V42.14ZM82.682,12.4c2.726-1.465,6.845-3.679,12.631-2.633,3.628.656,6.316,2.266,7.777,4.656a8.121,8.121,0,0,1,.465.881,8.252,8.252,0,0,1,.339.881c.046.146.09.293.128.442a8.935,8.935,0,0,1-.121,4.847,9.7,9.7,0,0,1-4.932,5.407,15.264,15.264,0,0,1-8.81,1.6,17.384,17.384,0,0,1-7.443-2.384,6.166,6.166,0,0,0-2.553-1c-2.07-.17-2.367-.719-2.385-1.83a5.987,5.987,0,0,0,1.672-4.312A5.411,5.411,0,0,0,78.5,16.3a5.9,5.9,0,0,0-.732-.89c0-.009,0-.017,0-.026.018-.431.235-1.54,1.953-1.727A9.485,9.485,0,0,0,82.681,12.4ZM87.91,76.735a6.3,6.3,0,0,0-5.047,2.709A6.754,6.754,0,0,0,75.2,82.338a5.188,5.188,0,0,0-.758,2.886,4.5,4.5,0,0,0-6.565,1.754,4.123,4.123,0,0,0-.414,1.386,4.542,4.542,0,0,0,.091,1.654,3.822,3.822,0,0,0-2.537,1.671l.068-2.791.23-9.455.577-23.726a.363.363,0,0,0-.226-.345l-5.168-2.1-2.067-.838c2.141-1.652,4.027-2.623,5.27-2.623H73.807c2.369,0,7.07,3.525,11.43,8.573q.972,1.124,1.846,2.259c3.805,4.928,6.184,9.873,6.475,13.581q.02.253.033.5a18.871,18.871,0,0,1-.286,4.482,5.457,5.457,0,0,0-1.15-1.186,6.566,6.566,0,0,0-4.245-1.294Zm10.395,5.013q-.088.358-.186.716c-.056-.057-.112-.114-.171-.169s-.122-.113-.185-.168a5.917,5.917,0,0,0-3.749-1.42,4.588,4.588,0,0,0-.177-.518,19.5,19.5,0,0,0,.441-6.017A21.014,21.014,0,0,0,91.5,66.025a42.543,42.543,0,0,0-2.614-4.16c-.943-1.333-1.984-2.662-3.1-3.951-3.6-4.162-8.43-8.359-11.488-8.787a.362.362,0,0,0-.156-.036H63.366a.362.362,0,0,0-.156.036c-1.53.214-3.505,1.373-5.548,3l-3.636-1.474-1.236-.5-.285-.116.3-.279q.548-.508,1.081-.987c1.08-.972,2.1-1.849,3.02-2.611,1.7-1.416,3.043-2.432,3.7-2.922a4.914,4.914,0,0,0,2.313,1.053,28.245,28.245,0,0,0,11.521,0,4.633,4.633,0,0,0,2.373-1.12c.594.439,1.888,1.417,3.565,2.8,1.249,1.031,2.709,2.288,4.251,3.715.931.862,1.892,1.787,2.853,2.763.654.664,1.327,1.37,2,2.112,4.534,4.976,9.206,11.546,9.571,17.77a31.981,31.981,0,0,1-.75,9.415ZM64.633,26.638a.36.36,0,0,0,.013.344c.034.058.873,1.426,3.711,1.426s3.676-1.368,3.71-1.426a.362.362,0,0,0,.013-.344l-.2-.411a16.321,16.321,0,0,1,3.018.582c.054.017.106.034.158.052l.085.03c.946.336,1.2.658,1.2.8,0,.188-.434.649-2.075,1.057-.418.1-.878.194-1.367.271-.468.073-.963.134-1.48.182-.864.079-1.788.12-2.739.12-.85,0-1.677-.033-2.461-.1-.417-.033-.822-.075-1.21-.126a17.269,17.269,0,0,1-1.915-.35c-1.641-.408-2.075-.869-2.075-1.057a.278.278,0,0,1,.066-.156c.256-.337,1.3-.887,3.709-1.221l-.161.326Zm2.44-3.312.046.012.067.017c.038.01.076.019.114.028l.072.017.109.022c.056.011.112.02.169.029l.066.01.117.014.059.007.121.01.053,0,.127.007h.02l.1,0h.042l.143,0h.022l.126-.007.054,0,.119-.01.033,0,.028,0L69,23.461l.075-.012c.052-.008.1-.017.157-.027l.114-.022.071-.016.115-.028.066-.017.046-.012.79,1.6.9,1.825a1.918,1.918,0,0,1-.2.179,4.338,4.338,0,0,1-2.777.752c-.161,0-.313-.005-.458-.014a3.641,3.641,0,0,1-2.516-.916l.806-1.634.885-1.794Zm-6,5.429.048.028.042.024.05.028.044.023.054.028.046.023.056.028.048.022.059.027.051.022.061.026.054.022.064.025.055.022.067.025.056.021.07.025.058.02.073.025.06.02.077.025.061.019.082.025.061.018.088.025.059.017.1.028.051.014.157.04a20.793,20.793,0,0,0,3.356.5c.6.046,1.234.075,1.876.085.175,0,.351.005.528.005q.5,0,1-.016a23.442,23.442,0,0,0,4.763-.578l.156-.04.059-.016.093-.025.066-.019.081-.023.068-.02.074-.022.068-.022.069-.022.067-.022.066-.022.065-.023.063-.022.063-.023.06-.022.061-.024.058-.023.058-.024.056-.024.056-.025.053-.024.054-.025L76,28.911l.051-.025.049-.025.048-.025.047-.026.045-.025.045-.027.042-.025.009-.006V42.533c0,.187-.434.649-2.075,1.056a24.305,24.305,0,0,1-5.586.573,29.653,29.653,0,0,1-3.251-.172,18.228,18.228,0,0,1-2.334-.4,7.182,7.182,0,0,1-1.43-.489,2.864,2.864,0,0,1-.287-.161c-.264-.172-.358-.319-.358-.405V28.725l.01.007.04.024Zm9.2-6.465a3.958,3.958,0,0,1-.563.256,3.9,3.9,0,0,1-.674.178,4,4,0,0,1-.673.057,3.927,3.927,0,0,1-1.057-.144c-.1-.027-.194-.057-.29-.092a3.952,3.952,0,0,1-.743-7.068l.022.032.034.048c.02.027.04.054.061.08l.036.044c.025.029.05.056.077.084.01.011.02.022.03.032.037.037.076.073.117.108l.024.019c.033.028.067.055.1.081l.046.033c.03.021.059.041.09.061l.053.033.093.054.054.029c.035.018.07.035.106.051l.046.021q.078.034.159.063l.019.006c.048.017.1.033.146.046l.056.014.114.028.064.013.113.02.066.009c.041.005.081.009.122.012l.058.005c.06,0,.121.007.182.007s.122,0,.182-.007L68.6,16.5l.122-.012.066-.009.112-.02.065-.013.114-.028.057-.015q.073-.021.143-.046l.021-.007c.054-.019.106-.04.158-.062l.049-.022.1-.05.056-.03.09-.051.055-.034c.03-.019.058-.038.086-.058L69.946,16c.033-.025.065-.05.1-.077.009-.008.02-.015.03-.024.04-.034.078-.069.114-.106.012-.012.023-.025.035-.037s.049-.052.072-.079l.038-.047c.02-.025.04-.05.059-.076l.035-.051.022-.03a3.992,3.992,0,0,1,1.776,2.532,3.952,3.952,0,0,1-1.955,4.281Zm7.2-6.152a5.192,5.192,0,0,1,1.146,2.137,4.191,4.191,0,0,1,.114.734c.006.09.008.18.008.271a5.2,5.2,0,0,1-1.22,3.174,4.041,4.041,0,0,0-.733-.966A5.785,5.785,0,0,0,72.882,20a4.612,4.612,0,0,0,.111-1.757c.169-.026.384-.063.631-.116a6.8,6.8,0,0,0,3.846-1.991Zm-8.717,86.746c-2.128,0-4.044-.007-5.776-.021a3.606,3.606,0,0,0,1.709-.514.366.366,0,0,0,.078-.216l.014-.582.141-5.792a3.845,3.845,0,0,0,2.7,1.853l.081.012a4.613,4.613,0,0,0-.136.586,4.481,4.481,0,0,0,.928,3.526q.123.153.258.3h0a4.474,4.474,0,0,0,1.113.851H68.752Z" transform="translate(0.001 -0.053)"/>
      <path id="Path_840" data-name="Path 840" d="M1173.081,1285.769a2.705,2.705,0,0,0,2.05-2.617,2.811,2.811,0,0,1-5.214.42c-.043-.086-.084-.174-.121-.267a3.456,3.456,0,0,1-.212-1.055,2.394,2.394,0,0,0-.135,1.137,2.591,2.591,0,0,0,.08.4c.02.07.042.14.067.209a2.761,2.761,0,0,0,.25.512,2.933,2.933,0,0,0,2.538,1.357,3.312,3.312,0,0,0,.016.7,3.543,3.543,0,0,0,3.322,2.995,3.43,3.43,0,0,0,3.681-3.277,3.5,3.5,0,0,1-6.032,1.323,3.661,3.661,0,0,1-.783-1.751,2.8,2.8,0,0,0,.492-.087Z" transform="translate(-1084.774 -1189.428)"/>
      <path id="Path_841" data-name="Path 841" d="M1343.37,1258.173a2.733,2.733,0,0,0,1.107-.441,2.944,2.944,0,0,0,1.132-3.281,2.7,2.7,0,0,0-2.7-1.946,2.814,2.814,0,0,1,.362,5.324,3.436,3.436,0,0,1-1.045.253,2.392,2.392,0,0,0,1.141.09Z" transform="translate(-1245.061 -1161.828)"/>
      <path id="Path_842" data-name="Path 842" d="M986,1226.586a3.316,3.316,0,0,1,2.559-3.7,4,4,0,0,1,1.294-.1,2.949,2.949,0,0,0-1.341-.256,3.439,3.439,0,0,0-3.14,2.575,3.356,3.356,0,0,0,2.582,4.2c.059.009.119.017.179.024A3.538,3.538,0,0,1,986,1226.586Z" transform="translate(-913.933 -1134.03)"/>
      <path id="Path_843" data-name="Path 843" d="M1084.363,1332.172a3.441,3.441,0,0,1-.853-.656,2.388,2.388,0,0,0,.646.945,2.742,2.742,0,0,0,1.037.586,2.945,2.945,0,0,0,3.26-1.169l.005-.007a2.7,2.7,0,0,0-.174-3.32,3.421,3.421,0,0,1,.143.482,2.794,2.794,0,0,1-4.064,3.139Z" transform="translate(-1005.071 -1232.375)"/>
    </g>
  </g>
</svg>
