<svg xmlns="http://www.w3.org/2000/svg" width="27.642" height="27.781" viewBox="0 0 27.642 27.781">
  <path id="whatsapp_icon_138013" d="M15.926,2A13.775,13.775,0,0,0,3.995,22.641L2.05,29.781l7.292-1.917A13.768,13.768,0,1,0,15.926,2m.014,2.32a11.446,11.446,0,0,1-.014,22.891,11.255,11.255,0,0,1-5.82-1.6l-.417-.236L5.356,26.517l1.153-4.223-.278-.444A11.447,11.447,0,0,1,15.94,4.32M11.051,9.4a1.269,1.269,0,0,0-.917.431,3.943,3.943,0,0,0-1.208,2.875,6.889,6.889,0,0,0,1.389,3.556,15.442,15.442,0,0,0,5.9,5.181,15,15,0,0,0,1.959.736,4.759,4.759,0,0,0,2.167.139,3.529,3.529,0,0,0,2.32-1.639,2.894,2.894,0,0,0,.208-1.639c-.1-.139-.319-.222-.667-.375-.347-.194-2.042-1.028-2.347-1.139s-.514-.167-.778.167c-.222.347-.889,1.125-1.083,1.347s-.4.264-.736.1a9.4,9.4,0,0,1-2.778-1.709,10.51,10.51,0,0,1-1.917-2.389.527.527,0,0,1,.153-.695,4.586,4.586,0,0,0,.514-.611,2.024,2.024,0,0,0,.347-.57.637.637,0,0,0-.028-.6c-.083-.153-.778-1.875-1.07-2.556s-.556-.583-.778-.6C11.509,9.417,11.287,9.4,11.051,9.4Z" transform="translate(-2.05 -2)"/>
</svg>
